<svg width="52" height="52" viewBox="0 0 52 52" fill="none" xmlns="http://www.w3.org/2000/svg">
<path d="M33.4659 45.9676H34.205C34.205 45.1763 34.205 44.399 34.205 43.6197C34.205 43.4034 34.205 43.185 34.205 42.9687C34.2249 42.4799 34.4938 42.1914 34.9241 42.1894C35.0244 42.1838 35.1248 42.1992 35.2189 42.2346C35.313 42.27 35.3988 42.3246 35.4708 42.395C35.5429 42.4654 35.5997 42.55 35.6376 42.6436C35.6755 42.7372 35.6937 42.8376 35.691 42.9386C35.713 43.6057 35.691 44.2728 35.691 44.9419C35.691 46.5445 35.691 48.1471 35.6791 49.7498C35.6791 51.0679 34.9839 51.7631 33.6871 51.7731C33.3225 51.7731 32.956 51.7851 32.5914 51.7731C31.5277 51.727 30.8345 51.0098 30.8225 49.9441C30.8225 49.1428 30.8225 48.3415 30.8225 47.5221H10.9022C10.9022 48.25 10.9022 48.9778 10.9022 49.7057C10.9022 51.0813 10.2209 51.7717 8.85837 51.7771C8.49383 51.7771 8.1273 51.7911 7.76275 51.7771C7.52911 51.7746 7.29834 51.725 7.08407 51.6313C6.86979 51.5376 6.67636 51.4017 6.51518 51.2316C6.354 51.0615 6.22835 50.8606 6.14565 50.6409C6.06295 50.4211 6.02487 50.1869 6.03367 49.9521C6.03367 47.5482 6.01375 45.1442 6.03367 42.7403C6.05833 40.8432 6.62539 38.9933 7.66714 37.4115C7.86634 37.105 8.05558 36.7965 8.31255 36.3879C7.93805 36.3879 7.6512 36.3879 7.36435 36.3879C7.10545 36.4033 6.84615 36.3652 6.60247 36.2759C6.35879 36.1866 6.13592 36.048 5.94764 35.8686C5.75935 35.6892 5.60966 35.4729 5.5078 35.2331C5.40595 34.9932 5.3541 34.7349 5.35546 34.4741C5.35683 34.2132 5.41138 33.9555 5.51574 33.7167C5.6201 33.4779 5.77205 33.2632 5.9622 33.0858C6.15235 32.9085 6.37666 32.7722 6.62126 32.6855C6.86586 32.5988 7.12554 32.5634 7.38427 32.5816C8.16913 32.5816 8.97789 32.4374 9.7269 32.9823C10.0476 32.0247 10.3325 31.1212 10.6133 30.2218C11.1512 28.4989 12.1094 27.7938 13.9201 27.7938C16.2767 27.7938 18.6333 27.7938 20.9918 27.7938C21.3604 27.7938 21.5098 27.6876 21.5894 27.321C21.8345 26.097 22.3863 24.9972 23.0177 23.9314C23.193 23.631 23.3763 23.3305 23.6153 22.9498C21.952 23.064 20.7408 22.6393 20.7647 20.6701H5.93805C5.93805 21.4053 5.93805 22.1485 5.93805 22.8937C5.93805 24.2059 5.2508 24.897 3.94602 24.897C3.53168 24.897 3.11335 24.9151 2.701 24.881C1.81056 24.8069 1.10738 24.1538 1.09542 23.2623C1.0775 20.5599 1.06156 17.8535 1.15319 15.1531C1.21495 13.306 2.05957 11.6914 2.98785 10.1448L3.35837 9.52182C2.93008 9.52182 2.58546 9.53985 2.24483 9.52182C1.24881 9.45972 0.555583 8.65841 0.567535 7.58665C0.579487 6.51489 1.29263 5.7256 2.30658 5.72159C3.12331 5.72159 3.9759 5.53729 4.77471 6.12225C4.99781 5.42511 5.20897 4.77003 5.41813 4.11897C5.52969 3.77039 5.6273 3.41581 5.74682 3.06924C6.17909 1.80517 7.06554 1.10002 8.38228 0.959787C8.79569 0.923469 9.21127 0.91945 9.6253 0.947767C10.1134 0.971807 10.3683 1.25828 10.3584 1.71302C10.3484 2.16777 10.0914 2.42419 9.59343 2.44622C9.26275 2.46025 8.93008 2.44622 8.59741 2.44622C8.02769 2.47227 7.5018 2.69062 7.30857 3.23351C6.7508 4.79207 6.26275 6.38268 5.74682 7.99933H26.0317C25.8325 7.33824 25.6333 6.70521 25.4341 6.07217C25.1857 5.27085 24.9341 4.47689 24.6791 3.69026C24.3803 2.76074 23.9361 2.4342 22.956 2.4342C20.2335 2.4342 17.5111 2.4342 14.7887 2.4342C14.1711 2.4342 13.9042 2.23388 13.8763 1.75709C13.8444 1.23223 14.1512 0.931741 14.7568 0.927734C15.8863 0.927734 17.0138 0.927734 18.1432 0.927734C19.7528 0.927734 21.3624 0.927734 22.9739 0.927734C24.5855 0.927734 25.6213 1.69099 26.1173 3.24954C26.4141 4.18307 26.703 5.1186 27.0118 6.10422C27.8504 5.52928 28.7647 5.70356 29.6452 5.73161C30.5835 5.76767 31.2388 6.60905 31.2388 7.63874C31.2388 8.66842 30.5635 9.44169 29.6054 9.51581C29.2588 9.54386 28.9102 9.51581 28.456 9.51581C29.3942 11.0664 30.2767 12.5628 30.5795 14.3598H43.0934C44.9022 14.3598 45.8624 15.0649 46.4042 16.7837C46.689 17.6872 46.9759 18.5867 47.2787 19.5382C48.1293 18.9373 49.0596 19.0995 49.95 19.1656C50.9042 19.2357 51.6034 20.1673 51.5576 21.1369C51.5322 21.6068 51.3352 22.0507 51.0043 22.3834C50.6734 22.7162 50.232 22.9143 49.7647 22.9398C49.452 22.9538 49.1373 22.9398 48.7249 22.9398C48.8464 23.1522 48.9241 23.3084 49.0177 23.4487C50.4062 25.428 51.0994 27.8161 50.9879 30.2358C50.9261 32.2871 50.9739 34.3425 50.9679 36.3939C50.9679 37.5958 50.2588 38.313 49.0496 38.3331C48.6671 38.3331 48.2847 38.3471 47.9042 38.3331C46.8145 38.285 46.1114 37.5678 46.1114 36.474C46.0994 35.6907 46.1114 34.9094 46.1114 34.0901H36.2568C36.3265 34.8453 36.1711 35.5926 35.4898 35.9572C34.9082 36.2697 34.201 36.3438 33.5237 36.5301C33.7667 36.9308 34.0715 37.4216 34.3604 37.9184C34.5141 38.1767 34.6519 38.4443 34.7727 38.7197C34.82 38.804 34.8492 38.8974 34.8583 38.9937C34.8675 39.0901 34.8564 39.1874 34.8258 39.2791C34.7952 39.3709 34.7457 39.4552 34.6806 39.5266C34.6156 39.5979 34.5363 39.6547 34.448 39.6933C34.3613 39.7436 34.2652 39.7753 34.1657 39.7863C34.0662 39.7973 33.9656 39.7875 33.8701 39.7573C33.7746 39.7272 33.6863 39.6775 33.6109 39.6113C33.5355 39.5451 33.4746 39.4638 33.4321 39.3728C32.9042 38.4873 32.3883 37.5918 31.8384 36.7244C31.7719 36.6308 31.6863 36.5524 31.5874 36.4943C31.4886 36.4363 31.3786 36.4 31.2647 36.3879C24.3431 36.3705 17.4215 36.3705 10.4998 36.3879C10.414 36.3824 10.3281 36.3942 10.247 36.4228C10.1659 36.4514 10.0913 36.496 10.0277 36.5541C9.11933 37.9464 8.05957 39.2866 7.79064 40.9774C7.59144 42.1794 7.61136 43.3994 7.54562 44.6113C7.52172 45.042 7.54562 45.4748 7.54562 45.9475H8.25479C8.25479 45.5268 8.24283 45.0981 8.25479 44.6694C8.31255 42.9086 9.57749 41.8007 11.3225 42.0051C13.5795 42.2695 15.2149 43.4334 16.1671 45.5148C16.3305 45.8714 16.4998 46.0016 16.8962 45.9976C19.5523 45.9776 22.2083 45.9776 24.8643 45.9976C25.2428 45.9976 25.4042 45.8654 25.5556 45.5369C26.5636 43.3332 28.2906 42.1473 30.6831 41.9971C32.2548 41.8969 33.3843 42.9727 33.458 44.5492C33.4839 45.006 33.4659 45.4708 33.4659 45.9676ZM3.24881 19.1075C3.27471 18.5066 3.27271 17.9597 3.32849 17.4148C3.3834 16.7836 3.67454 16.197 4.14305 15.7734C4.61157 15.3498 5.22251 15.121 5.8524 15.133C8.36435 15.1931 10.1572 16.4011 11.2169 18.6848C11.262 18.8306 11.3564 18.956 11.4837 19.039C11.6111 19.1221 11.7634 19.1577 11.9141 19.1396C14.5357 19.1209 17.1565 19.1209 19.7767 19.1396C20.2149 19.1396 20.4321 19.0314 20.6233 18.6047C21.699 16.2128 24.0217 14.8946 26.5257 15.1991C26.6198 15.2199 26.7181 15.2056 26.8026 15.1591C27.4241 14.6203 28.2234 14.3345 29.0436 14.3577C29.0177 14.2255 29.0078 14.1574 28.9918 14.0953C28.5934 12.4586 27.6651 11.0904 26.7588 9.71614C26.6968 9.65697 26.6235 9.61103 26.5434 9.58107C26.4633 9.55112 26.378 9.53778 26.2926 9.54186C19.3577 9.53384 12.4234 9.53384 5.48985 9.54186C5.3838 9.55349 5.28134 9.5873 5.18905 9.64112C5.09677 9.69494 5.0167 9.76758 4.95399 9.85437C4.53965 10.4774 4.1751 11.1325 3.78467 11.7715C2.39024 14.0512 2.50379 16.5694 2.59941 19.1115L3.24881 19.1075ZM31.8643 32.5556C34.6532 32.5556 37.3643 32.5556 40.0855 32.5556C40.2512 32.5766 40.419 32.5387 40.5598 32.4483C40.7007 32.3579 40.8056 32.2208 40.8564 32.0608C41.8643 29.8912 43.5775 28.6993 45.952 28.555C47.5934 28.4549 48.7408 29.5827 48.7588 31.2354C48.7588 31.6641 48.7588 32.0908 48.7588 32.5255H49.4639C49.4639 31.4257 49.4938 30.346 49.452 29.2662C49.4213 28.6346 49.338 28.0067 49.203 27.3891C48.8902 25.8826 47.9898 24.6666 47.211 23.3946C47.1344 23.2436 47.0149 23.119 46.8677 23.0366C46.7205 22.9542 46.5522 22.9177 46.3843 22.9318C39.5649 22.9452 32.7448 22.9452 25.9241 22.9318C25.8423 22.9181 25.7589 22.9181 25.6771 22.9318C25.5357 22.9839 25.3444 23.03 25.2787 23.1321C24.6552 24.1919 24.0317 25.2536 23.458 26.3374C23.2408 26.7501 23.1492 27.2288 22.9759 27.7557H23.6233C25.0994 27.7557 26.5775 27.7557 28.0536 27.7557C29.5695 27.7557 30.5934 28.525 31.0616 29.9713C31.3265 30.8488 31.5894 31.6882 31.8643 32.5556ZM46.2867 21.4173L44.9799 17.2445C44.6412 16.1647 44.2349 15.8662 43.0954 15.8642H29.1711C28.0954 15.8642 27.6731 16.1747 27.3524 17.1924C27.2309 17.573 27.1074 17.9516 26.9879 18.3343C26.6711 19.3479 26.3584 20.3616 26.0297 21.4173H46.2867ZM30.9679 34.8393C30.954 34.7314 30.934 34.6244 30.9082 34.5188C30.4819 33.1526 30.0576 31.7823 29.6193 30.4201C29.3783 29.6688 28.8982 29.2982 28.0974 29.2962C23.2833 29.2869 18.4699 29.2869 13.6572 29.2962C12.8066 29.2962 12.3663 29.6568 12.0974 30.4982C11.6831 31.7983 11.2747 33.1025 10.8663 34.4066C10.8245 34.5428 10.7966 34.6851 10.7588 34.8413L30.9679 34.8393ZM4.75678 19.0935H9.71494C9.13526 17.6211 7.22889 16.4492 5.74483 16.6395C5.27471 16.6996 4.91614 16.966 4.84841 17.4408C4.77072 17.9817 4.78467 18.5306 4.75678 19.0935ZM14.689 45.9576C14.0914 44.5012 12.3205 43.3853 10.8126 43.4875C10.2647 43.5236 9.84841 43.8561 9.79662 44.403C9.74682 44.9098 9.78666 45.4247 9.78666 45.9596L14.689 45.9576ZM42.3185 32.5175H47.2568C47.2568 32.0287 47.2767 31.578 47.2568 31.1292C47.2568 30.9865 47.2285 30.8453 47.1734 30.7138C47.1183 30.5822 47.0376 30.4631 46.9361 30.3635C46.8346 30.2638 46.7142 30.1855 46.5822 30.1333C46.4501 30.0811 46.309 30.056 46.1671 30.0595C44.6313 30.0014 42.9719 31.0511 42.3185 32.5175ZM31.96 45.9555C31.96 45.5168 31.9719 45.1042 31.96 44.6935C31.9301 43.8361 31.4699 43.4174 30.6153 43.4915C29.9434 43.536 29.2911 43.7378 28.7104 44.0807C28.1297 44.4236 27.6367 44.8983 27.2707 45.4667C27.1751 45.609 27.1074 45.7692 27.0118 45.9515L31.96 45.9555ZM25.9341 16.6615C24.3106 16.5934 22.4699 17.7914 22.1094 19.1115H25.1492C25.193 18.9873 25.2408 18.8631 25.2807 18.7369C25.4958 18.0578 25.709 17.3767 25.9341 16.6615ZM47.5914 34.0901C47.5914 34.5929 47.5914 35.0397 47.5914 35.4924C47.6213 37.059 47.3006 36.8266 49.0157 36.8446C49.0815 36.8446 49.1651 36.8586 49.2149 36.8246C49.3086 36.7505 49.452 36.6503 49.454 36.5581C49.4719 35.7368 49.4639 34.9134 49.4639 34.0941L47.5914 34.0901ZM7.5516 47.5121C7.5516 48.3354 7.53765 49.1308 7.56753 49.916C7.59153 49.9936 7.63459 50.0638 7.69274 50.1202C7.75089 50.1766 7.82225 50.2173 7.9002 50.2386C8.27823 50.2802 8.65963 50.2802 9.03765 50.2386C9.17311 50.2245 9.4002 50.0543 9.40419 49.9481C9.43407 49.1468 9.42012 48.3294 9.42012 47.48H7.92411C7.81255 47.4881 7.701 47.5001 7.54164 47.5081L7.5516 47.5121ZM32.3325 47.5121C32.3325 48.0289 32.3325 48.4957 32.3325 48.9605C32.3325 50.4129 32.3325 50.4128 33.8026 50.2646C33.8365 50.2646 33.8803 50.2646 33.9002 50.2646C33.9998 50.1725 34.1711 50.0643 34.1751 49.9721C34.197 49.1608 34.1871 48.3475 34.1871 47.5181L32.3325 47.5121ZM4.44403 20.6681H2.56554C2.56554 21.1469 2.56554 21.5916 2.56554 22.0363C2.6014 23.6169 2.23487 23.3765 4.02769 23.3946C4.04363 23.3946 4.06753 23.3946 4.0755 23.3946C4.19702 23.2724 4.41614 23.1542 4.42212 23.026C4.45598 22.2487 4.44004 21.4714 4.44004 20.6701L4.44403 20.6681ZM48.0954 21.4434C48.6253 21.4434 49.1233 21.4734 49.6114 21.4253C49.7687 21.4093 49.9062 21.1869 50.0536 21.0607C49.9022 20.9205 49.7727 20.7022 49.5974 20.6601C49.3192 20.6175 49.0367 20.6108 48.7568 20.64C48.1313 20.64 48.0596 20.7202 48.0954 21.4434ZM24.211 21.4434C24.2548 20.7442 24.1612 20.6421 23.5516 20.6421C23.2723 20.6129 22.9905 20.6197 22.713 20.6621C22.5396 20.7082 22.4122 20.9245 22.2647 21.0627C22.4082 21.191 22.5436 21.4133 22.697 21.4293C23.1851 21.4734 23.6811 21.4434 24.209 21.4434H24.211ZM32.7946 34.8654C33.3325 34.8654 33.8424 34.8954 34.3444 34.8473C34.4938 34.8333 34.6233 34.5989 34.7608 34.4667C34.6213 34.3325 34.4998 34.1161 34.3384 34.0801C34.0447 34.0396 33.7473 34.0329 33.452 34.06C32.8902 34.0681 32.7926 34.1762 32.7926 34.8694L32.7946 34.8654ZM8.90618 34.8654C8.96992 34.1542 8.89224 34.0641 8.27869 34.0641C8.00014 34.0351 7.71909 34.0412 7.44204 34.0821C7.26275 34.1282 7.1253 34.3365 6.96993 34.4827C7.1273 34.617 7.27271 34.8453 7.44204 34.8654C7.92895 34.894 8.41706 34.896 8.90419 34.8714L8.90618 34.8654ZM3.94801 8.01335C3.97789 7.61269 4.04164 7.2501 3.54961 7.21204C3.17174 7.17509 2.791 7.17979 2.41415 7.22606C2.26076 7.2501 2.13925 7.47847 2.0018 7.61269C2.14323 7.74491 2.27471 7.97529 2.42809 7.98931C2.91614 8.0454 3.41216 8.01335 3.94801 8.01335ZM27.8524 8.01335C28.3424 8.03406 28.8332 8.02737 29.3225 7.99332C29.4839 7.97529 29.6173 7.73089 29.7647 7.59266C29.6233 7.46445 29.4978 7.26412 29.3365 7.22606C29.0572 7.18813 28.7745 7.18208 28.4938 7.20803C27.8743 7.21404 27.8066 7.29217 27.8604 8.01535L27.8524 8.01335Z" fill="white"/>
<path d="M3.24899 19.1071H2.59958C2.50198 16.5629 2.40038 14.0448 3.78484 11.7671C4.18325 11.128 4.53982 10.4729 4.95417 9.84992C5.01688 9.76313 5.09695 9.6905 5.18923 9.63668C5.28151 9.58286 5.38397 9.54904 5.49002 9.53741C12.4249 9.52138 19.3592 9.52138 26.2928 9.53741C26.3782 9.53334 26.4635 9.54668 26.5436 9.57663C26.6237 9.60658 26.6969 9.65252 26.7589 9.7117C27.6673 11.0859 28.5916 12.4542 28.992 14.0909C29.0079 14.155 29.0179 14.2211 29.0438 14.3533C28.2236 14.3301 27.4243 14.6159 26.8028 15.1546C26.7183 15.2012 26.6199 15.2154 26.5259 15.1947C24.0219 14.8942 21.6972 16.2124 20.6235 18.6003C20.4243 19.027 20.2131 19.1392 19.7769 19.1351C17.1554 19.1151 14.5345 19.1151 11.9143 19.1351C11.7636 19.1533 11.6113 19.1177 11.4839 19.0346C11.3565 18.9515 11.2621 18.8262 11.2171 18.6804C10.1574 16.3987 8.36253 15.1967 5.85257 15.1326C5.22269 15.1205 4.61174 15.3494 4.14323 15.773C3.67471 16.1965 3.38358 16.7832 3.32867 17.4143C3.27488 17.9592 3.27488 18.5101 3.24899 19.1071Z" fill="#5882EF"/>
<path d="M31.8642 32.555C31.5893 31.6876 31.3263 30.8462 31.0554 30.0088C30.5873 28.5604 29.5614 27.8052 28.0474 27.7932C26.5713 27.7932 25.0932 27.7932 23.6171 27.7932H22.9697C23.145 27.2663 23.2347 26.7915 23.4518 26.3749C24.0255 25.2871 24.647 24.2253 25.2725 23.1696C25.3383 23.0594 25.5295 23.0133 25.6709 22.9693C25.7527 22.9556 25.8362 22.9556 25.9179 22.9693C32.7373 22.9693 39.5574 22.9693 46.3781 22.9693C46.546 22.9551 46.7143 22.9916 46.8615 23.074C47.0087 23.1564 47.1282 23.2811 47.2048 23.432C48.0016 24.7041 48.892 25.9201 49.1968 27.4266C49.3318 28.0442 49.4151 28.6721 49.4458 29.3037C49.4857 30.3814 49.4578 31.4632 49.4578 32.563H48.7526C48.7526 32.1303 48.7526 31.7016 48.7526 31.2729C48.7247 29.6202 47.5873 28.4923 45.9458 28.5925C43.5713 28.7367 41.8562 29.9287 40.8502 32.0982C40.7994 32.2583 40.6945 32.3954 40.5537 32.4858C40.4129 32.5761 40.245 32.6141 40.0793 32.593C37.3661 32.547 34.645 32.555 31.8642 32.555Z" fill="#5882EF"/>
<path d="M46.287 21.4164H26.02C26.3467 20.3607 26.6615 19.347 26.9782 18.3333C27.0977 17.9527 27.2232 17.5721 27.3427 17.1915C27.6654 16.1738 28.0858 15.8633 29.1615 15.8633H43.0957C44.2352 15.8633 44.6415 16.1618 44.9802 17.2435L46.287 21.4164Z" fill="#5882EF"/>
<path d="M30.9639 34.847H10.7627C10.8005 34.6908 10.8264 34.5485 10.8703 34.4123C11.2687 33.1102 11.685 31.808 12.1013 30.5039C12.3703 29.6645 12.8085 29.3019 13.6611 29.3019C18.4752 29.2926 23.2886 29.2926 28.1013 29.3019C28.8982 29.3019 29.3802 29.6725 29.6233 30.4258C30.0615 31.79 30.4838 33.1583 30.9121 34.5245C30.9354 34.631 30.9527 34.7386 30.9639 34.847Z" fill="#5882EF"/>
<path d="M4.75684 19.0934C4.78472 18.5305 4.77078 17.9816 4.84847 17.4447C4.91819 16.9639 5.27476 16.6995 5.74488 16.6434C7.22895 16.4531 9.13134 17.625 9.715 19.0974L4.75684 19.0934Z" fill="#5882EF"/>
<path d="M14.689 45.9568H9.78657C9.78657 45.422 9.74673 44.9071 9.79653 44.4003C9.85032 43.8554 10.2647 43.5228 10.8125 43.4848C12.3204 43.3846 14.0934 44.5004 14.689 45.9568Z" fill="#5882EF"/>
<path d="M42.3184 32.517C42.9698 31.0506 44.6271 30.0008 46.163 30.0589C46.3048 30.0555 46.446 30.0806 46.578 30.1328C46.7101 30.185 46.8304 30.2632 46.932 30.3629C47.0335 30.4626 47.1142 30.5817 47.1693 30.7132C47.2243 30.8447 47.2527 30.986 47.2526 31.1287C47.2785 31.5774 47.2526 32.0282 47.2526 32.517H42.3184Z" fill="#5882EF"/>
<path d="M31.9598 45.9556H27.0176C27.1132 45.7733 27.1809 45.613 27.2765 45.4708C27.6425 44.9023 28.1355 44.4277 28.7162 44.0848C29.2969 43.7418 29.9492 43.5401 30.6212 43.4956C31.4757 43.4174 31.9359 43.8361 31.9658 44.6975C31.9817 45.1042 31.9598 45.5169 31.9598 45.9556Z" fill="#5882EF"/>
<path d="M25.9341 16.6605C25.709 17.3757 25.4958 18.0628 25.2807 18.7359C25.2408 18.8621 25.193 18.9843 25.1492 19.1105H22.1094C22.4679 17.7904 24.3106 16.5984 25.9341 16.6605Z" fill="#5882EF"/>
<path d="M47.5897 34.0801H49.4582C49.4582 34.8974 49.4582 35.7208 49.4482 36.5441C49.4482 36.6363 49.3048 36.7444 49.2092 36.8105C49.1653 36.8446 49.0817 36.8306 49.01 36.8306C47.2948 36.8126 47.6156 37.0449 47.5857 35.4784C47.5837 35.0296 47.5897 34.5829 47.5897 34.0801Z" fill="#5882EF"/>
<path d="M7.54134 47.5083C7.69871 47.5083 7.81026 47.4883 7.92181 47.4883H9.40986C9.40986 48.3377 9.42381 49.149 9.39393 49.9563C9.39393 50.0625 9.16484 50.2308 9.02739 50.2468C8.64937 50.2884 8.26796 50.2884 7.88994 50.2468C7.81199 50.2255 7.74063 50.1848 7.68248 50.1284C7.62433 50.072 7.58127 50.0018 7.55727 49.9243C7.52739 49.127 7.54134 48.3337 7.54134 47.5083Z" fill="#5882EF"/>
<path d="M32.3228 47.5059H34.1773C34.1773 48.3332 34.1773 49.1465 34.1654 49.9599C34.1654 50.06 33.9901 50.1602 33.8905 50.2524C33.8726 50.2704 33.8267 50.2524 33.7929 50.2524C32.3228 50.3986 32.3228 50.3986 32.3228 48.9482C32.3228 48.4875 32.3228 48.0227 32.3228 47.5059Z" fill="#5882EF"/>
<path d="M4.44021 20.67C4.44021 21.4713 4.45614 22.2506 4.42427 23.0258C4.42427 23.154 4.20116 23.2722 4.07766 23.3944C4.07766 23.3944 4.04578 23.3944 4.02985 23.3944C2.23702 23.3764 2.60355 23.6188 2.56769 22.0362C2.55773 21.5915 2.56769 21.1468 2.56769 20.668L4.44021 20.67Z" fill="#5882EF"/>
<path d="M48.0957 21.4442C48.0619 20.721 48.1336 20.6429 48.7591 20.6429C49.039 20.6136 49.3215 20.6203 49.5997 20.6629C49.775 20.709 49.9045 20.9273 50.0559 21.0636C49.9085 21.1918 49.771 21.4141 49.6137 21.4282C49.1216 21.4742 48.6236 21.4442 48.0957 21.4442Z" fill="#5882EF"/>
<path d="M24.2089 21.4442C23.681 21.4442 23.183 21.4742 22.695 21.4261C22.5396 21.4101 22.4061 21.1877 22.2627 21.0595C22.4101 20.9193 22.5396 20.7009 22.7109 20.6589C22.9885 20.6165 23.2703 20.6097 23.5495 20.6388C24.1591 20.6408 24.2527 20.745 24.2089 21.4442Z" fill="#5882EF"/>
<path d="M32.793 34.8685C32.793 34.1753 32.8926 34.0671 33.4523 34.0671C33.7476 34.04 34.045 34.0467 34.3388 34.0872C34.5001 34.1232 34.6217 34.3396 34.7611 34.4738C34.6236 34.608 34.4942 34.8404 34.3448 34.8544C33.8408 34.8985 33.3288 34.8685 32.793 34.8685Z" fill="#5882EF"/>
<path d="M8.90456 34.8705C8.41589 34.8913 7.92645 34.8853 7.43842 34.8525C7.2691 34.8325 7.12368 34.6041 6.96631 34.4699C7.12169 34.3336 7.25914 34.1233 7.43842 34.0692C7.71548 34.0283 7.99653 34.0222 8.27508 34.0512C8.89062 34.0652 8.9703 34.1593 8.90456 34.8705Z" fill="#5882EF"/>
<path d="M3.94816 8.01325C3.41231 8.01325 2.91629 8.0433 2.42825 7.99522C2.27486 7.9792 2.14339 7.74882 2.00195 7.61861C2.13741 7.48238 2.26092 7.25401 2.4143 7.23197C2.79115 7.1857 3.17189 7.181 3.54976 7.21795C4.04179 7.25 3.97804 7.61861 3.94816 8.01325Z" fill="#5882EF"/>
<path d="M27.8604 8.01632C27.8067 7.29314 27.8744 7.21501 28.5019 7.21501C28.7825 7.18906 29.0652 7.19511 29.3445 7.23304C29.5059 7.2711 29.6314 7.47143 29.7728 7.59964C29.6254 7.73987 29.4919 7.98427 29.3306 8.00029C28.8412 8.03301 28.3504 8.03836 27.8604 8.01632Z" fill="#5882EF"/>
</svg>
