<svg width="55" height="76" viewBox="0 0 55 76" fill="none" xmlns="http://www.w3.org/2000/svg">
<path d="M13.3848 58.4924C12.3802 56.9883 12.3265 54.5911 13.2376 52.939C13.2672 52.8686 13.2802 52.7924 13.2758 52.7163C13.2713 52.6401 13.2495 52.566 13.2119 52.4994C12.8053 51.9045 12.6059 51.1944 12.6442 50.477C12.6442 50.1114 12.6442 49.7435 12.6442 49.3779C12.6185 48.5056 12.7844 47.6934 13.3591 47.064C12.2821 45.2592 12.5134 43.4381 12.9923 41.7421C12.8638 40.9738 12.6676 40.3283 12.6606 39.6804C12.6302 36.2095 12.6395 32.7387 12.6606 29.2678C12.6889 28.868 12.7451 28.4706 12.8288 28.0785C12.8587 27.97 12.8713 27.8576 12.8661 27.7453C12.198 24.2166 13.2423 21.197 15.6838 18.6355C17.2694 16.9624 19.3911 15.8848 21.6882 15.5858C21.8798 15.558 22.069 15.514 22.2863 15.4701V13.4176C21.7373 13.4176 21.1812 13.4037 20.6275 13.4176C20.0738 13.4315 19.5878 13.332 19.4593 12.7235C19.3472 12.1681 19.6182 11.821 20.1719 11.6475C20.2841 11.6128 20.3822 11.3559 20.3869 11.1986C20.4079 10.3887 20.3869 9.57887 20.4009 8.76901C20.4406 7.04747 21.6298 5.90209 23.3797 5.89746C25.8516 5.89746 28.3242 5.89746 30.7976 5.89746C32.5803 5.89746 33.7508 7.05441 33.7858 8.8176C33.7998 9.58813 33.7858 10.361 33.7858 11.1315C33.7858 11.4115 33.7858 11.6267 34.162 11.7192C34.2628 11.7428 34.3578 11.786 34.4417 11.8463C34.5255 11.9065 34.5964 11.9826 34.6503 12.0702C34.7042 12.1578 34.74 12.2552 34.7556 12.3566C34.7713 12.458 34.7664 12.5614 34.7414 12.661C34.7235 12.8767 34.621 13.0769 34.456 13.2187C34.2909 13.3605 34.0764 13.4328 33.8582 13.4199C33.2204 13.4199 32.5826 13.4199 31.9074 13.4199V15.4122C32.7975 15.6436 33.6807 15.7963 34.5171 16.0856C38.7225 17.5433 41.4701 21.433 41.5261 25.9705C41.4994 26.543 41.4369 27.1133 41.3392 27.6782C41.3244 27.77 41.3189 27.863 41.3229 27.9559C41.3906 28.6778 41.5215 29.3997 41.5261 30.124C41.5495 33.3056 41.5542 36.4872 41.5261 39.6665C41.5261 40.3144 41.3252 40.9623 41.1944 41.749C41.6827 43.4266 41.8953 45.2453 40.8393 47.0409C41.7902 48.4477 41.8556 51.0347 40.9771 52.4994C40.9407 52.5757 40.9218 52.6591 40.9218 52.7435C40.9218 52.8279 40.9407 52.9113 40.9771 52.9876C41.8556 54.4639 41.7855 57.0161 40.8042 58.4831C42.5565 60.4916 40.9491 64.372 37.767 65.006C37.3668 65.0837 36.9599 65.1225 36.5521 65.1217C30.2455 65.1217 23.9373 65.1217 17.6276 65.1217C14.8941 65.1217 12.9292 63.3562 12.6652 60.6813C12.6316 60.2874 12.6779 59.8907 12.8015 59.5148C12.9251 59.1388 13.1234 58.7912 13.3848 58.4924ZM39.6267 26.9493C39.6562 26.8981 39.6797 26.8438 39.6968 26.7873C40.0799 21.5464 36.1712 17.3004 30.8771 17.2471C28.3468 17.2194 25.8142 17.2309 23.2839 17.2471C22.0425 17.2416 20.814 17.4972 19.6797 17.9972C18.5455 18.4971 17.5315 19.23 16.7047 20.1473C15.878 21.0645 15.2574 22.1452 14.884 23.3178C14.5106 24.4905 14.393 25.7283 14.539 26.9493H32.5639C32.7579 26.9336 32.9531 26.9399 33.1457 26.9678C33.3511 26.9944 33.5395 27.0945 33.6756 27.2492C33.8116 27.4039 33.8857 27.6026 33.8839 27.8078C33.9097 28.012 33.8549 28.2182 33.7308 28.3834C33.6067 28.5485 33.423 28.6598 33.2181 28.694C32.9703 28.7416 32.7181 28.7625 32.4658 28.7565C26.723 28.7565 20.9803 28.7565 15.2375 28.7565H14.5133V36.5381C15.4712 36.5381 16.3824 36.5381 17.2982 36.5381C17.9197 36.5381 18.3145 36.8829 18.3239 37.3989C18.3332 37.9149 17.9477 38.2805 17.3332 38.299C16.9431 38.3106 16.5552 38.299 16.1651 38.299H14.525V40.3537H15.2095C17.137 40.3537 19.0645 40.3537 20.992 40.3537C21.5877 40.3537 21.9475 40.6892 21.9639 41.2029C21.9826 41.7536 21.6321 42.0891 21.0013 42.1285C20.8448 42.1285 20.6906 42.1285 20.534 42.1285C18.957 42.1285 17.38 42.11 15.8029 42.1424C15.4395 42.1457 15.0855 42.2569 14.7866 42.4617C14.289 42.8435 14.2937 45.4397 14.8053 45.7821C15.1686 45.9913 15.5838 46.0955 16.0039 46.0829C22.0971 46.1014 28.1903 46.0945 34.2835 46.0968C34.5175 46.0887 34.7519 46.0988 34.9844 46.1269C35.1915 46.1468 35.3832 46.2439 35.5208 46.3986C35.6583 46.5532 35.7313 46.7539 35.725 46.9599C35.7424 47.1752 35.6753 47.3888 35.5379 47.5564C35.4004 47.724 35.203 47.8327 34.9867 47.86C34.7746 47.8882 34.56 47.8944 34.3465 47.8785H16.0085C15.8333 47.8785 15.6581 47.8785 15.4829 47.8785C15.2168 47.8828 14.9631 47.9904 14.7764 48.1783C14.5898 48.3662 14.4852 48.6192 14.4852 48.8827C14.4642 49.5191 14.4665 50.1554 14.4852 50.7917C14.4772 51.0453 14.5677 51.2923 14.7381 51.4817C14.9085 51.6712 15.1458 51.7886 15.4011 51.8098C16.102 51.9255 16.3917 52.2055 16.3894 52.7354C16.387 53.2653 16.095 53.5267 15.3917 53.6609C15.136 53.68 14.8979 53.7974 14.7284 53.9881C14.559 54.1788 14.4717 54.4277 14.4852 54.6814C14.4689 55.2205 14.4852 55.762 14.4852 56.3011C14.4852 57.2267 14.845 57.5946 15.7889 57.5969C17.0342 57.5969 18.2818 57.5969 19.5271 57.5969H34.5381C35.3115 57.5969 35.7297 57.9 35.7437 58.46C35.7577 59.0199 35.3255 59.3578 34.5194 59.3624H16.1137C15.8994 59.3546 15.6848 59.36 15.4712 59.3786C15.3289 59.3821 15.189 59.415 15.0603 59.4752C14.9316 59.5353 14.817 59.6213 14.7237 59.7278C14.6305 59.8343 14.5607 59.9589 14.5189 60.0936C14.477 60.2283 14.464 60.3701 14.4806 60.5101C14.4951 61.1912 14.7601 61.8436 15.2259 62.345C15.9268 63.134 16.8403 63.333 17.8589 63.3307C24.0113 63.3184 30.1637 63.3184 36.3161 63.3307C36.5871 63.3307 36.8605 63.3307 37.1315 63.2937C37.8013 63.2121 38.4224 62.9047 38.8904 62.4231C39.3584 61.9415 39.6448 61.315 39.7015 60.6489C39.7482 59.9131 39.4678 59.492 38.7272 59.3925C38.1665 59.3069 37.7927 59.0639 37.8043 58.4831C37.816 57.9023 38.1735 57.6571 38.7389 57.59C39.3837 57.5136 39.6874 57.1272 39.7015 56.4908C39.7015 56.0466 39.7015 55.6046 39.7015 55.1604C39.7015 53.9201 39.4468 53.6609 38.2155 53.6609C32.0834 53.6609 25.9513 53.6609 19.8191 53.6609C19.5504 53.6609 19.221 53.6864 19.0294 53.5499C18.7771 53.3671 18.4757 53.0293 18.4851 52.7701C18.4944 52.5109 18.7958 52.1592 19.0481 51.9394C19.1906 51.8145 19.492 51.8445 19.721 51.8445C21.5901 51.8445 23.4592 51.8445 25.3282 51.8445H38.4118C39.365 51.8445 39.6991 51.5067 39.7015 50.5511C39.7015 50.0883 39.7015 49.6255 39.7015 49.1627C39.7015 48.332 39.4468 48.0474 38.5987 47.8993C38.4027 47.8843 38.2177 47.8034 38.0745 47.67C37.9313 47.5366 37.8385 47.3587 37.8114 47.1658C37.7662 46.9756 37.7895 46.7758 37.8774 46.6008C37.9653 46.4259 38.1122 46.2869 38.2926 46.2079C38.4198 46.1601 38.5524 46.1283 38.6875 46.113C39.4608 45.951 39.6968 45.6687 39.7038 44.8867C39.7038 44.4817 39.7038 44.0768 39.7038 43.6719C39.7038 42.427 39.4234 42.1516 38.1525 42.1516H25.1857C24.9721 42.1611 24.758 42.1533 24.5456 42.1285C24.339 42.1102 24.1475 42.0141 24.0105 41.8599C23.8735 41.7057 23.8016 41.5053 23.8096 41.3001C23.7891 41.0854 23.8536 40.8712 23.9897 40.7028C24.1257 40.5344 24.3225 40.425 24.5386 40.3977C24.7313 40.3711 24.9264 40.3657 25.1203 40.3815H39.6687V38.3267C38.7342 38.3267 37.8137 38.3267 36.9049 38.3267C36.239 38.3267 35.8418 37.975 35.8488 37.4336C35.8558 36.8921 36.2577 36.5659 36.9235 36.5612C37.8324 36.5612 38.7412 36.5612 39.6687 36.5612V28.7588C38.6828 28.7588 37.7319 28.7727 36.7834 28.7588C36.1222 28.7449 35.725 28.3747 35.732 27.8332C35.739 27.2918 36.1432 26.9539 36.8044 26.9493C37.7576 26.9447 38.6922 26.9493 39.6267 26.9493ZM22.1999 11.5989H31.9985C31.9985 10.6062 32.0172 9.66217 31.9985 8.72042C32.0057 8.58394 31.9837 8.4475 31.9338 8.32008C31.8839 8.19265 31.8074 8.07715 31.7091 7.98117C31.6109 7.88519 31.4932 7.81092 31.3639 7.76325C31.2346 7.71559 31.0965 7.6956 30.9588 7.70462C28.392 7.6861 25.822 7.6861 23.2489 7.70462C23.1111 7.69491 22.9729 7.71433 22.8433 7.76157C22.7136 7.80882 22.5957 7.88281 22.4971 7.97865C22.3986 8.07449 22.3218 8.18998 22.2717 8.31747C22.2217 8.44495 22.1996 8.58152 22.2069 8.7181C22.1812 9.66217 22.1999 10.6039 22.1999 11.5989ZM30.0173 13.45H24.1904V15.4238H30.015L30.0173 13.45Z" fill="white"/>
<path d="M27.1116 30.7717C28.0251 30.7717 28.9386 30.7717 29.8521 30.7717C31.0717 30.7717 31.859 31.5538 31.8777 32.7501C31.8777 33.3286 31.8894 33.9071 31.8777 34.4832C31.852 35.587 31.0904 36.3899 29.9736 36.4061C28.0695 36.4362 26.163 36.4315 24.2589 36.4061C23.1141 36.3922 22.3407 35.587 22.3197 34.4555C22.3197 33.8585 22.3057 33.2615 22.3197 32.6645C22.3171 32.4135 22.3655 32.1645 22.462 31.9323C22.5585 31.7002 22.701 31.4896 22.8812 31.3131C23.0614 31.1365 23.2756 30.9976 23.5111 30.9046C23.7465 30.8117 23.9984 30.7665 24.2519 30.7717C25.2074 30.7602 26.1583 30.7717 27.1116 30.7717ZM24.1794 34.5573H30.0063V32.6391H24.1794V34.5573Z" fill="white"/>
</svg>
