<svg width="44" height="45" viewBox="0 0 44 45" fill="none" xmlns="http://www.w3.org/2000/svg">
<path d="M41.8386 43.5174C42.2209 43.5174 42.5944 43.5174 42.9697 43.5174C43.633 43.5174 43.9995 43.7969 43.9873 44.2767C43.9751 44.7566 43.6225 44.9992 42.9819 44.9992H0.959152C0.370921 44.9992 0.0165877 44.7091 0.0235697 44.2521C0.0305517 43.7951 0.372663 43.5244 0.97835 43.5174C1.36934 43.5174 1.76034 43.5174 2.18275 43.5174C2.19322 43.3627 2.21067 43.2362 2.21067 43.1096C2.21067 40.7068 2.21067 38.3057 2.21067 35.9029C2.22104 35.7897 2.19892 35.6758 2.14694 35.5749C2.09496 35.4739 2.0153 35.3901 1.91743 35.3334C0.714781 34.5161 0.0532376 33.3612 0.0288007 31.9058C-0.00960022 29.636 -0.00960022 27.3656 0.0288007 25.0947C0.0584741 22.9133 1.65909 21.4034 3.89333 21.3753C4.77829 21.3753 5.665 21.3753 6.61979 21.3753C6.61979 21.1749 6.61979 21.0062 6.61979 20.8357C6.61979 18.6678 6.61979 16.5 6.61979 14.3321C6.61979 13.4814 6.83448 13.2775 7.67756 13.2775H11.474C12.242 13.2775 12.4846 13.5235 12.4846 14.3093C12.4846 16.4912 12.4846 18.6737 12.4846 20.8568C12.4846 21.015 12.4846 21.1714 12.4846 21.356H19.0652V20.8287C19.0652 18.1921 19.0652 15.5555 19.0652 12.9189C19.0652 11.9996 19.2799 11.7852 20.2032 11.7852C21.439 11.7852 22.6754 11.7852 23.9124 11.7852C24.6891 11.7852 24.9335 12.026 24.9335 12.8064C24.9335 15.4723 24.9335 18.1382 24.9335 20.804C24.9335 20.9798 24.9335 21.1556 24.9335 21.3489H31.5262C31.5262 21.1978 31.5262 21.0431 31.5262 20.8884C31.5262 18.6913 31.5262 16.4941 31.5262 14.2969C31.5262 13.5112 31.7636 13.2722 32.5386 13.2704C33.8326 13.2704 35.1272 13.2704 36.4224 13.2704C37.145 13.2704 37.3824 13.5148 37.3841 14.2512C37.3841 16.4484 37.3841 18.6456 37.3841 20.8427C37.3841 21.0009 37.3841 21.1591 37.3841 21.37C38.1172 21.37 38.8102 21.3542 39.5014 21.37C40.0652 21.3876 40.6482 21.37 41.1875 21.5089C42.9226 21.9518 43.9681 23.3299 43.9803 25.1738C44.0048 27.341 44.0083 29.5101 43.9803 31.6773C43.9865 32.4063 43.8125 33.1254 43.474 33.7698C43.1354 34.4141 42.643 34.9636 42.0411 35.3686C41.9755 35.4171 41.9205 35.4786 41.8793 35.5493C41.8382 35.6201 41.8119 35.6985 41.802 35.7799C41.788 38.2846 41.7932 40.7894 41.802 43.2942C41.809 43.3693 41.8212 43.4439 41.8386 43.5174ZM40.3078 36.1349C40.0251 36.1349 39.7667 36.1349 39.5084 36.1349C37.3614 36.1191 35.4745 34.4475 35.2703 32.2978C35.1726 31.266 35.218 30.2219 35.19 29.1849C35.1906 28.9368 35.1649 28.6893 35.1132 28.4466C35.0371 28.1477 34.8721 27.8792 34.6404 27.6772C34.4086 27.4752 34.1211 27.3494 33.8163 27.3164C33.5092 27.2911 33.2023 27.368 32.9428 27.5353C32.6832 27.7027 32.4854 27.9512 32.3798 28.2427C32.3046 28.4942 32.2658 28.7553 32.2646 29.0179C32.2401 29.5874 32.2646 30.1622 32.2262 30.7299C32.0359 33.3243 29.2257 35.2666 26.7576 34.5213C24.6857 33.8956 23.4952 32.2838 23.4725 30.0936C23.4843 29.5652 23.4598 29.0367 23.3992 28.5117C23.3585 28.2403 23.2398 27.9868 23.0577 27.7825C22.8756 27.5783 22.6382 27.4321 22.3746 27.3621C22.1309 27.2831 21.8697 27.2761 21.6221 27.3422C21.3746 27.4083 21.1511 27.5445 20.9782 27.7348C20.8272 27.8941 20.7103 28.0831 20.6349 28.29C20.5595 28.4968 20.5273 28.7171 20.5401 28.937C20.5401 30.3134 20.5401 31.6897 20.5401 33.066C20.5544 34.1733 20.1678 35.248 19.4527 36.0892C17.5798 38.362 13.7833 38.0052 12.359 35.4248C11.945 34.6816 11.7308 33.8425 11.7376 32.9904C11.7376 31.6879 11.7376 30.3837 11.7376 29.0812C11.7376 28.582 11.6416 28.125 11.2768 27.7541C11.0958 27.551 10.8586 27.4071 10.5958 27.341C10.3329 27.2749 10.0563 27.2896 9.80182 27.3832C9.52873 27.4691 9.28894 27.6385 9.11567 27.8677C8.94241 28.097 8.84426 28.3749 8.83482 28.6628C8.81388 29.6735 8.83482 30.6842 8.81911 31.6932C8.78071 33.8024 7.48556 35.5004 5.49046 35.9873C4.92317 36.1262 4.32098 36.1174 3.72053 36.1789V43.491H40.3061L40.3078 36.1349ZM22.0587 22.8659C16.0519 22.8659 10.0444 22.8659 4.03646 22.8659C3.73163 22.8594 3.42707 22.8883 3.1288 22.952C2.24383 23.1629 1.52819 23.9627 1.51771 24.8574C1.48978 27.2444 1.46185 29.6331 1.53342 32.0183C1.56833 33.1943 2.26478 34.0503 3.37491 34.4563C5.36826 35.1858 7.30054 33.8147 7.34417 31.6598C7.36337 30.7088 7.33545 29.7562 7.34417 28.8035C7.36337 27.6996 7.8172 26.812 8.77199 26.2477C9.21303 25.979 9.71691 25.8328 10.2323 25.824C10.7477 25.8151 11.2563 25.944 11.7061 26.1975C12.156 26.451 12.5311 26.82 12.7933 27.267C13.0554 27.7139 13.1953 28.2229 13.1986 28.7419C13.223 30.1921 13.1881 31.6422 13.2108 33.0923C13.23 34.3755 13.792 35.3615 14.979 35.8801C16.1066 36.3722 17.1765 36.1824 18.1034 35.3528C18.8016 34.734 19.0687 33.9237 19.0687 32.9974C19.0687 31.4752 19.0303 29.9477 19.1263 28.4273C19.2258 26.8735 20.5401 25.7907 22.0936 25.8136C22.8128 25.8352 23.4984 26.1247 24.0179 26.626C24.5373 27.1273 24.8536 27.8049 24.9056 28.5275C24.951 29.199 24.9248 29.8757 24.9754 30.5454C25.0854 32.0078 26.3858 33.182 27.8642 33.182C28.5763 33.183 29.2637 32.9197 29.7951 32.4423C30.3264 31.965 30.6644 31.3071 30.7443 30.5946C30.8071 29.8915 30.7827 29.1884 30.8263 28.4853C30.8842 27.809 31.174 27.1741 31.646 26.6895C32.118 26.2049 32.7428 25.9008 33.4131 25.8294C33.8232 25.7855 34.2378 25.829 34.63 25.9571C35.0223 26.0852 35.3833 26.295 35.6897 26.5728C35.9961 26.8507 36.241 27.1905 36.4085 27.5699C36.5759 27.9494 36.6621 28.3601 36.6615 28.7753C36.6842 29.7562 36.6615 30.7387 36.6702 31.7195C36.6624 32.1316 36.7456 32.5402 36.9137 32.9159C37.0818 33.2916 37.3308 33.6251 37.6425 33.8921C38.5763 34.6989 39.6568 34.8799 40.7844 34.386C41.9119 33.8921 42.5019 32.9517 42.5176 31.7143C42.5455 29.6208 42.5264 27.5256 42.5264 25.4304C42.5264 23.7008 41.6745 22.8448 39.9517 22.8448L22.0587 22.8659ZM23.4394 21.3577V13.3091H20.5715V21.3595L23.4394 21.3577ZM10.987 21.3577V14.7874H8.10695V21.3595L10.987 21.3577ZM33.0344 14.7786V21.3489H35.89V14.7786H33.0344Z" fill="white"/>
<path d="M9.48137 11.7832C6.91724 11.7305 5.29218 9.11147 6.10908 6.96353C6.80727 5.1144 7.83711 3.46214 8.91582 1.83273C8.98019 1.72304 9.07184 1.63215 9.18173 1.56901C9.29161 1.50586 9.41594 1.47266 9.54246 1.47266C9.66898 1.47266 9.79331 1.50586 9.90319 1.56901C10.0131 1.63215 10.1047 1.72304 10.1691 1.83273C11.3176 3.5553 12.4679 5.28842 13.0771 7.2975C13.7404 9.48059 11.8378 11.8359 9.48137 11.7832ZM9.66639 3.56936L9.50406 3.61506C8.72034 4.85953 7.96279 6.12158 7.47928 7.52249C7.37113 7.85475 7.3495 8.20942 7.41645 8.55251C7.47378 8.85149 7.59307 9.13493 7.76655 9.38433C7.94003 9.63373 8.16379 9.84348 8.42322 9.9999C8.68265 10.1563 8.97192 10.2559 9.27216 10.2921C9.57239 10.3283 9.87683 10.3003 10.1656 10.2101C11.4189 9.83038 12.0752 8.55779 11.5376 7.32211C10.979 6.04248 10.2948 4.8191 9.66639 3.57112V3.56936Z" fill="white"/>
<path d="M22.0132 10.3045C19.3426 10.3045 17.7716 7.59584 18.5588 5.5147C19.257 3.66557 20.2816 2.00979 21.3516 0.382135C21.685 -0.120575 22.2977 -0.129364 22.6293 0.368073C23.7115 1.99573 24.7239 3.65326 25.4361 5.49888C26.2512 7.60288 24.6401 10.2975 22.0132 10.3045ZM22.001 2.06076C21.1788 3.42476 20.3707 4.69735 19.9064 6.1422C19.641 6.96658 19.9902 7.87708 20.7302 8.42725C21.1019 8.68794 21.5435 8.82872 21.9964 8.83092C22.4494 8.83312 22.8923 8.69663 23.2665 8.43955C24.0013 7.91224 24.3713 6.98767 24.1095 6.16857C23.6417 4.70438 22.8353 3.41949 22.0027 2.06076H22.001Z" fill="white"/>
<path d="M30.8086 7.98496C30.833 7.19574 31.2083 6.33094 31.6499 5.5136C32.3097 4.29725 33.0359 3.11606 33.7637 1.93838C34.1268 1.3513 34.7552 1.31966 35.1165 1.86807C36.1987 3.51155 37.2512 5.16909 37.9232 7.04634C38.4731 8.58611 37.7347 10.4423 36.3523 11.2491C34.8005 12.1508 32.9049 11.8713 31.7808 10.5864C31.1437 9.86749 30.8295 9.09409 30.8086 7.98496ZM34.4951 3.50628C33.6537 4.86324 32.87 6.1288 32.39 7.54905C32.2543 7.97776 32.2605 8.43928 32.4079 8.86409C32.5552 9.2889 32.8356 9.654 33.2069 9.9044C33.5803 10.1632 34.0234 10.3008 34.4766 10.2989C34.9299 10.297 35.3718 10.1557 35.7431 9.89386C36.1047 9.64316 36.3782 9.28372 36.5246 8.86698C36.671 8.45024 36.6828 7.99754 36.5582 7.57366C36.4262 7.15537 36.258 6.74954 36.0555 6.36083C35.5598 5.42396 35.0362 4.50115 34.4951 3.50628Z" fill="white"/>
</svg>
