<svg width="44" height="45" viewBox="0 0 44 45" fill="none" xmlns="http://www.w3.org/2000/svg">
<path d="M43.2878 22.486C43.2838 28.2742 41.0074 33.8243 36.9585 37.9172C32.9096 42.0102 27.4193 44.3114 21.6933 44.3154C9.77072 44.3154 0.064979 34.5024 0.0987205 22.4604C0.132462 10.4184 9.80278 0.636036 21.7068 0.651385C27.4313 0.659065 32.9189 2.96255 36.9651 7.0562C41.0112 11.1499 43.2852 16.6991 43.2878 22.486ZM41.4152 22.5064C41.454 11.5422 32.6154 2.58363 21.7186 2.55294C10.8707 2.50007 2.00849 11.4399 1.96969 22.4536C1.93088 33.4177 10.7695 42.3763 21.6663 42.407C32.5142 42.4565 41.3679 33.5218 41.4152 22.5064Z" fill="#2766DF"/>
<path d="M41.415 22.5064C41.3762 33.5217 32.5157 42.4599 21.6762 42.4172C10.7794 42.378 1.93747 33.4211 1.97964 22.4637C2.01845 11.4484 10.879 2.51025 21.7184 2.55289C32.6135 2.58358 41.4521 11.5388 41.415 22.5064ZM20.7568 17.958C20.7568 19.3513 20.772 20.743 20.7568 22.1363C20.7469 22.3685 20.7871 22.6001 20.8745 22.815C20.9619 23.03 21.0944 23.2232 21.2629 23.3813C24.5403 26.6784 27.8121 29.983 31.0783 33.2949C31.6755 33.8986 32.1648 33.9771 32.6119 33.5422C33.0589 33.1073 32.9948 32.5786 32.3858 31.9613C29.2242 28.7653 26.0615 25.571 22.8977 22.3785C22.806 22.2946 22.7338 22.1914 22.686 22.0762C22.6381 21.9609 22.616 21.8365 22.621 21.7116C22.6328 19.892 22.621 18.074 22.621 16.2543C22.621 15.3595 22.621 14.4642 22.621 13.5682C22.621 13.1146 22.4523 12.7616 22.0153 12.591C21.3726 12.3369 20.7618 12.8025 20.7551 13.5665C20.75 15.0315 20.7585 16.4947 20.7568 17.958ZM22.6261 6.60327C22.6261 5.80854 22.2397 5.36002 21.5969 5.41971C21.0773 5.46746 20.7669 5.86482 20.7534 6.49754C20.7399 7.24792 21.0082 7.66575 21.5531 7.73568C21.6227 7.74249 21.6927 7.74249 21.7623 7.73568C22.3156 7.70668 22.6244 7.29909 22.6277 6.60498L22.6261 6.60327ZM5.93921 23.4256C6.61404 23.4256 7.00544 23.1783 7.09823 22.6871C7.17077 22.3085 7.08473 21.9658 6.76081 21.7475C6.29349 21.4268 5.77219 21.4507 5.28125 21.6724C5.11996 21.7474 4.98699 21.8732 4.90216 22.0308C4.81733 22.1885 4.7852 22.3697 4.81055 22.5473C4.84598 23.105 5.25425 23.4222 5.93921 23.4256ZM37.4116 23.4256C38.191 23.4256 38.6347 23.0231 38.5689 22.3733C38.5149 21.8396 38.1151 21.5411 37.4487 21.536C36.7418 21.536 36.3386 21.814 36.2762 22.3563C36.2694 22.4266 36.2694 22.4974 36.2762 22.5678C36.315 23.122 36.7182 23.4239 37.4116 23.4256ZM22.6277 38.4009C22.6277 37.7085 22.3646 37.3044 21.85 37.2276C21.6778 37.1872 21.4973 37.2024 21.3342 37.2713C21.171 37.3401 21.0333 37.4591 20.9407 37.6113C20.8143 37.8251 20.7422 38.0671 20.7308 38.3158C20.7193 38.5646 20.7688 38.8123 20.8749 39.0371C20.9432 39.2021 21.0618 39.3408 21.2136 39.4328C21.3653 39.5249 21.5422 39.5655 21.7184 39.5487C22.2903 39.5333 22.6244 39.107 22.6277 38.4009ZM11.6871 11.6258C11.6651 10.9061 11.3075 10.6025 10.9313 10.3245C10.7584 10.2033 10.5492 10.1468 10.3396 10.1647C10.1299 10.1826 9.93306 10.2738 9.78281 10.4227C9.63257 10.5715 9.53837 10.7687 9.51642 10.9802C9.49447 11.1917 9.54616 11.4043 9.66258 11.5814C9.81924 11.8323 10.0341 12.0407 10.2885 12.1885C10.5584 12.313 10.8655 12.3271 11.1455 12.2278C11.407 12.105 11.569 11.769 11.6854 11.6292L11.6871 11.6258ZM32.6979 12.3523C33.1399 12.3301 33.4351 11.9822 33.7101 11.6155C33.844 11.4398 33.9079 11.2197 33.8891 10.9987C33.8704 10.7777 33.7704 10.5719 33.6089 10.4217C33.4621 10.267 33.2643 10.172 33.0529 10.1547C32.8415 10.1374 32.6312 10.199 32.4617 10.3279C32.2413 10.5011 32.044 10.7023 31.8746 10.9265C31.7733 11.0558 31.7142 11.2136 31.7055 11.3783C31.6967 11.5429 31.7387 11.7063 31.8257 11.8458C31.9065 12.0071 32.032 12.1411 32.1869 12.2317C32.3417 12.3222 32.5193 12.3653 32.6979 12.3557V12.3523ZM11.6753 33.5388C11.6724 33.2956 11.5774 33.0627 11.4098 32.8882C11.2422 32.7137 11.0148 32.6108 10.7744 32.6008C10.2362 32.5889 9.4905 33.3205 9.48881 33.8628C9.50116 34.105 9.60023 34.3344 9.76753 34.5082C9.93484 34.6821 10.159 34.7885 10.3981 34.8076C10.9363 34.8298 11.6753 34.0947 11.6753 33.5388Z" fill="white"/>
<path d="M20.7579 17.9583C20.7579 16.495 20.7579 15.0301 20.7579 13.5668C20.7579 12.8028 21.3754 12.3372 22.0182 12.5913C22.4501 12.7618 22.6222 13.1166 22.6238 13.5685C22.6238 14.4633 22.6238 15.3586 22.6238 16.2545C22.6238 18.0742 22.6238 19.8922 22.6238 21.7119C22.6188 21.8368 22.641 21.9612 22.6888 22.0764C22.7366 22.1917 22.8089 22.2949 22.9005 22.3787C26.0666 25.569 29.2293 28.7633 32.3886 31.9615C32.9994 32.5789 33.0719 33.0973 32.6147 33.5425C32.1575 33.9876 31.6784 33.8989 31.0812 33.2952C27.8105 29.9889 24.5387 26.6844 21.2658 23.3815C21.0973 23.2234 20.9647 23.0302 20.8773 22.8153C20.79 22.6003 20.7498 22.3688 20.7596 22.1366C20.7714 20.7484 20.7563 19.3516 20.7579 17.9583Z" fill="#2766DF"/>
<path d="M22.6283 6.6047C22.6283 7.29881 22.3179 7.70811 21.7662 7.74563C21.6966 7.75244 21.6266 7.75244 21.557 7.74563C21.0138 7.67571 20.7438 7.25788 20.7573 6.50749C20.7691 5.87477 21.0779 5.48423 21.6009 5.42966C22.2403 5.36144 22.6317 5.80997 22.6283 6.6047Z" fill="#2766DF"/>
<path d="M5.93938 23.4253C5.26455 23.4253 4.84784 23.1047 4.8141 22.547C4.78875 22.3694 4.82088 22.1882 4.90571 22.0306C4.99053 21.8729 5.12351 21.7472 5.2848 21.6722C5.77742 21.4505 6.29704 21.4266 6.76436 21.7472C7.0849 21.9655 7.16925 22.3083 7.10177 22.6869C7.00392 23.1781 6.61421 23.4287 5.93938 23.4253Z" fill="#2766DF"/>
<path d="M37.4114 23.4256C36.718 23.4256 36.3165 23.122 36.2726 22.5729C36.2659 22.5025 36.2659 22.4317 36.2726 22.3614C36.3351 21.8174 36.7383 21.536 37.4452 21.5411C38.1116 21.5411 38.5097 21.8429 38.5654 22.3784C38.6346 23.0231 38.1909 23.4273 37.4114 23.4256Z" fill="#2766DF"/>
<path d="M22.6279 38.4013C22.6279 39.1073 22.2905 39.5337 21.7237 39.5473C21.5475 39.5641 21.3706 39.5235 21.2188 39.4314C21.0671 39.3394 20.9484 39.2007 20.8801 39.0357C20.774 38.8109 20.7245 38.5632 20.736 38.3145C20.7475 38.0657 20.8196 37.8237 20.9459 37.6099C21.0386 37.4577 21.1762 37.3388 21.3394 37.2699C21.5026 37.2011 21.683 37.1858 21.8553 37.2262C22.3631 37.3047 22.6296 37.7089 22.6279 38.4013Z" fill="#2766DF"/>
<path d="M11.6856 11.6296C11.5675 11.7695 11.4056 12.1054 11.1458 12.2333C10.8658 12.3326 10.5587 12.3186 10.2887 12.1941C10.0343 12.0462 9.81948 11.8378 9.66281 11.587C9.54639 11.4099 9.49471 11.1972 9.51665 10.9857C9.5386 10.7742 9.6328 10.5771 9.78305 10.4283C9.93329 10.2794 10.1302 10.1882 10.3398 10.1702C10.5494 10.1523 10.7587 10.2088 10.9315 10.3301C11.3077 10.6047 11.6637 10.9099 11.6856 11.6296Z" fill="#2766DF"/>
<path d="M32.6983 12.3559C32.5181 12.3671 32.3386 12.3246 32.1821 12.2336C32.0255 12.1427 31.8988 12.0073 31.8177 11.8443C31.7307 11.7048 31.6887 11.5415 31.6974 11.3768C31.7062 11.2122 31.7653 11.0543 31.8666 10.9251C32.036 10.7008 32.2333 10.4996 32.4537 10.3265C32.6232 10.1976 32.8335 10.136 33.0449 10.1532C33.2563 10.1705 33.4541 10.2655 33.6009 10.4203C33.7624 10.5704 33.8624 10.7763 33.8811 10.9973C33.8998 11.2183 33.836 11.4383 33.7021 11.6141C33.4389 11.9859 33.1403 12.3355 32.6983 12.3559Z" fill="#2766DF"/>
<path d="M11.675 33.5387C11.675 34.0913 10.9344 34.8263 10.3996 34.8075C10.1604 34.7884 9.93626 34.682 9.76896 34.5082C9.60165 34.3344 9.50259 34.105 9.49023 33.8627C9.49023 33.3204 10.2376 32.5888 10.7758 32.6007C11.0159 32.6112 11.2429 32.7142 11.4102 32.8887C11.5774 33.0632 11.6722 33.2958 11.675 33.5387Z" fill="#2766DF"/>
</svg>
