<svg width="208" height="181" viewBox="0 0 208 181" fill="none" xmlns="http://www.w3.org/2000/svg">
<path d="M0 181V0H208V181H0ZM102.094 51.1569L102.198 51.5362C101.833 51.2057 101.474 50.8697 101.109 50.5445C95.3969 45.4993 88.8683 42.4158 81.12 42.1611C66.8595 41.695 56.3778 53.1349 58.191 67.1217C58.9048 72.0987 60.5978 76.8867 63.1732 81.2116C71.8852 96.4394 83.053 109.722 95.6528 121.855C96.4369 122.614 97.0903 122.473 97.9451 122.007C115.986 112.202 129.085 97.9116 137.242 79.136C139.687 73.5272 141.598 67.7558 141.685 61.5454C141.794 53.4167 138.059 47.3526 131.133 44.7189C128.329 43.6403 125.338 43.1261 122.333 43.2061C119.328 43.2861 116.369 43.9587 113.627 45.185C109.63 46.8757 105.906 49.1464 102.094 51.1569ZM41.2679 79.9326H49.2775C50.0779 79.9326 50.9491 79.9326 50.911 78.8488C50.911 77.8571 50.0561 77.8463 49.3047 77.8463H33.1602C32.4034 77.8463 31.5975 77.8896 31.5812 78.8813C31.5648 79.873 32.3489 79.9651 33.1221 79.9651C35.8337 79.9326 38.5508 79.9326 41.2679 79.9326ZM54.031 62.9544C53.6786 62.5911 53.2706 62.2857 52.8222 62.0494C47.6494 60.2611 42.4767 58.5215 37.2766 56.7603C36.5198 56.5056 35.6867 56.4026 35.5288 57.3347C35.4635 57.7303 36.1223 58.4944 36.6178 58.6949C38.333 59.394 40.119 59.9088 41.8777 60.5049C45.3081 61.6646 48.7384 62.8135 52.1579 64.0003C53.0346 64.3092 53.6335 64.2171 54.0256 62.949L54.031 62.9544ZM77.755 141.993C78.0163 142.248 78.4628 142.914 78.6806 142.844C78.9566 142.763 79.2136 142.628 79.437 142.448C79.6604 142.267 79.8456 142.044 79.982 141.792C81.6863 136.991 83.3089 132.157 84.9642 127.339C85.2147 126.613 85.4542 125.838 84.5286 125.508C83.5104 125.145 83.2327 125.963 82.9713 126.733C81.3596 131.472 79.7388 136.209 78.1089 140.942L77.755 141.993ZM158.178 78.3069C155.782 78.3069 153.381 78.2473 150.991 78.3557C150.49 78.3557 150.016 79.0005 149.526 79.3474C150.016 79.6996 150.501 80.3499 150.996 80.3607C155.695 80.4366 160.4 80.4095 165.104 80.4041C165.888 80.4041 166.738 80.2307 166.542 79.2878C166.465 78.8813 165.61 78.3773 165.093 78.3557C162.817 78.2581 160.508 78.3069 158.178 78.3069ZM137.383 112.551C137.03 112.854 136.507 113.092 136.507 113.347C136.489 113.854 136.655 114.351 136.975 114.745C140.242 118.062 143.547 121.324 146.841 124.614C147.386 125.156 147.93 125.519 148.595 124.901C149.259 124.283 148.872 123.682 148.344 123.156C145.045 119.875 141.745 116.597 138.445 113.32C138.118 113.044 137.772 112.791 137.411 112.561L137.383 112.551ZM162.316 101.821C162.583 101.561 163.269 101.105 163.204 100.91C163.116 100.635 162.975 100.379 162.788 100.157C162.601 99.9362 162.373 99.7537 162.115 99.6205C157.683 98.0543 153.218 96.5857 148.769 95.0629C148.045 94.8137 147.353 94.7215 147.054 95.529C146.711 96.4394 147.386 96.7808 148.143 97.0355C152.085 98.3632 156.016 99.7126 159.959 101.046C160.688 101.295 161.374 101.512 162.338 101.831L162.316 101.821ZM101.027 137.045C101.027 134.477 101.027 131.913 101.027 129.345C101.027 128.58 100.994 127.762 100.036 127.719C99.0777 127.675 98.9797 128.494 98.9797 129.269C98.9797 134.355 98.9797 139.444 98.9797 144.534C98.9797 145.288 99.0124 146.095 100.041 146.063C101.071 146.03 101.027 145.201 101.027 144.437C101.045 141.98 101.054 139.515 101.054 137.04L101.027 137.045ZM124.68 123.286C123.591 123.253 123.15 124.007 123.591 124.912C125.682 129.204 127.778 133.496 129.962 137.744C130.158 138.129 130.958 138.205 131.476 138.422C131.585 137.907 131.944 137.278 131.764 136.899C129.711 132.564 127.588 128.309 125.448 124.045C125.274 123.665 124.854 123.427 124.68 123.286ZM53.2632 30.266C52.9365 30.5478 52.441 30.7754 52.4084 31.0518C52.3624 31.5181 52.5033 31.9835 52.8004 32.347C56.0348 35.631 59.3344 38.85 62.6015 42.1286C63.146 42.6705 63.8266 43.0119 64.3167 42.302C64.4146 42.0314 64.4425 41.7406 64.3978 41.4565C64.353 41.1724 64.2371 40.904 64.0607 40.6762C60.8427 37.376 57.5539 34.1407 54.2597 30.9217C53.948 30.6738 53.6145 30.4543 53.2632 30.266ZM71.6021 18.2788C70.3824 18.5335 70.2299 19.2001 70.5948 19.9588C72.6475 24.1803 74.7167 28.3856 76.8511 32.5637C77.0417 32.9377 77.7713 33.0298 78.2559 33.2574C78.3975 32.7155 78.8004 32.0543 78.6316 31.6696C76.6442 27.4697 74.5696 23.3132 72.4842 19.1622C72.3154 18.772 71.8689 18.5173 71.6021 18.2788ZM149.466 30.5857C149.177 30.2335 148.921 29.7024 148.698 29.697C148.189 29.6786 147.69 29.8441 147.293 30.1631C144.146 33.2249 141.053 36.3409 137.939 39.4352C137.394 39.9772 136.986 40.5191 137.618 41.1802C138.249 41.8413 138.924 41.397 139.474 40.8442C142.52 37.8095 145.566 34.7748 148.611 31.74C148.932 31.3764 149.227 30.9907 149.493 30.5857H149.466ZM148.519 56.7386L149.063 56.2401C149.357 56.1263 149.657 56.0287 149.934 55.8932L161.614 50.1869C162.305 49.8509 162.986 49.4499 162.534 48.5611C162.082 47.6724 161.352 48.0192 160.672 48.3335C157.594 49.8509 154.508 51.361 151.415 52.8639C150.464 53.2801 149.537 53.7487 148.638 54.2675C148.465 54.4184 148.324 54.6029 148.225 54.8098C148.126 55.0167 148.07 55.2415 148.061 55.4705C148.141 55.9198 148.305 56.35 148.546 56.7386H148.519ZM101.795 21.4057C101.795 19.3356 101.795 17.2636 101.795 15.1899C101.795 14.4475 101.593 13.6725 100.738 13.8351C100.468 13.9616 100.233 14.1532 100.055 14.3925C99.8774 14.6319 99.7623 14.9115 99.7202 15.2062C99.6367 19.2561 99.6367 23.3078 99.7202 27.3613C99.7202 27.8708 100.265 28.7378 100.689 28.8028C101.604 28.9492 101.778 28.1471 101.778 27.3451C101.789 25.3779 101.8 23.3945 101.795 21.4057ZM122.856 18.7286C122.644 18.4956 122.241 17.8019 122.018 17.8561C121.739 17.9138 121.476 18.029 121.246 18.1942C121.015 18.3595 120.822 18.5711 120.678 18.8153C119.301 22.6087 118.032 26.478 116.709 30.3094C116.447 31.0681 116.311 31.8159 117.226 32.114C118.141 32.412 118.457 31.6371 118.702 30.9272L122.426 20.0888C122.546 19.7366 122.649 19.3898 122.856 18.7395V18.7286ZM55.3923 125.193C55.76 124.959 56.1111 124.701 56.4431 124.419C59.2673 121.629 62.0842 118.833 64.8938 116.03C65.4383 115.488 65.9393 114.87 65.2042 114.198C64.4691 113.526 63.8919 114.073 63.3529 114.615C61.6976 116.277 60.0369 117.934 58.3707 119.585C57.1891 120.761 55.9694 121.909 54.8423 123.134C54.5601 123.51 54.4369 123.981 54.4993 124.446C54.5374 124.711 55.0438 124.912 55.3923 125.193ZM56.5902 102.433L56.0457 101.891C56.0184 101.089 55.2289 100.699 54.2978 101.143C50.5952 102.926 46.8926 104.714 43.239 106.59C42.836 106.795 42.7271 107.565 42.4875 108.069C43.032 108.183 43.7018 108.562 44.121 108.378C47.8454 106.638 51.5208 104.801 55.218 103.002C55.6645 102.807 56.1328 102.634 56.5902 102.438V102.433Z" fill="transperent"/>
<path d="M102.094 51.1568C105.905 49.1463 109.652 46.8757 113.621 45.1957C116.359 43.9689 119.313 43.2942 122.314 43.2104C125.315 43.1267 128.303 43.6357 131.105 44.708C138.031 47.3417 141.766 53.4166 141.658 61.5345C141.576 67.7557 139.659 73.5163 137.214 79.1251C129.047 97.879 115.948 112.169 97.9176 121.996C97.0628 122.462 96.4094 122.603 95.6253 121.844C83.0255 109.689 71.8523 96.4068 63.1457 81.2006C60.5703 76.8757 58.8773 72.0878 58.1635 67.1108C56.3557 53.1348 66.832 41.6949 81.0979 42.1664C88.8462 42.4211 95.3748 45.5046 101.087 50.5499C101.457 50.875 101.816 51.211 102.176 51.5416L102.094 51.1568ZM135.456 67.0729C136.321 67.3438 136.659 68.8991 137.966 68.1025C138.071 68.3548 138.153 68.616 138.211 68.8829C138.209 69.0907 138.175 69.297 138.113 69.4953C139.306 66.2494 139.78 62.785 139.501 59.3397C137.781 58.7491 137.498 60.3044 136.632 60.9059C137.394 61.7079 138.107 62.4016 138.739 63.1548C138.951 63.4095 139.147 64.049 139.033 64.152C137.868 65.1816 136.632 66.1354 135.418 67.1108L137.715 63.3879C137.242 62.9706 136.594 62.472 136.022 61.8976C135.45 61.3232 135.303 60.597 136.06 59.925C136.654 59.3831 137.149 58.7924 137.862 58.0717C137.414 57.7475 136.995 57.3848 136.61 56.9878C136.468 56.8198 136.572 56.4459 136.566 56.1695C136.811 56.2075 137.111 56.1695 137.291 56.2996C137.704 56.6389 138.099 57.0008 138.472 57.3834L138.886 57.3347C138.948 56.8525 138.948 56.3645 138.886 55.8823C137.253 49.9808 132.123 46.0953 125.388 45.4938C119.191 44.9519 113.594 46.6806 108.508 49.9483C104.816 52.3111 101.381 55.064 97.836 57.649C97.2043 58.1096 96.5346 58.7328 95.8376 57.9416C95.1407 57.1504 95.8376 56.5651 96.4747 56.0666C97.8033 55.0044 99.1319 53.9368 100.46 52.8638C95.0154 46.7727 84.953 43.1906 77.0468 44.4641C68.6343 45.8244 62.2527 51.5091 60.592 59.3452C59.3342 65.2737 60.5321 70.9097 63.0912 76.3126C66.7067 83.9482 71.5528 90.8142 76.7038 97.4852C79.4263 100.991 82.2196 104.411 85.1436 108.074C85.5955 107.532 85.8841 107.11 86.2326 106.763C90.7157 102.287 95.206 97.8158 99.7036 93.3504C99.938 93.0752 100.207 92.8311 100.504 92.6242C100.617 92.5812 100.737 92.5628 100.857 92.5703C100.978 92.5778 101.095 92.6109 101.201 92.6676C101.288 92.7164 101.304 93.1065 101.201 93.2529C100.989 93.5449 100.744 93.8121 100.471 94.0495L95.6579 98.7045L98.2607 101.17L102.138 97.3389L101.402 95.7674L103.58 96.3743C104.294 95.6156 105.165 94.6347 106.096 93.7189C106.33 93.4913 106.76 93.4588 107.103 93.3341C107 93.7081 107.011 94.1958 106.771 94.418C105.824 95.3609 104.795 96.228 103.934 96.9975L106.962 100.054L110.773 96.4068C109.456 95.1225 108.051 93.8219 106.755 92.4508C106.488 92.1744 106.466 91.6596 106.336 91.2586C106.725 91.3591 107.093 91.5259 107.425 91.7518C108.797 93.112 110.114 94.5264 111.585 96.0871C112.951 94.6673 114.122 93.41 115.358 92.2232C115.603 91.9848 116.104 92.0065 116.485 91.9089C116.415 92.2694 116.276 92.6132 116.077 92.9223C114.868 94.1362 113.605 95.2959 112.358 96.4718L114.536 98.71C115.456 97.767 116.284 96.8674 117.177 96.0437C117.416 95.8215 117.857 95.8161 118.2 95.7077C118.102 96.0546 118.113 96.4935 117.895 96.7265C117.03 97.637 116.093 98.4769 115.244 99.2844L116.768 100.823L121.255 96.3364L114.77 89.893C114.373 90.3915 113.953 90.9768 113.452 91.5187C113.3 91.6759 112.908 91.6163 112.646 91.6542C112.674 91.3724 112.597 90.9768 112.75 90.8305C113.3 90.3636 113.874 89.9259 114.471 89.5191L114.008 89.2318L113.725 87.8174L115.293 88.2564C117.705 85.8503 120.226 83.3141 122.785 80.8213C123.03 80.5829 123.515 80.5883 123.874 80.4799C123.76 80.8267 123.743 81.2765 123.509 81.5041C122.545 82.4362 121.516 83.3033 120.514 84.2137L120.819 84.8206C121.222 84.7827 121.767 84.9019 122.006 84.6852C123.509 83.3195 124.941 81.8835 126.597 80.274C126.091 79.9429 125.62 79.5616 125.192 79.1359C124.951 78.7295 124.768 78.2918 124.647 77.8353C125.082 77.9488 125.496 78.1318 125.872 78.3773C127.506 79.938 129.139 81.5312 130.686 83.1678C131.035 83.6331 131.326 84.139 131.552 84.6743L129.918 83.8831C129.842 83.8452 129.755 83.8235 129.798 83.8398L124.903 88.6032L126.156 90.0068C126.491 89.453 126.885 88.937 127.332 88.4677C127.956 88.013 128.613 87.6037 129.297 87.243C128.948 87.9139 128.536 88.5507 128.067 89.1451C127.578 89.5546 127.04 89.9022 126.466 90.1802C127.059 90.8142 127.261 90.9931 127.419 91.2098C127.588 91.4793 127.743 91.7579 127.882 92.0444C132.384 85.2918 135.881 77.9268 138.265 70.1781C137.41 70.4436 136.866 70.5682 136.365 70.7796C136.131 70.8771 136 71.2077 135.766 71.3215C135.492 71.4038 135.208 71.4457 134.922 71.4461C134.96 71.1698 134.922 70.8284 135.053 70.6333C135.482 70.1186 135.938 69.6266 136.419 69.1593C135.924 68.769 135.455 68.3472 135.015 67.8966C134.584 67.4035 134.633 67.3547 135.439 67.0783L135.456 67.0729ZM125.97 91.3128C125.529 91.7355 125.083 92.2124 124.576 92.6188C124.419 92.7489 124.103 92.6839 123.863 92.7055C123.863 92.4346 123.771 92.0877 123.907 91.9143C124.323 91.4132 124.766 90.9356 125.235 90.4837L124.217 89.3998L120.188 93.4209L124.081 97.3714L127.549 92.6242L125.97 91.3128ZM116.169 88.8525L119.3 92.0661L122.905 88.5599L121.239 86.5927C120.861 87.0876 120.451 87.5582 120.014 88.0017C119.85 88.148 119.469 88.0776 119.213 88.1101C119.251 87.8337 119.186 87.4706 119.338 87.3026C119.791 86.8661 120.271 86.4588 120.776 86.0833L119.856 85.2813L116.169 88.8525ZM90.0332 104.617L92.1514 107.278L93.8992 105.744C93.5398 105.413 93.2117 105.051 92.9191 104.66C92.8375 104.373 92.8098 104.074 92.8374 103.777C93.1206 103.787 93.3994 103.85 93.6596 103.961C93.976 104.203 94.2711 104.471 94.5417 104.763L97.4875 102.081L95.1298 99.5987L90.0332 104.617ZM122.11 97.03C120.912 98.2818 119.856 99.3819 118.799 100.493C118.162 101.165 117.166 101.669 117.814 102.85C117.209 102.921 116.583 102.801 116.278 103.062C115.075 104.064 113.975 105.186 112.848 106.253L114.373 108.015L123.433 98.336L122.11 97.03ZM99.0992 102.092L102.056 105.012L105.802 101.284L103.08 98.2764L99.0992 102.092ZM95.7396 118.951C96.3658 120.034 97.1281 120.251 98.2443 119.492C99.5511 118.604 100.967 117.867 102.312 117.043C102.916 116.674 103.499 116.268 103.913 115.997L102.54 115.417C103.374 114.014 101.86 113.922 101.451 113.222L99.916 114.545L100.684 116.653L98.8705 115.797L95.7396 118.951ZM91.8192 115.233L95.157 112.106L92.1296 109.104L90.8663 110.188L91.242 110.329C91.242 110.697 91.3618 111.326 91.242 111.412C90.7085 111.546 90.1579 111.599 89.6085 111.57L89.015 112.274L91.8192 115.233ZM123.765 87.5953L128.6 82.8968L127.283 81.3415L122.453 86.1104L123.765 87.5953ZM98.5111 103.072L95.7886 105.533L98.3805 108.524L101.294 105.869L98.5111 103.072ZM88.1656 111.347L91.4653 108.145L89.1348 105.907L85.7589 108.735L88.1656 111.347ZM108.819 104.129L107.114 102.151L103.237 105.842L105.051 107.765L108.819 104.129ZM111.596 97.5394L108.007 101.187L109.597 103.029L113.409 99.3873L111.596 97.5394ZM96.1861 112.827L92.9736 116.024L94.6071 117.953L98.0483 114.637L96.1861 112.827ZM109.984 104.926L106.047 108.768L107.24 110.144L111.22 106.259L109.984 104.926ZM114.487 100.265L110.877 103.853L111.966 105.332L115.777 101.766L114.487 100.265ZM101.321 111.548L104.109 108.838L102.274 107.028L99.4749 109.5L101.321 111.548ZM93.2567 107.944L96.2242 110.936L97.7815 109.602L94.6343 106.486L93.2567 107.944ZM113.327 108.811L112.418 107.321L108.29 111.179L109.189 112.263L113.327 108.811ZM105.296 109.711L102.236 112.42L103.684 113.797L106.526 110.995L105.296 109.711ZM98.7616 113.802L100.558 112.507L98.5874 110.28L96.9539 111.971L98.7616 113.802ZM104.718 115.016L105.067 115.26L108.334 112.87L107.408 111.819C106.521 112.989 105.121 113.623 104.697 115.011L104.718 115.016Z" fill="#558CC9"/>
<path d="M41.2677 79.9333C38.5452 79.9333 35.8227 79.9333 33.1001 79.9333C32.3215 79.9333 31.5483 79.8629 31.5592 78.8495C31.5701 77.8361 32.3814 77.8145 33.1383 77.8145H49.31C50.0614 77.8145 50.889 77.8145 50.9163 78.817C50.9435 79.9008 50.0777 79.9008 49.2828 79.9008L41.2677 79.9333Z" fill="#558CC9"/>
<path d="M54.0252 62.9482C53.655 64.2217 53.0342 64.3138 52.1521 64.032C48.7327 62.8452 45.3023 61.6964 41.8719 60.5367C40.1132 59.9406 38.3272 59.4203 36.612 58.7267C36.122 58.5262 35.4577 57.7675 35.523 57.3665C35.6755 56.4398 36.514 56.5373 37.2709 56.792C42.4545 58.5533 47.6437 60.2928 52.8164 62.0811C53.2622 62.3059 53.67 62.5984 54.0252 62.9482Z" fill="#558CC9"/>
<path d="M77.7549 141.994L78.1088 140.942C79.7314 136.206 81.3522 131.47 82.9712 126.733C83.2326 125.964 83.5157 125.146 84.5285 125.509C85.4542 125.839 85.2146 126.593 84.9641 127.34C83.3306 132.158 81.6971 136.992 79.9819 141.793C79.8455 142.045 79.6603 142.268 79.4369 142.449C79.2135 142.629 78.9565 142.764 78.6805 142.845C78.4627 142.915 78.0162 142.254 77.7549 141.994Z" fill="#558CC9"/>
<path d="M158.178 78.3062C160.487 78.3062 162.795 78.2466 165.093 78.3496C165.638 78.3496 166.465 78.8915 166.542 79.2817C166.727 80.2246 165.888 80.398 165.104 80.398C160.4 80.398 155.701 80.4305 150.996 80.3547C150.501 80.3547 150.016 79.6935 149.526 79.3413C150.01 78.9945 150.49 78.3713 150.991 78.3496C153.408 78.2575 155.804 78.3062 158.178 78.3062Z" fill="#558CC9"/>
<path d="M137.411 112.561C137.781 112.794 138.133 113.053 138.467 113.335C141.774 116.609 145.074 119.887 148.366 123.171C148.911 123.713 149.265 124.293 148.617 124.916C147.969 125.539 147.391 125.155 146.863 124.629C143.596 121.34 140.264 118.077 136.997 114.761C136.677 114.366 136.511 113.87 136.529 113.363C136.534 113.108 137.057 112.864 137.411 112.561Z" fill="#558CC9"/>
<path d="M162.338 101.831C161.375 101.517 160.705 101.289 160.002 101.061C156.066 99.7228 152.129 98.3517 148.187 97.0511C147.43 96.7964 146.749 96.455 147.098 95.5446C147.403 94.7372 148.089 94.8293 148.813 95.0786C153.261 96.6014 157.726 98.0699 162.159 99.6361C162.416 99.7693 162.645 99.9518 162.832 100.173C163.019 100.394 163.16 100.65 163.248 100.926C163.297 101.116 162.611 101.571 162.338 101.831Z" fill="#558CC9"/>
<path d="M101.054 137.039C101.054 139.517 101.054 141.994 101.054 144.469C101.054 145.206 101.092 146.035 100.069 146.095C99.0449 146.154 99.0068 145.325 99.0068 144.566C99.0068 139.48 99.0068 134.391 99.0068 129.301C99.0068 128.526 99.0994 127.724 100.063 127.751C101.027 127.778 101.06 128.596 101.054 129.376C101.043 131.902 101.054 134.47 101.054 137.039Z" fill="#558CC9"/>
<path d="M124.681 123.286C124.855 123.454 125.274 123.688 125.448 124.045C127.588 128.315 129.712 132.591 131.765 136.899C131.944 137.279 131.585 137.907 131.476 138.422C130.932 138.205 130.158 138.13 129.962 137.745C127.784 133.496 125.683 129.21 123.592 124.912C123.151 123.986 123.592 123.227 124.681 123.286Z" fill="#558CC9"/>
<path d="M53.2634 30.2656C53.611 30.4545 53.9408 30.674 54.249 30.9213C57.516 34.1728 60.8157 37.3972 64.05 40.6758C64.2264 40.9036 64.3423 41.172 64.3871 41.4561C64.4318 41.7402 64.4039 42.031 64.306 42.3016C63.8214 43.0115 63.1353 42.6701 62.5908 42.1282C59.3238 38.8767 56.0567 35.6252 52.7897 32.3466C52.4926 31.9832 52.3518 31.5177 52.3977 31.0514C52.4358 30.775 52.9313 30.5528 53.2634 30.2656Z" fill="#558CC9"/>
<path d="M71.602 18.2793C71.847 18.5123 72.2935 18.7724 72.4841 19.1572C74.5695 23.3083 76.6441 27.4648 78.6315 31.6646C78.8166 32.0494 78.3919 32.7159 78.2558 33.2524C77.7766 33.0303 77.0416 32.9327 76.851 32.5588C74.7111 28.386 72.642 24.1753 70.5947 19.9538C70.2516 19.206 70.4095 18.5394 71.602 18.2793Z" fill="#558CC9"/>
<path d="M149.493 30.5854C149.235 30.9895 148.95 31.3752 148.638 31.7397C145.6 34.7817 142.554 37.8164 139.501 40.8439C138.957 41.3858 138.336 41.8735 137.645 41.1799C136.953 40.4862 137.438 39.9606 137.966 39.4349C141.081 36.3406 144.179 33.23 147.321 30.1627C147.717 29.8438 148.216 29.6783 148.725 29.6967C148.97 29.7021 149.205 30.2332 149.493 30.5854Z" fill="#558CC9"/>
<path d="M148.546 56.7381C148.323 56.3477 148.176 55.9195 148.11 55.4754C148.119 55.2464 148.175 55.0215 148.274 54.8147C148.374 54.6078 148.514 54.4233 148.688 54.2724C149.586 53.7536 150.513 53.285 151.464 52.8688C154.546 51.3587 157.632 49.8485 160.721 48.3384C161.407 48.0024 162.131 47.6772 162.583 48.566C163.035 49.4547 162.355 49.8557 161.663 50.1917L149.983 55.8981C149.7 56.0336 149.401 56.1311 149.112 56.2449L148.546 56.7381Z" fill="#558CC9"/>
<path d="M101.8 21.4055C101.8 23.3889 101.8 25.3669 101.8 27.3666C101.8 28.1632 101.604 28.9923 100.711 28.8244C100.308 28.7593 99.7529 27.8923 99.742 27.3829C99.6622 23.3329 99.6622 19.2812 99.742 15.2277C99.7765 14.9279 99.8864 14.6416 100.061 14.3954C100.237 14.1491 100.471 13.9507 100.744 13.8187C101.599 13.6561 101.8 14.4311 101.8 15.1735C101.797 17.2653 101.797 19.3426 101.8 21.4055Z" fill="#558CC9"/>
<path d="M122.856 18.7399C122.649 19.3902 122.546 19.7316 122.426 20.073L118.702 30.9114C118.457 31.6213 118.157 32.4016 117.226 32.0982C116.295 31.7947 116.447 31.0523 116.709 30.2936C118.032 26.4622 119.301 22.6092 120.678 18.7995C120.822 18.5553 121.015 18.3437 121.246 18.1784C121.476 18.0132 121.739 17.898 122.018 17.8403C122.241 17.8187 122.644 18.5069 122.856 18.7399Z" fill="#558CC9"/>
<path d="M55.3922 125.193C55.0438 124.916 54.5374 124.71 54.4992 124.445C54.4369 123.98 54.56 123.509 54.8423 123.133C55.9694 121.903 57.1836 120.76 58.3707 119.584C60.0332 117.929 61.6939 116.273 63.3529 114.614C63.8974 114.073 64.4854 113.531 65.2042 114.197C65.9229 114.864 65.4438 115.487 64.8938 116.029C62.0769 118.825 59.26 121.621 56.4431 124.418C56.1111 124.7 55.76 124.959 55.3922 125.193Z" fill="#558CC9"/>
<path d="M56.59 102.438C56.1326 102.633 55.6644 102.806 55.2124 103.029C51.5207 104.828 47.8398 106.665 44.1154 108.404C43.7125 108.594 43.0264 108.215 42.4819 108.095C42.727 107.586 42.8359 106.822 43.2334 106.616C46.887 104.741 50.5896 102.947 54.2922 101.17C55.2233 100.725 56.0128 101.11 56.0401 101.918L56.59 102.438Z" fill="#558CC9"/>
<path d="M135.429 67.0843C134.634 67.3553 134.585 67.3986 135.009 67.8972C135.45 68.3478 135.919 68.7696 136.414 69.1599C135.933 69.6272 135.477 70.1192 135.047 70.6339C134.9 70.829 134.955 71.1758 134.917 71.4468C135.203 71.4464 135.487 71.4044 135.761 71.3221C135.995 71.2137 136.126 70.8832 136.36 70.7802C136.866 70.5689 137.405 70.4388 138.26 70.1787C135.877 77.9234 132.381 85.2846 127.882 92.0342C127.743 91.7477 127.589 91.4691 127.419 91.1996C127.261 90.9828 127.06 90.804 126.466 90.17C127.04 89.8954 127.578 89.5514 128.067 89.1457C128.532 88.5614 128.942 87.9356 129.292 87.2761C128.608 87.6368 127.951 88.0461 127.326 88.5009C126.88 88.9701 126.485 89.4861 126.15 90.0399L124.898 88.6363L129.711 83.8295C129.673 83.8295 129.755 83.8295 129.831 83.8729L131.465 84.6641C131.239 84.1288 130.948 83.6229 130.599 83.1576C129.031 81.5318 127.424 79.9061 125.785 78.367C125.409 78.1216 124.995 77.9386 124.56 77.8251C124.681 78.2816 124.864 78.7192 125.105 79.1257C125.533 79.5514 126.004 79.9327 126.51 80.2637C124.876 81.8895 123.417 83.3093 121.919 84.6749C121.68 84.8917 121.135 84.7779 120.732 84.8104L120.428 84.2035C121.429 83.3147 122.459 82.4477 123.422 81.4939C123.656 81.2663 123.673 80.8165 123.787 80.4697C123.411 80.5781 122.927 80.5726 122.698 80.8111C120.139 83.3039 117.618 85.8401 115.206 88.2462L113.638 87.8072L113.921 89.2216L114.384 89.5088C113.787 89.9157 113.213 90.3534 112.663 90.8203C112.505 90.9666 112.587 91.3622 112.559 91.644C112.837 91.606 113.213 91.644 113.365 91.5085C113.866 90.9666 114.291 90.3922 114.683 89.8828L121.152 96.337L116.665 100.824L115.14 99.285C115.99 98.4775 116.926 97.6593 117.792 96.7272C118.01 96.4996 118.005 96.0552 118.097 95.7084C117.749 95.8167 117.313 95.8222 117.073 96.0443C116.18 96.8735 115.353 97.7676 114.433 98.7106L112.255 96.4725C113.501 95.2911 114.759 94.1314 115.974 92.9229C116.173 92.6138 116.311 92.27 116.382 91.9095C116.001 92.0071 115.5 91.9854 115.255 92.2238C114.019 93.416 112.854 94.6733 111.481 96.0877C110.011 94.5486 108.688 93.1397 107.321 91.7524C106.99 91.5265 106.621 91.3597 106.232 91.2592C106.363 91.6657 106.385 92.1751 106.652 92.4514C107.969 93.8171 109.374 95.1231 110.67 96.4074L106.859 100.055L103.831 96.9981C104.691 96.2286 105.721 95.3724 106.668 94.4186C106.908 94.1801 106.897 93.6924 107 93.3348C106.657 93.4594 106.227 93.4865 105.993 93.7195C105.062 94.6354 104.185 95.6162 103.477 96.3749L101.299 95.768L102.034 97.3395L98.1574 101.171L95.5547 98.7051L100.368 94.0501C100.641 93.8127 100.885 93.5455 101.098 93.2535C101.19 93.1072 101.179 92.7116 101.098 92.6682C100.991 92.6116 100.874 92.5784 100.754 92.5709C100.634 92.5634 100.513 92.5818 100.401 92.6248C100.104 92.8317 99.8347 93.0758 99.6003 93.351C95.11 97.82 90.6197 102.291 86.1293 106.763C85.7808 107.11 85.4923 107.528 85.0403 108.075C82.1163 104.412 79.3013 100.992 76.6005 97.4858C71.4659 90.8148 66.6198 83.9379 62.988 76.3132C60.4288 70.894 59.2309 65.2798 60.4887 59.3458C62.1494 51.5205 68.531 45.825 76.9436 44.4647C84.8497 43.1858 94.9122 46.7733 100.357 52.8645C99.0286 53.9483 97.7 55.0159 96.3714 56.0672C95.7507 56.5657 95.0265 57.1185 95.7344 57.9422C96.4422 58.7659 97.1011 58.1102 97.7327 57.6496C101.277 55.0592 104.713 52.3117 108.405 49.9489C113.507 46.6974 119.104 44.9416 125.285 45.4944C132.02 46.0905 137.171 49.976 138.783 55.8829C138.845 56.3651 138.845 56.8531 138.783 57.3353L138.369 57.384C137.995 57.0014 137.601 56.6395 137.187 56.3002C137.013 56.1701 136.708 56.2081 136.463 56.1701C136.463 56.4465 136.371 56.8204 136.507 56.9884C136.892 57.3854 137.311 57.7481 137.759 58.0723C137.068 58.793 136.55 59.4 135.957 59.9256C135.2 60.5976 135.282 61.2587 135.919 61.8982C136.556 62.5377 137.138 62.982 137.612 63.3885L135.314 67.1114L135.429 67.0843ZM73.2954 65.5399C72.2391 66.5207 71.4223 67.2361 70.6655 68.011C70.464 68.2169 70.4585 68.6125 70.3605 68.9214C70.709 68.851 71.1773 68.9214 71.3787 68.6884C72.1519 67.881 72.8326 66.9922 73.5568 66.1306L73.8072 66.5641L75.6476 68.0923C74.9452 68.7101 74.3463 69.1761 73.8236 69.718C73.6711 69.8752 73.7528 70.26 73.7256 70.5201C74.0032 70.4822 74.3844 70.5201 74.5314 70.3792C75.0759 69.8373 75.4952 69.1924 75.909 68.6667L79.176 71.8749C78.234 72.7582 77.2213 73.6686 76.2738 74.6332C76.0451 74.8663 76.0288 75.2944 75.9145 75.6358C76.2575 75.5599 76.7094 75.5978 76.9218 75.3919C79.0018 73.3796 81.0546 71.3366 83.0801 69.2628C83.287 69.0515 83.2598 68.6071 83.3415 68.2711C82.9984 68.3795 82.5519 68.3904 82.3233 68.618C81.5555 69.3766 80.8585 70.2166 80.3086 70.8344L77.4282 68.1519L80.3413 65.0738L82.0292 66.1035C81.2016 66.8459 80.5917 67.3282 80.0745 67.8918C79.9002 68.0815 79.971 68.4933 79.9329 68.8076C80.2106 68.748 80.5863 68.7751 80.7496 68.6071C81.2941 68.0218 81.7951 67.3715 82.1436 66.9489L84.1256 67.7184L83.5811 65.9517L84.5013 64.8679L87.2238 67.3011C85.9224 68.5583 84.6265 69.756 83.4123 71.0241C83.1739 71.3938 83.0043 71.8031 82.9113 72.2325C83.3449 72.1242 83.7559 71.9407 84.1256 71.6906C85.416 70.4388 86.6412 69.1274 88.1004 67.6208C88.7266 68.3741 89.1894 68.9485 89.6686 69.4633C89.7761 69.5283 89.8959 69.5704 90.0205 69.5872C90.1451 69.604 90.2718 69.595 90.3928 69.5609C90.4563 69.4873 90.5016 69.4 90.5253 69.306C90.5489 69.2119 90.5501 69.1136 90.5289 69.019C89.8809 68.0838 89.1638 67.1981 88.3836 66.369C87.4585 65.5437 86.4916 64.7659 85.4868 64.0388C85.8244 63.6703 85.966 63.3776 86.1293 63.3614C87.1421 63.2692 87.1748 62.2775 87.6485 61.7356C87.7628 61.6001 87.6866 61.2316 87.5831 61.0257C87.545 60.9444 87.1584 60.9715 86.9788 61.0257C86.804 61.1144 86.6442 61.2296 86.505 61.3671L82.7861 57.6821L82.9984 56.3977C82.7534 56.3977 82.5029 56.4411 82.2579 56.4682C82.0129 56.4953 81.6644 56.5549 81.3649 56.5983C81.4575 56.3056 81.5664 56.013 81.6372 55.7149C81.708 55.4169 81.7297 55.173 81.7787 54.8912C81.4696 54.918 81.1634 54.9725 80.864 55.0538C80.7238 55.1034 80.5983 55.1872 80.4992 55.2977L78.6588 54.6474L79.2523 56.2189L76.3827 59.4379C76.1503 59.051 75.8685 58.6958 75.5442 58.3812C75.2272 58.234 74.8858 58.1458 74.5369 58.121C74.5815 58.4363 74.6732 58.7432 74.8091 59.0315C75.1708 59.4811 75.5638 59.9048 75.9852 60.2995C75.2447 60.9011 74.526 61.4484 73.8617 62.0499C73.7201 62.18 73.7637 62.516 73.7201 62.7544C73.9978 62.7544 74.3681 62.8736 74.5423 62.7544C75.0868 62.3371 75.4897 61.779 76.0234 61.3671C76.2629 61.1829 76.6659 61.2045 77.2158 61.0907L73.682 64.8842C72.9306 64.055 72.2554 63.2584 71.504 62.5377C71.3297 62.3642 70.9595 62.3859 70.6763 62.3155C70.7199 62.6244 70.6763 63.0471 70.8288 63.2313C71.504 64.0008 72.3044 64.662 73.2954 65.5453V65.5399ZM130.19 73.8475L132.243 75.7387C131.1 76.8551 129.945 77.9064 128.862 79.0715C128.645 79.4363 128.501 79.8392 128.437 80.2583C128.824 80.1692 129.193 80.0133 129.526 79.7977C130.691 78.6868 131.797 77.5108 132.793 76.5028L134.9 77.5487C134.612 76.9743 134.323 76.4053 134.035 75.8309C133.992 75.7283 133.956 75.6233 133.926 75.5166C134.246 75.2249 134.539 74.9057 134.802 74.5628C135.019 74.1785 135.201 73.7759 135.347 73.3597C134.926 73.4401 134.522 73.5942 134.154 73.8149C133.884 74.1019 133.663 74.4315 133.501 74.7904L130.991 72.7365C132.08 71.6852 133.098 70.7314 134.04 69.7072C134.293 69.3087 134.477 68.8709 134.585 68.412C134.155 68.528 133.747 68.7109 133.376 68.9539C132.029 70.222 130.717 71.528 129.439 72.872C129.193 73.2387 129.009 73.6433 128.895 74.0696L130.19 73.8475Z" fill="transperent"/>
<path d="M125.971 91.312L127.544 92.6072L124.076 97.3544L120.183 93.4038L124.212 89.3828L125.23 90.4666C124.761 90.9186 124.317 91.3962 123.902 91.8973C123.771 92.0707 123.869 92.4392 123.858 92.6885C124.103 92.6885 124.402 92.7264 124.571 92.6018C125.078 92.2116 125.508 91.7347 125.971 91.312Z" fill="transperent"/>
<path d="M116.197 88.8521L119.883 85.2754L120.803 86.0774C120.298 86.4529 119.818 86.8602 119.366 87.2967C119.213 87.4647 119.273 87.8387 119.241 88.1042C119.513 88.0771 119.878 88.1476 120.041 87.9958C120.479 87.5523 120.888 87.0817 121.266 86.5868L122.932 88.554L119.328 92.0602L116.197 88.8521Z" fill="transperent"/>
<path d="M90.0825 104.616L95.1246 99.5762L97.4823 102.058L94.5366 104.741C94.2659 104.449 93.9708 104.181 93.6545 103.939C93.3945 103.835 93.1177 103.78 92.8377 103.776C92.8273 104.082 92.8754 104.387 92.9793 104.676C93.2719 105.066 93.6 105.429 93.9594 105.759L92.2115 107.293L90.0825 104.616Z" fill="transperent"/>
<path d="M122.159 97.0137L123.483 98.3197L114.422 107.998L112.897 106.237C114.025 105.153 115.124 104.069 116.328 103.045C116.638 102.785 117.264 102.904 117.863 102.834C117.204 101.652 118.212 101.143 118.849 100.477C119.905 99.3656 120.967 98.2655 122.159 97.0137Z" fill="transperent"/>
<path d="M99.1484 102.075L103.14 98.2812L105.862 101.289L102.094 104.996L99.1484 102.075Z" fill="transperent"/>
<path d="M95.7397 118.95L98.8706 115.801L100.684 116.658L99.9161 114.544L101.452 113.211C101.865 113.91 103.379 114.008 102.541 115.406L103.913 115.986C103.499 116.262 102.916 116.668 102.312 117.031C100.956 117.855 99.5458 118.592 98.2445 119.481C97.1337 120.245 96.3714 120.034 95.7397 118.95Z" fill="transperent"/>
<path d="M91.8194 115.227L88.9717 112.252L89.5652 111.548C90.1145 111.577 90.6652 111.524 91.1987 111.391C91.3403 111.326 91.1987 110.702 91.1987 110.307L90.823 110.166L92.0862 109.082L95.1137 112.084L91.8194 115.227Z" fill="transperent"/>
<path d="M123.765 87.5897L122.453 86.1048L127.283 81.3359L128.601 82.8912L123.765 87.5897Z" fill="transperent"/>
<path d="M98.5168 103.066L101.31 105.863L98.397 108.518L95.8052 105.527L98.5168 103.066Z" fill="transperent"/>
<path d="M135.417 67.1055C136.632 66.13 137.868 65.1762 139.033 64.1466C139.153 64.0436 138.951 63.4042 138.739 63.1495C138.107 62.3908 137.394 61.7025 136.632 60.9005C137.497 60.299 137.781 58.7328 139.501 59.3344C139.776 62.7844 139.297 66.2527 138.096 69.5007C138.159 69.3025 138.192 69.0962 138.194 68.8884C138.136 68.6214 138.054 68.3603 137.949 68.108C136.643 68.9046 136.316 67.3493 135.434 67.0838L135.417 67.1055Z" fill="transperent"/>
<path d="M88.1496 111.363L85.7593 108.735L89.0971 105.906L91.4276 108.144L88.1496 111.363Z" fill="transperent"/>
<path d="M108.797 104.129L105.051 107.749L103.238 105.825L107.115 102.135L108.797 104.129Z" fill="transperent"/>
<path d="M111.574 97.5391L113.377 99.387L109.565 103.029L107.975 101.186L111.574 97.5391Z" fill="transperent"/>
<path d="M96.1701 112.822L98.0269 114.632L94.5857 117.949L92.9521 116.02L96.1701 112.822Z" fill="transperent"/>
<path d="M109.967 104.92L111.209 106.253L107.229 110.139L106.036 108.762L109.967 104.92Z" fill="transperent"/>
<path d="M114.471 100.26L115.75 101.761L111.939 105.327L110.85 103.847L114.471 100.26Z" fill="transperent"/>
<path d="M101.305 111.542L99.4751 109.51L102.274 107.039L104.092 108.849L101.305 111.542Z" fill="transperent"/>
<path d="M93.2402 107.939L94.6342 106.486L97.7596 109.619L96.2023 110.952L93.2402 107.939Z" fill="transperent"/>
<path d="M113.311 108.807L109.173 112.237L108.274 111.153L112.402 107.295L113.311 108.807Z" fill="transperent"/>
<path d="M105.28 109.705L106.51 111.011L103.668 113.813L102.22 112.447L105.28 109.705Z" fill="transperent"/>
<path d="M98.7403 113.797L96.9761 111.954L98.6096 110.264L100.564 112.496L98.7403 113.797Z" fill="transperent"/>
<path d="M104.697 115.012C105.122 113.624 106.521 113.012 107.42 111.814L108.345 112.866L105.078 115.256L104.697 115.012Z" fill="transperent"/>
<path d="M73.2956 65.5451C72.3046 64.6618 71.5042 64.0006 70.78 63.2636C70.6003 63.0848 70.6711 62.6621 70.6275 62.3478C70.9107 62.4183 71.2809 62.3966 71.4552 62.57C72.1902 63.3016 72.8654 64.0928 73.6332 64.9165L77.167 61.1231C76.6225 61.2423 76.2141 61.2152 75.9745 61.3994C75.43 61.8113 75.0217 62.3695 74.4935 62.7868C74.3247 62.9222 73.949 62.7868 73.6713 62.7868C73.7149 62.5483 73.6713 62.2123 73.8129 62.0823C74.4772 61.4753 75.1959 60.928 75.9364 60.3319C75.515 59.9372 75.122 59.5134 74.7603 59.0638C74.6244 58.7755 74.5327 58.4687 74.4881 58.1534C74.837 58.1781 75.1784 58.2663 75.4954 58.4135C75.8197 58.7281 76.1015 59.0833 76.3339 59.4702L79.2035 56.2512L78.6099 54.6797L80.4504 55.33C80.5495 55.2195 80.675 55.1357 80.8152 55.0861C81.1146 55.0048 81.4208 54.9504 81.7299 54.9235C81.6864 55.1999 81.6537 55.4655 81.5884 55.7473C81.523 56.0291 81.4087 56.338 81.3161 56.6306C81.6156 56.5872 81.9096 56.5385 82.2091 56.5005C82.5086 56.4626 82.6992 56.4518 82.9496 56.4301L82.7373 57.7144L86.4562 61.3994C86.5954 61.2619 86.7552 61.1468 86.9299 61.058C87.1151 60.9822 87.4744 60.9551 87.5343 61.058C87.6378 61.264 87.714 61.6325 87.5997 61.768C87.1205 62.3099 87.0933 63.307 86.0805 63.3937C85.9172 63.3937 85.781 63.6972 85.438 64.0711C86.4428 64.7982 87.4097 65.576 88.3348 66.4013C89.115 67.2304 89.8321 68.1162 90.4801 69.0513C90.5013 69.1459 90.5001 69.2442 90.4765 69.3383C90.4528 69.4324 90.4075 69.5197 90.344 69.5932C90.223 69.6274 90.0963 69.6363 89.9717 69.6195C89.8471 69.6028 89.7273 69.5606 89.6198 69.4957C89.1134 68.9809 88.6778 68.4118 88.0516 67.6532C86.5924 69.1597 85.3618 70.4711 84.0768 71.723C83.7071 71.9731 83.2961 72.1565 82.8625 72.2649C82.9554 71.8354 83.1251 71.4261 83.3635 71.0564C84.5886 69.7937 85.8845 68.5907 87.175 67.3334L84.4525 64.9002L83.5323 65.9841L84.0768 67.7507L82.0948 66.9812C81.7463 67.4039 81.2617 68.065 80.7008 68.6395C80.5375 68.8074 80.1563 68.7803 79.8841 68.84C79.9222 68.5311 79.8514 68.1192 80.0257 67.9241C80.5375 67.3822 81.1473 66.8782 81.9804 66.1358L80.2925 65.1062L77.3794 68.1842L80.2598 70.8667C80.8043 70.2489 81.5067 69.409 82.2745 68.6503C82.5031 68.4227 82.9496 68.4118 83.2927 68.3035C83.211 68.6395 83.2437 69.0838 83.0313 69.2952C81.0094 71.3653 78.9566 73.4083 76.873 75.4242C76.6606 75.6302 76.2087 75.5922 75.8656 75.6681C75.98 75.3267 75.9963 74.8986 76.225 74.6656C77.1725 73.7009 78.1852 72.7905 79.1272 71.9072L75.8602 68.6991C75.4464 69.241 75.0053 69.8533 74.4826 70.4115C74.3356 70.5687 73.9381 70.5091 73.6767 70.5524C73.6767 70.276 73.6277 69.9075 73.7748 69.7504C74.3193 69.2085 74.8964 68.7207 75.5988 68.1246L73.7802 66.5693L73.5297 66.1358C72.811 66.9974 72.1304 67.8862 71.3517 68.6936C71.1502 68.905 70.682 68.8562 70.3335 68.9267C70.4315 68.6178 70.437 68.2222 70.6384 68.0162C71.4225 67.2413 72.2393 66.526 73.2956 65.5451ZM82.318 65.0845L83.701 64.2445L83.3362 62.505L84.9098 63.0469L85.3073 62.6188L81.6265 58.9175L78.8441 61.5078L82.318 65.0845ZM79.3069 64.0603L78.0709 62.5917L74.8964 65.6589L76.176 67.2413L79.3069 64.0603ZM80.8097 57.8336C80.1454 57.1562 80.14 57.1508 78.0273 59.3293C77.6462 59.7195 76.8512 60.1422 77.9511 60.6679L80.8097 57.8336Z" fill="#558CC9"/>
<path d="M130.196 73.8475L128.916 74.0697C129.03 73.6434 129.214 73.2388 129.461 72.8721C130.735 71.5317 132.047 70.2257 133.398 68.954C133.769 68.711 134.177 68.5281 134.606 68.4121C134.499 68.871 134.315 69.3087 134.062 69.7073C133.114 70.7315 132.085 71.6853 131.013 72.7366L133.523 74.7905C133.685 74.4316 133.906 74.1019 134.176 73.815C134.544 73.5943 134.947 73.4401 135.369 73.3598C135.223 73.776 135.041 74.1786 134.824 74.5629C134.561 74.9058 134.267 75.225 133.948 75.5166C133.978 75.6234 134.014 75.7283 134.056 75.8309C134.345 76.4054 134.634 76.9798 134.922 77.5488L132.815 76.5029C131.824 77.5163 130.713 78.6706 129.548 79.7978C129.215 80.0134 128.846 80.1693 128.459 80.2584C128.523 79.8393 128.667 79.4363 128.884 79.0716C129.973 77.9282 131.116 76.8552 132.265 75.7388L130.196 73.8475Z" fill="#558CC9"/>
<path d="M82.3182 65.0791L78.8442 61.5078L81.6266 58.8633L85.3075 62.5646L84.91 62.9927L83.3364 62.4508L83.7012 64.1903L82.3182 65.0791Z" fill="transperent"/>
<path d="M79.307 64.0548L76.1761 67.2629L74.8965 65.6805L78.0709 62.6133L79.307 64.0548Z" fill="transperent"/>
<path d="M80.8097 57.8326L77.9456 60.6668C76.8566 60.1249 77.6461 59.7184 78.0218 59.3282C80.1399 57.1714 80.1454 57.1714 80.8097 57.8326Z" fill="transperent"/>
</svg>
