<svg width="134" height="151" viewBox="0 0 134 151" fill="none" xmlns="http://www.w3.org/2000/svg">
<g clip-path="url(#clip0_152_782)">
<path d="M0 0H134.02V151.005H0V0ZM122.098 118.51C122.003 118.01 121.878 117.385 121.774 116.755C121.475 114.954 121.365 113.094 120.857 111.358C118.217 102.386 109.264 95.2884 99.4936 94.2631C96.7335 93.973 93.9236 93.843 91.2332 93.2178C85.7827 91.9474 83.5956 89.2166 84.1685 83.97C84.1523 83.8472 84.1523 83.7227 84.1685 83.5999C84.4425 82.9497 84.577 82.1495 85.0454 81.6893C89.0418 77.8864 91.9508 73.0785 93.4702 67.7652C93.5677 67.253 93.7878 66.7723 94.1116 66.3646C94.4353 65.9568 94.8529 65.6342 95.3285 65.4245C96.4445 64.8843 97.3911 63.759 98.1135 62.6887C99.4935 60.538 100.26 58.0488 100.331 55.4915C100.445 53.4309 99.8324 51.3903 98.1135 50.33C96.3947 49.2697 96.2452 48.0293 96.3349 46.3288C96.4047 45.0884 96.2054 43.8281 96.1605 42.5877C96.1605 42.0875 96.2403 41.5874 96.2602 41.0872C96.3754 39.69 96.4203 38.2878 96.3947 36.886C96.3372 36.5929 96.3681 36.2893 96.4835 36.014C96.5988 35.7386 96.7935 35.5042 97.0424 35.3405C99.2808 33.7406 101.137 31.6616 102.478 29.2537C105.921 22.9618 103.24 17.3052 96.2104 16.0098C96.0858 16.0098 95.9662 15.9698 95.8417 15.9598C93.6495 15.7747 91.4375 15.7297 89.2752 15.3846C76.3672 13.3036 63.1844 13.6785 50.4144 16.4899C47.8958 16.9959 45.4179 17.688 43.001 18.5605C39.5633 19.8709 38.3377 22.4917 39.2095 26.0878C40.142 29.967 42.2901 33.4435 45.3376 36.0057C45.5881 36.21 45.7865 36.4713 45.9165 36.7679C46.0464 37.0644 46.1042 37.3878 46.0849 37.7112C46.1497 39.3667 46.3938 41.0122 46.5582 42.6577C46.8073 45.1885 47.0564 47.7242 47.3006 50.22C44.6949 50.7201 43.544 51.7204 43.3896 54.0661C43.2596 55.7594 43.3975 57.4626 43.7981 59.1126C44.665 62.4786 46.1397 63.6139 49.2785 63.894C49.3981 64.2841 49.5126 64.6843 49.6372 65.0794C51.8044 71.7864 54.709 78.0833 59.3773 83.4749C59.6385 83.8329 59.7767 84.2665 59.7709 84.7102C59.8228 86.1948 59.5354 87.6716 58.9309 89.0275C58.3264 90.3834 57.4208 91.5823 56.2834 92.5326C54.3352 94.233 52.0469 95.4949 49.5724 96.2337C46.3191 97.234 43.0358 98.0942 39.7626 99.0045C33.2061 100.835 27.4118 103.871 23.3215 109.533C20.6759 113.179 18.5187 117.09 18.2745 121.701C17.9358 128.098 21.1742 132.419 26.5947 135.33C31.1335 137.766 36.0957 138.196 41.0978 138.201C51.1285 138.201 61.1593 138.141 71.19 138.021C81.6924 137.901 92.1947 137.881 102.687 137.471C112.836 137.076 119.851 130.514 121.545 120.466C121.691 119.804 121.875 119.151 122.098 118.51Z" fill="transperent"/>
<path d="M122.098 118.511C121.866 119.149 121.671 119.8 121.515 120.461C119.821 130.524 112.806 137.081 102.658 137.467C92.1651 137.877 81.6628 137.897 71.1604 138.017C61.1296 138.13 51.0989 138.19 41.0682 138.197C36.086 138.197 31.1039 137.762 26.5651 135.326C21.1445 132.42 17.9061 128.094 18.2449 121.697C18.489 117.085 20.6463 113.194 23.2918 109.528C27.4021 103.862 33.1964 100.826 39.7329 99.0001C43.0062 98.0848 46.2895 97.2045 49.5428 96.2292C52.0182 95.4941 54.3082 94.2356 56.2588 92.5381C57.3962 91.5879 58.3018 90.3889 58.9063 89.0331C59.5108 87.6772 59.7981 86.2004 59.7463 84.7158C59.752 84.2721 59.6139 83.8385 59.3527 83.4804C54.6894 78.0988 51.7848 71.7919 49.6126 65.0849C49.483 64.6898 49.3734 64.2897 49.2538 63.8996C46.13 63.6345 44.6603 62.4842 43.7735 59.1182C43.3728 57.4682 43.235 55.7649 43.3649 54.0717C43.5244 51.746 44.6703 50.7107 47.2759 50.2255C47.0318 47.7248 46.7777 45.194 46.5336 42.6633C46.3692 41.0128 46.13 39.3673 46.0603 37.7168C46.0771 37.3958 46.0182 37.0754 45.8884 36.7817C45.7585 36.4879 45.5613 36.2291 45.313 36.0263C42.2793 33.4569 40.1456 29.9792 39.2248 26.1033C38.3529 22.5073 39.5785 19.8865 43.0162 18.5761C45.4332 17.7035 47.9111 17.0114 50.4296 16.5055C63.1996 13.6941 76.3824 13.3191 89.2904 15.4001C91.4577 15.7452 93.6697 15.7903 95.8569 15.9753C95.9815 15.9753 96.106 16.0003 96.2256 16.0253C103.255 17.3207 105.936 22.9774 102.493 29.2693C101.152 31.6795 99.2934 33.7603 97.0526 35.3611C96.8037 35.5247 96.6091 35.7592 96.4937 36.0345C96.3783 36.3099 96.3474 36.6135 96.4049 36.9066C96.4305 38.3083 96.3856 39.7105 96.2704 41.1078C96.2704 41.6079 96.1558 42.1081 96.1708 42.6082C96.2156 43.8586 96.4149 45.109 96.3452 46.3494C96.2555 48.0249 96.4199 49.2852 98.1238 50.3506C99.8277 51.4159 100.455 53.4515 100.341 55.5121C100.271 58.0694 99.5038 60.5585 98.1238 62.7092C97.4014 63.7796 96.4548 64.9049 95.3388 65.4451C94.8632 65.6547 94.4455 65.9774 94.1218 66.3851C93.7981 66.7929 93.5779 67.2736 93.4804 67.7857C91.9713 73.1035 89.0708 77.9184 85.0805 81.7299C84.6122 82.1851 84.4777 82.9903 84.2037 83.6405C84.1874 83.7633 84.1874 83.8878 84.2037 84.0106C83.6307 89.2672 85.8179 92.013 91.2683 93.2583C93.9587 93.8835 96.7487 94.0136 99.5288 94.3037C109.294 95.304 118.252 102.426 120.892 111.399C121.39 113.139 121.51 114.995 121.809 116.795C121.884 117.386 122.008 118.006 122.098 118.511ZM77.3283 84.8458L80.3524 83.1703L78.2998 81.3498L76.4265 82.9303C76.7802 83.6605 77.0692 84.2607 77.3482 84.8508L75.4301 83.9756L73.487 85.7261L73.7461 86.0812L77.3283 84.8458ZM76.3319 47.1346C77.3283 47.6798 78.0457 47.3747 78.7332 46.5294C79.3793 45.7681 80.0857 45.0605 80.8457 44.4138C81.1612 44.2288 81.5071 44.1018 81.867 44.0387C81.7475 44.3888 81.7275 44.8289 81.4983 45.069C80.4322 46.1643 79.3062 47.2046 78.0507 48.41C78.6211 48.9934 79.2412 49.5256 79.9041 50.0005C80.1005 50.0812 80.3138 50.112 80.525 50.0902C80.7362 50.0684 80.9387 49.9946 81.1147 49.8754C81.5181 49.3628 81.8531 48.7996 82.1111 48.1999C81.7032 47.8813 81.3186 47.5336 80.9603 47.1596C80.8357 47.0146 80.9354 46.6595 80.9304 46.4144C81.1496 46.4394 81.4286 46.3894 81.583 46.5094C82.0265 46.8545 82.4151 47.2696 82.8236 47.6548L83.82 46.7695L83.5211 45.4341L85.1204 45.6692C85.8478 44.8789 86.7047 43.8736 87.6463 42.9584C88.0394 42.7009 88.4745 42.5147 88.9317 42.4082C88.7474 42.8233 88.563 43.2334 88.3887 43.6486C88.3588 43.7186 88.3887 43.8086 88.3887 43.6786L89.3104 44.979L91.3032 43.0734C90.9395 42.6833 90.5808 42.3432 90.2769 41.948C90.2365 41.8594 90.2157 41.763 90.2157 41.6655C90.2157 41.568 90.2365 41.4716 90.2769 41.3829C90.329 41.324 90.3953 41.2797 90.4696 41.2543C90.5438 41.2288 90.6233 41.2232 90.7004 41.2378C91.5573 41.823 92.3993 42.4432 93.2512 43.0584C94.3971 41.623 94.6712 40.2375 93.8142 39.4523C93.5038 39.7789 93.1709 40.0831 92.8178 40.3626C92.5785 40.4688 92.3218 40.5299 92.0605 40.5426C92.044 40.2555 92.0777 39.9678 92.1601 39.6924C92.484 39.0672 92.8826 38.477 93.321 37.7668C94.427 37.7668 94.8655 37.2917 94.2826 36.4714C93.9246 36.1748 93.4642 36.0327 93.0021 36.0763C80.5534 36.2464 68.098 36.4297 55.636 36.6265C53.115 36.6615 50.599 36.6265 48.1279 36.6265C46.8774 43.2184 51.5207 49.8454 57.9128 50.8657C58.2834 50.8418 58.6349 50.6918 58.9093 50.4406C59.8708 49.7154 60.2196 48.35 61.4701 47.9098C61.694 47.8589 61.923 47.8337 62.1526 47.8348C62.1963 48.0577 62.1963 48.2871 62.1526 48.51C61.995 48.7827 61.8042 49.0347 61.5847 49.2602L62.5163 50.2605L65.0174 48.0049L66.801 50.3556C67.7177 49.4803 68.5099 48.7001 69.3419 47.9598C69.5163 47.8048 69.8401 47.8298 70.1042 47.7698C70.0995 48.0584 70.061 48.3455 69.9896 48.625C69.899 48.7948 69.7753 48.9444 69.6259 49.0652L71.1604 50.7707L72.5504 49.6353L71.8429 47.7848L73.786 48.555C74.05 48.2549 74.4486 47.7798 74.8671 47.3297C75.2836 46.866 75.7296 46.4299 76.2023 46.0243C76.3767 45.8842 76.7005 45.9292 76.9546 45.8892C76.9767 46.1428 76.9548 46.3984 76.8899 46.6445C76.7952 46.8545 76.5411 46.9896 76.3916 47.1446L73.9653 49.2052L75.0315 50.1455C75.9781 49.3002 77.1888 48.6551 76.3518 47.1346H76.3319ZM72.4906 97.4146C72.1269 97.9147 71.8678 98.3249 71.539 98.685C70.418 99.9053 69.3917 101.251 68.1163 102.281C65.6252 104.282 63.1341 104.282 60.5633 102.426C59.429 101.521 58.3769 100.517 57.4196 99.4252C56.4232 98.3799 55.5264 97.2595 54.8289 96.4543C51.2467 97.6046 47.9535 98.695 44.6354 99.7153C42.4582 100.385 40.2262 100.881 38.054 101.571C29.5843 104.272 23.7253 109.783 20.8605 118.256C18.768 124.433 20.9004 129.804 26.4804 133.11C29.4433 134.913 32.8222 135.911 36.2853 136.006C44.5806 136.171 52.8809 136.166 61.1961 136.146C61.8986 136.146 62.601 135.546 63.6871 135.051C63.1621 134.677 62.6627 134.267 62.1925 133.825C62.048 133.665 62.0978 133.325 62.063 133.065C62.3171 133.09 62.6359 133.03 62.8153 133.16C63.2155 133.482 63.5934 133.832 63.9462 134.206C64.285 133.885 64.5939 133.615 64.8829 133.33C67.3191 130.885 69.7405 128.424 72.2066 126.013C72.6302 125.718 73.0977 125.492 73.5917 125.343C73.4275 125.803 73.1994 126.237 72.9141 126.633C71.1255 128.484 69.2921 130.289 67.8971 131.685L70.6671 135.336L78.1404 127.834C78.4446 127.486 78.7779 127.164 79.1368 126.873C79.4902 126.668 79.8643 126.5 80.2528 126.373C80.1717 126.761 80.0323 127.133 79.8393 127.479C79.4138 127.991 78.9473 128.468 78.4443 128.904C77.4777 129.794 76.4963 130.659 75.6892 131.405L78.8578 134.686L83.1126 130.439L83.0627 130.354L82.2208 128.854L83.7154 129.604C83.825 129.659 83.9247 129.734 84.0293 129.799L84.3481 130.104C84.5481 129.689 84.792 129.297 85.0755 128.934C86.4905 127.467 87.9303 126.026 89.3951 124.613C89.5894 124.423 90.0178 124.473 90.3367 124.413C90.2747 124.708 90.1794 124.995 90.0527 125.268C89.8776 125.5 89.6752 125.71 89.4499 125.893L84.8762 130.454L87.462 133.155L91.4826 129.314C90.8249 128.739 90.1374 128.194 89.5346 127.574C89.3303 127.364 89.3253 126.948 89.2307 126.628C89.5495 126.713 89.9531 126.703 90.1673 126.898C90.8249 127.509 91.4078 128.199 91.9758 128.819L95.3687 125.448L94.8206 123.797L96.6391 124.448C96.7985 124.258 97.0726 123.887 97.3914 123.562C98.7017 122.227 100.017 120.897 101.377 119.596C101.561 119.421 101.935 119.446 102.224 119.381C102.174 119.666 102.224 120.056 102.055 120.216C101.65 120.565 101.218 120.881 100.764 121.162L103.754 124.163L106.16 121.837L105.607 120.201L107.495 120.887C107.734 120.586 108.093 120.066 108.522 119.621C109.518 118.571 110.548 117.542 111.61 116.535C111.867 116.378 112.151 116.271 112.447 116.22C112.408 116.54 112.378 116.86 112.328 117.18C112.294 117.299 112.247 117.413 112.188 117.521L113.1 118.396L116.996 114.59C116.848 114.449 116.719 114.289 116.613 114.115C116.448 113.749 116.334 113.359 116.199 112.984C116.573 113.134 117.046 113.189 117.295 113.454C118.032 114.23 118.675 115.09 119.358 115.915L119.731 115.58C119.667 115.05 119.627 114.515 119.532 113.99C119.446 113.455 119.324 112.927 119.168 112.409C116.353 103.516 109.991 98.5949 101.233 96.5843C98.059 95.8541 94.7559 95.7941 91.5025 95.269C90.4363 95.0939 89.9132 95.389 89.2257 96.1392C87.16 98.4628 84.9766 100.678 82.6841 102.776C80.0884 105.072 77.9261 104.777 75.7738 102.031C74.6379 100.616 73.6614 99.0601 72.4906 97.4146ZM54.6495 52.1111C54.0467 55.242 54.4602 58.9181 50.1207 60.2135C51.3165 63.6695 52.3278 67.1055 53.688 70.3965C55.5064 74.7928 57.7584 78.9841 61.1213 82.4251C62.1576 83.4854 63.4928 84.2507 64.6886 85.1559L64.9227 84.8458C64.601 84.5442 64.3028 84.2181 64.0309 83.8706C63.9363 83.6302 63.8889 83.3737 63.8914 83.1153C64.1505 83.1153 64.4793 83.0703 64.6587 83.2003C65.0753 83.5396 65.4697 83.9054 65.8394 84.2957C66.8807 83.2954 67.8771 82.2951 68.8686 81.3448C69.4017 80.8446 69.9099 80.2645 70.4728 79.7743C70.6472 79.6243 70.9711 79.6543 71.2351 79.5993C71.2002 79.8844 71.275 80.2795 71.1155 80.4345C70.7098 80.7849 70.2748 81.0995 69.8152 81.3748L70.2038 81.925C70.5965 81.8458 70.9714 81.6949 71.3098 81.4798C73.0137 79.8293 74.6578 78.1238 76.3568 76.4783C76.6908 76.2496 77.0616 76.0804 77.4528 75.9782C77.3858 76.368 77.2455 76.7414 77.0393 77.0785C75.9582 78.2139 74.8123 79.2842 73.771 80.3045L75.3753 82.135L77.3681 80.1795C76.9949 79.8126 76.6423 79.4252 76.3119 79.0191C76.2023 78.8691 76.282 78.579 76.2771 78.3489C76.5012 78.3489 76.7753 78.2739 76.9397 78.3839C77.393 78.729 77.7866 79.1441 78.24 79.5693L79.8243 77.9888L79.4656 76.4333L80.9951 76.9035C81.4223 76.4005 81.8816 75.926 82.3702 75.483C82.7405 75.2586 83.1418 75.0901 83.561 74.9829C83.4322 75.411 83.2372 75.8161 82.983 76.1833C82.4977 76.6375 81.9798 77.0554 81.4336 77.4336L83.8549 80.0894L86.4456 77.1185L85.3994 76.2083C85.1336 76.5011 84.8418 76.769 84.5275 77.0085C84.2323 77.1528 83.9213 77.2619 83.6008 77.3336C83.6644 76.9811 83.768 76.6371 83.9097 76.3083C84.1295 75.9972 84.3817 75.7104 84.662 75.453C84.3482 75.1598 84.0598 74.8402 83.8001 74.4978C83.7148 74.2557 83.6792 73.9988 83.6955 73.7425C83.9446 73.7675 84.2485 73.7125 84.4378 73.8376C84.7354 74.0603 85.0122 74.3097 85.2649 74.5828L87.0136 72.9673C86.7665 72.747 86.5459 72.4986 86.3559 72.2271C86.2511 71.9544 86.1857 71.6681 86.1616 71.3768C86.4529 71.3904 86.7404 71.4495 87.0136 71.5519C87.2747 71.7296 87.5138 71.9378 87.726 72.1721L89.9979 70.7416C90.9943 69.5763 89.4997 69.3662 89.0413 68.566C88.8371 68.736 88.7274 68.8861 88.583 68.9361C88.2492 69.0611 87.8954 69.1362 87.5467 69.2362C87.6268 68.8816 87.7667 68.5433 87.9602 68.2359C88.8022 67.3156 89.694 66.4403 90.6057 65.5901C90.7602 65.4451 91.1039 65.5001 91.3481 65.4651C91.3481 65.7251 91.4078 66.1003 91.2683 66.2253C90.7104 66.7254 90.0826 67.1206 89.415 67.6057L91.1687 69.2562L93.7445 57.8178C90.0427 55.7822 90.6207 52.1961 90.1673 49.1452C78.6286 53.8516 66.8508 54.9669 54.6495 52.1111ZM71.0906 34.8059V34.2258C78.9359 34.2258 86.7794 34.2258 94.6213 34.2258C95.0268 34.2422 95.4277 34.1359 95.7722 33.9207C98.1886 32.0801 100.256 29.9195 101.342 27.0286C101.799 25.8737 101.999 24.633 101.93 23.3925C101.676 20.5317 99.6384 18.6111 96.1957 18.0609C93.047 17.5608 89.8484 17.4257 86.6848 16.9956C75.811 15.481 64.7643 15.7513 53.9769 17.7959C50.5306 18.4619 47.1228 19.3151 43.7685 20.3516C41.3721 21.0918 40.5749 22.7873 41.0482 25.2481C41.7109 28.6691 43.4696 31.4899 45.8909 33.9457C46.169 34.2446 46.5089 34.4787 46.8867 34.6317C47.2646 34.7846 47.6712 34.8526 48.0781 34.8309C55.7556 34.7909 63.4331 34.8059 71.1105 34.8059H71.0906ZM82.2257 84.2307C75.5696 88.732 68.8636 89.6773 61.9434 85.7811L59.9505 91.7129C67.638 96.1642 78.0208 94.7138 83.1873 90.3625C82.8074 89.4333 82.5025 88.4749 82.2756 87.4966C82.1862 86.4102 82.1762 85.3186 82.2457 84.2307H82.2257ZM74.2543 96.5193C75.2507 97.9447 76.3169 99.6202 77.5276 101.181C78.6187 102.586 79.7197 102.771 81.0549 101.571C83.546 99.3352 85.8727 96.9294 88.304 94.5687L84.946 92.3031L74.2543 96.5193ZM56.2787 95.2089C57.7285 96.8144 59.1335 98.4599 60.6381 100.005C61.769 101.166 63.1291 101.971 64.853 101.731C66.806 101.456 69.9647 98.4249 70.4529 96.3643C67.0003 96.3643 63.6124 95.8091 60.5882 94.1836C58.7598 93.1833 57.5989 93.4484 56.4232 94.9389C56.4381 94.9689 56.4232 95.0089 56.3136 95.2139L56.2787 95.2089ZM111.944 132.68C112.562 132.18 113.175 131.77 113.718 131.275C117.111 128.179 118.869 124.273 119.647 119.771C120 117.721 119.353 116.435 117.823 115.49L114.072 119.196L115.203 120.627C115.485 120.312 115.799 120.027 116.139 119.776C116.413 119.679 116.701 119.63 116.991 119.631C116.976 119.894 116.917 120.153 116.817 120.396C116.535 120.771 116.227 121.126 115.895 121.457C116.508 122.002 117.051 122.512 117.624 122.992C118.326 123.577 118.361 123.907 117.624 124.708C116.403 126.063 114.221 126.818 114.4 129.209C112.318 128.709 112.004 130.765 110.709 131.54L111.944 132.68ZM99.9124 129.679L96.3203 133.325C96.953 133.875 97.5907 134.456 98.2583 135.001C98.627 135.301 99.0555 135.766 99.4391 135.751C101.347 135.681 103.255 135.471 105.238 135.306L103.878 133.785L102.578 134.026L102.882 132.785L99.9124 129.679ZM49.7421 57.9828C49.9868 58.0174 50.236 58.0031 50.4752 57.9408C50.7145 57.8785 50.9391 57.7695 51.1363 57.6199C51.3335 57.4702 51.4993 57.283 51.6242 57.069C51.7492 56.8549 51.8308 56.6182 51.8645 56.3724C52.2531 54.7169 52.4823 53.0264 52.7364 51.3459C52.7387 51.2284 52.716 51.1118 52.6695 51.0039C52.6231 50.896 52.5542 50.7994 52.4673 50.7207C51.3762 49.7904 50.2652 48.8951 48.8852 47.7648L49.7421 57.9828ZM95.4832 133.785C95.1473 134.265 94.7812 134.723 94.3872 135.156C94.2427 135.301 93.889 135.226 93.6249 135.256C93.6548 135.001 93.6249 134.686 93.7345 134.511C94.0767 134.098 94.4409 133.704 94.8256 133.33L93.5751 131.67C92.763 132.53 92.0804 133.28 91.3829 133.965C91.1637 134.171 90.7651 134.176 90.4463 134.271C90.526 133.955 90.5061 133.55 90.7004 133.34C91.4029 132.585 92.195 131.895 92.9872 131.11L92.3246 130.504L88.3139 134.336C88.9616 134.871 89.5844 135.836 90.3068 135.891C92.6683 136.091 95.0498 135.966 97.5807 135.966L95.4832 133.785ZM94.7608 63.5745C94.9383 63.4868 95.1054 63.3794 95.259 63.2544C96.3383 62.0704 97.1672 60.679 97.6956 59.1643C98.224 57.6496 98.4408 56.043 98.333 54.4418C98.3175 53.8024 98.1252 53.1799 97.7777 52.6438C97.4302 52.1077 96.9411 51.6791 96.3651 51.4059L94.7608 63.5745ZM48.4816 62.1791C48.5582 61.9554 48.61 61.7239 48.6361 61.4889C48.2026 58.653 47.7791 55.8172 47.2759 52.9863C47.1552 52.8333 46.9991 52.7123 46.821 52.6338C46.643 52.5553 46.4485 52.5218 46.2546 52.5362C45.8531 52.8151 45.5635 53.2281 45.4375 53.7016C45.1214 54.9346 45.0812 56.2225 45.3198 57.473C45.5584 58.7234 46.0699 59.9053 46.8176 60.9337C47.1613 61.4439 47.8339 61.7139 48.4816 62.1791ZM103.784 126.033L100.844 128.864L103.709 131.925L106.668 129.004L103.784 126.033ZM86.6898 134.196L84.1987 131.595L79.7546 136.016C80.8118 135.951 81.8722 135.96 82.9282 136.041C84.652 136.286 85.793 135.556 86.6898 134.196ZM104.461 132.97C105.004 133.47 105.458 133.89 105.956 134.251C106.29 134.491 106.773 134.831 107.082 134.751C108.407 134.371 109.697 133.845 110.843 133.43L107.53 130.004L104.461 132.97ZM104.621 125.013L107.61 128.114L110.101 125.738L107.112 122.662L104.621 125.013ZM93.5502 55.4921L93.9786 55.3921L94.4769 45.4141C92.2997 46.6845 92.0306 48.48 92.2947 50.4806C92.4292 51.5059 92.484 52.5512 92.7082 53.5565C92.9249 54.2239 93.2052 54.8687 93.5452 55.4821L93.5502 55.4921ZM115.472 122.212L111.944 125.713L113.354 127.213L116.872 123.712L115.472 122.212ZM71.6287 135.931H78.0607L75.0215 132.745L71.6287 135.931ZM110.853 124.848L114.49 121.232L113.25 119.941L109.712 123.642L110.853 124.848ZM112.657 128.239L111.127 126.453L108.606 128.954L110.101 130.795L112.657 128.239ZM95.6227 132.36L99.1103 128.859L98.0441 127.704L94.4619 130.97L95.6227 132.36ZM66.8957 132.94L64.7633 134.941C65.7597 136.206 67.9519 136.586 70.0045 135.811L66.8957 132.94ZM99.8925 128.139L102.981 125.068L101.721 123.782L98.6569 126.783L99.8925 128.139ZM83.0129 80.9347L80.8307 78.714L79.0969 80.2695L81.1346 82.5402L83.0129 80.9347ZM108.626 122.567L112.373 119.066L111.615 118.381L107.939 121.842L108.626 122.567ZM92.8527 129.539L93.5601 130.159L97.0476 126.738L96.3501 126.123L92.8527 129.539ZM73.0486 84.4707L74.5881 83.1153L73.0387 81.4448L71.4045 82.7402L73.0486 84.4707ZM87.7808 44.6639L85.5339 46.4744L87.0584 48.0199C87.2081 47.6076 87.4235 47.2225 87.6961 46.8795C88.1498 46.5439 88.6394 46.2604 89.1559 46.0343L87.7808 44.6639ZM69.3867 84.7708C70.5775 86.4213 71.0906 86.5714 72.7696 86.0112L70.712 83.5104L69.3867 84.7708ZM100.241 122.382L97.1473 125.408L97.6704 125.873L100.869 122.952L100.241 122.382ZM64.7733 49.6103C64.4793 49.8754 64.275 50.0605 64.0658 50.2605C63.8565 50.4606 63.6871 50.6807 63.5028 50.8857C64.2302 51.976 65.3263 52.0211 66.1134 51.0208L64.7733 49.6103ZM77.6521 49.2152L75.6094 51.1108L78.9824 50.5356C78.6187 50.1505 78.4343 49.9354 78.2301 49.7354C78.0258 49.5353 77.8066 49.3553 77.6521 49.2152ZM87.0136 76.3633C88.583 74.5628 88.6029 74.4928 87.8406 73.9476L86.1467 75.448L87.0136 76.3633ZM86.2065 48.64L84.677 47.2596L83.6805 48.405L84.4029 49.3102L86.2065 48.64ZM69.9298 51.5259L68.7889 49.8704L67.7277 51.0108C68.3903 52.1861 69.3269 51.4709 69.9248 51.5259H69.9298ZM92.5936 44.2587L92.0954 43.8486C91.4676 44.5438 90.4662 44.9389 90.3168 46.0143L90.6805 46.3244L92.5936 44.2587ZM59.537 51.2108H62.1128L61.0317 49.8554L59.537 51.2108ZM69.581 82.3151L68.0366 83.4904L68.2558 83.9406C68.5597 83.8505 68.9383 83.8405 69.1476 83.6455C69.5362 83.2704 70.3034 82.9453 69.586 82.3151H69.581Z" fill="#558CC9"/>
<path d="M72.4902 97.4133C73.6361 99.0588 74.6176 100.609 75.7436 102.04C77.8959 104.77 80.0581 105.081 82.6538 102.785C84.9486 100.68 87.1336 98.4584 89.2004 96.1279C89.8879 95.3827 90.411 95.0876 91.4772 95.2577C94.7056 95.7578 98.0287 95.8428 101.207 96.573C109.971 98.5736 116.338 103.51 119.143 112.398C119.299 112.916 119.42 113.444 119.507 113.978C119.601 114.503 119.641 115.039 119.706 115.569L119.332 115.904C118.65 115.079 118.002 114.218 117.27 113.443C117.016 113.178 116.542 113.123 116.174 112.973C116.308 113.353 116.423 113.738 116.587 114.103C116.694 114.278 116.823 114.438 116.971 114.578L113.075 118.385L112.163 117.509C112.222 117.401 112.269 117.287 112.303 117.169C112.352 116.849 112.382 116.529 112.422 116.209C112.126 116.26 111.842 116.367 111.585 116.524C110.532 117.524 109.503 118.553 108.496 119.61C108.068 120.055 107.709 120.575 107.47 120.875L105.582 120.19L106.135 121.826L103.728 124.151L100.739 121.15C101.193 120.87 101.625 120.554 102.029 120.205C102.199 120.045 102.149 119.655 102.199 119.37C101.91 119.435 101.536 119.41 101.352 119.585C100.002 120.88 98.6914 122.216 97.3661 123.551C97.0472 123.876 96.7732 124.246 96.6138 124.436L94.7953 123.786L95.3434 125.437L91.9505 128.808C91.3825 128.192 90.7996 127.502 90.142 126.887C89.9278 126.687 89.5242 126.702 89.2053 126.617C89.3 126.937 89.305 127.347 89.5093 127.562C90.1121 128.182 90.7996 128.723 91.4573 129.303L87.4367 133.144L84.8509 130.443L89.4246 125.882C89.6499 125.699 89.8523 125.489 90.0274 125.257C90.1541 124.983 90.2494 124.696 90.3114 124.401C89.9925 124.461 89.569 124.401 89.3698 124.601C87.9017 126.012 86.4618 127.452 85.0502 128.923C84.7667 129.285 84.5228 129.678 84.3228 130.093L84.004 129.788C83.8994 129.723 83.7997 129.648 83.6901 129.593L82.1955 128.843L83.0374 130.343L83.0873 130.428L78.8325 134.674L75.6639 131.393C76.471 130.668 77.4574 129.803 78.419 128.893C78.922 128.457 79.3885 127.98 79.814 127.467C80.007 127.122 80.1464 126.749 80.2275 126.362C79.839 126.489 79.4649 126.656 79.1115 126.862C78.7526 127.153 78.4193 127.474 78.1151 127.822L70.6418 135.325L67.8718 131.673C69.2668 130.278 71.1002 128.473 72.8888 126.622C73.1741 126.226 73.4022 125.792 73.5664 125.332C73.0724 125.48 72.6049 125.706 72.1813 126.002C69.6903 128.418 67.2938 130.878 64.8576 133.319C64.5686 133.609 64.2597 133.879 63.9209 134.194C63.5681 133.82 63.1902 133.471 62.79 133.149C62.6056 133.019 62.2918 133.079 62.0377 133.054C62.0725 133.314 62.0377 133.654 62.1672 133.814C62.6374 134.256 63.1368 134.665 63.6618 135.039C62.5857 135.54 61.8832 136.135 61.1708 136.135C52.8705 136.135 44.5702 136.16 36.26 135.995C32.7969 135.899 29.418 134.901 26.4551 133.099C20.8751 129.793 18.7477 124.421 20.8353 118.244C23.705 109.772 29.559 104.24 38.0287 101.56C40.2009 100.869 42.4279 100.374 44.6101 99.704C47.9282 98.7037 51.2214 97.5933 54.8036 96.443C55.5011 97.2482 56.4078 98.3686 57.3943 99.4139C58.3517 100.506 59.4037 101.51 60.538 102.415C63.0989 104.29 65.6198 104.265 68.091 102.27C69.3664 101.239 70.3927 99.894 71.5137 98.6737C71.8924 98.3236 72.1514 97.9034 72.4902 97.4133ZM44.9389 114.048C44.351 113.373 43.8678 112.753 43.3048 112.218C43.1404 112.063 42.7418 112.158 42.4478 112.138C42.5176 112.393 42.5076 112.733 42.6671 112.893C43.235 113.438 43.8677 113.893 44.4058 114.363L41.5411 117.364L38.9005 114.919C40.3553 113.473 41.7653 112.118 43.1105 110.707C43.3739 110.312 43.5709 109.876 43.6934 109.417C43.2715 109.554 42.872 109.753 42.5076 110.007C41.272 111.177 40.0913 112.413 38.8756 113.608C38.6614 113.818 38.2778 114.153 38.1333 114.108C37.2116 113.683 36.9226 113.808 37.3162 114.838C37.3259 114.934 37.3153 115.031 37.2853 115.122C37.2552 115.214 37.2064 115.298 37.1418 115.369C36.4742 116.199 35.7817 117.014 34.9945 117.954C34.3869 117.232 33.7434 116.541 33.0664 115.884C32.6957 115.653 32.2902 115.484 31.8657 115.384C31.9713 115.777 32.1395 116.15 32.364 116.489C33.4451 117.619 34.581 118.7 35.8266 119.925C35.0693 120.615 34.4266 121.145 33.8586 121.751C33.7042 121.916 33.7889 122.311 33.759 122.596C34.0131 122.536 34.3618 122.566 34.5063 122.406C35.0842 121.761 35.5974 121.06 36.1753 120.33L37.4308 121.661C36.5888 122.476 35.7668 123.231 35.0095 124.041C34.8102 124.256 34.8052 124.661 34.7155 124.976C35.0344 124.891 35.4429 124.901 35.6572 124.701C36.4693 123.941 37.2166 123.116 38.2678 122.021C38.8109 122.726 39.2144 123.311 39.6877 123.821C39.8173 123.961 40.1859 123.881 40.44 123.906C40.4052 123.651 40.44 123.301 40.3105 123.161C39.8123 122.661 39.2343 122.271 38.6813 121.831L41.3368 119.095L43.3297 121.14C42.7717 121.671 42.1389 122.216 41.5859 122.831C41.4165 123.016 41.4664 123.396 41.4165 123.691C41.7055 123.621 42.0991 123.651 42.2585 123.466C42.8315 122.821 43.3197 122.106 43.8528 121.405C44.1969 121.776 44.5665 122.122 44.9588 122.441C45.4023 122.726 45.8805 122.941 46.3439 123.191C46.1506 122.708 45.9294 122.237 45.6813 121.781C45.5007 121.523 45.2918 121.286 45.0585 121.075L47.9232 118.074C48.7154 118.905 49.5175 119.805 50.4143 120.63C50.752 120.842 51.125 120.991 51.5154 121.07C51.4261 120.672 51.2712 120.292 51.057 119.945C50.2399 119.035 49.3481 118.189 48.4214 117.249C49.5524 116.134 50.5887 115.174 51.5452 114.138C51.7814 113.768 51.9501 113.358 52.0435 112.928C51.6516 113.033 51.2797 113.202 50.9424 113.428C49.8812 114.458 48.8798 115.544 47.9531 116.519L46.0101 114.778L47.3503 112.988C47.6415 113.3 47.9563 113.589 48.2919 113.853C48.5054 113.931 48.7325 113.965 48.9595 113.953C48.9595 113.728 49.0691 113.453 48.9894 113.283C48.7054 112.648 48.3617 112.043 48.1923 111.718C47.3802 111.177 46.7574 110.717 46.1047 110.352C45.8664 110.268 45.615 110.228 45.3624 110.232C45.3624 110.487 45.3126 110.812 45.4421 110.987C45.8126 111.44 46.2085 111.871 46.6279 112.278L44.9389 114.048Z" fill="transperent"/>
<path d="M54.6494 52.1096C66.8507 54.9654 78.6285 53.8501 90.197 49.1387C90.6504 52.1946 90.0725 55.7756 93.7742 57.8113L91.1935 69.2647L89.4398 67.6142C90.1074 67.114 90.7351 66.7189 91.2931 66.2338C91.4326 66.1137 91.3529 65.7336 91.3728 65.4735C91.1187 65.5085 90.7849 65.4735 90.6305 65.5986C89.7188 66.4488 88.8269 67.3291 87.985 68.2444C87.7914 68.5518 87.6516 68.89 87.5714 69.2447C87.9152 69.1496 88.2689 69.0696 88.6077 68.9446C88.7522 68.8896 88.8618 68.7445 89.0661 68.5745C89.5244 69.3747 91.0589 69.5748 90.0227 70.7501L87.7508 72.1805C87.5386 71.9462 87.2994 71.7381 87.0383 71.5604C86.7651 71.458 86.4777 71.3989 86.1864 71.3853C86.2105 71.6766 86.2759 71.9629 86.3807 72.2356C86.5706 72.507 86.7913 72.7554 87.0383 72.9758L85.2896 74.5913C85.037 74.3182 84.7602 74.0688 84.4626 73.846C84.2782 73.721 83.9644 73.776 83.7202 73.751C83.7039 74.0073 83.7395 74.2642 83.8249 74.5062C84.0846 74.8487 84.3729 75.1683 84.6868 75.4615C84.4064 75.7189 84.1542 76.0056 83.9345 76.3168C83.7928 76.6456 83.6892 76.9896 83.6256 77.3421C83.946 77.2704 84.2571 77.1613 84.5523 77.017C84.8666 76.7775 85.1584 76.5096 85.4241 76.2167L86.4704 77.127L83.8797 80.0979L81.4583 77.4571C82.0046 77.0789 82.5225 76.661 83.0078 76.2067C83.262 75.8395 83.457 75.4345 83.5857 75.0064C83.1665 75.1136 82.7653 75.2821 82.395 75.5065C81.9064 75.9495 81.447 76.424 81.0199 76.927L79.4904 76.4568L79.8491 78.0123L78.2648 79.5927C77.8114 79.1726 77.4178 78.7525 76.9644 78.4074C76.82 78.2974 76.526 78.3774 76.3018 78.3724C76.3018 78.5975 76.2271 78.8725 76.3367 79.0426C76.6671 79.4487 77.0197 79.8361 77.3929 80.2029L75.4 82.1585L73.7958 80.328C74.8371 79.3277 75.983 78.2373 77.0641 77.102C77.2702 76.7649 77.4106 76.3915 77.4776 76.0017C77.0863 76.1039 76.7155 76.2731 76.3815 76.5018C74.6826 78.1523 73.0385 79.8628 71.3346 81.5033C70.9962 81.7184 70.6213 81.8693 70.2286 81.9485L69.84 81.3983C70.2995 81.123 70.7346 80.8084 71.1403 80.458C71.2997 80.298 71.23 79.9078 71.2599 79.6228C71.0008 79.6778 70.672 79.6228 70.4976 79.7978C69.9346 80.298 69.4264 80.8431 68.8933 81.3683C67.8969 82.3386 66.9005 83.3039 65.8642 84.3192C65.4945 83.9289 65.1001 83.563 64.6834 83.2238C64.5041 83.0938 64.1852 83.1588 63.9162 83.1388C63.9136 83.3972 63.961 83.6537 64.0557 83.894C64.3276 84.2416 64.6257 84.5677 64.9475 84.8693L64.7133 85.1794C63.5176 84.2791 62.1824 83.5089 61.1461 82.4486C57.7881 79.0076 55.5312 74.8163 53.7127 70.42C52.3526 67.129 51.3412 63.693 50.1455 60.237C54.465 58.9216 54.0565 55.2605 54.6494 52.1096Z" fill="transperent"/>
<path d="M71.1103 34.8046C63.4328 34.8046 55.7553 34.8046 48.0778 34.8046C47.6709 34.8263 47.2643 34.7583 46.8864 34.6053C46.5086 34.4524 46.1687 34.2182 45.8906 33.9193C43.4693 31.4886 41.7106 28.6677 41.048 25.2517C40.5497 22.791 41.3668 21.0955 43.7682 20.3553C47.132 19.3126 50.5499 18.4545 54.0065 17.7845C64.7939 15.74 75.8406 15.4697 86.7144 16.9843C89.8731 17.4094 93.0766 17.5444 96.2253 18.0496C99.668 18.5997 101.706 20.5203 101.96 23.3812C102.033 24.6189 101.837 25.8578 101.387 27.0123C100.306 29.9031 98.2331 32.0688 95.8168 33.9043C95.4723 34.1196 95.0713 34.2259 94.6659 34.2094C86.8207 34.2261 78.9771 34.2261 71.1352 34.2094L71.1103 34.8046ZM67.2541 27.0022L69.7103 27.5424C69.805 29.368 70.5622 30.3432 72.0718 30.2832C72.6838 30.2953 73.2779 30.0757 73.7359 29.668C74.2341 29.0529 74.3985 28.1676 74.7323 27.4124L76.1672 27.3373C76.3963 29.473 77.1287 30.3382 78.6931 30.3132C80.2575 30.2882 80.9052 29.413 81.0248 27.3123C82.9678 27.5574 84.5471 26.4171 84.6767 24.6766C84.6755 24.3737 84.6139 24.0741 84.4956 23.7954C84.3773 23.5168 84.2047 23.2647 83.9879 23.054C83.7711 22.8434 83.5145 22.6784 83.2332 22.5688C82.9519 22.4592 82.6516 22.4072 82.35 22.4159C81.7422 22.4159 80.8554 22.5759 80.5664 22.9861C80.0034 23.8613 79.7742 24.9566 79.3856 26.017L77.7365 25.8819C78.1501 24.8366 78.3145 23.8163 77.338 23.0311C76.9536 22.6732 76.4698 22.4413 75.9509 22.3662C75.4321 22.2912 74.9027 22.3765 74.4334 22.6109C73.0334 23.3212 72.9636 24.6515 73.138 26.017L71.3096 25.9019C71.3209 25.7793 71.3392 25.6574 71.3644 25.5368C71.8078 23.8963 71.2697 22.856 69.78 22.4759C68.1907 22.0708 66.9203 22.821 66.6762 24.4765C66.6526 25.2152 66.7179 25.9541 66.8705 26.6772L64.4093 25.6769C64.773 24.6766 64.8676 23.5712 63.6022 22.826C63.1564 22.5104 62.6214 22.3468 62.0761 22.3594C61.5307 22.372 61.0038 22.5601 60.573 22.896C60.1346 23.2869 59.8284 23.8053 59.6972 24.379C59.5659 24.9527 59.6161 25.5532 59.8406 26.097C60.3937 27.4124 61.5047 27.5474 62.7851 27.3323C62.7353 28.5777 63.0093 29.648 64.2399 30.1282C64.6787 30.3288 65.1679 30.3913 65.6428 30.3074C66.1177 30.2235 66.5561 29.9971 66.9004 29.658C67.6975 28.8778 67.6278 27.9575 67.2541 27.0022ZM51.6849 21.3806C51.7511 21.2971 51.8079 21.2065 51.8543 21.1105C51.9589 20.7654 52.0535 20.4203 52.1532 20.0752C51.8234 20.1381 51.5056 20.2529 51.2116 20.4153C50.7582 20.7704 50.3945 21.2305 49.971 21.6206C49.5475 22.0108 49.3981 22.4609 48.6507 22.0508C48.0429 21.7157 47.9582 22.1908 48.1525 22.796C48.1547 22.9863 48.1104 23.1742 48.0236 23.3433C47.9367 23.5125 47.8099 23.6577 47.6543 23.7663C47.4749 23.8863 47.0315 23.5962 46.887 23.5512C46.618 24.3014 46.3888 24.9216 46.1895 25.5518C46.1729 25.6268 46.1737 25.7045 46.1919 25.7791C46.21 25.8537 46.245 25.9231 46.2942 25.9819C46.3731 26.0327 46.4619 26.0661 46.5547 26.0799C46.6474 26.0937 46.742 26.0876 46.8322 26.062C47.0763 25.9264 47.3065 25.7673 47.5198 25.5868L49.687 27.4374C49.0094 28.0276 48.3917 28.5177 47.8337 29.0729C47.6792 29.2279 47.7091 29.573 47.6593 29.8331C47.9433 29.7931 48.3269 29.8631 48.4963 29.7031C49.0842 29.1529 49.5973 28.5177 50.2351 27.8175L50.6984 29.1829C51.0826 28.9961 51.4494 28.7751 51.7945 28.5227C52.3345 28.0664 52.8346 27.5644 53.2891 27.0223C53.5951 26.5849 53.865 26.1232 54.0962 25.6418L52.7411 25.8569C54.2955 23.2811 53.5582 23.2511 51.6849 21.3806Z" fill="transperent"/>
<path d="M76.3763 47.1544C76.5606 46.9893 76.8097 46.8543 76.9094 46.6542C76.9743 46.4081 76.9963 46.1526 76.9742 45.899C76.7201 45.939 76.3962 45.899 76.2219 46.034C75.7491 46.4397 75.3031 46.8758 74.8866 47.3394C74.4632 47.7896 74.0696 48.2647 73.8055 48.5648L71.8625 47.7946L72.5699 49.6451L71.1799 50.7605L69.6454 49.0549C69.7948 48.9342 69.9185 48.7845 70.0091 48.6148C70.0806 48.3352 70.119 48.0482 70.1237 47.7596C69.8646 47.8196 69.5358 47.7946 69.3614 47.9496C68.5294 48.6848 67.7372 49.4501 66.8205 50.3453L65.017 48.0046L62.5857 50.2603L61.654 49.26C61.8735 49.0345 62.0643 48.7825 62.222 48.5098C62.2657 48.2868 62.2657 48.0575 62.222 47.8346C61.9924 47.8335 61.7634 47.8587 61.5395 47.9096C60.2939 48.3497 59.9452 49.7151 58.9786 50.4404C58.7043 50.6916 58.3528 50.8416 57.9822 50.8655C51.5951 49.8652 46.9467 43.2182 48.1972 36.6262C50.6883 36.6262 53.1794 36.6562 55.7053 36.6262C68.1541 36.4462 80.6095 36.2628 93.0715 36.0761C93.5336 36.0325 93.994 36.1746 94.3519 36.4712C94.9348 37.2914 94.5014 37.7416 93.3904 37.7666C92.9519 38.4818 92.5534 39.067 92.2295 39.6922C92.1471 39.9676 92.1133 40.2553 92.1299 40.5424C92.3912 40.5296 92.6479 40.4686 92.8872 40.3624C93.2402 40.0828 93.5732 39.7787 93.8836 39.4521C94.7455 40.2373 94.4715 41.6227 93.3206 43.0582C92.4687 42.443 91.6267 41.8228 90.7697 41.2376C90.6927 41.223 90.6132 41.2286 90.5389 41.254C90.4647 41.2795 90.3983 41.3238 90.3463 41.3827C90.3059 41.4714 90.285 41.5677 90.285 41.6652C90.285 41.7628 90.3059 41.8591 90.3463 41.9478C90.6452 42.3379 91.0089 42.683 91.3726 43.0732L89.3797 44.9787L88.4331 43.6683C88.4331 43.7984 88.4331 43.7084 88.4331 43.6383C88.6075 43.2232 88.7968 42.8131 88.9762 42.398C88.5189 42.5044 88.0839 42.6906 87.6908 42.9481C86.7491 43.8634 85.8922 44.8687 85.1648 45.6589L83.5655 45.4239L83.8645 46.7593L82.868 47.6445C82.4595 47.2594 82.0709 46.8443 81.6275 46.4992C81.478 46.3792 81.194 46.4342 80.9748 46.4042C80.9748 46.6592 80.8752 46.9993 81.0047 47.1494C81.363 47.5234 81.7477 47.871 82.1556 48.1897C81.8975 48.7894 81.5626 49.3526 81.1592 49.8652C80.9832 49.9844 80.7806 50.0582 80.5694 50.08C80.3583 50.1018 80.145 50.071 79.9485 49.9902C79.2857 49.5154 78.6655 48.9832 78.0951 48.3998C79.3507 47.1944 80.4766 46.1541 81.5428 45.0588C81.772 44.8237 81.7969 44.3786 81.9115 44.0284C81.5515 44.0916 81.2057 44.2186 80.8901 44.4036C80.1302 45.0503 79.4237 45.7578 78.7777 46.5192C78.0902 47.3644 77.3678 47.6695 76.3763 47.1244V47.1544Z" fill="transperent"/>
<path d="M82.2452 84.2305C82.1772 85.3202 82.1889 86.4134 82.2801 87.5014C82.507 88.4797 82.8119 89.4381 83.1918 90.3673C78.0254 94.7236 67.6425 96.169 59.9551 91.7177L61.9479 85.7859C68.8831 89.6771 75.5891 88.7418 82.2452 84.2305Z" fill="transperent"/>
<path d="M74.2939 96.524L84.9458 92.3027L88.3486 94.5584C85.9173 96.9291 83.5857 99.3398 81.0996 101.56C79.7644 102.761 78.6633 102.561 77.5722 101.17C76.3566 99.6199 75.2854 97.9444 74.2939 96.524Z" fill="transperent"/>
<path d="M56.3135 95.214C56.4231 95.009 56.438 94.969 56.4629 94.939C57.6288 93.4385 58.7996 93.1984 60.628 94.1837C63.6472 95.8142 67.0401 96.3544 70.4927 96.3644C69.9945 98.425 66.8408 101.461 64.8927 101.731C63.1739 101.971 61.8088 101.166 60.6778 100.005C59.1683 98.465 57.7683 96.8195 56.3135 95.214Z" fill="transperent"/>
<path d="M111.979 132.679L110.768 131.528C112.068 130.753 112.377 128.692 114.46 129.198C114.28 126.812 116.453 126.062 117.683 124.696C118.401 123.896 118.366 123.566 117.683 122.981C117.11 122.481 116.567 121.98 115.954 121.445C116.286 121.114 116.594 120.76 116.876 120.385C116.977 120.142 117.036 119.883 117.051 119.62C116.76 119.619 116.472 119.668 116.199 119.765C115.858 120.015 115.544 120.3 115.262 120.615L114.131 119.185L117.883 115.479C119.412 116.424 120.065 117.709 119.706 119.76C118.924 124.261 117.17 128.167 113.777 131.263C113.209 131.783 112.597 132.194 111.979 132.679Z" fill="transperent"/>
<path d="M99.9468 129.693L102.881 132.784L102.587 134.03L103.878 133.785L105.263 135.32C103.27 135.485 101.372 135.69 99.4635 135.765C99.0749 135.765 98.6465 135.31 98.2828 135.015C97.6152 134.47 96.9725 133.89 96.3447 133.339L99.9468 129.693Z" fill="transperent"/>
<path d="M49.7421 57.9828L48.8901 47.7598C50.2702 48.8901 51.3812 49.7904 52.4723 50.7156C52.5591 50.7944 52.6281 50.891 52.6745 50.9989C52.7209 51.1067 52.7437 51.2234 52.7413 51.3408C52.4823 53.0213 52.2431 54.7168 51.8695 56.3673C51.8364 56.6141 51.7551 56.8518 51.6301 57.0668C51.505 57.2818 51.3388 57.4698 51.1411 57.62C50.9433 57.7702 50.7178 57.8796 50.4777 57.9419C50.2376 58.0041 49.9876 58.0181 49.7421 57.9828Z" fill="transperent"/>
<path d="M95.4827 133.786L97.5603 135.971C95.0343 135.971 92.6479 136.091 90.2863 135.896C89.5838 135.836 88.9611 134.896 88.2935 134.341L92.3041 130.51L92.9667 131.115C92.1496 131.9 91.3774 132.59 90.6799 133.346C90.4856 133.556 90.5055 133.961 90.4258 134.276C90.7447 134.181 91.1433 134.171 91.3625 133.971C92.0849 133.291 92.7475 132.535 93.5546 131.675L94.8051 133.336C94.4204 133.709 94.0562 134.103 93.714 134.516C93.5795 134.686 93.6343 135.016 93.6044 135.261C93.8635 135.236 94.2222 135.306 94.3667 135.161C94.7677 134.727 95.1405 134.268 95.4827 133.786Z" fill="transperent"/>
<path d="M94.7603 63.5738L96.3545 51.4102C96.9306 51.6834 97.4197 52.112 97.7672 52.6481C98.1147 53.1842 98.3069 53.8067 98.3225 54.4461C98.431 56.0481 98.2144 57.6556 97.6861 59.1713C97.1577 60.6869 96.3284 62.0791 95.2485 63.2637C95.0975 63.3846 94.9338 63.4885 94.7603 63.5738Z" fill="transperent"/>
<path d="M48.4813 62.178C47.8386 61.7179 47.161 61.4478 46.8123 60.9476C46.0646 59.9192 45.5531 58.7373 45.3145 57.4869C45.0759 56.2364 45.1161 54.9485 45.4322 53.7155C45.5582 53.242 45.8478 52.829 46.2493 52.5501C46.4432 52.5357 46.6377 52.5692 46.8157 52.6477C46.9937 52.7262 47.1499 52.8472 47.2706 53.0003C47.7688 55.8211 48.1973 58.6569 48.6307 61.5028C48.6053 61.7326 48.5551 61.959 48.4813 62.178Z" fill="transperent"/>
<path d="M103.803 126.033L106.683 129.004L103.724 131.925L100.859 128.864L103.803 126.033Z" fill="transperent"/>
<path d="M86.6895 134.195C85.7927 135.555 84.6568 136.28 82.9529 136.04C81.8969 135.959 80.8365 135.95 79.7793 136.015L84.2234 131.594L86.6895 134.195Z" fill="transperent"/>
<path d="M104.456 132.969L107.515 129.998L110.828 133.424C109.682 133.839 108.391 134.364 107.066 134.744C106.757 134.835 106.274 134.489 105.94 134.244C105.437 133.889 104.999 133.444 104.456 132.969Z" fill="transperent"/>
<path d="M104.615 125.012L107.106 122.666L110.096 125.742L107.605 128.118L104.615 125.012Z" fill="transperent"/>
<path d="M93.545 55.4812C93.2047 54.8662 92.9244 54.2197 92.708 53.5506C92.4788 52.5503 92.424 51.5 92.2944 50.4747C92.0354 48.4741 92.2944 46.6736 94.4766 45.4082L93.9784 55.3862L93.545 55.4812Z" fill="transperent"/>
<path d="M115.481 122.201L116.881 123.732L113.364 127.233L111.954 125.732L115.481 122.201Z" fill="transperent"/>
<path d="M71.6582 135.926L75.056 132.74L78.0952 135.926H71.6582Z" fill="transperent"/>
<path d="M110.853 124.848L109.712 123.643L113.249 119.941L114.49 121.232L110.853 124.848Z" fill="transperent"/>
<path d="M112.671 128.239L110.101 130.785L108.606 128.944L111.127 126.443L112.671 128.239Z" fill="transperent"/>
<path d="M95.6425 132.36L94.4966 130.994L98.0788 127.729L99.1449 128.884L95.6425 132.36Z" fill="transperent"/>
<path d="M66.9151 132.939L69.999 135.785C67.9464 136.561 65.7493 136.175 64.7578 134.915L66.9151 132.939Z" fill="transperent"/>
<path d="M99.8922 128.138L98.6616 126.782L101.726 123.781L102.966 125.062L99.8922 128.138Z" fill="transperent"/>
<path d="M82.9927 80.929L81.1344 82.5595L79.0967 80.2688L80.8105 78.6934L82.9927 80.929Z" fill="transperent"/>
<path d="M108.606 122.567L107.914 121.832L111.59 118.371L112.348 119.056L108.606 122.567Z" fill="transperent"/>
<path d="M77.3628 84.8606L76.4312 82.9301L78.3044 81.3496L80.3571 83.1701L77.3329 84.8456L77.3628 84.8606Z" fill="transperent"/>
<path d="M92.8325 129.538L96.32 126.117L97.0175 126.732L93.53 130.153L92.8325 129.538Z" fill="transperent"/>
<path d="M73.0484 84.4693L71.4043 82.7387L73.0384 81.4434L74.5879 83.1139L73.0484 84.4693Z" fill="transperent"/>
<path d="M87.7805 44.6641L89.1606 46.0345C88.6441 46.2606 88.1544 46.5441 87.7008 46.8797C87.4281 47.2227 87.2128 47.6078 87.0631 48.0201L85.5386 46.4746L87.7805 44.6641Z" fill="transperent"/>
<path d="M69.3862 84.7712L70.7065 83.5059L72.7641 86.0066C71.0901 86.5868 70.577 86.4367 69.3862 84.7712Z" fill="transperent"/>
<path d="M100.246 122.396L100.879 122.967L97.6804 125.888L97.1572 125.422L100.246 122.396Z" fill="transperent"/>
<path d="M64.7729 49.6094L66.1131 51.0198C65.3259 52.0201 64.2348 51.9701 63.5024 50.8848C63.6868 50.6797 63.8661 50.4596 64.0654 50.2596C64.2647 50.0595 64.4789 49.8795 64.7729 49.6094Z" fill="transperent"/>
<path d="M77.3329 84.8457L73.7259 86.0811L73.4668 85.726L75.4347 83.9805L77.3579 84.8607L77.3329 84.8457Z" fill="transperent"/>
<path d="M76.3514 47.1348C77.1884 48.6352 75.9678 49.3054 75.0261 50.1707L73.96 49.2304C74.8219 48.4952 75.6041 47.835 76.3813 47.1648L76.3514 47.1348Z" fill="transperent"/>
<path d="M77.6521 49.2148C77.8115 49.3549 78.0307 49.5349 78.23 49.715C78.4293 49.895 78.6186 50.1251 78.9823 50.5152L75.6094 51.0904L77.6521 49.2148Z" fill="transperent"/>
<path d="M87.0081 76.3621L86.1362 75.4419L87.8302 73.9414C88.5974 74.4966 88.5825 74.5616 87.0081 76.3621Z" fill="transperent"/>
<path d="M86.2012 48.6393L84.3977 49.3045L83.6753 48.3992L84.6717 47.2539L86.2012 48.6393Z" fill="transperent"/>
<path d="M69.9243 51.5252C69.3264 51.4752 68.3898 52.1854 67.7222 51.0251L68.7834 49.8848L69.9243 51.5252Z" fill="transperent"/>
<path d="M92.5933 44.2578L90.6801 46.3234L90.3164 46.0133C90.4659 44.938 91.4723 44.5429 92.095 43.8477L92.5933 44.2578Z" fill="transperent"/>
<path d="M59.5366 51.2109L61.0064 49.8555L62.1124 51.2109H59.5366Z" fill="transperent"/>
<path d="M69.5859 82.3145C70.3033 82.9496 69.5311 83.3148 69.1574 83.6448C68.9482 83.8399 68.5695 83.8499 68.2656 83.9399L68.0464 83.4898L69.5859 82.3145Z" fill="transperent"/>
<path d="M44.9388 114.048L46.6277 112.278C46.2085 111.872 45.8126 111.443 45.442 110.992C45.3125 110.817 45.3822 110.492 45.3623 110.237C45.6149 110.232 45.8662 110.273 46.1046 110.357C46.7573 110.742 47.3751 111.182 48.1921 111.722C48.3615 112.043 48.6904 112.653 48.9893 113.288C49.069 113.473 48.9893 113.733 48.9594 113.958C48.7324 113.97 48.5053 113.936 48.2918 113.858C47.9562 113.594 47.6414 113.305 47.3502 112.993L46.01 114.778L47.9082 116.554C48.8448 115.579 49.8462 114.488 50.8975 113.463C51.2347 113.237 51.6067 113.068 51.9985 112.963C51.9051 113.393 51.7364 113.802 51.5003 114.173C50.5437 115.208 49.5074 116.174 48.3765 117.284C49.3032 118.224 50.195 119.07 51.012 119.98C51.2262 120.327 51.3812 120.707 51.4704 121.105C51.08 121.026 50.7071 120.877 50.3693 120.665C49.4975 119.84 48.6904 118.94 47.8783 118.109L45.0135 121.11C45.2606 121.308 45.4846 121.532 45.6811 121.78C45.9299 122.227 46.1528 122.688 46.3487 123.161C45.8854 122.916 45.4021 122.696 44.9637 122.411C44.5714 122.092 44.2018 121.746 43.8577 121.375C43.3246 122.076 42.8363 122.791 42.2634 123.436C42.104 123.616 41.7104 123.591 41.4214 123.661C41.4712 123.371 41.4214 122.991 41.5908 122.801C42.1438 122.186 42.7765 121.64 43.3345 121.11L41.3417 119.065L38.6862 121.8C39.2392 122.241 39.8122 122.651 40.3154 123.131C40.4598 123.271 40.405 123.631 40.4449 123.876C40.1858 123.876 39.8221 123.931 39.6926 123.791C39.1944 123.291 38.8157 122.696 38.2727 121.99C37.2214 123.086 36.4741 123.911 35.662 124.671C35.4478 124.871 35.0393 124.861 34.7204 124.946C34.8151 124.631 34.8151 124.226 35.0143 124.011C35.7716 123.196 36.5937 122.446 37.4357 121.63L36.1802 120.3C35.6022 121.035 35.0891 121.735 34.5111 122.376C34.3667 122.536 34.0129 122.506 33.7638 122.566C33.7887 122.276 33.704 121.885 33.8635 121.72C34.4265 121.115 35.0741 120.585 35.8314 119.895C34.5859 118.669 33.4499 117.594 32.3688 116.459C32.1444 116.12 31.9762 115.747 31.8706 115.353C32.2951 115.454 32.7006 115.623 33.0713 115.854C33.7482 116.511 34.3917 117.202 34.9994 117.924C35.7866 116.979 36.494 116.169 37.1467 115.338C37.2112 115.267 37.2601 115.183 37.2901 115.092C37.3202 115.001 37.3307 114.904 37.3211 114.808C36.9275 113.778 37.2165 113.653 38.1382 114.078C38.2876 114.148 38.6712 113.813 38.8805 113.578C40.0961 112.383 41.2719 111.152 42.5125 109.977C42.8768 109.723 43.2763 109.524 43.6982 109.387C43.5732 109.859 43.3694 110.308 43.0954 110.712C41.7502 112.128 40.3453 113.478 38.8855 114.923L41.526 117.369L44.3908 114.368C43.8527 113.923 43.22 113.443 42.652 112.898C42.4876 112.743 42.4975 112.398 42.4328 112.143C42.7267 112.143 43.1253 112.068 43.2897 112.223C43.8676 112.753 44.3509 113.373 44.9388 114.048ZM43.9922 119.99L46.8669 117.339L45.1879 115.549L42.3182 118.189L43.9922 119.99ZM40.6541 118.224L38.2278 115.724L35.6222 118.384L36.5239 119.205C37.052 118.604 37.4905 118.049 38.0186 117.564C38.168 117.424 38.5168 117.484 38.7609 117.449C38.7609 117.709 38.8157 118.079 38.6712 118.214C38.1332 118.714 37.5204 119.16 36.8777 119.675L38.0734 120.78L40.6541 118.224Z" fill="#558CC9"/>
<path d="M66.8455 26.6831C66.6929 25.9601 66.6276 25.2212 66.6512 24.4825C66.8953 22.847 68.1458 22.0968 69.755 22.4819C71.2497 22.862 71.7878 23.9023 71.3394 25.5428C71.3142 25.6633 71.2959 25.7852 71.2846 25.9079L73.113 26.0229C72.9436 24.6525 73.0084 23.3271 74.4084 22.6169C74.8777 22.3825 75.4071 22.2971 75.926 22.3722C76.4448 22.4472 76.9286 22.6791 77.313 23.037C78.3094 23.8223 78.1201 24.8376 77.7115 25.8879L79.3606 26.0229C79.7492 24.9626 79.9784 23.8723 80.5414 22.992C80.8055 22.5769 81.7122 22.4068 82.325 22.4219C82.6266 22.4132 82.9269 22.4652 83.2082 22.5748C83.4895 22.6844 83.7461 22.8493 83.9629 23.06C84.1797 23.2707 84.3523 23.5227 84.4706 23.8014C84.5889 24.08 84.6505 24.3796 84.6517 24.6825C84.5222 26.423 82.9428 27.5634 80.9998 27.3183C80.8852 29.3989 80.2026 30.2692 78.6681 30.3192C77.1336 30.3692 76.3664 29.4789 76.1422 27.3433L74.7073 27.4183C74.3934 28.1936 74.2091 29.0588 73.7109 29.674C73.2529 30.0816 72.6588 30.3013 72.0468 30.2892C70.5522 30.3492 69.78 29.3739 69.6853 27.5484L67.2291 27.0082L66.8455 26.6831ZM80.6311 25.5228C80.9051 25.7278 81.3435 26.298 81.8816 26.408C82.6688 26.5731 83.9143 25.2577 83.6104 24.5625C83.4473 24.2623 83.2195 24.0024 82.9437 23.8017C82.668 23.6009 82.3511 23.4645 82.0161 23.4021C81.0247 23.3071 80.651 24.1324 80.6361 25.5228H80.6311ZM67.4782 25.4778C67.812 25.7278 68.2604 26.298 68.8035 26.418C69.6056 26.5881 70.6568 25.3877 70.5622 24.5525C70.4575 23.5972 69.7002 23.3921 68.938 23.4021C67.8967 23.4071 67.6077 24.1824 67.4832 25.4728L67.4782 25.4778ZM73.955 25.4778C74.2888 25.7228 74.7472 26.293 75.2952 26.398C76.1023 26.5531 77.2881 25.2427 76.9842 24.5275C76.8199 24.2286 76.591 23.9705 76.3142 23.7723C76.0374 23.5741 75.7198 23.4407 75.3849 23.3821C74.4084 23.3271 74.0746 24.1974 73.9849 25.4978L73.955 25.4778ZM78.4838 29.8641C79.1663 29.0938 79.7891 28.7037 79.8888 28.2036C80.0631 27.3483 79.3656 26.9682 78.5784 26.9282C77.7913 26.8882 77.1187 27.1232 77.2432 27.9735C77.3478 28.5437 77.9108 29.0188 78.4987 29.8841L78.4838 29.8641ZM72.1913 29.8641C72.7892 29.0288 73.3671 28.5787 73.412 28.0785C73.4917 27.2183 72.7593 26.9082 71.9771 26.9082C71.1949 26.9082 70.5572 27.2533 70.7664 28.0735C70.9209 28.6537 71.5237 29.0738 72.2063 29.8941L72.1913 29.8641Z" fill="#558CC9"/>
<path d="M51.6852 21.3818C53.5385 23.2373 54.2958 23.2774 52.7314 25.8481L54.0866 25.6331C53.8553 26.1144 53.5854 26.5761 53.2794 27.0135C52.8249 27.5556 52.3249 28.0576 51.7848 28.5139C51.4398 28.7663 51.0729 28.9873 50.6887 29.1741L50.2254 27.8087C49.5926 28.5089 49.0745 29.1391 48.4866 29.6943C48.3172 29.8543 47.9336 29.7893 47.6496 29.8243C47.7044 29.5642 47.6496 29.2191 47.824 29.0641C48.377 28.5089 48.9948 28.0188 49.6773 27.4286L47.5101 25.578C47.2969 25.7585 47.0666 25.9176 46.8226 26.0532C46.7323 26.0788 46.6377 26.085 46.545 26.0712C46.4522 26.0574 46.3634 26.024 46.2845 25.9732C46.2353 25.9143 46.2003 25.8449 46.1822 25.7704C46.164 25.6958 46.1633 25.618 46.1799 25.543C46.3792 24.9129 46.6133 24.2977 46.8774 23.5424C47.0219 23.5875 47.4653 23.8775 47.6446 23.7575C47.8003 23.6489 47.9271 23.5037 48.0139 23.3345C48.1008 23.1654 48.145 22.9775 48.1428 22.7872C47.9685 22.182 48.0581 21.7069 48.6411 22.042C49.3884 22.4521 49.5976 21.947 49.9613 21.6119C50.325 21.2768 50.7485 20.7566 51.2019 20.4065C51.496 20.2441 51.8138 20.1293 52.1435 20.0664C52.0439 20.4115 51.9542 20.7616 51.8446 21.1017C51.8021 21.2008 51.7486 21.2947 51.6852 21.3818Z" fill="#558CC9"/>
<path d="M66.8458 26.6828L67.2543 27.0029C67.628 27.9582 67.6927 28.8835 66.8856 29.6587C66.5414 29.9977 66.1029 30.2241 65.628 30.3081C65.1531 30.392 64.664 30.3295 64.2251 30.1288C62.9945 29.6287 62.7305 28.5784 62.7703 27.333C61.485 27.5481 60.3789 27.413 59.8259 26.0976C59.6013 25.5539 59.5511 24.9534 59.6824 24.3796C59.8137 23.8059 60.1198 23.2876 60.5583 22.8967C60.9891 22.5608 61.516 22.3727 62.0613 22.3601C62.6067 22.3474 63.1417 22.511 63.5874 22.8267C64.8479 23.5719 64.7582 24.6922 64.3945 25.6775L66.8458 26.6828ZM60.5334 25.4074C60.8423 25.6675 61.2657 26.2627 61.8088 26.4077C62.586 26.6178 63.702 25.4475 63.6472 24.6022C63.5874 23.6469 62.8252 23.3768 62.0679 23.3668C61.0316 23.3468 60.6878 24.1021 60.5334 25.4074ZM65.1169 29.9088C65.7746 29.1235 66.3824 28.7184 66.4721 28.2183C66.6315 27.348 65.9191 27.0029 65.1369 26.9679C64.3547 26.9329 63.6821 27.203 63.8266 28.0432C63.9162 28.5684 64.5191 29.0335 65.112 29.8888L65.1169 29.9088Z" fill="#558CC9"/>
<path d="M43.9924 119.99L42.3184 118.19L45.1881 115.549L46.8671 117.339L43.9924 119.99Z" fill="transperent"/>
<path d="M40.6545 118.226L38.0738 120.782L36.8781 119.676C37.5257 119.176 38.1336 118.726 38.6716 118.216C38.8161 118.081 38.7364 117.716 38.7613 117.451C38.5072 117.481 38.1684 117.421 38.019 117.566C37.5208 118.066 37.0724 118.606 36.5243 119.206L35.6226 118.386L38.2083 115.705L40.6545 118.226Z" fill="transperent"/>
<path d="M80.6362 25.5226C80.6362 24.1322 81.0248 23.3069 82.0163 23.4019C82.3512 23.4642 82.6681 23.6007 82.9439 23.8015C83.2197 24.0022 83.4474 24.2621 83.6106 24.5623C83.9145 25.2575 82.669 26.5629 81.8818 26.4078C81.3487 26.2928 80.9053 25.7276 80.6362 25.5226Z" fill="transperent"/>
<path d="M67.4834 25.4732C67.608 24.1778 67.8969 23.4076 68.9432 23.3926C69.7054 23.3926 70.4378 23.5876 70.5674 24.5429C70.657 25.3782 69.6108 26.5785 68.8087 26.4085C68.2606 26.2984 67.8122 25.7233 67.4834 25.4732Z" fill="transperent"/>
<path d="M73.9849 25.4972C74.0895 24.1918 74.4183 23.3216 75.4147 23.4016C75.7497 23.4602 76.0673 23.5935 76.3441 23.7917C76.6209 23.99 76.8498 24.248 77.014 24.5469C77.3279 25.2621 76.1322 26.5725 75.3251 26.4175C74.7621 26.3124 74.3037 25.7523 73.9849 25.4972Z" fill="transperent"/>
<path d="M78.4985 29.8835C77.9106 29.0182 77.3476 28.5431 77.263 27.9929C77.1334 27.1427 77.8708 26.9076 78.5982 26.9476C79.3256 26.9876 80.0928 27.3677 79.9085 28.223C79.8038 28.7231 79.1811 29.1132 78.4985 29.8835Z" fill="transperent"/>
<path d="M72.2062 29.8942C71.5237 29.074 70.9208 28.6489 70.7813 28.1087C70.5721 27.2885 71.2347 26.9434 71.992 26.9434C72.7493 26.9434 73.4866 27.2535 73.4268 28.1137C73.382 28.6139 72.8041 29.064 72.2062 29.8942Z" fill="transperent"/>
<path d="M60.5332 25.4072C60.6876 24.1018 61.0314 23.3465 62.0677 23.3615C62.82 23.3615 63.5624 23.6466 63.6471 24.5969C63.7019 25.4422 62.5859 26.5975 61.8086 26.4025C61.2606 26.2524 60.8421 25.6672 60.5332 25.4072Z" fill="transperent"/>
<path d="M65.1117 29.8884C64.4989 29.0382 63.916 28.5731 63.8213 28.0229C63.6768 27.1826 64.3992 26.9176 65.1316 26.9476C65.864 26.9776 66.6263 27.3327 66.4668 28.1979C66.3772 28.6981 65.7693 29.0982 65.1117 29.8884Z" fill="transperent"/>
</g>
<defs>
<clipPath id="clip0_152_782">
<rect width="134" height="151" fill="transperent"/>
</clipPath>
</defs>
</svg>
