<svg width="40" height="60" viewBox="0 0 40 60" fill="none" xmlns="http://www.w3.org/2000/svg">
<path d="M39.0396 51.0358C39.6441 49.0699 39.648 46.9682 39.0507 45C39.6442 43.044 39.6442 40.9559 39.0507 39C39.6611 36.9889 39.6434 34.8395 38.9999 32.8387V18.9325C38.9974 17.2576 38.5532 15.6131 37.7123 14.1646C36.8714 12.7162 35.6634 11.5151 34.2102 10.6825L34.1013 10.6209C33.6121 10.34 33.1848 9.96297 32.8451 9.51255C32.5054 9.06212 32.2605 8.54761 32.1249 8H32.9999C33.2651 8 33.5195 7.89464 33.707 7.7071C33.8946 7.51957 33.9999 7.26521 33.9999 7V1.75C33.9994 1.28602 33.8149 0.841192 33.4868 0.513111C33.1587 0.18503 32.7139 0.00049632 32.2499 0H23.9688C23.5048 0.00052934 23.06 0.185074 22.732 0.513148C22.4039 0.841221 22.2193 1.28603 22.2188 1.75V7C22.2188 7.26521 22.3242 7.51957 22.5117 7.7071C22.6992 7.89464 22.9536 8 23.2188 8H23.8759C23.7419 8.54754 23.4978 9.06207 23.1585 9.51225C22.8192 9.96242 22.3918 10.3388 21.9023 10.6185L21.7861 10.6844C20.3336 11.5171 19.1264 12.7181 18.2862 14.1662C17.4459 15.6142 17.0022 17.2583 16.9999 18.9325V27H0.999949C0.863209 27 0.727923 27.028 0.602453 27.0824C0.476983 27.1368 0.363994 27.2163 0.27047 27.316C0.176947 27.4158 0.104877 27.5337 0.0587129 27.6624C0.0125488 27.7911 -0.00672839 27.9279 0.00207425 28.0644L0.682324 38.6097V38.6164L1.88082 57.1931C1.93138 57.9532 2.26864 58.6659 2.82443 59.1869C3.38023 59.7079 4.11311 59.9985 4.87495 60H18.1249C18.4753 59.9999 18.8229 59.9382 19.1518 59.8175C19.5371 59.9385 19.9386 60 20.3424 60H35.6574C36.5495 60.001 37.4163 59.7033 38.1195 59.1543C38.8227 58.6054 39.3219 57.8368 39.5374 56.9711C39.8607 55.6773 39.8607 54.3239 39.5374 53.0301L39.0396 51.0358ZM24.2188 2H31.9999V6H24.2188V2ZM22.7749 12.4227L22.8921 12.3565C23.6886 11.901 24.3736 11.2736 24.897 10.5199C25.4205 9.76631 25.7694 8.90544 25.9182 8H30.0819C30.2323 8.90581 30.5822 9.76686 31.1063 10.5208C31.6304 11.2747 32.3157 11.9026 33.1124 12.359L33.2213 12.4206C34.2306 12.9996 35.0917 13.8048 35.7371 14.7729C36.3825 15.741 36.7944 16.8457 36.9406 18H19.0593C19.2052 16.8463 19.6166 15.7422 20.2614 14.7745C20.9061 13.8067 21.7665 13.0017 22.7749 12.4227ZM18.9999 20H36.9999V31H22.8084L22.9978 28.0644C23.0066 27.9279 22.9873 27.7911 22.9412 27.6624C22.895 27.5337 22.8229 27.4158 22.7294 27.316C22.6359 27.2163 22.5229 27.1368 22.3974 27.0824C22.272 27.028 22.1367 27 21.9999 27H18.9999V20ZM34.3613 33L33.6101 33.2147C30.0352 34.2366 26.249 34.2616 22.6609 33.2871L22.6794 32.9996L34.3613 33ZM19.1227 57.0645C19.1058 57.3178 18.9935 57.5553 18.8083 57.7289C18.623 57.9026 18.3788 57.9994 18.1249 58H4.87495C4.62104 57.9995 4.37679 57.9026 4.19156 57.729C4.00632 57.5553 3.89392 57.3178 3.87707 57.0645L2.77295 39.952C3.52497 40.3303 4.35831 40.5185 5.19995 40.5C6.0801 40.5174 6.95037 40.312 7.72982 39.9029C8.20257 39.6778 8.57582 39.5 9.39994 39.5C10.2241 39.5 10.5974 39.6779 11.0699 39.903C11.8555 40.2956 12.7217 40.5 13.5999 40.5C14.4782 40.5 15.3444 40.2956 16.1299 39.903C16.6026 39.678 16.9759 39.5001 17.7999 39.5001C18.6239 39.5001 18.9972 39.6779 19.4697 39.903C19.7103 40.022 19.9573 40.1277 20.2096 40.2196L19.1227 57.0645ZM20.3459 38.1049L20.3298 38.0971C19.5443 37.7045 18.6782 37.5001 17.8 37.5001C16.9218 37.5001 16.0557 37.7045 15.2702 38.0971C14.7972 38.3221 14.4236 38.5002 13.5987 38.5002C12.7738 38.5002 12.4024 38.3225 11.9301 38.0975C11.1445 37.7048 10.2783 37.5003 9.40001 37.5003C8.52173 37.5003 7.65552 37.7048 6.86995 38.0975C6.39732 38.3225 6.02395 38.5004 5.19995 38.5004C4.37595 38.5004 4.00207 38.3225 3.52932 38.0972C3.2388 37.9524 2.93799 37.8292 2.62932 37.7286L2.50657 35.8261C2.5602 35.8511 2.61432 35.8767 2.67032 35.9034C3.44973 36.3123 4.31992 36.5176 5.19995 36.5C6.0801 36.5175 6.95037 36.312 7.72982 35.9029C8.20257 35.6779 8.57582 35.5 9.39994 35.5C10.2241 35.5 10.5974 35.6779 11.0699 35.903C11.8555 36.2956 12.7217 36.5 13.5999 36.5C14.4782 36.5 15.3444 36.2956 16.1299 35.903C16.6026 35.678 16.9759 35.5001 17.7999 35.5001C18.6239 35.5001 18.9964 35.6779 19.4688 35.9029C19.7881 36.0634 20.1205 36.1963 20.4624 36.3L20.3459 38.1049ZM20.5959 34.2214C20.5084 34.1825 20.4209 34.1409 20.3282 34.0964C19.5428 33.7038 18.6769 33.4995 17.7989 33.4995C16.921 33.4995 16.055 33.7038 15.2697 34.0964C14.7967 34.3214 14.4231 34.4995 13.5982 34.4995C12.7733 34.4995 12.4019 34.3217 11.9296 34.0967C11.144 33.704 10.2778 33.4995 9.39951 33.4995C8.52123 33.4995 7.65502 33.704 6.86944 34.0967C6.39682 34.3217 6.02345 34.4996 5.19945 34.4996C4.37545 34.4996 4.00257 34.3219 3.5302 34.0969C3.15911 33.9082 2.76894 33.7598 2.36632 33.6541L2.06657 29H20.9333L20.5959 34.2214ZM37.5973 56.485C37.4897 56.9179 37.2401 57.3023 36.8885 57.5769C36.5369 57.8515 36.1035 58.0004 35.6574 58H20.9523C21.0448 57.74 21.1008 57.4685 21.1186 57.1931L21.3886 53.0086L21.8408 53.138C22.4824 53.3208 23.1457 53.4783 23.8119 53.606C24.0724 53.6558 24.3421 53.6002 24.5615 53.4512C24.781 53.3023 24.9323 53.0723 24.9821 52.8118C25.032 52.5513 24.9763 52.2817 24.8274 52.0622C24.6784 51.8428 24.4484 51.6915 24.1879 51.6416C23.5796 51.5251 22.9743 51.3815 22.3898 51.2148L21.5203 50.9662L21.7687 47.1172L21.8404 47.1378C24.8611 48.0005 28.0293 48.2189 31.1397 47.7788C31.4023 47.7418 31.6394 47.6019 31.7989 47.39C31.9584 47.1781 32.0272 46.9115 31.9901 46.6489C31.9531 46.3863 31.8132 46.1492 31.6013 45.9897C31.3894 45.8302 31.1228 45.7614 30.8602 45.7985C28.027 46.1994 25.1412 46.0006 22.3898 45.2148L21.8999 45.075L22.1484 41.2225C22.3544 41.2781 22.5609 41.3319 22.7658 41.3811C22.8938 41.4126 23.0267 41.4184 23.1569 41.3983C23.2871 41.3783 23.4121 41.3327 23.5246 41.2641C23.6372 41.1956 23.7351 41.1055 23.8127 40.999C23.8903 40.8925 23.9461 40.7718 23.9769 40.6437C24.0077 40.5155 24.0128 40.3826 23.9921 40.2525C23.9713 40.1224 23.925 39.9976 23.8559 39.8854C23.7868 39.7733 23.6962 39.6758 23.5893 39.5988C23.4824 39.5217 23.3613 39.4666 23.2331 39.4365C22.9527 39.3691 22.6686 39.2945 22.3892 39.2149L22.2801 39.1836L22.5292 35.3211C26.3547 36.2828 30.3661 36.2195 34.1593 35.1374L37.3062 34.2374C37.5889 35.5433 37.5531 36.8981 37.2018 38.1874L33.6092 39.2139C31.4774 39.8231 29.2606 40.081 27.0459 39.9774C26.781 39.965 26.522 40.0584 26.326 40.2371C26.1299 40.4157 26.0128 40.6649 26.0005 40.9298C25.9882 41.1947 26.0816 41.4537 26.2602 41.6498C26.4388 41.8458 26.688 41.9629 26.9529 41.9752C27.3006 41.9915 27.6529 41.9996 27.9994 41.9996C30.0826 41.9997 32.1557 41.7094 34.1587 41.1371L37.3062 40.2379C37.5889 41.5438 37.5531 42.8986 37.2018 44.1878L34.2249 45.0385C34.0987 45.0746 33.9807 45.1352 33.8779 45.2169C33.7751 45.2986 33.6893 45.3997 33.6256 45.5145C33.5618 45.6294 33.5213 45.7556 33.5064 45.8861C33.4914 46.0166 33.5023 46.1487 33.5384 46.275C33.5745 46.4012 33.6352 46.5192 33.7169 46.622C33.7985 46.7248 33.8997 46.8106 34.0145 46.8743C34.1293 46.9381 34.2556 46.9786 34.386 46.9935C34.5165 47.0085 34.6487 46.9976 34.7749 46.9615L37.3069 46.2381C37.5896 47.5441 37.5538 48.8989 37.2026 50.1881L33.6099 51.2146C31.7855 51.7359 29.8973 52.0002 27.9999 52C27.7347 52 27.4804 52.1053 27.2928 52.2929C27.1053 52.4804 26.9999 52.7348 26.9999 53C26.9999 53.2652 27.1053 53.5195 27.2928 53.7071C27.4804 53.8946 27.7347 54 27.9999 54C30.0831 54.0001 32.1562 53.7098 34.1592 53.1375L37.2803 52.2457L37.5976 53.5161C37.8409 54.4908 37.8409 55.5104 37.5976 56.4851L37.5973 56.485Z" fill="#558CC9"/>
<path d="M26.1997 28.3513C26.7839 28.7893 27.5078 28.9992 28.2356 28.9417C28.9635 28.8842 29.6454 28.5632 30.1535 28.0389C30.6616 27.5147 30.9612 26.8231 30.9959 26.0938C31.0306 25.3645 30.7982 24.6476 30.3422 24.0773L28.7806 22.125C28.6869 22.0079 28.5681 21.9133 28.4329 21.8484C28.2978 21.7834 28.1497 21.7497 27.9997 21.7497C27.8498 21.7497 27.7017 21.7834 27.5665 21.8484C27.4314 21.9133 27.3125 22.0079 27.2189 22.125L25.6572 24.0775C25.4062 24.3913 25.2208 24.7523 25.112 25.1391C25.0032 25.5259 24.9732 25.9306 25.0238 26.3292C25.0744 26.7279 25.2046 27.1123 25.4066 27.4596C25.6086 27.807 25.8783 28.1102 26.1997 28.3513ZM27.219 25.3263L27.9997 24.3508L28.7805 25.3267C28.8642 25.4313 28.9261 25.5517 28.9624 25.6807C28.9987 25.8096 29.0087 25.9446 28.9918 26.0775C28.9749 26.2104 28.9315 26.3386 28.8641 26.4544C28.7968 26.5703 28.7068 26.6714 28.5996 26.7517C28.4262 26.8808 28.2158 26.9505 27.9996 26.9505C27.7834 26.9505 27.573 26.8808 27.3996 26.7517C27.2924 26.6713 27.2025 26.5702 27.1351 26.4544C27.0677 26.3386 27.0243 26.2104 27.0075 26.0775C26.9906 25.9446 27.0006 25.8096 27.037 25.6807C27.0733 25.5517 27.1351 25.4313 27.2189 25.3267L27.219 25.3263Z" fill="#558CC9"/>
<path d="M31.9233 13.4139L31.5545 13.1679C31.4452 13.0951 31.3226 13.0445 31.1938 13.019C31.065 12.9935 30.9324 12.9937 30.8036 13.0195C30.6748 13.0452 30.5524 13.0961 30.4433 13.1692C30.3342 13.2423 30.2405 13.3361 30.1677 13.4454C30.0949 13.5547 30.0443 13.6772 30.0188 13.8061C29.9933 13.9349 29.9935 14.0675 30.0193 14.1963C30.0713 14.4563 30.2245 14.6851 30.4452 14.8322L30.814 15.0779C31.4669 15.5132 32.0541 16.0399 32.5577 16.6418C32.7279 16.8452 32.9719 16.9727 33.2361 16.9961C33.5003 17.0196 33.763 16.9372 33.9664 16.767C34.1698 16.5968 34.2973 16.3527 34.3207 16.0886C34.3442 15.8244 34.2618 15.5617 34.0916 15.3583C33.4654 14.6099 32.7353 13.9551 31.9233 13.4139Z" fill="#558CC9"/>
<path d="M6.28917 49C6.31079 49 6.33267 49 6.35454 48.9978C6.48561 48.9894 6.61372 48.9552 6.73157 48.8972C6.84941 48.8392 6.95468 48.7586 7.04137 48.6599C7.12805 48.5613 7.19446 48.4465 7.23678 48.3222C7.27911 48.1978 7.29652 48.0664 7.28804 47.9353L6.99767 43.4353C6.99049 43.3034 6.95722 43.1741 6.89978 43.0551C6.84234 42.936 6.76188 42.8296 6.66304 42.7418C6.5642 42.6541 6.44894 42.5868 6.32394 42.5439C6.19893 42.501 6.06666 42.4832 5.93477 42.4917C5.80287 42.5002 5.67397 42.5348 5.55552 42.5935C5.43707 42.6521 5.33142 42.7336 5.24467 42.8333C5.15792 42.9331 5.09181 43.049 5.05014 43.1744C5.00847 43.2998 4.99208 43.4323 5.00192 43.5641L5.29217 48.0641C5.30845 48.3175 5.42055 48.5553 5.60571 48.7291C5.79087 48.9029 6.03522 48.9997 6.28917 49Z" fill="#558CC9"/>
<path d="M7.54629 51.9356C7.52922 51.6709 7.4077 51.4239 7.20848 51.2488C7.00926 51.0737 6.74865 50.9849 6.48398 51.002C6.21931 51.0191 5.97226 51.1406 5.79718 51.3398C5.62211 51.539 5.53334 51.7997 5.55042 52.0643L5.61491 53.0643C5.63127 53.3178 5.74346 53.5555 5.92872 53.7293C6.11398 53.9031 6.35841 53.9998 6.61241 53.9999C6.63391 53.9999 6.65579 53.9999 6.67766 53.9978C6.80874 53.9894 6.93686 53.9552 7.05473 53.8972C7.17259 53.8393 7.27787 53.7586 7.36457 53.66C7.45127 53.5613 7.51768 53.4465 7.56001 53.3222C7.60235 53.1979 7.61977 53.0664 7.61129 52.9353L7.54629 51.9356Z" fill="#558CC9"/>
</svg>
