<svg width="60" height="60" viewBox="0 0 60 60" fill="none" xmlns="http://www.w3.org/2000/svg">
<path d="M59.0002 0H17.0002C16.735 0 16.4806 0.105357 16.2931 0.292893C16.1056 0.48043 16.0002 0.734784 16.0002 1V12H18.0002V2H46.0002V9.00001C46.0002 9.26523 46.1056 9.51958 46.2931 9.70712C46.4807 9.89465 46.735 10 47.0002 10H54.0002V52.0001H33.0002V54.0001H59.0002C59.2655 54.0001 59.5198 53.8947 59.7074 53.7072C59.8949 53.5196 60.0002 53.2653 60.0002 53.0001V1C60.0002 0.734784 59.8949 0.48043 59.7074 0.292893C59.5198 0.105357 59.2655 0 59.0002 0ZM48.0002 3.41413L52.5861 8.00001H48.0002V3.41413ZM58.0002 52.0001H56.0002V9.00001C56.0002 8.86869 55.9744 8.73865 55.9241 8.61732C55.8739 8.49599 55.8002 8.38575 55.7074 8.29288L49.4145 2H58.0002V52.0001Z" fill="#558CC9"/>
<path d="M30.4945 13.79C30.7679 14.2679 31.1525 14.6728 31.6159 14.9701C32.0792 15.2675 32.6075 15.4486 33.1558 15.498C33.472 15.9609 33.8963 16.3397 34.392 16.6014C34.8878 16.8631 35.4399 16.9999 36.0004 16.9999C36.561 16.9999 37.1131 16.8631 37.6088 16.6014C38.1045 16.3397 38.5289 15.9609 38.845 15.498C39.3934 15.4486 39.9216 15.2675 40.385 14.9701C40.8483 14.6728 41.233 14.2679 41.5063 13.79C41.8008 13.297 41.9699 12.7392 41.9987 12.1656C42.0276 11.592 41.9154 11.0201 41.6719 10.4999C41.9154 9.97974 42.0276 9.40781 41.9987 8.83422C41.9699 8.26062 41.8008 7.70285 41.5063 7.20977C41.233 6.73187 40.8483 6.32702 40.385 6.02966C39.9216 5.73229 39.3934 5.5512 38.845 5.50177C38.5289 5.03888 38.1045 4.66014 37.6088 4.39842C37.1131 4.1367 36.561 3.9999 36.0004 3.9999C35.4399 3.9999 34.8878 4.1367 34.392 4.39842C33.8963 4.66014 33.472 5.03888 33.1558 5.50177C32.6075 5.55121 32.0792 5.73231 31.6159 6.02967C31.1525 6.32704 30.7679 6.73187 30.4945 7.20977C30.2001 7.70285 30.031 8.26062 30.0021 8.83422C29.9732 9.40781 30.0854 9.97974 30.3289 10.4999C30.0854 11.0201 29.9732 11.592 30.0021 12.1656C30.031 12.7392 30.2001 13.297 30.4945 13.79ZM32.2962 9.9174C32.1191 9.67292 32.0175 9.38191 32.004 9.08033C31.9905 8.77875 32.0657 8.47983 32.2203 8.22053C32.357 7.97342 32.5643 7.77269 32.8156 7.64397C33.067 7.51525 33.351 7.46439 33.6314 7.4979C33.8442 7.52154 34.059 7.47625 34.2442 7.36869C34.4293 7.26113 34.575 7.09698 34.6599 6.9004C34.7687 6.63414 34.9542 6.40631 35.193 6.24593C35.4317 6.08555 35.7128 5.9999 36.0004 5.9999C36.288 5.9999 36.5691 6.08555 36.8079 6.24593C37.0466 6.40631 37.2322 6.63414 37.3409 6.9004C37.4257 7.09709 37.5714 7.26135 37.7565 7.36893C37.9417 7.47651 38.1566 7.52172 38.3694 7.4979C38.6498 7.46439 38.9339 7.51525 39.1852 7.64397C39.4366 7.77269 39.6438 7.97342 39.7806 8.22053C39.9351 8.47983 40.0103 8.77875 39.9968 9.08033C39.9833 9.38191 39.8818 9.67292 39.7047 9.9174C39.583 10.0872 39.5175 10.2909 39.5175 10.4999C39.5175 10.7089 39.583 10.9126 39.7047 11.0824C39.8818 11.3269 39.9833 11.6179 39.9968 11.9195C40.0103 12.2211 39.9351 12.52 39.7806 12.7793C39.6439 13.0264 39.4366 13.2272 39.1852 13.3559C38.9339 13.4846 38.6498 13.5354 38.3694 13.5019C38.1566 13.4779 37.9416 13.5231 37.7564 13.6307C37.5712 13.7383 37.4255 13.9026 37.3409 14.0994C37.2322 14.3657 37.0466 14.5935 36.8079 14.7539C36.5691 14.9143 36.288 14.9999 36.0004 14.9999C35.7128 14.9999 35.4317 14.9143 35.193 14.7539C34.9542 14.5935 34.7687 14.3657 34.6599 14.0994C34.5826 13.9202 34.4545 13.7676 34.2914 13.6603C34.1283 13.5531 33.9375 13.4959 33.7423 13.4958C33.7052 13.4957 33.6682 13.4978 33.6314 13.5019C33.351 13.5354 33.067 13.4846 32.8156 13.3558C32.5643 13.2271 32.357 13.0264 32.2203 12.7793C32.0657 12.52 31.9905 12.2211 32.004 11.9195C32.0175 11.6179 32.1191 11.3269 32.2962 11.0824C32.4179 10.9126 32.4833 10.7089 32.4833 10.4999C32.4833 10.2909 32.4179 10.0872 32.2962 9.9174Z" fill="#558CC9"/>
<path d="M50.0002 34.9998H40.0002V36.9998H50.0002V34.9998Z" fill="#558CC9"/>
<path d="M50.0002 30H40.0002V32H50.0002V30Z" fill="#558CC9"/>
<path d="M50.0002 24.9999H40.0002V26.9999H50.0002V24.9999Z" fill="#558CC9"/>
<path d="M50.0002 19.9998H40.0002V21.9998H50.0002V19.9998Z" fill="#558CC9"/>
<path d="M50 39.9999H39V41.9999H50V39.9999Z" fill="#558CC9"/>
<path d="M49.9996 45H36.9996V47H49.9996V45Z" fill="#558CC9"/>
<path d="M38 33.9792V20.0001C38 19.7349 37.8947 19.4805 37.7071 19.293C37.5196 19.1055 37.2653 19.0001 37 19.0001H36.434C30.4561 19.0019 24.5983 17.3219 19.53 14.1521C19.3711 14.0528 19.1874 14.0001 19 14.0001C18.8126 14.0001 18.629 14.0528 18.47 14.1521C13.4017 17.3219 7.5439 19.0019 1.566 19.0001H1C0.734784 19.0001 0.48043 19.1055 0.292893 19.293C0.105357 19.4805 0 19.7349 0 20.0001V33.9792C2.11837e-05 38.4333 1.14425 42.8126 3.32297 46.6973C5.5017 50.5821 8.64186 53.842 12.4424 56.1645L18.4786 59.8534C18.6356 59.9493 18.816 60.0001 19 60.0001C19.184 60.0001 19.3644 59.9493 19.5214 59.8534L25.5577 56.1645C29.3582 53.842 32.4983 50.5821 34.6771 46.6973C36.8558 42.8126 38 38.4333 38 33.9792ZM24.5149 54.458L19 57.8282L13.4851 54.458C9.97698 52.3141 7.07839 49.305 5.06728 45.719C3.05618 42.1331 2 38.0906 2 33.9792V20.9974C7.99389 20.9223 13.8604 19.2572 19 16.1724C24.1396 19.2572 30.0062 20.9223 36 20.9974V33.9792C36 38.0906 34.9439 42.1331 32.9328 45.719C30.9216 49.305 28.0231 52.3141 24.5149 54.458Z" fill="#558CC9"/>
<path d="M33.0931 22.8447C28.3235 22.405 23.6913 21.0091 19.473 18.7402C19.3276 18.6622 19.1652 18.6214 19.0002 18.6214C18.8352 18.6214 18.6728 18.6622 18.5275 18.7402C14.3091 21.0091 9.67693 22.405 4.90732 22.8447C4.65925 22.8678 4.42875 22.9827 4.26096 23.1669C4.09317 23.3511 4.00018 23.5913 4.0002 23.8404V33.9792C4.00019 37.748 4.96837 41.4536 6.8119 44.7407C8.65543 48.0278 11.3125 50.7862 14.5283 52.7515L18.4783 55.1656C18.6353 55.2615 18.8157 55.3123 18.9997 55.3123C19.1837 55.3123 19.3641 55.2615 19.5211 55.1656L23.4711 52.7515C26.6871 50.7864 29.3444 48.028 31.1881 44.7409C33.0318 41.4538 34.0001 37.7481 34.0002 33.9792V23.8404C34.0002 23.5913 33.9073 23.3511 33.7395 23.1669C33.5717 22.9827 33.3412 22.8678 33.0931 22.8447ZM32.0002 33.9792C32.0002 37.4054 31.1201 40.7741 29.4441 43.7624C27.7682 46.7506 25.3527 49.2583 22.4292 51.0449L19.0002 53.1404L15.5712 51.0449C12.6477 49.2583 10.2322 46.7506 8.5563 43.7624C6.88036 40.7741 6.0002 37.4054 6.0002 33.9792V24.7407C10.5398 24.2117 14.9451 22.8601 19.0002 20.7521C23.0554 22.8601 27.4606 24.2117 32.0002 24.7407V33.9792Z" fill="#558CC9"/>
<path d="M20 22.9998H18V24.9998H20V22.9998Z" fill="#558CC9"/>
<path d="M10.0004 27H8.0004V29H10.0004V27Z" fill="#558CC9"/>
<path d="M30.0002 27H28.0002V29H30.0002V27Z" fill="#558CC9"/>
<path d="M20 48H18V50H20V48Z" fill="#558CC9"/>
<path d="M27.9998 39.9999H25.9998V41.9999H27.9998V39.9999Z" fill="#558CC9"/>
<path d="M12.0002 39.9999H10.0002V41.9999H12.0002V39.9999Z" fill="#558CC9"/>
</svg>
