<svg width="63" height="35" viewBox="0 0 63 35" fill="none" xmlns="http://www.w3.org/2000/svg">
<path d="M62.9553 17.0426C62.9621 15.7439 62.4558 14.4951 61.5464 13.5679C60.6371 12.6407 59.3984 12.1101 58.0999 12.0917H53.4544C52.2061 12.0871 50.9771 11.7837 49.87 11.2069C48.7629 10.6301 47.81 9.79667 47.0909 8.77629L43.8455 4.49997C42.8204 3.0869 41.4709 1.94068 39.9106 1.15775C38.3503 0.374826 36.6248 -0.0219064 34.8792 0.000933133H14.3503C12.6476 -0.0188874 10.9638 0.359793 9.43347 1.10672C7.90315 1.85365 6.56872 2.94812 5.5368 4.3027L1.0823 9.9281C0.367224 10.8085 -0.0156893 11.9122 0.000492649 13.0462V24.9779C-0.01139 26.2787 0.493102 27.5311 1.40332 28.4604C2.31354 29.3897 3.55517 29.92 4.85589 29.9352H6.87951C7.31835 31.3226 8.18976 32.5332 9.36622 33.3897C10.5427 34.2462 11.9624 34.7037 13.4176 34.6951C14.8728 34.6866 16.287 34.2125 17.4533 33.3423C18.6197 32.472 19.4768 31.2513 19.8994 29.8588H41.9937C42.4105 31.2627 43.2684 32.495 44.4404 33.3732C45.6124 34.2513 47.0361 34.7286 48.5006 34.7343C49.9651 34.7401 51.3924 34.2739 52.5712 33.4049C53.75 32.5359 54.6176 31.3103 55.0453 29.9097H58.1762C58.8113 29.9093 59.44 29.7825 60.0256 29.5367C60.6112 29.2909 61.142 28.931 61.5871 28.4779C62.5034 27.5447 63.0116 26.2858 62.9998 24.9779L62.9553 17.0426ZM45.5573 9.9281C46.1763 10.7469 46.9066 11.4751 47.7272 12.0917H28.0002V5.72814H42.3691L45.5573 9.9281ZM8.01222 12.0917C7.9417 12.0883 7.87394 12.0633 7.81815 12.02C7.76236 11.9768 7.72125 11.9174 7.70041 11.8499C7.66317 11.7658 7.65176 11.6725 7.66762 11.5818C7.68348 11.4912 7.7259 11.4073 7.7895 11.3408L11.8367 7.0454C12.2114 6.62392 12.6725 6.28811 13.1886 6.0608C13.7047 5.8335 14.2637 5.72004 14.8276 5.72814H26.0911V12.0917H8.01222ZM13.3767 32.7733C12.4063 32.7733 11.4577 32.4855 10.6509 31.9464C9.84407 31.4073 9.21522 30.6411 8.84387 29.7446C8.47252 28.848 8.37536 27.8615 8.56467 26.9098C8.75398 25.9581 9.22126 25.0839 9.90742 24.3977C10.5936 23.7115 11.4678 23.2443 12.4195 23.055C13.3713 22.8656 14.3578 22.9628 15.2543 23.3342C16.1508 23.7055 16.917 24.3344 17.4562 25.1412C17.9953 25.948 18.283 26.8966 18.283 27.867C18.2813 29.1666 17.7648 30.4126 16.8464 31.3322C15.928 32.2517 14.6827 32.7699 13.3831 32.7733H13.3767ZM48.51 32.7733C47.5396 32.7733 46.591 32.4855 45.7842 31.9464C44.9773 31.4073 44.3485 30.6411 43.9771 29.7446C43.6058 28.848 43.5086 27.8615 43.6979 26.9098C43.8872 25.9581 44.3545 25.0839 45.0407 24.3977C45.7268 23.7115 46.6011 23.2443 47.5528 23.055C48.5045 22.8656 49.491 22.9628 50.3875 23.3342C51.284 23.7055 52.0503 24.3344 52.5894 25.1412C53.1285 25.948 53.4163 26.8966 53.4163 27.867C53.4146 29.1666 52.898 30.4126 51.9796 31.3322C51.0613 32.2517 49.8159 32.7699 48.5163 32.7733H48.51ZM58.1444 28.0006H55.319C55.319 27.9561 55.319 27.9115 55.319 27.867C55.319 26.0594 54.6009 24.3259 53.3228 23.0478C52.0447 21.7697 50.3111 21.0516 48.5036 21.0516C46.696 21.0516 44.9625 21.7697 43.6844 23.0478C42.4063 24.3259 41.6882 26.0594 41.6882 27.867C41.6882 27.867 41.6882 27.9052 41.6882 27.9243H20.1921C20.1921 27.9243 20.1921 27.8861 20.1921 27.867C20.1921 26.0594 19.474 24.3259 18.1959 23.0478C16.9178 21.7697 15.1843 21.0516 13.3767 21.0516C11.5692 21.0516 9.83564 21.7697 8.55751 23.0478C7.27938 24.3259 6.56133 26.0594 6.56133 27.867C6.56133 27.9115 6.56133 27.9561 6.56133 28.0006H4.85589C4.14948 27.9898 3.47004 27.7276 2.93943 27.2611C2.40882 26.7947 2.06175 26.1544 1.96047 25.4552H5.09135V23.5461H1.90956V13.0399C1.89214 12.3487 2.11729 11.6733 2.54592 11.1308L7.00042 5.50542C7.85749 4.37905 8.96632 3.46894 10.2382 2.84792C11.51 2.22691 12.9096 1.91224 14.3249 1.92909H34.8601C36.902 1.90484 38.8911 2.57833 40.4982 3.83816H14.8276C14.0043 3.82836 13.1883 3.99346 12.4335 4.32256C11.6788 4.65167 11.0025 5.13726 10.4495 5.74723L6.40224 10.0426C6.09215 10.3717 5.88249 10.7825 5.79794 11.2267C5.71339 11.6708 5.75746 12.1299 5.92497 12.5499C6.08397 12.9776 6.36948 13.3468 6.74348 13.6083C7.11749 13.8697 7.56226 14.0111 8.01859 14.0135H52.3981V13.9562C52.749 13.9936 53.1016 14.0127 53.4544 14.0135H58.1062C58.8995 14.0319 59.6537 14.3621 60.2052 14.9327C60.7567 15.5033 61.0611 16.2682 61.0525 17.0617L61.0907 23.5589H56.6362V25.4679H61.0462C60.9486 26.1014 60.6523 26.6875 60.1998 27.1415C59.9311 27.4136 59.6111 27.6297 59.2582 27.7772C58.9054 27.9246 58.5268 28.0006 58.1444 28.0006Z" fill="#558CC9"/>
<path d="M32.4548 17.1826H28.0003V19.0917H32.4548V17.1826Z" fill="#558CC9"/>
<path d="M13.3003 24.9778C12.7252 24.9816 12.164 25.1559 11.6879 25.4786C11.2118 25.8013 10.8421 26.2579 10.6254 26.7907C10.4088 27.3235 10.3551 27.9086 10.471 28.472C10.5869 29.0354 10.8673 29.5517 11.2767 29.9558C11.686 30.3598 12.206 30.6334 12.7709 30.7419C13.3357 30.8504 13.92 30.7889 14.45 30.5654C14.9799 30.3418 15.4316 29.9661 15.748 29.4857C16.0645 29.0054 16.2313 28.4421 16.2276 27.8669C16.2251 27.485 16.1474 27.1073 15.9989 26.7554C15.8504 26.4036 15.6341 26.0844 15.3623 25.8161C15.0905 25.5478 14.7685 25.3357 14.4147 25.1919C14.0609 25.0481 13.6822 24.9753 13.3003 24.9778ZM13.3003 28.8851C13.1044 28.8813 12.9139 28.82 12.7526 28.7088C12.5912 28.5976 12.4662 28.4413 12.3929 28.2596C12.3197 28.0778 12.3015 27.8786 12.3407 27.6865C12.3798 27.4945 12.4746 27.3183 12.6132 27.1797C12.7517 27.0412 12.928 26.9464 13.12 26.9072C13.312 26.8681 13.5113 26.8863 13.693 26.9595C13.8748 27.0327 14.031 27.1578 14.1422 27.3192C14.2534 27.4805 14.3147 27.671 14.3185 27.8669C14.3185 27.9997 14.2921 28.1312 14.2407 28.2537C14.1893 28.3762 14.114 28.4872 14.0192 28.5802C13.9244 28.6732 13.812 28.7464 13.6885 28.7955C13.5651 28.8446 13.4331 28.8685 13.3003 28.866V28.8851Z" fill="#558CC9"/>
<path d="M48.5164 24.978C47.9412 24.978 47.379 25.1486 46.9007 25.4681C46.4225 25.7877 46.0497 26.2419 45.8296 26.7733C45.6095 27.3047 45.5519 27.8894 45.6641 28.4535C45.7763 29.0177 46.0533 29.5358 46.46 29.9425C46.8667 30.3493 47.3849 30.6262 47.949 30.7384C48.5132 30.8507 49.0979 30.7931 49.6293 30.573C50.1607 30.3528 50.6149 29.9801 50.9344 29.5019C51.254 29.0236 51.4245 28.4614 51.4245 27.8862C51.4245 27.1149 51.1182 26.3752 50.5728 25.8298C50.0274 25.2844 49.2877 24.978 48.5164 24.978ZM48.5164 28.8853C48.3188 28.8853 48.1256 28.8267 47.9613 28.7169C47.797 28.6071 47.669 28.4511 47.5934 28.2685C47.5178 28.086 47.498 27.8851 47.5365 27.6913C47.5751 27.4975 47.6702 27.3194 47.8099 27.1797C47.9497 27.04 48.1277 26.9448 48.3215 26.9063C48.5153 26.8677 48.7162 26.8875 48.8987 26.9631C49.0813 27.0388 49.2373 27.1668 49.3471 27.3311C49.4569 27.4954 49.5155 27.6886 49.5155 27.8862C49.5105 28.1478 49.403 28.3971 49.2162 28.5803C49.0294 28.7636 48.7781 28.8662 48.5164 28.8662V28.8853Z" fill="#558CC9"/>
<path d="M40.0911 23.5461H21.6367V25.4552H40.0911V23.5461Z" fill="#558CC9"/>
</svg>
