<?xml version="1.0" encoding="utf-8"?>
<!-- Generator: Adobe Illustrator 17.1.0, SVG Export Plug-In . SVG Version: 6.00 Build 0)  -->
<!DOCTYPE svg PUBLIC "-//W3C//DTD SVG 1.1//EN" "http://www.w3.org/Graphics/SVG/1.1/DTD/svg11.dtd">
<svg version="1.1" id="Layer_1" xmlns="http://www.w3.org/2000/svg" xmlns:xlink="http://www.w3.org/1999/xlink" x="0px" y="0px"
	 viewBox="0 0 33.3 30" enable-background="new 0 0 33.3 30" xml:space="preserve">
<linearGradient id="SVGID_1_" gradientUnits="userSpaceOnUse" x1="8.5592" y1="19.544" x2="20.9519" y2="15.6548" gradientTransform="matrix(1 0 0 -1 0 32)">
	<stop  offset="0" style="stop-color:#2766DF"/>
	<stop  offset="1" style="stop-color:#5882EF"/>
</linearGradient>
<path fill="url(#SVGID_1_)" d="M29.6,15c0,1.4,1.1,2.5,2.5,2.5c0.7,0,1.3,0.6,1.3,1.2v4.5c0,3.8-3.1,6.8-6.9,6.8H6.9
	C3.1,30,0,26.9,0,23.2v-4.5c0-0.7,0.6-1.2,1.3-1.2c1.4,0,2.5-1.1,2.5-2.5c0-1.3-1.1-2.3-2.5-2.3c-0.3,0-0.6-0.1-0.9-0.4
	C0.1,12.1,0,11.8,0,11.4l0-4.6C0,3.1,3.1,0,6.9,0h19.5c3.8,0,6.9,3.1,6.9,6.8l0,4.5c0,0.3-0.1,0.6-0.4,0.9c-0.2,0.2-0.6,0.4-0.9,0.4
	C30.7,12.5,29.6,13.6,29.6,15z M20.4,16.1l2-1.9c0.3-0.3,0.5-0.8,0.3-1.3c-0.1-0.4-0.5-0.8-1-0.8L19,11.7l-1.2-2.4
	c-0.2-0.4-0.6-0.7-1.1-0.7h0c-0.5,0-0.9,0.3-1.1,0.7l-1.2,2.4l-2.7,0.4c-0.5,0.1-0.9,0.4-1,0.8c-0.1,0.4,0,0.9,0.3,1.3l2,1.9
	l-0.5,2.7c-0.1,0.5,0.1,0.9,0.5,1.2c0.2,0.2,0.5,0.2,0.7,0.2c0.2,0,0.4,0,0.6-0.1l2.4-1.3l2.4,1.3c0.4,0.2,0.9,0.2,1.3-0.1
	c0.4-0.3,0.6-0.7,0.5-1.2L20.4,16.1z"/>
</svg>
