<svg width="56" height="51" viewBox="0 0 56 51" fill="none" xmlns="http://www.w3.org/2000/svg">
<path fill-rule="evenodd" clip-rule="evenodd" d="M22.0122 25.4191C21.1914 24.7076 20.4843 23.8731 19.9157 22.9449C17.7506 19.2157 16.6012 14.9773 16.5836 10.6577C16.3926 7.72955 17.3215 4.83872 19.1799 2.57811C20.0102 1.72447 21.0083 1.05477 22.1105 0.611871C23.2126 0.16897 24.3945 -0.0373728 25.5804 0.0060496C26.7644 -0.0388774 27.9446 0.166829 29.0447 0.609875C30.1448 1.05292 31.1404 1.72345 31.967 2.57811C33.8304 4.83592 34.76 7.72883 34.5633 10.6577C34.5457 14.9773 33.3963 19.2157 31.2311 22.9449C30.663 23.8693 29.9611 24.7033 29.1485 25.4191C30.1785 26.2989 30.8547 27.5264 31.0506 28.8719C32.3601 28.5281 33.7253 28.4568 35.0631 28.6622C39.293 29.3578 43.267 31.1607 46.5867 33.8902C48.9511 35.607 50.5673 38.1754 51.099 41.0612C51.2275 42.2474 51.1073 43.4476 50.7462 44.5841C50.3851 45.7207 49.791 46.7682 49.0025 47.6591C48.2809 48.6069 47.3687 49.3907 46.3256 49.9592C45.2825 50.5276 44.1319 50.868 42.9491 50.958C40.038 50.9773 37.2303 49.8716 35.1047 47.8688C31.8143 45.0974 29.3093 41.5 27.8435 37.4407C27.5823 36.6416 27.4054 35.817 27.3159 34.9805C26.7565 35.1706 26.1707 35.2697 25.5804 35.2741C24.9848 35.2652 24.3943 35.1614 23.831 34.9665C23.7477 35.804 23.5707 36.6293 23.3034 37.4268C21.8397 41.4911 19.3346 45.0935 16.0421 47.8688C13.9273 49.8848 11.124 51.0057 8.21161 51C7.02844 50.9117 5.87726 50.5721 4.83388 50.0035C3.7905 49.4348 2.8786 48.6501 2.15823 47.701C1.36798 46.8109 0.771867 45.7638 0.408371 44.6273C0.0448755 43.4909 -0.0779312 42.2903 0.0478766 41.1031C0.570305 38.1988 2.19323 35.6124 4.57403 33.8902C7.8854 31.1506 11.8552 29.3378 16.0838 28.6342C17.4215 28.4288 18.7868 28.5002 20.0962 28.8439C20.3022 27.5065 20.9829 26.2896 22.0122 25.4191ZM4.28247 45.9118C3.73752 45.3125 3.32368 44.6046 3.06777 43.8341C2.81186 43.0635 2.71957 42.2474 2.79689 41.4386C3.25922 39.2587 4.52414 37.3359 6.33728 36.0569C9.24034 33.647 12.7209 32.0467 16.4309 31.416C18.208 31.1923 19.7769 31.3041 20.5961 32.2966C21.4152 33.2891 21.2347 34.8547 20.6794 36.5741C19.3834 40.1321 17.1751 43.2814 14.2789 45.7021C12.7004 47.2711 10.5821 48.1672 8.36433 48.2043C7.56199 48.133 6.78364 47.892 6.08022 47.4969C5.37681 47.1019 4.76419 46.5617 4.28247 45.9118ZM46.8644 45.9118C46.3839 46.563 45.7716 47.1041 45.0679 47.4993C44.3643 47.8945 43.5853 48.1348 42.7825 48.2043C40.5659 48.1615 38.4496 47.2662 36.868 45.7021C33.9798 43.277 31.777 40.1287 30.4814 36.5741C29.926 34.8547 29.7455 33.2891 30.5647 32.2966C31.3838 31.3041 32.9388 31.1923 34.7299 31.416C38.4442 32.0463 41.9293 33.6465 44.8373 36.0569C46.6505 37.3359 47.9154 39.2587 48.3777 41.4386C48.4505 42.2493 48.3534 43.0664 48.0927 43.8369C47.832 44.6075 47.4136 45.3143 46.8644 45.9118ZM25.5804 26.9009C26.1296 26.9009 26.6664 27.0648 27.1231 27.372C27.5797 27.6792 27.9356 28.1159 28.1458 28.6267C28.356 29.1376 28.4109 29.6997 28.3038 30.242C28.1967 30.7843 27.9322 31.2825 27.5439 31.6735C27.1555 32.0645 26.6607 32.3307 26.1221 32.4386C25.5835 32.5465 25.0251 32.4911 24.5177 32.2795C24.0104 32.0679 23.5767 31.7096 23.2716 31.2498C22.9664 30.7901 22.8036 30.2495 22.8036 29.6966C22.8036 28.9551 23.0961 28.244 23.6169 27.7197C24.1376 27.1954 24.8439 26.9009 25.5804 26.9009ZM25.5804 24.1052C26.8577 24.1052 27.9406 22.9589 28.8986 21.4352C30.7887 18.1564 31.7894 14.4348 31.8004 10.6438C31.963 8.4447 31.299 6.2644 29.9399 4.53512C29.3714 3.96161 28.6895 3.5147 27.9385 3.22334C27.1875 2.93197 26.3842 2.80263 25.5804 2.8437C24.7743 2.80065 23.9683 2.92901 23.2147 3.22043C22.4612 3.51186 21.7771 3.95981 21.2069 4.53512C19.8311 6.28258 19.166 8.49113 19.3465 10.7137C19.3575 14.5047 20.3582 18.2262 22.2482 21.5051C23.2201 22.9729 24.2892 24.1052 25.5804 24.1052ZM49.058 20.6804C49.058 18.456 48.1804 16.3227 46.6181 14.7498C45.0559 13.1769 42.9371 12.2932 40.7277 12.2932C40.3595 12.2932 40.0063 12.4405 39.746 12.7027C39.4856 12.9648 39.3393 13.3204 39.3393 13.6911C39.3393 14.0618 39.4856 14.4174 39.746 14.6795C40.0063 14.9417 40.3595 15.089 40.7277 15.089C42.2006 15.089 43.6132 15.6781 44.6547 16.7267C45.6962 17.7752 46.2813 19.1975 46.2813 20.6804C46.2813 21.0511 46.4276 21.4067 46.6879 21.6688C46.9483 21.931 47.3014 22.0783 47.6697 22.0783C48.0379 22.0783 48.391 21.931 48.6514 21.6688C48.9118 21.4067 49.058 21.0511 49.058 20.6804ZM56 20.6804C56 16.6023 54.391 12.6912 51.5269 9.8076C48.6627 6.92395 44.7782 5.30394 40.7277 5.30394C40.3595 5.30394 40.0063 5.45121 39.746 5.71336C39.4856 5.97551 39.3393 6.33106 39.3393 6.7018C39.3393 7.07253 39.4856 7.42808 39.746 7.69023C40.0063 7.95238 40.3595 8.09966 40.7277 8.09966C44.0417 8.09966 47.22 9.42512 49.5634 11.7845C51.9067 14.1438 53.2232 17.3438 53.2232 20.6804C53.2232 21.0511 53.3695 21.4067 53.6299 21.6688C53.8902 21.931 54.2434 22.0783 54.6116 22.0783C54.9798 22.0783 55.333 21.931 55.5934 21.6688C55.8537 21.4067 56 21.0511 56 20.6804ZM41.0332 18.947C40.7586 18.947 40.4901 19.029 40.2618 19.1826C40.0335 19.3362 39.8555 19.5545 39.7505 19.81C39.6454 20.0654 39.6179 20.3465 39.6714 20.6176C39.725 20.8888 39.8572 21.1379 40.0514 21.3333C40.2456 21.5288 40.493 21.662 40.7623 21.7159C41.0316 21.7698 41.3108 21.7422 41.5645 21.6364C41.8182 21.5306 42.035 21.3514 42.1876 21.1215C42.3401 20.8916 42.4215 20.6214 42.4215 20.3449C42.4215 19.9742 42.2753 19.6186 42.0149 19.3565C41.7545 19.0943 41.4014 18.947 41.0332 18.947Z" fill="#558CC9"/>
</svg>
