<svg width="49" height="58" viewBox="0 0 49 58" fill="none" xmlns="http://www.w3.org/2000/svg">
<path d="M38.9773 52.3409C38.6819 52.3409 38.3987 52.4582 38.1898 52.6671C37.981 52.8759 37.8636 53.1592 37.8636 53.4545V55.6818H2.22727V2.22727H3.34091C3.63626 2.22727 3.91952 2.10994 4.12837 1.9011C4.33722 1.69225 4.45455 1.40899 4.45455 1.11364C4.45455 0.818282 4.33722 0.535024 4.12837 0.326177C3.91952 0.117329 3.63626 0 3.34091 0H1.11364C0.818282 0 0.535024 0.117329 0.326177 0.326177C0.117329 0.535024 0 0.818282 0 1.11364V56.7955C0 57.0908 0.117329 57.3741 0.326177 57.5829C0.535024 57.7918 0.818282 57.9091 1.11364 57.9091H38.9773C39.2726 57.9091 39.5559 57.7918 39.7647 57.5829C39.9736 57.3741 40.0909 57.0908 40.0909 56.7955V53.4545C40.0909 53.1592 39.9736 52.8759 39.7647 52.6671C39.5559 52.4582 39.2726 52.3409 38.9773 52.3409Z" fill="#558CC9"/>
<path d="M38.9773 0H7.79546C7.50011 0 7.21685 0.117329 7.008 0.326177C6.79915 0.535024 6.68182 0.818282 6.68182 1.11364C6.68182 1.40899 6.79915 1.69225 7.008 1.9011C7.21685 2.10994 7.50011 2.22727 7.79546 2.22727H37.8636V49C37.8636 49.2954 37.981 49.5786 38.1898 49.7875C38.3987 49.9963 38.6819 50.1136 38.9773 50.1136C39.2726 50.1136 39.5559 49.9963 39.7647 49.7875C39.9736 49.5786 40.0909 49.2954 40.0909 49V1.11364C40.0909 0.818282 39.9736 0.535024 39.7647 0.326177C39.5559 0.117329 39.2726 0 38.9773 0Z" fill="#558CC9"/>
<path d="M23.3864 15.5909H5.56818C5.27283 15.5909 4.98957 15.7082 4.78072 15.9171C4.57187 16.1259 4.45454 16.4092 4.45454 16.7045C4.45454 16.9999 4.57187 17.2832 4.78072 17.492C4.98957 17.7009 5.27283 17.8182 5.56818 17.8182H23.3864C23.6817 17.8182 23.965 17.7009 24.1738 17.492C24.3827 17.2832 24.5 16.9999 24.5 16.7045C24.5 16.4092 24.3827 16.1259 24.1738 15.9171C23.965 15.7082 23.6817 15.5909 23.3864 15.5909Z" fill="#558CC9"/>
<path d="M5.56818 22.2727H8.90909C9.20444 22.2727 9.4877 22.1554 9.69655 21.9465C9.9054 21.7377 10.0227 21.4544 10.0227 21.1591C10.0227 20.8637 9.9054 20.5805 9.69655 20.3716C9.4877 20.1628 9.20444 20.0454 8.90909 20.0454H5.56818C5.27283 20.0454 4.98957 20.1628 4.78072 20.3716C4.57187 20.5805 4.45454 20.8637 4.45454 21.1591C4.45454 21.4544 4.57187 21.7377 4.78072 21.9465C4.98957 22.1554 5.27283 22.2727 5.56818 22.2727Z" fill="#558CC9"/>
<path d="M23.3864 20.0454H13.3636C13.0683 20.0454 12.785 20.1628 12.5762 20.3716C12.3673 20.5805 12.25 20.8637 12.25 21.1591C12.25 21.4544 12.3673 21.7377 12.5762 21.9465C12.785 22.1554 13.0683 22.2727 13.3636 22.2727H23.3864C23.6817 22.2727 23.965 22.1554 24.1738 21.9465C24.3827 21.7377 24.5 21.4544 24.5 21.1591C24.5 20.8637 24.3827 20.5805 24.1738 20.3716C23.965 20.1628 23.6817 20.0454 23.3864 20.0454Z" fill="#558CC9"/>
<path d="M35.3136 15.9138C35.2101 15.8094 35.0869 15.7266 34.9512 15.67C34.8155 15.6135 34.67 15.5844 34.5229 15.5844C34.3759 15.5844 34.2304 15.6135 34.0947 15.67C33.959 15.7266 33.8358 15.8094 33.7323 15.9138L30.0684 19.5888L28.6318 18.1411C28.4221 17.9314 28.1377 17.8136 27.8411 17.8136C27.5446 17.8136 27.2601 17.9314 27.0504 18.1411C26.8407 18.3508 26.7229 18.6352 26.7229 18.9317C26.7229 19.2283 26.8407 19.5127 27.0504 19.7224L29.2777 21.9497C29.3812 22.0541 29.5044 22.1369 29.6401 22.1935C29.7758 22.25 29.9214 22.2791 30.0684 22.2791C30.2154 22.2791 30.361 22.25 30.4967 22.1935C30.6324 22.1369 30.7556 22.0541 30.8591 21.9497L35.3136 17.4952C35.418 17.3916 35.5009 17.2685 35.5574 17.1328C35.6139 16.997 35.643 16.8515 35.643 16.7045C35.643 16.5575 35.6139 16.4119 35.5574 16.2762C35.5009 16.1405 35.418 16.0173 35.3136 15.9138Z" fill="#558CC9"/>
<path d="M23.3864 30.0682H5.56818C5.27283 30.0682 4.98957 30.1855 4.78072 30.3944C4.57187 30.6032 4.45454 30.8865 4.45454 31.1818C4.45454 31.4772 4.57187 31.7604 4.78072 31.9693C4.98957 32.1781 5.27283 32.2954 5.56818 32.2954H23.3864C23.6817 32.2954 23.965 32.1781 24.1738 31.9693C24.3827 31.7604 24.5 31.4772 24.5 31.1818C24.5 30.8865 24.3827 30.6032 24.1738 30.3944C23.965 30.1855 23.6817 30.0682 23.3864 30.0682Z" fill="#558CC9"/>
<path d="M5.56818 36.75H8.90909C9.20444 36.75 9.4877 36.6327 9.69655 36.4238C9.9054 36.215 10.0227 35.9317 10.0227 35.6364C10.0227 35.341 9.9054 35.0578 9.69655 34.8489C9.4877 34.6401 9.20444 34.5227 8.90909 34.5227H5.56818C5.27283 34.5227 4.98957 34.6401 4.78072 34.8489C4.57187 35.0578 4.45454 35.341 4.45454 35.6364C4.45454 35.9317 4.57187 36.215 4.78072 36.4238C4.98957 36.6327 5.27283 36.75 5.56818 36.75Z" fill="#558CC9"/>
<path d="M23.3864 34.5227H13.3636C13.0683 34.5227 12.785 34.6401 12.5762 34.8489C12.3673 35.0578 12.25 35.341 12.25 35.6364C12.25 35.9317 12.3673 36.215 12.5762 36.4238C12.785 36.6327 13.0683 36.75 13.3636 36.75H23.3864C23.6817 36.75 23.965 36.6327 24.1738 36.4238C24.3827 36.215 24.5 35.9317 24.5 35.6364C24.5 35.341 24.3827 35.0578 24.1738 34.8489C23.965 34.6401 23.6817 34.5227 23.3864 34.5227Z" fill="#558CC9"/>
<path d="M35.3136 30.3911C35.2101 30.2867 35.0869 30.2038 34.9512 30.1473C34.8155 30.0908 34.67 30.0617 34.5229 30.0617C34.3759 30.0617 34.2304 30.0908 34.0947 30.1473C33.959 30.2038 33.8358 30.2867 33.7323 30.3911L30.0684 34.0661L28.6318 32.6183C28.4221 32.4086 28.1377 32.2908 27.8411 32.2908C27.5446 32.2908 27.2601 32.4086 27.0504 32.6183C26.8407 32.828 26.7229 33.1125 26.7229 33.409C26.7229 33.7056 26.8407 33.99 27.0504 34.1997L29.2777 36.427C29.3812 36.5314 29.5044 36.6142 29.6401 36.6707C29.7758 36.7273 29.9214 36.7564 30.0684 36.7564C30.2154 36.7564 30.361 36.7273 30.4967 36.6707C30.6324 36.6142 30.7556 36.5314 30.8591 36.427L35.3136 31.9724C35.418 31.8689 35.5009 31.7457 35.5574 31.61C35.6139 31.4743 35.643 31.3288 35.643 31.1818C35.643 31.0347 35.6139 30.8892 35.5574 30.7535C35.5009 30.6178 35.418 30.4946 35.3136 30.3911Z" fill="#558CC9"/>
<path d="M23.3864 44.5455H5.56818C5.27283 44.5455 4.98957 44.6628 4.78072 44.8716C4.57187 45.0805 4.45454 45.3637 4.45454 45.6591C4.45454 45.9544 4.57187 46.2377 4.78072 46.4466C4.98957 46.6554 5.27283 46.7727 5.56818 46.7727H23.3864C23.6817 46.7727 23.965 46.6554 24.1738 46.4466C24.3827 46.2377 24.5 45.9544 24.5 45.6591C24.5 45.3637 24.3827 45.0805 24.1738 44.8716C23.965 44.6628 23.6817 44.5455 23.3864 44.5455Z" fill="#558CC9"/>
<path d="M5.56818 49C5.27283 49 4.98957 49.1173 4.78072 49.3262C4.57187 49.535 4.45454 49.8183 4.45454 50.1136C4.45454 50.409 4.57187 50.6922 4.78072 50.9011C4.98957 51.1099 5.27283 51.2273 5.56818 51.2273H8.90909C9.20444 51.2273 9.4877 51.1099 9.69655 50.9011C9.9054 50.6922 10.0227 50.409 10.0227 50.1136C10.0227 49.8183 9.9054 49.535 9.69655 49.3262C9.4877 49.1173 9.20444 49 8.90909 49H5.56818Z" fill="#558CC9"/>
<path d="M23.3864 49H13.3636C13.0683 49 12.785 49.1173 12.5762 49.3262C12.3673 49.535 12.25 49.8183 12.25 50.1136C12.25 50.409 12.3673 50.6922 12.5762 50.9011C12.785 51.1099 13.0683 51.2273 13.3636 51.2273H23.3864C23.6817 51.2273 23.965 51.1099 24.1738 50.9011C24.3827 50.6922 24.5 50.409 24.5 50.1136C24.5 49.8183 24.3827 49.535 24.1738 49.3262C23.965 49.1173 23.6817 49 23.3864 49Z" fill="#558CC9"/>
<path d="M33.7323 44.8683L30.0684 48.5433L28.6318 47.0956C28.528 46.9918 28.4047 46.9094 28.269 46.8532C28.1334 46.797 27.988 46.7681 27.8411 46.7681C27.6943 46.7681 27.5489 46.797 27.4132 46.8532C27.2775 46.9094 27.1543 46.9918 27.0504 47.0956C26.9466 47.1995 26.8642 47.3227 26.8081 47.4584C26.7519 47.594 26.7229 47.7395 26.7229 47.8863C26.7229 48.0331 26.7519 48.1786 26.8081 48.3142C26.8642 48.4499 26.9466 48.5731 27.0504 48.677L29.2777 50.9043C29.3812 51.0086 29.5044 51.0915 29.6401 51.148C29.7758 51.2046 29.9214 51.2337 30.0684 51.2337C30.2154 51.2337 30.361 51.2046 30.4967 51.148C30.6324 51.0915 30.7556 51.0086 30.8591 50.9043L35.3136 46.4497C35.4175 46.3459 35.4998 46.2226 35.556 46.0869C35.6122 45.9513 35.6411 45.8059 35.6411 45.659C35.6411 45.5122 35.6122 45.3668 35.556 45.2311C35.4998 45.0954 35.4175 44.9722 35.3136 44.8683C35.2098 44.7645 35.0865 44.6821 34.9509 44.626C34.8152 44.5698 34.6698 44.5408 34.5229 44.5408C34.3761 44.5408 34.2307 44.5698 34.095 44.626C33.9594 44.6821 33.8361 44.7645 33.7323 44.8683Z" fill="#558CC9"/>
<path d="M4.45454 10.0227C4.45454 10.3181 4.57187 10.6014 4.78072 10.8102C4.98957 11.019 5.27283 11.1364 5.56818 11.1364H27.8409C28.1363 11.1364 28.4195 11.019 28.6284 10.8102C28.8372 10.6014 28.9545 10.3181 28.9545 10.0227C28.9545 9.72739 28.8372 9.44413 28.6284 9.23528C28.4195 9.02643 28.1363 8.9091 27.8409 8.9091H6.68182V6.68183H33.4091V8.9091H32.2955C32.0001 8.9091 31.7168 9.02643 31.508 9.23528C31.2991 9.44413 31.1818 9.72739 31.1818 10.0227C31.1818 10.3181 31.2991 10.6014 31.508 10.8102C31.7168 11.019 32.0001 11.1364 32.2955 11.1364H34.5227C34.8181 11.1364 35.1013 11.019 35.3102 10.8102C35.519 10.6014 35.6364 10.3181 35.6364 10.0227V5.5682C35.6364 5.27284 35.519 4.98958 35.3102 4.78074C35.1013 4.57189 34.8181 4.45456 34.5227 4.45456H5.56818C5.27283 4.45456 4.98957 4.57189 4.78072 4.78074C4.57187 4.98958 4.45454 5.27284 4.45454 5.5682V10.0227Z" fill="#558CC9"/>
<path d="M47.8864 2.22726H43.4319C43.1365 2.22726 42.8533 2.34459 42.6444 2.55344C42.4356 2.76229 42.3182 3.04555 42.3182 3.3409V10.0227C42.3182 10.3181 42.4356 10.6013 42.6444 10.8102C42.8533 11.019 43.1365 11.1364 43.4319 11.1364C43.7272 11.1364 44.0105 11.019 44.2193 10.8102C44.4282 10.6013 44.5455 10.3181 44.5455 10.0227H46.7728V22.2727H44.5455V14.4773C44.5455 14.1819 44.4282 13.8987 44.2193 13.6898C44.0105 13.481 43.7272 13.3636 43.4319 13.3636C43.1365 13.3636 42.8533 13.481 42.6444 13.6898C42.4356 13.8987 42.3182 14.1819 42.3182 14.4773V47.8864C42.3022 48.0046 42.3022 48.1245 42.3182 48.2427L44.5455 54.9245C44.6188 55.1473 44.7605 55.3413 44.9504 55.4789C45.1404 55.6164 45.3689 55.6904 45.6035 55.6904C45.838 55.6904 46.0665 55.6164 46.2565 55.4789C46.4465 55.3413 46.5882 55.1473 46.6614 54.9245L48.8887 48.2427C48.9425 48.1298 48.9799 48.0098 49.0001 47.8864V3.3409C49.0001 3.04555 48.8827 2.76229 48.6739 2.55344C48.465 2.34459 48.1818 2.22726 47.8864 2.22726ZM44.5455 4.45454H46.7728V7.79545H44.5455V4.45454ZM46.7728 47.7082L45.6592 51.0491L44.5455 47.7082V24.5H46.7728V47.7082Z" fill="#558CC9"/>
</svg>
