<svg width="41" height="58" viewBox="0 0 41 58" fill="none" xmlns="http://www.w3.org/2000/svg">
<path d="M20.5 49.5588C9.19606 49.5588 0 40.3629 0 29.0588C0 17.7549 9.19606 8.55884 20.5 8.55884C31.8039 8.55884 41 17.7549 41 29.0588C41 40.3629 31.8039 49.5588 20.5 49.5588ZM20.5 10.9706C10.5255 10.9706 2.41176 19.0845 2.41176 29.0588C2.41176 39.0333 10.5255 47.1471 20.5 47.1471C30.4745 47.1471 38.5882 39.0333 38.5882 29.0588C38.5882 19.0845 30.4745 10.9706 20.5 10.9706Z" fill="#558CC9"/>
<path d="M20.5 44.7353C11.8562 44.7353 4.82352 37.7026 4.82352 29.0589C4.82352 20.4152 11.8562 13.3824 20.5 13.3824C29.1438 13.3824 36.1765 20.4152 36.1765 29.0589C36.1765 37.7026 29.1438 44.7353 20.5 44.7353ZM20.5 15.7941C13.1858 15.7941 7.23528 21.7447 7.23528 29.0589C7.23528 36.3731 13.1858 42.3236 20.5 42.3236C27.8141 42.3236 33.7647 36.3731 33.7647 29.0589C33.7647 21.7447 27.8141 15.7941 20.5 15.7941Z" fill="#558CC9"/>
<path d="M8.43308 15.1936L6.03772 14.9086L7.37082 3.73529H33.6882L34.9625 14.9145L32.5671 15.1877L31.5356 6.14706H9.51175L8.43308 15.1936Z" fill="#558CC9"/>
<path d="M12.0589 0.117645H9.64713V4.94117H12.0589V0.117645Z" fill="#558CC9"/>
<path d="M30.1471 0.117645H27.7354V4.94117H30.1471V0.117645Z" fill="#558CC9"/>
<path d="M33.6882 54.3823H7.37076L6.03766 43.2103L8.43302 42.9253L9.51169 51.9705H31.5356L32.5671 42.9311L34.9624 43.2044L33.6882 54.3823Z" fill="#558CC9"/>
<path d="M12.0589 53.1765H9.64713V58H12.0589V53.1765Z" fill="#558CC9"/>
<path d="M30.1471 53.1765H27.7354V58H30.1471V53.1765Z" fill="#558CC9"/>
<path d="M26.5294 30.2647H19.2941V18.2059H21.7059V27.853H26.5294V30.2647Z" fill="#558CC9"/>
</svg>
