<svg width="47" height="35" viewBox="0 0 47 35" fill="none" xmlns="http://www.w3.org/2000/svg">
<path d="M42.363 7.45716C40.1946 7.45716 38.4493 9.20245 38.4493 11.3708C38.4493 12.5344 38.9782 13.5392 39.7715 14.2797L31.4682 18.7222L24.4341 8.19759C26.0207 7.56294 27.1314 6.02919 27.1314 4.23101C27.1314 1.90396 25.2274 0 22.9004 0C20.5733 0 18.6693 1.90396 18.6693 4.23101C18.6693 6.02919 19.78 7.56294 21.3666 8.1447L13.9095 18.6693L6.34652 14.3854C7.24561 13.6979 7.82737 12.5873 7.82737 11.318C7.82737 9.14957 6.08208 7.40427 3.91369 7.40427C1.74529 7.40427 0 9.14957 0 11.318C0 13.2219 1.37508 14.8085 3.17326 15.1259L5.50032 32.4201C5.71187 33.7952 6.8754 34.8001 8.25047 34.8001H37.5502C38.9253 34.8001 40.1417 33.7952 40.3004 32.3672L42.6275 15.1259C44.6372 14.9672 46.2238 13.2748 46.2238 11.2651C46.2767 9.20245 44.5314 7.45716 42.363 7.45716ZM22.9532 2.16839C24.1168 2.16839 25.0688 3.12037 25.0688 4.2839C25.0688 5.44743 24.1168 6.39941 22.9532 6.39941C21.7897 6.39941 20.8377 5.44743 20.8377 4.2839C20.8377 3.12037 21.7897 2.16839 22.9532 2.16839ZM2.16839 11.318C2.16839 10.3131 2.96171 9.51978 3.96657 9.51978C4.97144 9.51978 5.76476 10.3131 5.76476 11.318C5.76476 12.3228 4.97144 13.1161 3.96657 13.1161C2.96171 13.1161 2.16839 12.3228 2.16839 11.318ZM5.50032 16.3423L13.6979 20.9964C14.1739 21.2608 14.7557 21.1551 15.073 20.6791L22.9004 9.73133L30.1989 20.6791C30.5162 21.1551 31.0979 21.2608 31.5739 21.0493L40.3533 16.3423L38.9782 26.814H6.8754L5.50032 16.3423ZM37.6031 32.7375H8.30336C7.98604 32.7375 7.66871 32.473 7.61582 32.1557L7.19272 28.8238H38.7138L38.2907 32.1028C38.2378 32.5259 37.9205 32.7375 37.6031 32.7375ZM42.363 13.1161C41.3582 13.1161 40.5648 12.3228 40.5648 11.318C40.5648 10.3131 41.3582 9.51978 42.363 9.51978C43.3679 9.51978 44.1612 10.3131 44.1612 11.318C44.1612 12.3228 43.3679 13.1161 42.363 13.1161Z" fill="#558CC9"/>
</svg>
