<svg width="11" height="8" viewBox="0 0 11 8" fill="none" xmlns="http://www.w3.org/2000/svg">
<path d="M3.96838 5.87335C4.22998 5.60572 4.48619 5.34008 4.74583 5.07891C6.31252 3.49202 7.87969 1.90595 9.44736 0.320719C9.78062 -0.0159248 10.1669 -0.0889138 10.5399 0.108206C11.0131 0.356468 11.1583 1.02628 10.8 1.42598C10.4211 1.84852 10.0147 2.24376 9.61424 2.64793C7.96804 4.31658 6.3202 5.98474 4.67073 7.65239C4.47441 7.851 4.25452 7.99996 3.96445 7.99996C3.84532 8.0011 3.72722 7.9775 3.61747 7.93061C3.50772 7.88372 3.40865 7.81455 3.32639 7.72737C2.30844 6.69857 1.28508 5.67375 0.273512 4.63651C-0.227121 4.12211 -0.00919836 3.33065 0.672545 3.14693C0.945439 3.07394 1.21244 3.12608 1.4181 3.32022C1.77443 3.65488 2.11456 4.00791 2.45912 4.35498C2.9375 4.83661 3.4149 5.31906 3.89132 5.80235C3.91291 5.82419 3.93402 5.84207 3.96838 5.87335Z" fill="white"/>
</svg>
