<svg width="61" height="58" viewBox="0 0 61 58" fill="none" xmlns="http://www.w3.org/2000/svg">
<path d="M58.1237 29.6105L54.675 28.2315C54.5468 27.7159 54.2929 27.24 53.936 26.8464C53.5791 26.4528 53.1303 26.1537 52.6296 25.9757V22.5556C52.6296 16.5735 50.2533 10.8364 46.0233 6.60637C41.7933 2.37638 36.0562 0 30.0741 0C24.092 0 18.3549 2.37638 14.1249 6.60637C9.89492 10.8364 7.51854 16.5735 7.51854 22.5556V25.9757C7.01793 26.1536 6.56915 26.4527 6.21227 26.8463C5.85539 27.2399 5.60151 27.7157 5.47328 28.2313L2.02551 29.6103C1.42655 29.8481 0.91201 30.2608 0.550926 30.7946C0.189842 31.3284 -0.00212895 31.9585 1.78102e-05 32.603V42.5822C-0.00208272 43.2267 0.190021 43.857 0.551293 44.3907C0.912565 44.9245 1.42625 45.3371 2.0254 45.5747L5.47318 46.9537C5.64445 47.6523 6.04466 48.2734 6.61002 48.7182C7.17537 49.1629 7.87332 49.4055 8.59261 49.4074H10.7408V50.4815C10.7424 51.9053 11.3088 53.2703 12.3156 54.2771C13.3223 55.2838 14.6873 55.8502 16.1111 55.8518H23.8276C24.0483 56.4783 24.4574 57.0211 24.9989 57.4058C25.5404 57.7904 26.1877 57.998 26.8519 58H31.1482C32.0028 58 32.8223 57.6605 33.4266 57.0562C34.0309 56.4519 34.3704 55.6324 34.3704 54.7778C34.3704 53.9232 34.0309 53.1036 33.4266 52.4993C32.8223 51.895 32.0028 51.5556 31.1482 51.5556H26.8519C26.1877 51.5576 25.5404 51.7652 24.9989 52.1498C24.4574 52.5344 24.0483 53.0772 23.8276 53.7037H16.1111C15.2568 53.7028 14.4378 53.363 13.8337 52.7589C13.2296 52.1548 12.8898 51.3358 12.8889 50.4815V49.4074C13.7432 49.4065 14.5622 49.0667 15.1663 48.4626C15.7704 47.8585 16.1102 47.0395 16.1111 46.1852V29C16.1091 28.3358 15.9015 27.6885 15.5169 27.147C15.1323 26.6055 14.5894 26.1964 13.963 25.9757V22.5556C13.963 18.2826 15.6604 14.1847 18.6818 11.1633C21.7032 8.14186 25.8012 6.44444 30.0741 6.44444C34.347 6.44444 38.4449 8.14186 41.4664 11.1633C44.4878 14.1847 46.1852 18.2826 46.1852 22.5556V25.9757C45.5587 26.1964 45.0159 26.6055 44.6313 27.147C44.2467 27.6885 44.0391 28.3358 44.0371 29V46.1852C44.038 47.0395 44.3778 47.8585 44.9819 48.4626C45.5859 49.0667 46.405 49.4065 47.2593 49.4074H51.5556C52.2748 49.4055 52.9728 49.1628 53.5381 48.7181C54.1034 48.2734 54.5036 47.6523 54.6749 46.9537L58.1237 45.5747C58.7227 45.3369 59.2361 44.9242 59.5972 44.3905C59.9583 43.8567 60.1503 43.2266 60.1482 42.5822V32.603C60.1503 31.9586 59.9583 31.3285 59.5972 30.7947C59.2361 30.261 58.7227 29.8483 58.1237 29.6105ZM26.8519 53.7037H31.1482C31.433 53.7037 31.7062 53.8169 31.9077 54.0183C32.1091 54.2197 32.2222 54.4929 32.2222 54.7778C32.2222 55.0626 32.1091 55.3358 31.9077 55.5373C31.7062 55.7387 31.433 55.8518 31.1482 55.8518H26.8519C26.567 55.8518 26.2938 55.7387 26.0924 55.5373C25.891 55.3358 25.7778 55.0626 25.7778 54.7778C25.7778 54.4929 25.891 54.2197 26.0924 54.0183C26.2938 53.8169 26.567 53.7037 26.8519 53.7037ZM2.14817 42.5822V32.603C2.1475 32.3881 2.21159 32.178 2.33208 32.0001C2.45257 31.8221 2.62387 31.6846 2.82365 31.6055L5.37039 30.586V44.5992L2.82365 43.5797C2.62387 43.5005 2.45257 43.363 2.33208 43.1851C2.21159 43.0072 2.1475 42.7971 2.14817 42.5822ZM13.963 46.1852C13.9628 46.47 13.8496 46.7431 13.6482 46.9445C13.4468 47.1459 13.1737 47.2591 12.8889 47.2593H8.59261C8.3078 47.2591 8.03471 47.1459 7.83331 46.9445C7.63192 46.7431 7.51871 46.47 7.51854 46.1852V29C7.51871 28.7152 7.63192 28.4421 7.83331 28.2407C8.03471 28.0393 8.3078 27.9261 8.59261 27.9259H12.8889C13.1737 27.9261 13.4468 28.0393 13.6482 28.2407C13.8496 28.4421 13.9628 28.7152 13.963 29V46.1852ZM30.0741 4.2963C25.2331 4.3017 20.5919 6.22717 17.1688 9.65028C13.7457 13.0734 11.8202 17.7146 11.8148 22.5556V25.7778H9.66668V22.5556C9.66668 17.1432 11.8167 11.9525 15.6439 8.12534C19.471 4.29821 24.6617 2.14815 30.0741 2.14815C35.4865 2.14815 40.6772 4.29821 44.5043 8.12534C48.3314 11.9525 50.4815 17.1432 50.4815 22.5556V25.7778H48.3333V22.5556C48.3279 17.7146 46.4025 13.0734 42.9794 9.65028C39.5563 6.22717 34.9151 4.3017 30.0741 4.2963ZM51.5556 47.2593H47.2593C46.9745 47.2591 46.7014 47.1459 46.5 46.9445C46.2986 46.7431 46.1854 46.47 46.1852 46.1852V29C46.1854 28.7152 46.2986 28.4421 46.5 28.2407C46.7014 28.0393 46.9745 27.9261 47.2593 27.9259H51.5556C51.8404 27.9261 52.1135 28.0393 52.3149 28.2407C52.5163 28.4421 52.6295 28.7152 52.6296 29V46.1852C52.6295 46.47 52.5163 46.7431 52.3149 46.9445C52.1135 47.1459 51.8404 47.2591 51.5556 47.2593ZM58 42.5822C58.0007 42.7969 57.9367 43.0069 57.8164 43.1848C57.6962 43.3627 57.5251 43.5003 57.3256 43.5797L54.7778 44.5992V30.586L57.3245 31.6055C57.5243 31.6846 57.6956 31.8221 57.8161 32.0001C57.9366 32.178 58.0007 32.3881 58 32.603V42.5822Z" fill="#558CC9"/>
</svg>
