<svg width="49" height="39" viewBox="0 0 49 39" fill="none" xmlns="http://www.w3.org/2000/svg">
<path d="M47.8864 36.068H45.7705C45.4364 36.068 44.9909 35.8453 44.7682 35.5112L39.4227 26.4907C38.8659 25.4885 37.7523 24.8203 36.5273 24.8203H33.6318C33.1864 24.8203 32.8523 24.5976 32.6295 24.1521L30.5136 19.9203C29.9568 18.8066 28.8432 18.0271 27.5068 18.0271H25.6136V4.88619H31.85L31.1818 6.77937C31.0705 7.0021 31.0705 7.22482 31.1818 7.44755L31.85 9.34073H28.9545C28.2864 9.34073 27.8409 9.78619 27.8409 10.4544C27.8409 11.1226 28.2864 11.568 28.9545 11.568H33.4091C33.7432 11.568 34.0773 11.3453 34.3 11.1226C34.5227 10.8998 34.5227 10.4544 34.4114 10.1203L33.5205 7.11346L34.5227 4.10664C34.6341 3.77255 34.5227 3.43846 34.3 3.10437C34.0773 2.77028 33.7432 2.65891 33.4091 2.65891H25.6136V1.54528C25.6136 0.877095 25.1682 0.431641 24.5 0.431641C23.8318 0.431641 23.3864 0.877095 23.3864 1.54528V18.2498H21.4932C20.1568 18.2498 18.9318 19.0294 18.375 20.2544L16.1477 25.3771C15.925 25.8226 15.5909 26.0453 15.1455 26.0453H12.25C11.1364 26.0453 10.1341 26.6021 9.46591 27.493L4.12045 35.5112C4.00909 35.8453 3.675 36.068 3.22955 36.068H1.11364C0.445455 36.068 0 36.5135 0 37.1816C0 37.8498 0.445455 38.2953 1.11364 38.2953H3.22955C4.34318 38.2953 5.34545 37.7385 6.01364 36.8476L11.3591 28.8294C11.5818 28.4953 11.9159 28.3839 12.25 28.3839H23.3864C24.0545 28.3839 24.5 27.9385 24.5 27.2703C24.5 26.6021 24.0545 26.1566 23.3864 26.1566H18.375L20.4909 21.2566C20.7136 20.8112 21.0477 20.5885 21.4932 20.5885H24.5H27.6182C28.0636 20.5885 28.3977 20.8112 28.6205 21.2566L30.7364 25.4885C31.2932 26.6021 32.4068 27.3816 33.7432 27.3816H36.6386C36.9727 27.3816 37.4182 27.6044 37.6409 27.9385L42.6523 36.2907H37.8636C37.1955 36.2907 36.75 36.7362 36.75 37.4044C36.75 38.0726 37.1955 38.518 37.8636 38.518H47.8864C48.5545 38.518 49 38.0726 49 37.4044C49 36.7362 48.5545 36.068 47.8864 36.068Z" fill="#558CC9"/>
<path d="M42.3183 27.159C42.6524 27.159 42.8751 27.0477 43.0979 26.8249L43.5433 26.3795C43.766 26.1568 43.9888 26.0454 44.3229 26.0454H47.8865C48.5547 26.0454 49.0001 25.5999 49.0001 24.9318C49.0001 24.2636 48.5547 23.8181 47.8865 23.8181H44.3229C43.432 23.8181 42.541 24.1522 41.9842 24.8204L41.5388 25.2658C41.0933 25.7113 41.0933 26.3795 41.5388 26.8249C41.7615 27.0477 41.9842 27.159 42.3183 27.159Z" fill="#558CC9"/>
<path d="M2.22725 23.8181H10.2454C10.5795 23.8181 10.8023 23.9295 11.025 24.1522L11.4704 24.5976C11.6932 24.8204 12.0273 24.9317 12.25 24.9317C12.4727 24.9317 12.8068 24.8204 13.0295 24.5976C13.475 24.1522 13.475 23.484 13.0295 23.0385L12.5841 22.5931C11.9159 21.9249 11.1363 21.5908 10.2454 21.5908H2.22725C1.55907 21.5908 1.11362 22.0363 1.11362 22.7045C1.11362 23.3726 1.55907 23.8181 2.22725 23.8181Z" fill="#558CC9"/>
</svg>
