<svg width="103" height="39" viewBox="0 0 103 39" fill="none" xmlns="http://www.w3.org/2000/svg">
<path d="M97.2965 11.3416L95.133 10.2374C93.7109 9.52287 92.1408 9.15234 90.5493 9.15566H76.5411C75.304 9.15858 74.0836 8.87068 72.9782 8.31517L58.5123 1.08222C57.0897 0.367255 55.5189 -0.00343933 53.9267 2.4047e-05H35.3408C33.7498 -0.0031442 32.1804 0.367384 30.7588 1.08176L16.2929 8.31472C15.1865 8.87094 13.9647 9.15902 12.7263 9.15566H10.3001C7.56938 9.15905 4.95148 10.2453 3.02057 12.1762C1.08967 14.1071 0.00339189 16.725 0 19.4558V24.0336C0 24.3371 0.120576 24.6282 0.335203 24.8428C0.54983 25.0575 0.840926 25.178 1.14445 25.178C1.44798 25.178 1.73908 25.0575 1.95371 24.8428C2.16833 24.6282 2.28891 24.3371 2.28891 24.0336V19.4558C2.2953 18.2655 2.5699 17.0919 3.09232 16.0224H10.3001C10.6036 16.0224 10.8947 15.9018 11.1093 15.6872C11.324 15.4726 11.4445 15.1815 11.4445 14.8779C11.4445 14.5744 11.324 14.2833 11.1093 14.0687C10.8947 13.8541 10.6036 13.7335 10.3001 13.7335H4.71149C6.20236 12.2675 8.20923 11.4456 10.3001 11.4446H12.7263C14.3174 11.4477 15.887 11.0772 17.3087 10.3628L23.8056 7.11258L25.1006 8.40765C26.0576 9.37239 27.1965 10.1376 28.4514 10.6589C29.7062 11.1802 31.0521 11.4473 32.411 11.4446H51.5005C51.804 11.4446 52.0951 11.324 52.3097 11.1094C52.5243 10.8947 52.6449 10.6036 52.6449 10.3001C52.6449 9.99659 52.5243 9.70549 52.3097 9.49086C52.0951 9.27624 51.804 9.15566 51.5005 9.15566H38.9115V2.28893H53.9267C55.1638 2.28601 56.3843 2.57392 57.4896 3.12942L69.5435 9.15566H56.0783C55.7748 9.15566 55.4837 9.27624 55.269 9.49086C55.0544 9.70549 54.9338 9.99659 54.9338 10.3001C54.9338 10.6036 55.0544 10.8947 55.269 11.1094C55.4837 11.324 55.7748 11.4446 56.0783 11.4446H86.9786V12.9823C86.9764 13.734 87.1235 14.4787 87.4112 15.1732C87.699 15.8677 88.1217 16.4982 88.655 17.0281L90.5506 18.9238C91.6256 19.994 93.0796 20.5965 94.5965 20.6002H100.712V24.0336C100.709 26.1575 99.8645 28.1936 98.3626 29.6954C96.8608 31.1972 94.8247 32.0421 92.7008 32.0448H88.6348C89.042 30.9453 89.256 29.7838 89.2675 28.6114C89.2675 28.3079 89.1469 28.0168 88.9323 27.8021C88.7176 27.5875 88.4265 27.4669 88.123 27.4669C87.8195 27.4669 87.5284 27.5875 87.3138 27.8021C87.0991 28.0168 86.9786 28.3079 86.9786 28.6114C86.9777 30.5539 86.2707 32.4299 84.9893 33.8898C83.7079 35.3498 81.9396 36.2941 80.0136 36.547C78.0876 36.8 76.1354 36.3441 74.5205 35.2645C72.9057 34.1849 71.7383 32.555 71.2359 30.6786C70.7336 28.8022 70.9304 26.8071 71.7898 25.0651C72.6492 23.323 74.1125 21.9527 75.9072 21.2095C77.7019 20.4662 79.7056 20.4007 81.545 21.0251C83.3844 21.6495 84.9342 22.9213 85.9055 24.6035C86.0573 24.8667 86.3074 25.0589 86.6008 25.1377C86.8943 25.2165 87.207 25.1755 87.4702 25.0238C87.7334 24.872 87.9256 24.6219 88.0044 24.3284C88.0832 24.035 88.0422 23.7223 87.8905 23.4591C86.7559 21.4959 85.0055 19.9619 82.9105 19.0947C80.8155 18.2275 78.4929 18.0757 76.3028 18.6627C74.1127 19.2497 72.1775 20.5427 70.797 22.3414C69.4165 24.1401 68.6679 26.344 68.6673 28.6114C68.6789 29.7838 68.8931 30.9453 69.3004 32.0448H33.701C34.1082 30.9453 34.3222 29.7838 34.3336 28.6114C34.3336 25.8796 33.2485 23.2598 31.3168 21.3281C29.3852 19.3965 26.7653 18.3113 24.0335 18.3113C21.3018 18.3113 18.6819 19.3965 16.7503 21.3281C14.8186 23.2598 13.7335 25.8796 13.7335 28.6114C13.745 29.7838 13.9592 30.9453 14.3666 32.0448H10.3001C8.89552 32.0379 7.51706 31.6646 6.30101 30.9617C5.08497 30.2588 4.07347 29.2506 3.36653 28.0369C3.20992 27.7822 2.95987 27.5989 2.66985 27.5262C2.37983 27.4535 2.07288 27.4972 1.81466 27.6479C1.55645 27.7987 1.36747 28.0445 1.28816 28.3327C1.20885 28.621 1.24551 28.9289 1.39028 29.1905C2.299 30.7494 3.59906 32.0439 5.16178 32.946C6.72451 33.8481 8.49571 34.3264 10.3001 34.3337H15.4776C16.4169 35.7419 17.6892 36.8965 19.1817 37.6951C20.6743 38.4936 22.3408 38.9114 24.0335 38.9114C25.7263 38.9114 27.3928 38.4936 28.8854 37.6951C30.3779 36.8965 31.6502 35.7419 32.5895 34.3337H70.4114C71.3507 35.7419 72.623 36.8965 74.1156 37.6951C75.6081 38.4936 77.2747 38.9114 78.9674 38.9114C80.6601 38.9114 82.3267 38.4936 83.8192 37.6951C85.3117 36.8965 86.584 35.7419 87.5233 34.3337H92.7008C95.4315 34.3303 98.0494 33.244 99.9804 31.3131C101.911 29.3822 102.998 26.7643 103.001 24.0336V20.5544C103.005 18.6393 102.473 16.7612 101.465 15.133C100.457 13.5047 99.0128 12.1913 97.2965 11.3416ZM36.6226 9.15566H32.411C31.3531 9.15737 30.3054 8.94923 29.3285 8.54329C28.3516 8.13736 27.4649 7.54169 26.7198 6.79076L25.9645 6.03542L31.776 3.12942C32.8819 2.57364 34.1031 2.28573 35.3408 2.28893H36.6226V9.15566ZM24.0335 36.6226C22.4491 36.6226 20.9002 36.1527 19.5828 35.2724C18.2653 34.3922 17.2385 33.141 16.6322 31.6771C16.0258 30.2133 15.8672 28.6025 16.1763 27.0485C16.4854 25.4945 17.2484 24.067 18.3688 22.9466C19.4892 21.8262 20.9166 21.0633 22.4706 20.7541C24.0247 20.445 25.6354 20.6037 27.0993 21.21C28.5631 21.8164 29.8143 22.8432 30.6946 24.1606C31.5749 25.4781 32.0447 27.0269 32.0447 28.6114C32.0421 30.7353 31.1972 32.7714 29.6954 34.2732C28.1936 35.775 26.1574 36.6199 24.0335 36.6226ZM92.1689 17.3042L90.2732 15.4085C89.6314 14.7637 89.2696 13.892 89.2661 12.9823V11.4446H90.5479C91.7803 11.4408 92.9963 11.7271 94.0975 12.2805L96.261 13.3847C97.2534 13.8746 98.1331 14.5656 98.8442 15.4137C99.5553 16.2619 100.082 17.2486 100.392 18.3113H94.5965C93.6863 18.3082 92.814 17.9463 92.1689 17.3042Z" fill="#558CC9"/>
<path d="M51.5 20.6004C51.8035 20.6004 52.0946 20.4798 52.3092 20.2652C52.5239 20.0506 52.6444 19.7595 52.6444 19.456C52.6444 19.1524 52.5239 18.8613 52.3092 18.6467C52.0946 18.4321 51.8035 18.3115 51.5 18.3115H42.3443C42.0408 18.3115 41.7497 18.4321 41.5351 18.6467C41.3205 18.8613 41.1999 19.1524 41.1999 19.456C41.1999 19.7595 41.3205 20.0506 41.5351 20.2652C41.7497 20.4798 42.0408 20.6004 42.3443 20.6004H51.5Z" fill="#558CC9"/>
<path d="M24.0333 22.8892C22.9016 22.8892 21.7952 23.2248 20.8542 23.8536C19.9132 24.4824 19.1797 25.3761 18.7466 26.4217C18.3135 27.4673 18.2002 28.6178 18.421 29.7278C18.6418 30.8379 19.1868 31.8575 19.9871 32.6577C20.7873 33.458 21.8069 34.003 22.917 34.2238C24.027 34.4446 25.1775 34.3313 26.2231 33.8982C27.2687 33.4651 28.1624 32.7316 28.7912 31.7906C29.42 30.8496 29.7556 29.7432 29.7556 28.6115C29.7543 27.0943 29.1509 25.6395 28.0781 24.5667C27.0053 23.4939 25.5505 22.8905 24.0333 22.8892ZM24.0333 32.0449C23.3543 32.0449 22.6905 31.8435 22.1258 31.4662C21.5612 31.089 21.1212 30.5527 20.8613 29.9254C20.6014 29.298 20.5334 28.6077 20.6659 27.9417C20.7984 27.2757 21.1254 26.6639 21.6056 26.1837C22.0857 25.7036 22.6975 25.3766 23.3635 25.2441C24.0295 25.1116 24.7198 25.1796 25.3472 25.4395C25.9746 25.6993 26.5108 26.1394 26.8881 26.704C27.2653 27.2686 27.4667 27.9324 27.4667 28.6115C27.4653 29.5217 27.1032 30.3942 26.4596 31.0378C25.816 31.6814 24.9435 32.0435 24.0333 32.0449Z" fill="#558CC9"/>
<path d="M78.9671 22.8892C77.8354 22.8892 76.729 23.2248 75.788 23.8536C74.847 24.4824 74.1136 25.3761 73.6805 26.4217C73.2473 27.4673 73.134 28.6178 73.3548 29.7278C73.5756 30.8379 74.1206 31.8575 74.9209 32.6577C75.7212 33.458 76.7408 34.003 77.8508 34.2238C78.9608 34.4446 80.1114 34.3313 81.157 33.8982C82.2026 33.4651 83.0963 32.7316 83.725 31.7906C84.3538 30.8496 84.6894 29.7432 84.6894 28.6115C84.6881 27.0943 84.0848 25.6395 83.0119 24.5667C81.9391 23.4939 80.4844 22.8905 78.9671 22.8892ZM78.9671 32.0449C78.2881 32.0449 77.6243 31.8435 77.0597 31.4662C76.4951 31.089 76.055 30.5527 75.7951 29.9254C75.5353 29.298 75.4673 28.6077 75.5998 27.9417C75.7322 27.2757 76.0592 26.6639 76.5394 26.1837C77.0196 25.7036 77.6313 25.3766 78.2973 25.2441C78.9633 25.1116 79.6537 25.1796 80.281 25.4395C80.9084 25.6993 81.4446 26.1394 81.8219 26.704C82.1991 27.2686 82.4005 27.9324 82.4005 28.6115C82.3992 29.5217 82.037 30.3942 81.3934 31.0378C80.7498 31.6814 79.8773 32.0435 78.9671 32.0449Z" fill="#558CC9"/>
</svg>
