<svg width="53" height="54" viewBox="0 0 53 54" fill="none" xmlns="http://www.w3.org/2000/svg">
<path d="M16.0375 17.5538V12.5496H2.41165V17.5538H16.0375ZM26.0459 7.96747C26.8899 6.3999 28.0958 4.83232 29.5428 3.44562C31.9544 1.09426 35.0293 -0.47332 37.9836 0.129594C39.3703 0.491342 41.1187 1.03396 41.8422 2.42067C42.3848 3.44562 42.204 4.47057 41.5408 5.49553C41.0584 6.3396 40.2143 7.12339 39.1291 7.84689C38.0439 8.69097 36.5969 9.47476 35.0896 10.138H50.8859C51.5491 10.138 52.0917 10.6806 52.0917 11.3438V18.7596C52.0917 19.4228 51.5491 19.9655 50.8859 19.9655H50.3433V51.8596C50.3433 52.5228 49.8007 53.0654 49.1375 53.0654C33.7632 53.0654 18.3286 53.0654 2.95428 53.0654C2.29107 53.0654 1.74845 52.5228 1.74845 51.8596V19.9655H1.20583C0.542622 19.9655 0 19.4228 0 18.7596V11.3438C0 10.6806 0.542622 10.138 1.20583 10.138H17.0022C15.4949 9.47476 14.0479 8.69097 12.9626 7.84689C11.8774 7.12339 11.0333 6.3396 10.551 5.49553C9.88778 4.47057 9.70691 3.44562 10.2495 2.42067C10.973 1.03396 12.7215 0.491342 14.1082 0.129594C17.0625 -0.47332 20.1373 1.09426 22.549 3.44562C23.996 4.83232 25.2018 6.3999 26.0459 7.96747ZM31.1706 5.19407C29.6634 6.64106 28.4575 8.38951 27.734 9.95709C30.6883 9.65563 35.0896 7.84689 37.7424 5.91756C38.5865 5.31465 39.1894 4.77203 39.5511 4.22941C39.732 3.92795 39.7923 3.68678 39.732 3.5662C39.4306 3.02358 37.9836 2.60154 37.4409 2.48096C35.391 2.05892 33.1 3.32504 31.1706 5.19407ZM24.3577 9.95709C23.6342 8.38951 22.4284 6.64106 20.9211 5.19407C18.9918 3.32504 16.7007 2.05892 14.6508 2.48096C14.1082 2.60154 12.6612 3.02358 12.3597 3.5662C12.2994 3.68678 12.3597 3.92795 12.5406 4.22941C12.9024 4.77203 13.5053 5.31465 14.3493 5.91756C17.0022 7.84689 21.4034 9.65563 24.3577 9.95709ZM18.4492 17.5538C23.5136 17.5538 28.5781 17.5538 33.6426 17.5538V12.5496H18.4492V17.5538ZM36.0542 17.5538H49.6801V12.5496H36.0542V17.5538ZM32.4368 19.9655V50.6538H47.9316V19.9655H32.4368ZM19.655 50.6538V19.9655H4.1601V50.6538H19.655ZM22.0666 19.9655V50.6538H30.0251V19.9655H22.0666Z" fill="#558CC9"/>
</svg>
