<svg width="86" height="36" viewBox="0 0 86 36" fill="none" xmlns="http://www.w3.org/2000/svg">
<path fill-rule="evenodd" clip-rule="evenodd" d="M21.4 0H5C3.67391 0 2.40214 0.526784 1.46446 1.46447C0.52678 2.40215 0 3.67392 0 5V25.46C0 26.7861 0.52678 28.0579 1.46446 28.9955C2.40214 29.9332 3.67391 30.46 5 30.46H6.68C6.95541 31.8163 7.69127 33.0358 8.76289 33.9117C9.8345 34.7875 11.176 35.266 12.56 35.266C13.944 35.266 15.2855 34.7875 16.3571 33.9117C17.4287 33.0358 18.1646 31.8163 18.44 30.46H21.4V28.47H18.44C18.1646 27.1137 17.4287 25.8942 16.3571 25.0183C15.2855 24.1425 13.944 23.664 12.56 23.664C11.176 23.664 9.8345 24.1425 8.76289 25.0183C7.69127 25.8942 6.95541 27.1137 6.68 28.47H5.01L5 28.5C4.60434 28.5 4.2126 28.4218 3.84731 28.2697C3.48202 28.1177 3.15041 27.895 2.87157 27.6143C2.59273 27.3336 2.37217 27.0005 2.22259 26.6342C2.07301 26.2679 1.99736 25.8756 2 25.48V15.11H21.4V4.79H2C2.05565 4.03308 2.39612 3.32539 2.95282 2.80952C3.50951 2.29365 4.24104 2.00796 5 2.01H21.4V0ZM11.5 6.78H19.41L19.4 13.14H11.5V6.78ZM2 6.78H9.47L9.5 13.14H2V6.78ZM14.7923 32.7959C14.1345 33.2354 13.3611 33.47 12.57 33.47L12.56 33.46C11.5026 33.4574 10.4893 33.0361 9.74156 32.2884C8.99386 31.5407 8.57264 30.5274 8.57 29.47C8.57 28.6789 8.80459 27.9055 9.24412 27.2477C9.68364 26.5899 10.3084 26.0772 11.0393 25.7745C11.7702 25.4717 12.5744 25.3925 13.3504 25.5469C14.1263 25.7012 14.839 26.0822 15.3984 26.6416C15.9578 27.201 16.3388 27.9137 16.4931 28.6896C16.6475 29.4656 16.5683 30.2698 16.2655 31.0007C15.9628 31.7316 15.4501 32.3564 14.7923 32.7959Z" fill="#558CC9"/>
<path fill-rule="evenodd" clip-rule="evenodd" d="M68.2499 0H20.9999V2.01H68.2299C68.9687 2.01167 69.6808 2.28584 70.2299 2.78L70.2199 2.77C70.9199 3.403 71.5811 4.07755 72.1999 4.79H21.0099V6.78H28.4699L28.4999 13.14H20.9999V15.11H65.1099C65.6499 17.27 68.1499 22.22 79.7599 22.45C79.8899 23.38 79.9999 24.38 80.0699 25.38C80.0988 25.7738 80.0452 26.1693 79.9126 26.5412C79.7801 26.9131 79.5714 27.2533 79.2999 27.54C79.0305 27.8337 78.7029 28.0681 78.3379 28.2282C77.9729 28.3884 77.5785 28.4707 77.1799 28.47H71.8699C71.5945 27.1137 70.8587 25.8942 69.787 25.0183C68.7154 24.1425 67.374 23.664 65.9899 23.664C64.6059 23.664 63.2644 24.1425 62.1928 25.0183C61.1212 25.8942 60.3854 27.1137 60.1099 28.47H34.4399C34.1645 27.1137 33.4287 25.8942 32.357 25.0183C31.2854 24.1425 29.944 23.664 28.5599 23.664C27.1759 23.664 25.8344 24.1425 24.7628 25.0183C23.6912 25.8942 22.9554 27.1137 22.6799 28.47H21.0099L20.9999 30.46H22.6799C22.9554 31.8163 23.6912 33.0358 24.7628 33.9117C25.8344 34.7875 27.1759 35.266 28.5599 35.266C29.944 35.266 31.2854 34.7875 32.357 33.9117C33.4287 33.0358 34.1645 31.8163 34.4399 30.46H60.1099C60.3854 31.8163 61.1212 33.0358 62.1928 33.9117C63.2644 34.7875 64.6059 35.266 65.9899 35.266C67.374 35.266 68.7154 34.7875 69.787 33.9117C70.8587 33.0358 71.5945 31.8163 71.8699 30.46H77.1799C77.8509 30.4587 78.5144 30.3199 79.1296 30.0522C79.7449 29.7844 80.2987 29.3935 80.7569 28.9034C81.2151 28.4133 81.568 27.8345 81.7939 27.2027C82.0197 26.5709 82.1137 25.8995 82.0699 25.23C81.7341 20.4866 80.5875 15.8359 78.6799 11.48H81.6799L83.0899 14.64C83.1688 14.8154 83.2966 14.9644 83.458 15.0691C83.6194 15.1737 83.8076 15.2296 83.9999 15.23C84.1437 15.22 84.2835 15.1791 84.4099 15.11C84.5305 15.056 84.6392 14.9786 84.7297 14.8824C84.8202 14.7861 84.8907 14.6729 84.9372 14.5492C84.9837 14.4256 85.0052 14.2939 85.0006 14.1619C84.9959 14.0299 84.9651 13.9001 84.9099 13.78L83.2399 10.03C83.1604 9.85299 83.031 9.70296 82.8677 9.5982C82.7043 9.49343 82.514 9.43847 82.3199 9.44H77.6999C76.9873 8.06372 76.1717 6.7433 75.2599 5.49C75.1941 5.2795 75.0605 5.09668 74.8799 4.97C73.8748 3.63395 72.7429 2.3982 71.4999 1.28C70.6096 0.47019 69.4534 0.014803 68.2499 0ZM76.2099 10.79C76.2232 10.8381 76.2471 10.8825 76.2799 10.92C77.7552 13.947 78.8148 17.1593 79.4299 20.47C69.2599 20.17 67.3799 15.99 67.0499 14.67C66.9427 14.2364 66.6935 13.8512 66.3419 13.5757C65.9903 13.3002 65.5566 13.1503 65.1099 13.15H60.2699V6.79H73.7799C74.6961 8.05588 75.5087 9.39354 76.2099 10.79ZM50.3499 6.78H58.2799L58.2699 13.14H50.3499V6.78ZM40.3999 6.78H48.3499L48.3399 13.14H40.3999V6.78ZM30.4999 6.78H38.4099L38.3999 13.14H30.4999V6.78ZM68.2222 32.7959C67.5644 33.2354 66.7911 33.47 65.9999 33.47L65.9899 33.46C64.9325 33.4574 63.9192 33.0361 63.1715 32.2884C62.4238 31.5407 62.0026 30.5274 61.9999 29.47C61.9999 28.6789 62.2345 27.9055 62.6741 27.2477C63.1136 26.5899 63.7383 26.0772 64.4692 25.7745C65.2001 25.4717 66.0044 25.3925 66.7803 25.5469C67.5562 25.7012 68.269 26.0822 68.8284 26.6416C69.3878 27.201 69.7687 27.9137 69.9231 28.6896C70.0774 29.4656 69.9982 30.2698 69.6955 31.0007C69.3927 31.7316 68.88 32.3564 68.2222 32.7959ZM30.7922 32.7959C30.1344 33.2354 29.3611 33.47 28.5699 33.47L28.5599 33.46C27.5025 33.4574 26.4892 33.0361 25.7415 32.2884C24.9938 31.5407 24.5726 30.5274 24.5699 29.47C24.5699 28.6789 24.8045 27.9055 25.2441 27.2477C25.6836 26.5899 26.3083 26.0772 27.0392 25.7745C27.7701 25.4717 28.5744 25.3925 29.3503 25.5469C30.1262 25.7012 30.839 26.0822 31.3984 26.6416C31.9578 27.201 32.3387 27.9137 32.4931 28.6896C32.6474 29.4656 32.5682 30.2698 32.2655 31.0007C31.9627 31.7316 31.45 32.3564 30.7922 32.7959Z" fill="#558CC9"/>
</svg>
