<svg width="67" height="36" viewBox="0 0 67 36" fill="none" xmlns="http://www.w3.org/2000/svg">
<path d="M5.00021 0H49.2502C50.4536 0.014803 51.6099 0.47019 52.5002 1.28C53.7432 2.3982 54.8751 3.63395 55.8802 4.97C56.0608 5.09668 56.1944 5.2795 56.2602 5.49C57.1719 6.7433 57.9876 8.06372 58.7002 9.44H63.3202C63.5143 9.43847 63.7046 9.49343 63.8679 9.5982C64.0313 9.70296 64.1606 9.85299 64.2402 10.03L65.9102 13.78C65.9653 13.9001 65.9962 14.0299 66.0008 14.1619C66.0055 14.2939 65.984 14.4256 65.9375 14.5492C65.891 14.6729 65.8205 14.7861 65.73 14.8824C65.6395 14.9786 65.5308 15.056 65.4102 15.11C65.2838 15.1791 65.1439 15.22 65.0002 15.23C64.8078 15.2296 64.6197 15.1737 64.4583 15.0691C64.2969 14.9644 64.1691 14.8154 64.0902 14.64L62.6802 11.48H59.6802C61.5878 15.8359 62.7344 20.4866 63.0702 25.23C63.1139 25.8995 63.02 26.5709 62.7942 27.2027C62.5683 27.8345 62.2154 28.4133 61.7572 28.9034C61.2989 29.3935 60.7451 29.7844 60.1299 30.0522C59.5147 30.3199 58.8512 30.4587 58.1802 30.46H52.8702C52.5948 31.8163 51.8589 33.0358 50.7873 33.9117C49.7157 34.7875 48.3742 35.266 46.9902 35.266C45.6062 35.266 44.2647 34.7875 43.1931 33.9117C42.1215 33.0358 41.3856 31.8163 41.1102 30.46H18.4402C18.1648 31.8163 17.4289 33.0358 16.3573 33.9117C15.2857 34.7875 13.9442 35.266 12.5602 35.266C11.1762 35.266 9.83471 34.7875 8.7631 33.9117C7.69149 33.0358 6.95563 31.8163 6.68021 30.46H5.00021C3.67413 30.46 2.40236 29.9332 1.46468 28.9955C0.526993 28.0579 0.000213623 26.7861 0.000213623 25.46V5C0.000213623 3.67392 0.526993 2.40215 1.46468 1.46447C2.40236 0.526784 3.67413 0 5.00021 0ZM57.2802 10.92C57.2474 10.8825 57.2234 10.8381 57.2102 10.79C56.509 9.39354 55.6964 8.05588 54.7802 6.79H41.2702V13.15H46.1102C46.5569 13.1503 46.9906 13.3002 47.3422 13.5757C47.6938 13.8512 47.943 14.2364 48.0502 14.67C48.3802 15.99 50.2602 20.17 60.4302 20.47C59.815 17.1593 58.7555 13.947 57.2802 10.92ZM39.2802 6.78H31.3502V13.14H39.2702L39.2802 6.78ZM29.3502 6.78H21.4002V13.14H29.3402L29.3502 6.78ZM19.4102 6.78H11.5002V13.14H19.4002L19.4102 6.78ZM9.47021 6.78H2.00021V13.14H9.50021L9.47021 6.78ZM51.2302 2.78C50.6811 2.28584 49.9689 2.01167 49.2302 2.01H5.00021C4.24125 2.00796 3.50972 2.29365 2.95303 2.80952C2.39634 3.32539 2.05587 4.03308 2.00021 4.79H53.2002C52.5813 4.07755 51.9201 3.403 51.2202 2.77L51.2302 2.78ZM47.0002 33.47C47.7913 33.47 48.5647 33.2354 49.2225 32.7959C49.8803 32.3564 50.393 31.7316 50.6957 31.0007C50.9985 30.2698 51.0777 29.4656 50.9234 28.6896C50.769 27.9137 50.388 27.201 49.8286 26.6416C49.2692 26.0822 48.5565 25.7012 47.7806 25.5469C47.0046 25.3925 46.2004 25.4717 45.4695 25.7745C44.7386 26.0772 44.1139 26.5899 43.6743 27.2477C43.2348 27.9055 43.0002 28.6789 43.0002 29.47C43.0028 30.5274 43.4241 31.5407 44.1718 32.2884C44.9195 33.0361 45.9328 33.4574 46.9902 33.46L47.0002 33.47ZM12.5702 33.47C13.3613 33.47 14.1347 33.2354 14.7925 32.7959C15.4503 32.3564 15.963 31.7316 16.2657 31.0007C16.5685 30.2698 16.6477 29.4656 16.4934 28.6896C16.339 27.9137 15.958 27.201 15.3986 26.6416C14.8392 26.0822 14.1265 25.7012 13.3506 25.5469C12.5746 25.3925 11.7704 25.4717 11.0395 25.7745C10.3086 26.0772 9.68386 26.5899 9.24433 27.2477C8.80481 27.9055 8.57021 28.6789 8.57021 29.47C8.57285 30.5274 8.99407 31.5407 9.74177 32.2884C10.4895 33.0361 11.5028 33.4574 12.5602 33.46L12.5702 33.47ZM5.01021 28.47H6.68021C6.95563 27.1137 7.69149 25.8942 8.7631 25.0183C9.83471 24.1425 11.1762 23.664 12.5602 23.664C13.9442 23.664 15.2857 24.1425 16.3573 25.0183C17.4289 25.8942 18.1648 27.1137 18.4402 28.47H41.1102C41.3856 27.1137 42.1215 25.8942 43.1931 25.0183C44.2647 24.1425 45.6062 23.664 46.9902 23.664C48.3742 23.664 49.7157 24.1425 50.7873 25.0183C51.8589 25.8942 52.5948 27.1137 52.8702 28.47H58.1802C58.5788 28.4707 58.9731 28.3884 59.3381 28.2282C59.7031 28.0681 60.0308 27.8337 60.3002 27.54C60.5717 27.2533 60.7803 26.9131 60.9129 26.5412C61.0455 26.1693 61.0991 25.7738 61.0702 25.38C61.0002 24.38 60.8902 23.38 60.7602 22.45C49.1502 22.22 46.6502 17.27 46.1102 15.11H2.00021V25.48C1.99757 25.8756 2.07322 26.2679 2.22281 26.6342C2.37239 27.0005 2.59295 27.3336 2.87178 27.6143C3.15062 27.895 3.48223 28.1177 3.84752 28.2697C4.21281 28.4218 4.60456 28.5 5.00021 28.5L5.01021 28.47Z" fill="#558CC9"/>
</svg>
