<svg width="88" height="89" viewBox="0 0 88 89" fill="none" xmlns="http://www.w3.org/2000/svg">
<g clip-path="url(#clip0_113:220)">
<path d="M88.1371 44.6574C88.1164 69.0292 68.2383 88.8756 43.8736 88.8583C19.509 88.8411 -0.369111 68.967 -0.348372 44.616C-0.327634 20.2649 19.5505 0.397778 43.9151 0.41505C68.2797 0.432323 88.1579 20.3063 88.1371 44.6574ZM37.1197 52.0432C35.3223 50.3989 33.7116 48.9341 32.0975 47.4487C29.6779 45.2412 27.2964 42.9578 24.7905 40.854C22.8272 39.1923 19.7683 39.8176 18.4859 41.9767C17.3591 43.8801 17.7946 46.1532 19.6058 47.8114C24.3504 52.1365 29.0972 56.4581 33.8464 60.7763C36.1968 62.9181 38.5011 62.8709 40.7594 60.6347L68.0412 33.5683C68.3281 33.2851 68.615 33.0018 68.8742 32.6909C69.3013 32.1918 69.6114 31.6037 69.7821 30.9696C69.9527 30.3355 69.9796 29.6713 69.8607 29.0254C69.7418 28.3796 69.4801 27.7685 69.0948 27.2366C68.7094 26.7047 68.2102 26.2655 67.6334 25.9511C65.7323 24.8836 63.7276 25.2601 61.9371 27.0531C53.872 35.1137 45.8069 43.1743 37.7419 51.2349C37.5182 51.4914 37.3104 51.7613 37.1197 52.0432Z" fill="#55B553"/>
</g>
<defs>
<clipPath id="clip0_113:220">
<rect width="88" height="89" fill="white"/>
</clipPath>
</defs>
</svg>
