<svg width="60" height="42" viewBox="0 0 60 42" fill="none" xmlns="http://www.w3.org/2000/svg">
<path d="M50.6083 9.86788C50.6083 9.42504 50.6083 8.9822 50.6083 8.53936C50.6247 7.89032 50.9785 7.52714 51.6322 7.52246C53.1349 7.51152 54.6384 7.51152 56.1427 7.52246C56.7917 7.52246 57.1502 7.89267 57.1595 8.54639C57.1713 9.42504 57.1595 10.3037 57.1595 11.1824C57.178 11.4294 57.0995 11.674 56.9407 11.8643C56.782 12.0545 56.5554 12.1755 56.309 12.2016L53.1857 12.8389C53.5254 13.1248 53.8089 13.3731 54.1018 13.6074C54.9383 14.2799 55.8053 14.9172 56.6136 15.6201C58.7411 17.4641 59.9384 19.8096 59.9689 22.626C60.0275 27.8182 59.9853 33.0128 59.9853 38.2074C59.9853 40.0819 58.8138 41.2534 56.9651 41.2534C54.6033 41.2534 52.2407 41.2534 49.8773 41.2534C48.0497 41.2534 46.8734 40.0819 46.8687 38.2543C46.8687 37.713 46.8687 37.1695 46.8687 36.5977H13.119C13.119 37.1437 13.119 37.7013 13.119 38.259C13.119 40.0749 11.9311 41.2511 10.1035 41.2511H3.07423C1.16462 41.2511 0.00245466 40.096 0.000111578 38.2051C0.000111578 33.2073 0.0141701 28.2072 0.000111578 23.2094C-0.0139469 19.8752 1.30052 17.2134 3.92243 15.175C4.87372 14.4369 5.79689 13.673 6.84191 12.8459C5.72191 12.6116 4.73313 12.4148 3.72327 12.2086C3.07189 12.0727 2.82352 11.7822 2.81649 11.1238C2.81649 10.285 2.81649 9.44535 2.81649 8.60496C2.81649 7.88095 3.17264 7.5248 3.89431 7.52246C5.35795 7.51465 6.82238 7.51465 8.28759 7.52246C9.0116 7.52246 9.35837 7.87861 9.37243 8.59793C9.37243 9.02203 9.37243 9.44613 9.37243 9.86788L9.53645 9.94052C9.98398 9.20713 10.4737 8.49718 10.8673 7.73099C11.4648 6.53134 11.9475 5.27076 12.5567 4.07579C13.8758 1.4984 16.0151 0.0574055 18.9181 0.0386608C26.2988 -0.0128869 33.6795 -0.0128869 41.0602 0.0386608C43.9868 0.0597485 46.1283 1.51246 47.4475 4.12968C48.2348 5.69486 48.9705 7.28581 49.7554 8.85098C49.9715 9.22062 50.2135 9.57452 50.4794 9.91006L50.6083 9.86788ZM1.89098 27.2231C1.89098 28.9218 1.81131 30.6018 1.91441 32.2677C1.99876 33.6384 3.25465 34.6788 4.63238 34.6905C6.74115 34.7092 8.84993 34.7022 10.9587 34.6905C11.1826 34.679 11.3959 34.5913 11.5632 34.4421C12.149 33.8962 12.6996 33.3151 13.269 32.7527C13.8367 32.1727 14.5163 31.714 15.2667 31.4047C16.0171 31.0953 16.8226 30.9418 17.6341 30.9533H41.885C42.6964 30.9429 43.5013 31.0977 44.251 31.4083C45.0006 31.7188 45.6792 32.1787 46.2455 32.7598C46.8008 33.3104 47.3374 33.8774 47.9114 34.3999C48.0898 34.5643 48.3186 34.6634 48.5605 34.6811C50.8051 34.7014 53.0506 34.7014 55.2968 34.6811C56.7027 34.6811 57.9515 33.6853 58.0499 32.3005C58.1718 30.6182 58.078 28.9195 58.078 27.1832C57.9047 27.1832 57.7734 27.1832 57.6399 27.1832C57.5063 27.1832 57.3447 27.209 57.1713 27.2231C57.1713 27.5113 57.1713 27.7643 57.1713 28.015C57.1713 29.9457 55.9786 31.4898 54.0784 31.764C52.8928 31.9397 51.665 31.8577 50.4583 31.8319C50.2317 31.8094 50.0231 31.6983 49.8778 31.5228C49.7326 31.3473 49.6625 31.1216 49.6828 30.8947C49.6849 30.6661 49.7745 30.4469 49.9331 30.2822C50.0917 30.1175 50.3073 30.0198 50.5357 30.009C50.8867 29.9874 51.2386 29.9835 51.5901 29.9973C52.3117 29.9973 53.0451 30.0582 53.7527 29.9575C54.9243 29.7911 55.4702 28.7367 55.2359 27.209C53.7082 27.1153 52.2016 27.0848 50.934 28.1884C50.4279 28.6313 49.8538 28.5891 49.493 28.1369C49.1603 27.7198 49.2587 27.1645 49.7414 26.7498C50.545 26.0679 51.4635 25.529 52.5039 25.447C54.144 25.3182 55.7842 25.3486 57.4126 25.3135C57.6469 25.3135 57.8625 25.3135 58.0007 25.3135V21.4942C56.8854 22.3307 56.3371 22.5111 55.0227 22.5111C52.9326 22.5111 50.8426 22.4666 48.7549 22.5299C47.7989 22.558 47.0257 22.3682 46.4681 21.5669C46.3228 21.3583 46.215 21.124 46.0908 20.9014C45.7461 21.1547 45.4365 21.4525 45.17 21.7871C44.7248 22.3588 44.1601 22.5322 43.4314 22.5252C40.191 22.4901 36.9481 22.5018 33.7077 22.5252C33.3922 22.5424 33.0918 22.6654 32.8548 22.8743C32.1519 23.5187 31.4935 24.2192 30.8116 24.8894C30.2094 25.4822 29.7619 25.4751 29.1551 24.8753C28.4873 24.2169 27.8172 23.5632 27.1728 22.8813C27.0587 22.7528 26.9171 22.6517 26.7584 22.5856C26.5998 22.5194 26.4283 22.49 26.2567 22.4994C22.9178 22.5135 19.5789 22.4994 16.24 22.5158C16.0167 22.5336 15.7925 22.4979 15.5858 22.4115C15.3792 22.3251 15.1962 22.1905 15.0521 22.0191C14.7592 21.6606 14.4733 21.2951 14.1453 20.8827C13.7352 21.3185 13.4775 21.5599 13.2596 21.834C12.8332 22.3659 12.3013 22.5369 11.6194 22.5229C9.68641 22.483 7.75336 22.4971 5.82032 22.5229C4.47071 22.5229 3.12109 22.5838 1.94721 21.4146V25.3346C3.46787 25.3346 4.99322 25.3135 6.50685 25.3346C7.92597 25.3567 9.28789 25.8976 10.3354 26.8552C10.5275 27.0101 10.6507 27.2346 10.6784 27.4798C10.706 27.725 10.6358 27.9712 10.4831 28.165C10.4057 28.2668 10.3077 28.351 10.1954 28.4122C10.0832 28.4734 9.95932 28.5102 9.83187 28.5202C9.70443 28.5301 9.57632 28.513 9.45595 28.47C9.33558 28.4269 9.22568 28.3589 9.13344 28.2704C7.84474 27.1223 6.32174 27.1153 4.68159 27.2395C4.68159 27.434 4.68159 27.605 4.68159 27.776C4.68159 29.292 5.38451 30.0137 6.88174 30.0137C7.66198 30.0137 8.44457 30.0137 9.22482 30.0137C9.87385 30.0137 10.2862 30.3745 10.3026 30.9205C10.319 31.4664 9.8926 31.8764 9.21779 31.8811C8.2993 31.8811 7.38316 31.8952 6.46467 31.8811C5.6283 31.8667 4.82172 31.5682 4.17748 31.0346C3.53323 30.5011 3.08964 29.7643 2.91959 28.9452C2.83261 28.3755 2.77707 27.8013 2.75323 27.2254L1.89098 27.2231ZM53.0896 15.2499C53.0305 15.1746 52.9654 15.1041 52.8951 15.0391C51.5546 14.0253 50.3539 12.8388 49.3243 11.5104C49.1644 11.3572 48.9506 11.273 48.7292 11.2761C36.2327 11.2651 23.7363 11.2651 11.2399 11.2761C10.9851 11.3 10.7478 11.4158 10.5721 11.6018C10.0051 12.1922 9.51067 12.853 8.93193 13.4294C8.30164 14.055 7.60575 14.6173 6.88877 15.2546C8.11654 15.749 9.28105 16.2973 10.4971 16.6862C12.6668 17.3892 14.5249 18.4928 15.9799 20.2665C16.2053 20.4896 16.5086 20.6165 16.8258 20.6203C20.1639 20.6453 23.502 20.6453 26.8401 20.6203C27.0724 20.6085 27.3044 20.6487 27.5192 20.7379C27.734 20.827 27.9262 20.963 28.0819 21.1358C28.6911 21.7848 29.3284 22.4057 29.9986 23.0829C30.6359 22.4268 31.2263 21.8574 31.7723 21.2506C31.9543 21.0369 32.1834 20.8684 32.4416 20.7582C32.6997 20.6481 32.9799 20.5992 33.2601 20.6156C36.5592 20.6437 39.8582 20.6367 43.1573 20.6156C43.4563 20.616 43.7437 20.5001 43.9586 20.2922C45.4465 18.46 47.3655 17.3212 49.5961 16.637C50.3201 16.4144 51.0019 16.0888 51.7049 15.8076C52.1664 15.6365 52.6093 15.4491 53.0896 15.2499ZM47.7966 9.37584C47.0937 7.85986 46.4681 6.40012 45.7698 4.97084C44.7904 2.96985 43.1596 1.90375 40.9244 1.89672C33.6264 1.87798 26.3293 1.87798 19.033 1.89672C16.7766 1.89672 15.1458 2.99563 14.164 5.02708C13.5291 6.34155 12.9245 7.67007 12.3107 8.99157C12.2568 9.10638 12.224 9.22588 12.1701 9.37349L47.7966 9.37584ZM14.0563 34.646H45.4371C44.4038 33.3573 43.1339 32.7996 41.5265 32.8066C33.6788 32.8363 25.831 32.8363 17.9833 32.8066C17.2314 32.7751 16.4831 32.9259 15.8021 33.2462C15.1212 33.5664 14.5278 34.0467 14.0727 34.646H14.0563ZM1.87223 35.6113C1.87223 36.6446 1.85349 37.5584 1.87223 38.4699C1.86966 38.5935 1.89286 38.7163 1.94036 38.8304C1.98785 38.9445 2.0586 39.0475 2.14809 39.1329C2.23758 39.2182 2.34385 39.2839 2.46014 39.3259C2.57643 39.3678 2.70018 39.3851 2.82352 39.3766C5.3025 39.3884 7.78148 39.3766 10.2605 39.3766C10.7502 39.3766 11.1415 39.1259 11.1977 38.6573C11.2419 37.9607 11.2482 37.2622 11.2164 36.5649C9.23653 36.5649 7.32224 36.5392 5.41263 36.5649C4.17548 36.6001 3.00863 36.4267 1.87223 35.6113ZM48.7338 36.5696C48.7338 37.2515 48.7198 37.8372 48.7338 38.4207C48.7267 38.5485 48.7466 38.6764 48.7924 38.7959C48.8382 38.9155 48.9088 39.024 48.9996 39.1143C49.0903 39.2046 49.1992 39.2747 49.3189 39.3199C49.4387 39.3651 49.5667 39.3844 49.6945 39.3766C52.1735 39.3884 54.6501 39.3766 57.1291 39.3766C57.6446 39.3766 58.0406 39.0955 58.0663 38.5964C58.1272 37.6381 58.0827 36.6751 58.0827 35.6418C57.1666 36.2299 56.2692 36.579 55.271 36.579C54.3338 36.579 53.3966 36.579 52.4593 36.579L48.7338 36.5696ZM12.7207 19.6315C12.4583 19.5167 12.2661 19.4276 12.0693 19.348L6.71069 17.2111C4.96276 16.5082 4.70736 16.5831 3.54754 18.0968C3.41632 18.2655 3.29448 18.4436 3.17967 18.624C2.78603 19.2355 2.87976 19.8916 3.51473 20.2641C3.89887 20.4853 4.3322 20.6069 4.77531 20.6179C6.82082 20.6531 8.86867 20.5804 10.9118 20.6601C11.7694 20.6976 12.2263 20.2922 12.7207 19.6315ZM47.3069 19.6034L47.2483 19.8541C47.6912 20.1165 48.127 20.5875 48.5792 20.6039C50.8168 20.6812 53.0592 20.6507 55.2991 20.6273C55.6666 20.6197 56.0274 20.5275 56.3535 20.3579C56.513 20.2869 56.654 20.18 56.7653 20.0455C56.8766 19.9111 56.9553 19.7527 56.9953 19.5827C57.0352 19.4128 57.0353 19.2359 56.9955 19.0659C56.9557 18.8959 56.8771 18.7375 56.7659 18.6029C56.2973 17.9913 55.7303 17.4524 55.2031 16.8831C54.9688 16.6206 54.6993 16.6206 54.3643 16.7589C53.0568 17.3048 51.733 17.8156 50.4185 18.3451C49.3805 18.7622 48.3449 19.184 47.3069 19.6034ZM7.47454 9.42035H4.68393C4.66726 9.67861 4.66726 9.93766 4.68393 10.1959C4.70033 10.3201 4.79874 10.5146 4.89246 10.5333C5.73597 10.7184 6.58651 10.8707 7.46985 11.0394L7.47454 9.42035ZM55.2382 9.43207H52.5249V11.0488C53.1787 10.9199 53.7855 10.7934 54.3994 10.6786C55.3648 10.4982 55.3648 10.5029 55.2874 9.50705C55.2781 9.48596 55.2617 9.46487 55.2382 9.43207Z" fill="white"/>
</svg>
