<svg width="56" height="56" viewBox="0 0 56 56" fill="none" xmlns="http://www.w3.org/2000/svg">
<path d="M22.5634 21.6692C23.8521 21.9925 25.0735 22.2897 26.2906 22.6065C26.5488 22.6737 26.7831 22.8451 27.0435 22.9059C27.1283 22.9271 27.2168 22.93 27.3028 22.9143C27.3889 22.8985 27.4706 22.8646 27.5425 22.8148C28.8442 21.461 30.4432 20.9077 32.2873 20.9511C32.463 20.9511 32.6409 20.9511 32.8796 20.9511C32.7776 19.2675 33.7127 18.1676 34.7953 17.0915C40.3305 11.604 45.8462 6.10055 51.3424 0.581217C51.4444 0.479248 51.542 0.364263 51.6505 0.275312C52.0584 -0.0870031 52.5183 -0.0913422 52.8546 0.260125C52.9301 0.339038 52.9887 0.432519 53.0268 0.534849C53.0649 0.637179 53.0817 0.746207 53.0762 0.855263C53.0707 0.964319 53.043 1.07111 52.9949 1.1691C52.9467 1.26709 52.879 1.35423 52.796 1.42517C51.5767 2.65965 50.3444 3.88327 49.1078 5.11341L38.8241 15.3841C38.7243 15.4839 38.6289 15.601 38.4944 15.7355L51.0973 28.5923C52.0454 27.6333 52.9588 26.7113 53.8743 25.7914C54.0131 25.6504 54.1563 25.4312 54.3082 25.4117C54.6236 25.348 54.9509 25.3805 55.2476 25.505C55.5882 25.7024 55.6316 26.1038 55.4255 26.4661C55.3286 26.6183 55.2118 26.7569 55.0784 26.8783C53.1417 28.8222 51.2014 30.7633 49.2575 32.7014C48.1879 33.7753 46.9317 34.2396 45.4152 33.9771C45.3175 33.9705 45.2195 33.9848 45.1278 34.0193C45.0361 34.0537 44.9529 34.1074 44.8837 34.1767C44.0159 35.1443 43.1849 36.1293 42.2564 37.2141C42.4429 37.3789 42.7489 37.6263 43.0266 37.8996C44.1547 39.0104 44.5105 40.3404 43.9291 41.8048C43.3476 43.2693 42.1804 44.0026 40.5923 44.0351C40.5402 44.0351 40.486 44.046 40.3754 44.059C40.3754 45.0917 40.102 46.042 39.3578 46.8013C38.6137 47.5606 37.6808 47.9013 36.5374 47.8579C36.5374 48.9426 36.2597 49.9016 35.4917 50.6783C34.7237 51.455 33.7886 51.7327 32.7255 51.7197C32.698 52.0835 32.6509 52.4456 32.5845 52.8044C32.4485 53.4066 32.1555 53.962 31.7355 54.4144C31.3154 54.8668 30.7831 55.2 30.1927 55.3802C29.6022 55.5605 28.9746 55.5813 28.3735 55.4406C27.7724 55.2999 27.2192 55.0027 26.7701 54.5791C26.3492 54.1886 25.9847 53.7352 25.5313 53.2427C25.1169 53.6766 24.7893 54.0324 24.4465 54.373C23.3314 55.4947 22.0036 55.8592 20.5283 55.269C19.053 54.6789 18.3458 53.5508 18.311 51.98C18.311 51.9106 18.2959 51.8412 18.2785 51.7153C17.2306 51.7153 16.2803 51.442 15.521 50.6913C14.7617 49.9406 14.4514 48.9969 14.4492 47.8709C13.3948 47.8839 12.4446 47.6062 11.6896 46.8555C11.3241 46.4953 11.0404 46.0607 10.8577 45.5812C10.6751 45.1016 10.5977 44.5884 10.6308 44.0763C10.2902 44.0351 9.95177 44.0178 9.62417 43.9483C8.29207 43.6663 7.37869 42.8636 6.97298 41.5792C6.56727 40.2948 6.80593 39.0842 7.75836 38.1079C8.61533 37.2401 9.55474 36.4417 10.4508 35.6064C10.4935 35.5685 10.5283 35.5226 10.5533 35.4712C10.5782 35.4198 10.5928 35.364 10.5961 35.307C10.5592 34.8601 10.492 34.4153 10.4334 33.9749C9.83679 33.9749 9.26186 34.0205 8.69777 33.9749C7.84495 33.8759 7.05402 33.4805 6.46314 32.8576C4.41797 30.8327 2.38294 28.7991 0.358025 26.7568C-0.0758848 26.3229 -0.110597 25.876 0.227852 25.518C0.566302 25.16 1.06313 25.1709 1.50789 25.6113C3.46771 27.5625 5.42537 29.515 7.38086 31.4691C8.64137 32.7253 10.019 32.7318 11.2687 31.4843C14.212 28.5467 17.154 25.6077 20.0944 22.6672C21.3528 21.4089 21.3462 20.0377 20.0944 18.7816C19.7017 18.3845 19.3438 17.9506 18.9446 17.5037C18.7059 17.7207 18.5627 17.8552 18.4304 17.9897L8.29207 28.3298C8.15322 28.4708 8.0187 28.6205 7.85816 28.7485C7.70457 28.8879 7.50318 28.9629 7.2958 28.9578C7.08841 28.9527 6.89095 28.8679 6.7444 28.7211C6.59785 28.5743 6.51347 28.3766 6.50877 28.1693C6.50406 27.9619 6.5794 27.7606 6.71914 27.6073C6.82111 27.4815 6.9361 27.3708 7.05759 27.2558L17.3825 16.7205C17.4714 16.6315 17.5539 16.5361 17.5864 16.5035C16.3476 15.2235 15.1413 13.9305 13.8982 12.6895C10.2013 9.03161 6.49351 5.38026 2.7749 1.73542C2.65075 1.62575 2.53742 1.50443 2.43645 1.3731C2.31701 1.21929 2.25721 1.02748 2.26807 0.833046C2.27894 0.638609 2.35975 0.454657 2.49559 0.315117C2.63143 0.175576 2.81314 0.0898593 3.00722 0.0737719C3.20129 0.0576844 3.39464 0.112312 3.5516 0.227581C3.68076 0.326324 3.80059 0.43671 3.90958 0.557352C9.62851 6.1895 15.3503 11.8188 21.0751 17.4451C22.3074 18.6601 22.9105 20.0182 22.5634 21.6692ZM26.6204 52.1123C27.0717 52.5723 27.5056 53.0583 27.9894 53.4878C28.2003 53.676 28.4547 53.8087 28.7297 53.8738C29.0047 53.939 29.2916 53.9346 29.5645 53.861C29.8971 53.7977 30.2051 53.6421 30.4534 53.4118C30.7016 53.1816 30.88 52.8862 30.9682 52.5593C31.0779 52.2213 31.0879 51.8588 30.9971 51.5153C30.9063 51.1717 30.7185 50.8616 30.4562 50.6219L25.0084 45.1785C24.8756 45.0559 24.751 44.9247 24.6353 44.7858C24.5646 44.7128 24.5095 44.6262 24.4734 44.5313C24.4373 44.4364 24.4208 44.3351 24.4251 44.2336C24.4293 44.1321 24.4542 44.0326 24.4982 43.941C24.5422 43.8494 24.6043 43.7678 24.6808 43.701C24.7476 43.6251 24.8287 43.5632 24.9196 43.5189C25.0104 43.4746 25.1092 43.4488 25.2101 43.4429C25.311 43.4371 25.4121 43.4513 25.5074 43.4848C25.6028 43.5183 25.6905 43.5704 25.7656 43.6381C25.9069 43.751 26.039 43.8751 26.1605 44.0091C27.9511 45.7968 29.741 47.5859 31.5301 49.3765C31.9901 49.8387 32.5151 50.1185 33.1725 50.0491C33.5348 50.0168 33.8802 49.8807 34.1672 49.6572C34.4541 49.4336 34.6706 49.1321 34.7906 48.7886C34.9105 48.4452 34.929 48.0745 34.8436 47.7208C34.7582 47.3672 34.5727 47.0457 34.3093 46.7948C32.429 44.9145 30.5487 43.0342 28.6685 41.154C28.2194 40.7049 28.163 40.2254 28.5036 39.8696C28.8442 39.5138 29.3389 39.529 29.8227 40.0084C30.7715 40.9515 31.7181 41.8967 32.6626 42.844C33.6085 43.79 34.5371 44.7554 35.5091 45.6644C35.7511 45.9045 36.0536 46.0747 36.3844 46.1569C36.7153 46.239 37.0622 46.2302 37.3885 46.1312C37.7147 46.0323 38.0081 45.8469 38.2375 45.5948C38.467 45.3426 38.6239 45.0331 38.6918 44.699C38.848 43.9592 38.566 43.3626 38.0409 42.844C36.233 41.0476 34.4293 39.2462 32.6301 37.4397C32.489 37.2987 32.2699 37.1576 32.2504 37.0058C32.1866 36.6904 32.2191 36.3631 32.3437 36.0664C32.5411 35.7257 32.9425 35.6802 33.3048 35.8885C33.4711 35.9965 33.6228 36.1256 33.7561 36.2725C35.5611 38.0732 37.3467 39.8913 39.1799 41.6616C39.5582 42.012 40.0247 42.2527 40.5294 42.3581C41.2931 42.5099 42.0481 42.0131 42.38 41.3123C42.7467 40.5487 42.5818 39.7329 41.8919 39.0408C38.8545 36.0034 35.8106 32.9661 32.7602 29.9287C32.2179 29.3885 31.8317 29.3928 31.2828 29.9287C30.0787 31.1263 28.8963 32.3478 27.6705 33.5258C26.878 34.3238 25.8208 34.8041 24.6985 34.876C23.5761 34.9479 22.4663 34.6066 21.5784 33.9163C20.1617 32.812 20.0098 31.2586 21.2031 29.9157C22.6805 28.2538 24.1688 26.6028 25.6528 24.9453C25.8242 24.7543 25.9913 24.5569 26.1909 24.3313C24.9196 23.7773 23.5527 23.476 22.1663 23.4439C21.9979 23.4326 21.8292 23.4597 21.6728 23.5233C21.5165 23.5868 21.3766 23.685 21.2638 23.8106C18.5627 26.529 15.8877 29.2778 13.1128 31.9182C12.2189 32.7686 11.9 33.6169 12.1517 34.7711C12.219 35.077 12.2905 35.2224 12.6398 35.2723C13.3511 35.37 14.0138 35.6881 14.5349 36.182C15.0559 36.6758 15.4092 37.3205 15.5449 38.0255C15.6143 38.3531 15.6273 38.6937 15.6685 39.0408C16.1792 39.0101 16.6905 39.088 17.1688 39.2694C17.6471 39.4508 18.0815 39.7315 18.4434 40.093C18.7961 40.451 19.0694 40.8792 19.2455 41.3499C19.4215 41.8205 19.4964 42.323 19.4652 42.8245C22.0969 43.1413 22.891 43.9353 23.3704 46.6689C26.577 46.6711 27.972 49.8452 26.6204 52.1123ZM41.0523 36.0165L43.6557 33.2264C43.5299 33.0681 43.5017 33.0225 43.4626 32.9856L34.2941 23.8301C34.0947 23.6743 33.9225 23.4866 33.7843 23.2747C33.4675 22.5978 32.9165 22.5674 32.2656 22.5674C30.8142 22.5674 29.5732 22.971 28.5774 24.0861C26.5119 26.4097 24.4313 28.7181 22.3616 31.0287C21.8539 31.5993 21.8951 32.0701 22.4744 32.5604C23.6612 33.5692 25.3729 33.4868 26.5532 32.3434C27.7334 31.2001 28.8572 30.048 30.0093 28.8982C31.3305 27.5791 32.6604 27.5726 33.9708 28.8808C35.8511 30.7611 37.7314 32.6414 39.6117 34.5216C40.0781 34.9534 40.4947 35.435 41.0523 36.0165ZM37.312 16.8507C36.6394 17.5384 36.0102 18.1849 35.3767 18.825C34.2008 20.0139 34.1921 21.4111 35.3767 22.5913C36.8809 24.1013 38.3888 25.6084 39.9002 27.1126C41.4189 28.6183 42.9116 30.1326 44.4281 31.6296C45.3957 32.5864 46.7408 32.7296 47.7063 31.8878C48.4765 31.2174 49.1295 30.4147 49.8628 29.6445L37.312 16.8507ZM10.5159 42.4275C10.7328 42.3385 11.1667 42.2604 11.4596 42.0044C12.2204 41.3393 12.9371 40.6255 13.6053 39.8674C13.8952 39.5135 14.0407 39.0631 14.0125 38.6064C13.9844 38.1497 13.7847 37.7206 13.4534 37.405C13.1302 37.0691 12.6922 36.8675 12.2268 36.8405C11.7615 36.8136 11.3031 36.9633 10.9433 37.2596C10.2007 37.918 9.49795 38.62 8.83879 39.3619C8.32678 39.9368 8.2964 40.6636 8.62184 41.3427C8.94727 42.0218 9.54824 42.3776 10.5159 42.4275ZM14.3907 46.2459C14.6076 46.1483 15.0762 46.0289 15.4082 45.7426C16.0981 45.132 16.7502 44.4799 17.3608 43.79C17.6711 43.4337 17.836 42.9736 17.8226 42.5013C17.8093 42.029 17.6186 41.5791 17.2887 41.2409C16.9587 40.9027 16.5135 40.7011 16.0417 40.6762C15.5699 40.6512 15.1059 40.8047 14.7421 41.1062C14.0149 41.7549 13.326 42.4453 12.6789 43.1738C12.4385 43.4376 12.2868 43.7702 12.2451 44.1247C12.2035 44.4792 12.274 44.8379 12.4468 45.1503C12.7852 45.8489 13.3601 46.209 14.3885 46.2481L14.3907 46.2459ZM19.8145 51.9561C19.9664 52.824 20.3417 53.4097 21.0642 53.7352C21.3997 53.9022 21.7795 53.959 22.1492 53.8975C22.5189 53.8359 22.8598 53.6591 23.1231 53.3924C23.7458 52.8196 24.3402 52.21 24.9282 51.5982C25.707 50.7889 25.707 49.626 24.9499 48.8819C24.5901 48.5322 24.1069 48.3386 23.6053 48.3431C23.1036 48.3475 22.6239 48.5497 22.2705 48.9058C21.6559 49.4644 21.0715 50.0554 20.5196 50.6761C20.2029 51.0428 20.038 51.5287 19.8102 51.9583L19.8145 51.9561ZM19.552 44.4864C19.3221 44.5992 18.8621 44.7185 18.541 44.9984C17.8553 45.6135 17.2035 46.2653 16.5884 46.951C16.2722 47.3049 16.1015 47.7653 16.1105 48.2398C16.1195 48.7143 16.3075 49.1678 16.6369 49.5095C16.9662 49.8512 17.4125 50.0558 17.8864 50.0822C18.3602 50.1087 18.8266 49.955 19.1919 49.6521C19.9183 49.0018 20.6078 48.3116 21.2573 47.5845C21.7845 46.9922 21.8366 46.2719 21.4742 45.5603C21.1119 44.8487 20.5196 44.5471 19.5477 44.4886L19.552 44.4864Z" fill="white"/>
<path d="M27.757 18.0548C23.0881 18.0396 19.0788 14.3535 18.7772 9.81049C18.4561 4.86174 21.7842 0.722244 26.6223 0.082227C26.9617 0.0344485 27.3037 0.00763922 27.6464 0.00195312C28.2061 0.00195312 28.5511 0.297012 28.5749 0.769974C28.5988 1.24294 28.256 1.60742 27.6746 1.62478C26.5096 1.64427 25.3657 1.93773 24.3352 2.48142C23.3047 3.02512 22.4168 3.80377 21.7431 4.75436C21.0694 5.70495 20.629 6.80079 20.4575 7.95319C20.286 9.10559 20.3882 10.2822 20.7559 11.3877C21.8623 14.6724 24.9821 16.6684 28.5662 16.3777C31.7468 16.126 34.5043 13.5334 35.0706 10.2683C35.3454 8.67935 35.0909 7.04415 34.3462 5.61391C33.6015 4.18367 32.4077 3.03752 30.9484 2.35158C30.1912 1.9936 29.9482 1.60742 30.1674 1.10842C30.3865 0.609427 30.8638 0.509627 31.6579 0.891468C33.5095 1.77293 35.0058 3.25855 35.9005 5.1038C36.7953 6.94905 37.0351 9.04395 36.5805 11.0437C36.1259 13.0434 35.004 14.8287 33.3995 16.1058C31.7949 17.3829 29.8034 18.0756 27.7527 18.07L27.757 18.0548Z" fill="white"/>
<path d="M26.4744 10.9626C27.2446 10.1859 27.9518 9.46999 28.6613 8.75404C29.2861 8.12487 29.9088 7.4957 30.5401 6.87521C30.9957 6.42828 31.4622 6.39357 31.8201 6.76456C32.1781 7.13555 32.1217 7.5955 31.7073 8.01205C30.3579 9.37236 29.0084 10.7327 27.6394 12.0734C26.9256 12.772 26.0426 12.7547 25.3245 12.0734C24.8429 11.6092 24.3742 11.1319 23.9034 10.6567C23.4327 10.1816 23.3849 9.68911 23.7559 9.33331C24.1269 8.9775 24.589 9.04042 25.0381 9.48952C25.4872 9.93861 25.9602 10.4333 26.4744 10.9626Z" fill="white"/>
</svg>
