<svg width="51" height="60" viewBox="0 0 51 60" fill="none" xmlns="http://www.w3.org/2000/svg">
<mask id="path-1-outside-1_2:1084" maskUnits="userSpaceOnUse" x="0" y="0" width="51" height="60" fill="black">
<rect fill="white" width="51" height="60"/>
<path d="M19.1481 16.4062H17.3333V14.5938C17.3333 13.8687 17.6056 13.1437 18.15 12.6906C18.6944 12.1469 19.3296 11.875 20.0556 11.875H20.5093L22.3241 9.15625H24.5926V10.0625C24.5926 11.0594 25.4093 11.875 26.4074 11.875H30.9444C31.6704 11.875 32.3963 12.1469 32.85 12.6906C33.3037 13.2344 33.6667 13.8687 33.6667 14.5938V16.4062H31.8519V14.5938C31.8519 14.3219 31.7611 14.1406 31.5796 13.9594C31.3981 13.7781 31.2167 13.6875 30.9444 13.6875H26.4074C24.8648 13.6875 23.5037 12.6906 23.05 11.3312L21.4167 13.6875H20.0556C19.7833 13.6875 19.6019 13.7781 19.4204 13.9594C19.2389 14.1406 19.1481 14.3219 19.1481 14.5938V16.4062ZM50 44.5V59H48.1852V44.5C48.1852 41.9625 44.6463 39.425 38.8389 37.8844H38.7481L36.3889 36.7969V42.6875H31.8519H30.9444H29.4926L26.4074 45.7688V51.75H24.5926V45.7688L21.5074 42.6875H20.0556H19.1481H14.6111V36.7969L12.1611 37.8844C6.3537 39.425 2.81481 41.9625 2.81481 44.5V59H1V44.5C1 41.0563 4.90185 37.975 11.6167 36.1625L14.9741 34.7125C15.1556 34.1688 15.5185 33.625 15.9722 33.1719C16.6981 32.4469 17.6963 31.9937 18.7852 31.9031L19.2389 31.45V28.1875C16.9704 25.8312 15.7 22.2062 15.6093 18.5812L14.7019 17.675V10.9688C14.7019 9.06563 15.4278 7.25313 16.7889 5.80313C18.15 4.44375 19.9648 3.71875 21.8704 3.71875H25.5C26.4981 3.71875 27.3148 2.90313 27.3148 1.90625V1H28.2222C30.4 1 32.2148 2.54063 32.6685 4.625H32.7593C33.7574 4.625 34.6648 4.9875 35.3 5.7125C36.0259 6.34687 36.3889 7.25313 36.3889 8.25V17.675L35.4815 18.5812C35.3907 22.2062 34.2111 25.8312 31.8519 28.1875V31.3594L32.3056 31.8125C33.3944 31.9031 34.3019 32.3563 35.1185 33.0813C35.5722 33.5344 35.9352 34.0781 36.1167 34.6219L39.4741 36.0719C46.0981 37.975 50 41.0563 50 44.5ZM17.3333 17.8563V18.2188C17.3333 22.5688 19.5111 29.0938 25.5 29.0938C31.4889 29.0938 33.6667 22.5688 33.6667 18.2188V17.8563L34.5741 16.95V8.25C34.5741 7.79688 34.3926 7.34375 34.0296 6.98125C33.6667 6.61875 33.213 6.4375 32.7593 6.4375H30.9444V5.53125C30.9444 4.2625 30.1278 3.26562 28.9481 2.90312C28.5852 4.44375 27.1333 5.53125 25.5 5.53125H21.8704C20.4185 5.53125 19.0574 6.075 18.0593 7.1625C16.9704 8.15938 16.4259 9.51875 16.4259 10.9688V16.95L17.3333 17.8563ZM18.2407 33.8063C17.8778 33.8969 17.5148 34.1688 17.2426 34.4406C16.6981 34.8938 16.4259 35.6188 16.4259 36.3438V40.875H18.2407V33.8063ZM30.9444 40.875V33.0813L30.037 32.175V29.6375C28.7667 30.4531 27.2241 30.9062 25.5 30.9062C23.7759 30.9062 22.2333 30.4531 20.963 29.6375V32.175L20.0556 33.0813V40.875H22.2333L25.5 44.1375L28.7667 40.875H30.9444ZM34.5741 36.3438C34.5741 35.6188 34.3018 34.8938 33.7574 34.4406C33.4852 34.1688 33.1222 33.8969 32.7593 33.8063V40.875H34.5741V36.3438ZM7.44259 52.1125L8.25926 53.7438V59H10.0741V53.3812L9.07593 51.3875L7.44259 52.1125ZM40.9259 53.3812V59H42.7407V53.7438L43.5574 52.1125L41.9241 51.2969L40.9259 53.3812Z"/>
</mask>
<path d="M19.1481 16.4062H17.3333V14.5938C17.3333 13.8687 17.6056 13.1437 18.15 12.6906C18.6944 12.1469 19.3296 11.875 20.0556 11.875H20.5093L22.3241 9.15625H24.5926V10.0625C24.5926 11.0594 25.4093 11.875 26.4074 11.875H30.9444C31.6704 11.875 32.3963 12.1469 32.85 12.6906C33.3037 13.2344 33.6667 13.8687 33.6667 14.5938V16.4062H31.8519V14.5938C31.8519 14.3219 31.7611 14.1406 31.5796 13.9594C31.3981 13.7781 31.2167 13.6875 30.9444 13.6875H26.4074C24.8648 13.6875 23.5037 12.6906 23.05 11.3312L21.4167 13.6875H20.0556C19.7833 13.6875 19.6019 13.7781 19.4204 13.9594C19.2389 14.1406 19.1481 14.3219 19.1481 14.5938V16.4062ZM50 44.5V59H48.1852V44.5C48.1852 41.9625 44.6463 39.425 38.8389 37.8844H38.7481L36.3889 36.7969V42.6875H31.8519H30.9444H29.4926L26.4074 45.7688V51.75H24.5926V45.7688L21.5074 42.6875H20.0556H19.1481H14.6111V36.7969L12.1611 37.8844C6.3537 39.425 2.81481 41.9625 2.81481 44.5V59H1V44.5C1 41.0563 4.90185 37.975 11.6167 36.1625L14.9741 34.7125C15.1556 34.1688 15.5185 33.625 15.9722 33.1719C16.6981 32.4469 17.6963 31.9937 18.7852 31.9031L19.2389 31.45V28.1875C16.9704 25.8312 15.7 22.2062 15.6093 18.5812L14.7019 17.675V10.9688C14.7019 9.06563 15.4278 7.25313 16.7889 5.80313C18.15 4.44375 19.9648 3.71875 21.8704 3.71875H25.5C26.4981 3.71875 27.3148 2.90313 27.3148 1.90625V1H28.2222C30.4 1 32.2148 2.54063 32.6685 4.625H32.7593C33.7574 4.625 34.6648 4.9875 35.3 5.7125C36.0259 6.34687 36.3889 7.25313 36.3889 8.25V17.675L35.4815 18.5812C35.3907 22.2062 34.2111 25.8312 31.8519 28.1875V31.3594L32.3056 31.8125C33.3944 31.9031 34.3019 32.3563 35.1185 33.0813C35.5722 33.5344 35.9352 34.0781 36.1167 34.6219L39.4741 36.0719C46.0981 37.975 50 41.0563 50 44.5ZM17.3333 17.8563V18.2188C17.3333 22.5688 19.5111 29.0938 25.5 29.0938C31.4889 29.0938 33.6667 22.5688 33.6667 18.2188V17.8563L34.5741 16.95V8.25C34.5741 7.79688 34.3926 7.34375 34.0296 6.98125C33.6667 6.61875 33.213 6.4375 32.7593 6.4375H30.9444V5.53125C30.9444 4.2625 30.1278 3.26562 28.9481 2.90312C28.5852 4.44375 27.1333 5.53125 25.5 5.53125H21.8704C20.4185 5.53125 19.0574 6.075 18.0593 7.1625C16.9704 8.15938 16.4259 9.51875 16.4259 10.9688V16.95L17.3333 17.8563ZM18.2407 33.8063C17.8778 33.8969 17.5148 34.1688 17.2426 34.4406C16.6981 34.8938 16.4259 35.6188 16.4259 36.3438V40.875H18.2407V33.8063ZM30.9444 40.875V33.0813L30.037 32.175V29.6375C28.7667 30.4531 27.2241 30.9062 25.5 30.9062C23.7759 30.9062 22.2333 30.4531 20.963 29.6375V32.175L20.0556 33.0813V40.875H22.2333L25.5 44.1375L28.7667 40.875H30.9444ZM34.5741 36.3438C34.5741 35.6188 34.3018 34.8938 33.7574 34.4406C33.4852 34.1688 33.1222 33.8969 32.7593 33.8063V40.875H34.5741V36.3438ZM7.44259 52.1125L8.25926 53.7438V59H10.0741V53.3812L9.07593 51.3875L7.44259 52.1125ZM40.9259 53.3812V59H42.7407V53.7438L43.5574 52.1125L41.9241 51.2969L40.9259 53.3812Z" fill="#558CC9"/>
<path d="M19.1481 16.4062H17.3333V14.5938C17.3333 13.8687 17.6056 13.1437 18.15 12.6906C18.6944 12.1469 19.3296 11.875 20.0556 11.875H20.5093L22.3241 9.15625H24.5926V10.0625C24.5926 11.0594 25.4093 11.875 26.4074 11.875H30.9444C31.6704 11.875 32.3963 12.1469 32.85 12.6906C33.3037 13.2344 33.6667 13.8687 33.6667 14.5938V16.4062H31.8519V14.5938C31.8519 14.3219 31.7611 14.1406 31.5796 13.9594C31.3981 13.7781 31.2167 13.6875 30.9444 13.6875H26.4074C24.8648 13.6875 23.5037 12.6906 23.05 11.3312L21.4167 13.6875H20.0556C19.7833 13.6875 19.6019 13.7781 19.4204 13.9594C19.2389 14.1406 19.1481 14.3219 19.1481 14.5938V16.4062ZM50 44.5V59H48.1852V44.5C48.1852 41.9625 44.6463 39.425 38.8389 37.8844H38.7481L36.3889 36.7969V42.6875H31.8519H30.9444H29.4926L26.4074 45.7688V51.75H24.5926V45.7688L21.5074 42.6875H20.0556H19.1481H14.6111V36.7969L12.1611 37.8844C6.3537 39.425 2.81481 41.9625 2.81481 44.5V59H1V44.5C1 41.0563 4.90185 37.975 11.6167 36.1625L14.9741 34.7125C15.1556 34.1688 15.5185 33.625 15.9722 33.1719C16.6981 32.4469 17.6963 31.9937 18.7852 31.9031L19.2389 31.45V28.1875C16.9704 25.8312 15.7 22.2062 15.6093 18.5812L14.7019 17.675V10.9688C14.7019 9.06563 15.4278 7.25313 16.7889 5.80313C18.15 4.44375 19.9648 3.71875 21.8704 3.71875H25.5C26.4981 3.71875 27.3148 2.90313 27.3148 1.90625V1H28.2222C30.4 1 32.2148 2.54063 32.6685 4.625H32.7593C33.7574 4.625 34.6648 4.9875 35.3 5.7125C36.0259 6.34687 36.3889 7.25313 36.3889 8.25V17.675L35.4815 18.5812C35.3907 22.2062 34.2111 25.8312 31.8519 28.1875V31.3594L32.3056 31.8125C33.3944 31.9031 34.3019 32.3563 35.1185 33.0813C35.5722 33.5344 35.9352 34.0781 36.1167 34.6219L39.4741 36.0719C46.0981 37.975 50 41.0563 50 44.5ZM17.3333 17.8563V18.2188C17.3333 22.5688 19.5111 29.0938 25.5 29.0938C31.4889 29.0938 33.6667 22.5688 33.6667 18.2188V17.8563L34.5741 16.95V8.25C34.5741 7.79688 34.3926 7.34375 34.0296 6.98125C33.6667 6.61875 33.213 6.4375 32.7593 6.4375H30.9444V5.53125C30.9444 4.2625 30.1278 3.26562 28.9481 2.90312C28.5852 4.44375 27.1333 5.53125 25.5 5.53125H21.8704C20.4185 5.53125 19.0574 6.075 18.0593 7.1625C16.9704 8.15938 16.4259 9.51875 16.4259 10.9688V16.95L17.3333 17.8563ZM18.2407 33.8063C17.8778 33.8969 17.5148 34.1688 17.2426 34.4406C16.6981 34.8938 16.4259 35.6188 16.4259 36.3438V40.875H18.2407V33.8063ZM30.9444 40.875V33.0813L30.037 32.175V29.6375C28.7667 30.4531 27.2241 30.9062 25.5 30.9062C23.7759 30.9062 22.2333 30.4531 20.963 29.6375V32.175L20.0556 33.0813V40.875H22.2333L25.5 44.1375L28.7667 40.875H30.9444ZM34.5741 36.3438C34.5741 35.6188 34.3018 34.8938 33.7574 34.4406C33.4852 34.1688 33.1222 33.8969 32.7593 33.8063V40.875H34.5741V36.3438ZM7.44259 52.1125L8.25926 53.7438V59H10.0741V53.3812L9.07593 51.3875L7.44259 52.1125ZM40.9259 53.3812V59H42.7407V53.7438L43.5574 52.1125L41.9241 51.2969L40.9259 53.3812Z" stroke="#558CC9" mask="url(#path-1-outside-1_2:1084)"/>
</svg>
