<svg width="34" height="51" viewBox="0 0 34 51" fill="none" xmlns="http://www.w3.org/2000/svg">
<path d="M9.79983 37.9985C8.19586 38.0344 6.65865 38.1319 5.26279 38.9779C2.97758 40.3714 1.79178 42.4298 1.72896 45.1271C1.69165 46.7515 1.72896 48.3778 1.71914 50.0042C1.71914 50.6014 1.40894 50.9757 0.914206 50.9995C0.496036 51.0135 0.0641279 50.7049 0.0719809 50.261C0.109282 47.8722 -0.232327 45.4396 0.31149 43.0707C0.750804 41.1633 1.81323 39.4626 3.32617 38.2447C4.83912 37.0268 6.7137 36.3634 8.64544 36.3622C9.53009 36.372 10.386 36.0439 11.0429 35.443C11.6999 34.8422 12.1097 34.0127 12.1911 33.1194C12.2205 32.8049 12.191 32.5859 11.8553 32.4008C8.20567 30.3783 6.2071 27.247 5.83212 23.0447C5.83212 22.9631 5.81641 22.8815 5.8066 22.7819L5.4493 22.6406C4.78786 22.4047 4.21517 21.966 3.81063 21.3853C3.40609 20.8047 3.18974 20.1107 3.19157 19.3998C3.17587 15.9493 3.17587 12.4988 3.19157 9.04836C3.19157 7.32046 4.28509 5.95089 5.92047 5.45123C6.15263 5.36774 6.34856 5.20431 6.4741 4.98941C8.21353 1.85412 10.8521 0.166032 14.3879 0.0485827C16.9048 -0.0350251 19.4256 0.00876994 21.9444 0.0366392C26.7799 0.0864057 30.832 4.10954 30.9262 9.0205C30.993 12.4365 30.9459 15.8544 30.942 19.2704C30.942 19.8676 30.6121 20.2339 30.1154 20.2418C29.6187 20.2498 29.2712 19.8875 29.2712 19.2465C29.2712 15.946 29.283 12.6455 29.2712 9.34298C29.2808 7.72105 28.7743 6.13923 27.8267 4.83243C26.8792 3.52563 25.5414 2.56353 24.0117 2.08901C23.2921 1.87012 22.5464 1.75224 21.7952 1.73866C19.4236 1.69486 17.0501 1.6869 14.6804 1.73866C11.4489 1.79838 9.11466 3.33118 7.73843 6.30125C7.65893 6.51623 7.51883 6.70277 7.33556 6.83762C7.15229 6.97248 6.93395 7.04971 6.70773 7.05969C5.57887 7.18112 4.87603 7.98136 4.8721 9.13595C4.86032 12.5201 4.86032 15.9042 4.8721 19.2883C4.85689 19.6227 4.93596 19.9547 5.10007 20.2452C5.26419 20.5357 5.50654 20.7727 5.79875 20.9286C5.80856 20.7077 5.82231 20.5504 5.82231 20.3951C5.82231 18.4376 5.82231 16.4802 5.82231 14.5227C5.82231 13.6627 6.11483 13.386 6.95117 13.4358C8.69649 13.5433 10.0178 12.4404 10.3417 10.5971C10.381 10.3682 10.4045 10.1372 10.43 9.90633C10.5086 9.16182 11.1505 8.83735 11.7807 9.23548C12.5287 9.70926 13.2551 10.2308 14.0208 10.6648C16.9357 12.3555 20.1386 13.4745 23.462 13.9633C24.1707 14.0708 24.532 14.6202 24.265 15.1836C24.0431 15.6494 23.6387 15.7191 23.1813 15.6474C21.0924 15.3189 19.0329 14.8511 17.0952 14.0031C15.3401 13.2467 13.6399 12.3628 11.875 11.5168C11.2467 13.5711 9.84694 14.9009 7.53817 15.1438C7.52639 15.295 7.50873 15.4225 7.50873 15.5419C7.50873 17.8312 7.49499 20.1204 7.50873 22.4097C7.54407 27.3863 11.3724 31.5826 16.2157 31.9648C18.6046 32.1666 20.981 31.4496 22.8725 29.9562C24.7639 28.4629 26.032 26.3026 26.4245 23.9047C26.509 23.3307 26.5497 22.7511 26.5463 22.1708C26.56 19.997 26.5463 17.8252 26.5463 15.6514C26.5396 15.502 26.5442 15.3522 26.56 15.2035C26.5888 14.9958 26.6915 14.806 26.8489 14.67C27.0062 14.5339 27.2072 14.461 27.414 14.4649C27.6211 14.4734 27.8177 14.5596 27.9657 14.7067C28.1137 14.8538 28.2025 15.0514 28.215 15.2612C28.215 15.3607 28.215 15.4603 28.215 15.5598C28.215 17.7993 28.2248 20.0388 28.215 22.2783C28.1856 27.886 24.4122 32.4844 18.974 33.5255C17.4896 33.8074 15.963 33.7653 14.4959 33.4021C14.2996 33.3563 14.119 33.3145 13.9423 33.2747C13.7459 33.8898 13.5496 34.481 13.3808 35.0782C13.3694 35.13 13.3691 35.1836 13.38 35.2355C13.3908 35.2873 13.4125 35.3362 13.4436 35.3788C14.6215 36.7126 15.7995 38.0403 17.0049 39.4039C17.4898 38.8426 17.9335 38.317 18.389 37.8114C18.7601 37.3914 19.1743 37.3058 19.5669 37.5486C19.9596 37.7915 20.0146 38.1458 19.8379 38.6833C19.8065 38.7789 19.7829 38.9302 19.8379 38.9919C20.4661 39.7483 21.1101 40.4908 21.8011 41.301C22.0877 39.9972 22.3606 38.7908 22.6041 37.5785C22.6296 37.4511 22.5059 37.26 22.4077 37.1465C21.9641 36.6648 21.4654 36.2308 21.0571 35.7212C20.6487 35.2116 20.7527 34.706 21.1631 34.4114C21.5734 34.1167 22.0681 34.2441 22.4176 34.7557C22.7473 35.2591 23.1967 35.6702 23.7245 35.9509C24.2522 36.2317 24.8412 36.3732 25.437 36.3622C27.6627 36.3842 29.7938 37.2781 31.3844 38.8568C32.975 40.4355 33.9019 42.5767 33.9712 44.8325C34.0242 46.5564 33.9889 48.2823 33.983 50.0082C33.983 50.6173 33.6178 51.0035 33.1113 50.9896C32.6048 50.9756 32.3143 50.6074 32.3103 49.9943C32.3103 48.4356 32.3103 46.8749 32.3103 45.3162C32.2985 41.1736 29.3399 38.1339 25.2427 38.0483C24.9187 38.0483 24.5968 37.9946 24.2336 37.9647C23.9214 39.394 23.6093 40.8153 23.301 42.2347C23.2225 42.591 23.1656 42.9513 23.0694 43.3017C22.873 44.0163 22.1172 44.2174 21.6146 43.6759C21.0806 43.0986 20.5819 42.4815 19.9714 41.7788C20.1677 43.3116 20.3306 44.6951 20.4995 46.0806C20.6507 47.3148 20.8077 48.547 20.9471 49.7812C21.0296 50.5098 20.7802 50.9199 20.2462 50.9756C19.7122 51.0314 19.3667 50.6631 19.2823 49.9664C18.9158 46.9565 18.548 43.9466 18.1789 40.9367C18.1749 40.9074 18.1656 40.8791 18.1514 40.8531C17.7725 41.0801 17.3995 41.4762 17.0226 41.4782C16.6456 41.4802 16.2648 41.0801 15.8643 40.8571C15.7288 41.952 15.5855 43.0946 15.4441 44.2412C15.2066 46.1821 14.9749 48.123 14.7315 50.0639C14.653 50.689 14.2799 51.0334 13.7813 50.9776C13.2826 50.9219 12.996 50.5138 13.0686 49.8788C13.3847 47.2312 13.7106 44.5836 14.0502 41.7828L13.0608 42.9314C12.8644 43.1563 12.6681 43.3793 12.4816 43.6082C12.381 43.7498 12.2406 43.8575 12.0789 43.9171C11.9171 43.9768 11.7414 43.9858 11.5745 43.9428C11.4077 43.8999 11.2574 43.807 11.1433 43.6764C11.0292 43.5457 10.9564 43.3832 10.9346 43.2101C10.6375 41.8299 10.341 40.4537 10.0452 39.0814C9.96278 38.7271 9.88229 38.3748 9.79983 37.9985ZM12.2814 36.6369C12.0281 36.836 11.7925 36.9853 11.5903 37.1744C11.5402 37.2197 11.5001 37.2752 11.4727 37.3373C11.4453 37.3994 11.4312 37.4667 11.4313 37.5347C11.6806 38.759 11.9535 39.9792 12.2401 41.299L14.2917 38.9103L12.2814 36.6369Z" fill="white"/>
</svg>
