<svg width="22" height="18" viewBox="0 0 22 18" fill="none" xmlns="http://www.w3.org/2000/svg">
<path fill-rule="evenodd" clip-rule="evenodd" d="M9.26609 11.5835L14.8433 11.4919L8.9021 16.7373L9.26609 11.5835Z" fill="#2C90D7"/>
<path fill-rule="evenodd" clip-rule="evenodd" d="M20.8845 0.0431854C21.4833 -0.154416 21.8146 0.361744 21.8146 0.867598L18.4683 16.8036C18.4683 17.3095 17.6229 17.6816 17.1924 17.4442L9.17299 11.6747L6.29241 10.3925L1.27228 8.74369C0.841757 8.50629 0.47385 8.29091 0.80783 7.64465C1.14181 6.99838 20.8845 0.0431854 20.8845 0.0431854Z" fill="#2C90D7"/>
<path fill-rule="evenodd" clip-rule="evenodd" d="M18.3747 3.06596C18.6043 3.32269 16.4413 5.16049 14.2848 7.09579C11.8452 9.28473 9.3586 11.5836 9.3586 11.5836L8.98678 16.7123C8.98678 16.7123 8.7102 16.8232 8.33578 16.2544C8.04616 15.8152 7.67044 14.7841 7.49954 14.1479C7.10685 12.6877 6.56934 10.3929 6.56934 10.3929C6.56934 10.3929 18.0303 2.68081 18.3747 3.06596Z" fill="#C9DAEA"/>
</svg>
