<svg width="42" height="51" viewBox="0 0 42 51" fill="none" xmlns="http://www.w3.org/2000/svg">
<path d="M20.6673 37.6915C16.2383 37.6915 12.6351 34.0564 12.6351 29.5888C12.6351 25.1212 16.2386 21.4863 20.6673 21.4863V23.1251C17.1341 23.1251 14.2596 26.0248 14.2596 29.5888C14.2596 33.1528 17.1341 36.0528 20.6673 36.0528C24.2006 36.0528 27.0751 33.153 27.0751 29.5888H28.6996C28.6996 34.0564 25.0963 37.6915 20.6673 37.6915Z" fill="white"/>
<path d="M32.1726 14.2776C28.8394 11.7277 24.8609 10.38 20.6671 10.38C16.4734 10.38 12.4949 11.7279 9.16186 14.2779L8.18036 12.972C11.7979 10.2042 16.1159 8.74121 20.6671 8.74121C25.2184 8.74121 29.5364 10.2042 33.1541 12.9718L32.1726 14.2776Z" fill="white"/>
<path d="M20.6673 50.439C9.27151 50.439 0 41.0859 0 29.5904C0 24.9967 1.4515 20.6411 4.19775 16.9937L5.49151 17.9845C2.9615 21.3445 1.6245 25.3579 1.6245 29.5904C1.6245 40.1826 10.1668 48.8003 20.6673 48.8003C31.1678 48.8003 39.7103 40.1826 39.7103 29.5904C39.7103 25.3579 38.3728 21.3445 35.843 17.9845L37.137 16.9937C39.8833 20.6409 41.3345 24.9967 41.3345 29.5904C41.3345 41.0859 32.0633 50.439 20.6673 50.439Z" fill="white"/>
<path d="M20.6671 46.7956C11.2616 46.7956 3.60983 39.0762 3.60983 29.5887C3.60983 20.101 11.2618 12.3818 20.6671 12.3818C30.0726 12.3818 37.7244 20.1007 37.7244 29.5887C37.7244 39.076 30.0726 46.7956 20.6671 46.7956ZM20.6671 14.0206C12.1573 14.0206 5.23433 21.0041 5.23433 29.5885C5.23433 38.1726 12.1576 45.1566 20.6671 45.1566C29.1766 45.1566 36.0999 38.1726 36.0999 29.5885C36.0999 21.0041 29.1766 14.0206 20.6671 14.0206Z" fill="white"/>
<path d="M37.8358 13.4291L36.6873 12.2705L31.5819 17.4207L32.7304 18.5793L37.8358 13.4291Z" fill="white"/>
<path d="M39.7492 14.2021L35.9201 10.3394L34.7716 11.4979L38.6007 15.3607L39.7492 14.2021Z" fill="white"/>
<path d="M9.75467 17.4217L4.64923 12.2715L3.50055 13.4302L8.60599 18.5805L9.75467 17.4217Z" fill="white"/>
<path d="M6.56437 11.4996L5.41583 10.3403L1.5858 14.2018L2.73434 15.361L6.56437 11.4996Z" fill="white"/>
<path d="M21.4794 3.36865H19.8549V9.5605H21.4794V3.36865Z" fill="white"/>
<path d="M24.6382 6.73709H16.6962C15.8047 6.73709 14.9659 6.38679 14.3349 5.75101C13.7044 5.11397 13.3569 4.26812 13.3569 3.36854C13.3569 2.46897 13.7042 1.62312 14.3347 0.986832C14.9659 0.350296 15.8047 0 16.6962 0H24.6382C25.5297 0 26.3684 0.350296 26.9994 0.986328C27.6302 1.62312 27.9774 2.46922 27.9774 3.3688C27.9774 4.26837 27.6302 5.11423 26.9999 5.75051C26.3684 6.38679 25.5297 6.73709 24.6382 6.73709ZM16.6962 1.63875C16.2382 1.63875 15.8074 1.81882 15.4834 2.14566C15.1597 2.472 14.9814 2.90678 14.9814 3.3688C14.9814 3.83081 15.1597 4.26534 15.4839 4.59244C15.8074 4.91852 16.2384 5.09859 16.6962 5.09859H24.6382C25.0962 5.09859 25.5272 4.91878 25.8512 4.59193C26.1747 4.26534 26.3532 3.83081 26.3532 3.3688C26.3532 2.90678 26.1747 2.47225 25.8507 2.1449C25.5272 1.81882 25.0962 1.63875 24.6382 1.63875H16.6962Z" fill="white"/>
<path d="M37.8355 13.4291L36.687 12.2705L31.5816 17.4207L32.7301 18.5793L37.8355 13.4291Z" fill="white"/>
<path d="M9.75467 17.4217L4.64923 12.2715L3.50055 13.4302L8.60599 18.5805L9.75467 17.4217Z" fill="white"/>
<path d="M20.6675 32.5927C19.0255 32.5927 17.6892 31.2448 17.6892 29.5884C17.6892 27.932 19.0255 26.584 20.6675 26.584C22.3095 26.584 23.6457 27.932 23.6457 29.5884C23.6457 31.2448 22.3095 32.5927 20.6675 32.5927ZM20.6675 28.2227C19.9212 28.2227 19.3137 28.8353 19.3137 29.5884C19.3137 30.3414 19.9212 30.954 20.6675 30.954C21.4137 30.954 22.0212 30.3414 22.0212 29.5884C22.0212 28.8353 21.4137 28.2227 20.6675 28.2227Z" fill="white"/>
<path d="M30.3928 28.769H22.8331V30.4078H30.3928V28.769Z" fill="white"/>
<path d="M21.4794 15.9541H19.8549V17.7749H21.4794V15.9541Z" fill="white"/>
<path d="M25.6151 16.8747L24.0702 16.3682L23.5123 18.0998L25.0572 18.6063L25.6151 16.8747Z" fill="white"/>
<path d="M29.2694 19.0401L27.9553 18.0771L26.8945 19.5504L28.2086 20.5133L29.2694 19.0401Z" fill="white"/>
<path d="M32.0796 22.2383L31.125 20.9126L29.6646 21.9827L30.6191 23.3084L32.0796 22.2383Z" fill="white"/>
<path d="M33.7715 26.1541L33.2696 24.5947L31.5529 25.157L32.0547 26.7163L33.7715 26.1541Z" fill="white"/>
<path d="M34.1835 28.77H32.3785V30.4088H34.1835V28.77Z" fill="white"/>
</svg>
