<svg width="45" height="54" viewBox="0 0 45 54" fill="none" xmlns="http://www.w3.org/2000/svg">
<path d="M22.3551 43.5146C20.3633 43.5146 18.3723 43.5146 16.3819 43.5146C15.4573 43.5146 15.2602 43.2525 15.212 42.3237C15.1721 41.2096 15.0579 40.0995 14.8703 39.0006C14.5893 37.5099 13.8429 36.275 12.7359 35.1848C5.92411 28.526 7.83201 17.1185 16.4071 12.9651C24.5167 9.03819 34.2009 13.8436 35.9054 22.7059C36.8027 27.3624 35.5804 31.5283 32.2489 34.8787C30.2069 36.9334 29.5988 39.3382 29.5234 42.0428C29.5234 42.2 29.5234 42.3572 29.5234 42.5145C29.4793 43.2378 29.2047 43.5083 28.4751 43.5125C26.4414 43.5188 24.3972 43.5146 22.3551 43.5146ZM27.8545 41.7828C27.9132 41.1538 27.9488 40.5814 28.0243 40.0133C28.343 37.5728 29.2571 35.4574 31.0811 33.7004C33.0876 31.7674 34.1568 29.2976 34.3958 26.5301C34.7544 22.4019 33.3769 18.9194 30.2781 16.1352C26.5881 12.8204 20.5898 12.204 16.3505 14.7766C12.1112 17.3491 10.0292 21.1628 10.2871 26.1506C10.3887 29.0195 11.6067 31.7353 13.6815 33.7193C15.451 35.4259 16.3589 37.4659 16.6922 39.8309C16.7845 40.4787 16.8327 41.1328 16.9019 41.7912L27.8545 41.7828Z" fill="white"/>
<path d="M22.34 48.6284C20.4908 48.6284 18.6416 48.6431 16.7924 48.6284C16.3097 48.6184 15.8459 48.4389 15.4823 48.1214C15.1186 47.8038 14.8783 47.3685 14.8033 46.8916C14.7283 46.4147 14.8235 45.9266 15.0721 45.5128C15.3208 45.099 15.7071 44.7858 16.1634 44.6281C16.4626 44.5345 16.7745 44.4878 17.088 44.4898C20.5949 44.48 24.1018 44.48 27.6087 44.4898C28.8918 44.4898 29.8038 45.232 29.9149 46.3159C30.0386 47.6095 29.1099 48.6221 27.7429 48.6368C25.9461 48.6557 24.1493 48.6368 22.3525 48.6368L22.34 48.6284ZM22.3588 46.1125H20.8912C19.5829 46.1125 18.2747 46.0978 16.9685 46.1293C16.7945 46.1293 16.6246 46.3662 16.4527 46.4941C16.6028 46.6473 16.7655 46.7875 16.9391 46.9134C17.0272 46.9679 17.1781 46.926 17.2997 46.926H27.3969C27.5353 46.926 27.7051 46.9679 27.8163 46.9071C27.9714 46.8149 28.1915 46.6409 28.1853 46.513C28.179 46.3851 27.9588 46.2132 27.7995 46.123C27.6926 46.0622 27.5269 46.1083 27.3802 46.1083L22.3588 46.1125Z" fill="white"/>
<path d="M22.3292 53.6563C21.1069 53.6563 19.8846 53.6563 18.6623 53.6563C17.3645 53.6563 16.4231 52.7925 16.3979 51.6121C16.3728 50.4318 17.3288 49.5155 18.6497 49.4988C21.1111 49.4848 23.5732 49.4848 26.036 49.4988C27.3757 49.4988 28.3129 50.3919 28.294 51.5954C28.2751 52.7988 27.3275 53.6521 25.9878 53.6563C24.7738 53.6605 23.5515 53.6563 22.3292 53.6563ZM22.4089 51.1404C21.1698 51.1404 19.9307 51.1404 18.6916 51.1404C18.3981 51.1404 18.0815 51.1404 18.0857 51.5346C18.0899 51.9287 18.3981 51.9539 18.6937 51.9539H26.0318C26.3316 51.9539 26.6293 51.9036 26.6104 51.522C26.5937 51.1739 26.3106 51.1509 26.0297 51.1509C24.8158 51.132 23.6123 51.1299 22.4089 51.1299V51.1404Z" fill="white"/>
<path d="M13.153 9.62334C12.958 9.83299 12.7735 10.1265 12.5051 10.2838C12.1634 10.4934 11.8111 10.3278 11.5868 10.0175C11.2807 9.59818 11.0081 9.14531 10.7251 8.70503C9.9913 7.55889 9.25889 6.41135 8.52788 5.26242C8.30354 4.91229 8.19452 4.51184 8.50272 4.20364C8.72842 4.00324 9.02068 3.89411 9.32249 3.89754C9.44691 3.92272 9.56494 3.97286 9.66944 4.04493C9.77394 4.117 9.86275 4.2095 9.9305 4.31686C10.9369 5.84947 11.9181 7.39675 12.8972 8.94404C13.0018 9.16271 13.0873 9.38998 13.153 9.62334Z" fill="white"/>
<path d="M23.1863 3.76339C23.1863 4.63557 23.1863 5.50985 23.1863 6.38203C23.1863 7.04246 22.8488 7.43033 22.333 7.41775C21.8172 7.40517 21.5216 7.0152 21.5195 6.39251C21.5195 4.61181 21.5195 2.8304 21.5195 1.0483C21.5195 0.402546 21.8655 0 22.3687 0C22.8718 0 23.18 0.419319 23.1842 1.03152C23.1905 1.94774 23.1863 2.85556 23.1863 3.76339Z" fill="white"/>
<path d="M43.9836 12.7783C44.1723 12.9251 44.5392 13.0676 44.6125 13.2962C44.6901 13.5771 44.5329 13.9252 44.4385 14.248C44.4113 14.3382 44.254 14.399 44.1471 14.4577C42.5516 15.3215 40.9582 16.1895 39.3585 17.0428C38.7295 17.3761 38.1571 17.1455 38.0502 16.5375C38.0094 16.3559 38.0316 16.1659 38.1132 15.9986C38.1947 15.8314 38.3307 15.6968 38.4989 15.6171C40.1384 14.7254 41.7814 13.8399 43.428 12.9607C43.6084 12.8862 43.7941 12.8253 43.9836 12.7783Z" fill="white"/>
<path d="M0.73867 12.749C0.984594 12.8298 1.22604 12.9235 1.462 13.03C2.9967 13.8581 4.5356 14.68 6.04934 15.5459C6.32415 15.7095 6.52819 15.9696 6.62171 16.2755C6.63732 16.4147 6.61874 16.5556 6.56759 16.6861C6.51645 16.8165 6.43427 16.9325 6.32819 17.024C6.19511 17.0925 6.04929 17.1327 5.8999 17.1421C5.75051 17.1515 5.6008 17.1298 5.4602 17.0785C4.90482 16.8268 4.3644 16.5433 3.84163 16.2294C2.72345 15.6214 1.60526 15.0112 0.48708 14.399C0.1055 14.1894 -0.120933 13.8455 0.0677609 13.4493C0.199846 13.1579 0.524818 12.9608 0.73867 12.749Z" fill="white"/>
<path d="M36.8317 4.83096C36.738 5.06443 36.6302 5.29198 36.5089 5.51236C35.4983 7.04147 34.4828 8.56709 33.4625 10.0892C33.1333 10.5798 32.714 10.6888 32.3073 10.4226C31.9005 10.1563 31.7936 9.70135 32.0976 9.23381C33.1291 7.65717 34.1795 6.08892 35.2299 4.52696C35.4543 4.1936 35.7981 3.99862 36.1755 4.20199C36.4397 4.33198 36.62 4.61292 36.8317 4.83096Z" fill="white"/>
<path d="M33.0494 25.3063C33.0494 25.4635 33.0494 25.6208 33.0494 25.778C33.0502 25.9886 32.9717 26.1918 32.8295 26.3472C32.6873 26.5026 32.4919 26.5988 32.2821 26.6167C32.0693 26.6335 31.8585 26.5656 31.6955 26.4278C31.5326 26.29 31.4307 26.0934 31.412 25.8808C31.3428 25.4342 31.347 24.9771 31.282 24.5285C30.9903 22.4432 29.9779 20.5258 28.4204 19.1089C26.8629 17.6919 24.8586 16.8648 22.7551 16.7711C22.6335 16.7711 22.5098 16.7711 22.3882 16.7543C21.8641 16.704 21.5014 16.335 21.5223 15.8863C21.5433 15.4376 21.9249 15.0896 22.4595 15.0938C23.8443 15.091 25.2145 15.3766 26.4829 15.9324C30.5314 17.7439 32.6804 20.9055 33.0494 25.3063Z" fill="white"/>
</svg>
