<svg width="51" height="51" viewBox="0 0 51 51" fill="none" xmlns="http://www.w3.org/2000/svg">
<path d="M45.6418 22.0086C46.7162 20.94 47.6873 19.9738 48.6624 19.0096C48.7949 18.8671 48.9408 18.7377 49.0983 18.6231C49.2533 18.5207 49.439 18.4744 49.6243 18.492C49.8096 18.5096 49.9831 18.5901 50.1156 18.7198C50.2481 18.8496 50.3316 19.0207 50.3519 19.2044C50.3722 19.3881 50.3282 19.5732 50.2271 19.7284C50.135 19.8601 50.0301 19.9824 49.9138 20.0936C48.5047 21.4952 47.0944 22.8956 45.6827 24.2946C45.0463 24.9245 44.6746 24.9226 44.042 24.2946C42.6421 22.9072 41.2434 21.5184 39.846 20.1284C39.7138 20.0101 39.5956 19.8772 39.4937 19.7323C39.384 19.5795 39.334 19.3924 39.3529 19.2057C39.3719 19.0191 39.4586 18.8457 39.5969 18.7178C39.7158 18.5827 39.8803 18.4954 40.0595 18.4723C40.2387 18.4492 40.4202 18.4918 40.57 18.5922C40.7322 18.698 40.8811 18.8225 41.0137 18.9632C41.9654 19.9023 42.9132 20.8453 43.8883 21.8154C43.717 12.7873 35.7667 2.96706 24.0972 2.57865C24.0972 3.23566 24.0972 3.89073 24.0972 4.5458C24.1051 4.73965 24.0941 4.9338 24.0641 5.12551C24.0332 5.32743 23.9242 5.50944 23.7603 5.63284C23.5964 5.75625 23.3905 5.81133 23.1863 5.78638C22.9864 5.77882 22.7974 5.69357 22.6602 5.54898C22.5229 5.4044 22.4484 5.21207 22.4526 5.01343C22.4234 4.38735 22.4409 3.75739 22.439 3.12937C22.439 2.95546 22.439 2.78155 22.439 2.60764C12.2019 2.65981 2.77046 11.4965 2.60114 22.2907H5.26551C5.42705 22.2907 5.59053 22.2907 5.75207 22.2907C6.28923 22.3139 6.65317 22.6482 6.65123 23.1101C6.64928 23.5719 6.28923 23.9197 5.74818 23.9294C4.84124 23.9468 3.93235 23.9294 3.02347 23.9294H2.4396C2.66925 25.3342 2.79965 26.6946 3.12467 28.0105C4.14667 32.2745 6.53747 36.0929 9.93645 38.8898C12.6658 41.1951 15.9688 42.7301 19.5002 43.3342C20.3916 43.4907 21.3004 43.5429 22.1957 43.6743C22.4876 43.7168 22.8594 43.7825 23.019 43.9796C23.1022 44.1075 23.1584 44.2509 23.1842 44.4011C23.2099 44.5512 23.2047 44.705 23.1688 44.8531C23.0715 45.2395 22.6862 45.3709 22.3066 45.3284C21.0377 45.1816 19.7396 45.1352 18.5076 44.8279C9.20467 42.5091 3.27453 36.712 1.31663 27.3999C-1.23292 15.2782 6.75632 3.99701 18.276 1.44242C24.3696 0.089761 30.1363 1.02889 35.3677 4.41826C41.2531 8.23082 44.661 13.6608 45.5348 20.6192C45.5601 20.826 45.5893 21.0347 45.6068 21.2434C45.6243 21.4521 45.6224 21.6511 45.6418 22.0086Z" fill="white"/>
<path d="M47.3551 45.3944C48.1569 45.3944 48.8984 45.3944 49.6399 45.3944C50.29 45.3944 50.6792 45.7229 50.6637 46.2312C50.6481 46.7394 50.2744 47.0331 49.6458 47.0408C48.9023 47.0408 48.1608 47.0408 47.3551 47.0408C47.3551 47.7442 47.3551 48.4147 47.3551 49.0833C47.3628 49.2774 47.3497 49.4717 47.3162 49.663C47.2823 49.8602 47.1757 50.0378 47.0171 50.1611C46.8585 50.2843 46.6593 50.3445 46.4584 50.3298C46.2575 50.315 46.0694 50.2265 45.9307 50.0814C45.7921 49.9363 45.7129 49.7451 45.7086 49.5452C45.6833 48.9017 45.6969 48.2582 45.695 47.6128C45.695 47.4408 45.695 47.2669 45.695 47.0428H45.0741C41.7513 47.0428 38.4291 47.0428 35.1075 47.0428C34.7066 47.0428 34.3582 46.9519 34.1655 46.5751C33.9729 46.1983 34.0955 45.8872 34.3173 45.5819L34.4867 45.3461L41.8706 34.8708C43.1149 33.1046 44.3605 31.3397 45.6074 29.5761C45.7049 29.4282 45.8171 29.2903 45.9421 29.1645C46.0434 29.0533 46.1744 28.973 46.3199 28.933C46.4654 28.893 46.6193 28.8948 46.7638 28.9384C46.9082 28.9819 47.0372 29.0654 47.1357 29.179C47.2342 29.2926 47.2981 29.4316 47.3201 29.5799C47.3529 29.7713 47.3646 29.9657 47.3551 30.1596C47.3551 35.0189 47.3551 39.8788 47.3551 44.7394V45.3944ZM45.6599 45.3828V32.3799L36.4932 45.3828H45.6599Z" fill="white"/>
<path d="M25.0785 48.6865H34.5138C34.692 48.6761 34.8708 48.6852 35.047 48.7135C35.2259 48.7401 35.3895 48.8289 35.5086 48.9641C35.6277 49.0993 35.6945 49.2721 35.6971 49.4517C35.7183 49.6377 35.6708 49.8251 35.5635 49.979C35.4561 50.1328 35.2961 50.2428 35.1132 50.2884C35.0207 50.3174 34.9241 50.3318 34.8271 50.3309H23.3483C22.9746 50.3309 22.6263 50.1899 22.5484 49.8305C22.4881 49.5541 22.6165 49.2333 22.6788 48.9358C22.6924 48.8662 22.7781 48.8102 22.8287 48.7425L28.9359 41.5928C30.1633 40.1564 31.3907 38.7206 32.6182 37.2855C33.0237 36.8053 33.3109 36.2379 33.457 35.6283C33.6032 35.0187 33.6042 34.3836 33.4601 33.7736C33.316 33.1635 33.0306 32.5951 32.6267 32.1136C32.2228 31.6321 31.7114 31.2506 31.1332 30.9995C27.8246 29.5928 24.3097 31.759 24.1093 35.3338C24.0742 35.9445 23.7473 36.3232 23.2588 36.3135C22.7703 36.3039 22.4141 35.8962 22.4589 35.2604C22.6535 32.5744 23.9205 30.5686 26.4155 29.4788C28.8444 28.4179 31.2052 28.7058 33.2526 30.4005C35.6971 32.4198 35.9248 35.9928 33.8676 38.3986L25.4619 48.2285C25.3529 48.3464 25.2537 48.472 25.0785 48.6865Z" fill="white"/>
<path d="M20.7794 23.1351C20.7693 22.987 20.7865 22.8384 20.83 22.6964C21.1394 22.1418 20.8027 21.8307 20.4407 21.479C19.2925 20.3641 18.1636 19.2317 17.0329 18.1013C16.8724 17.9642 16.7402 17.7975 16.6436 17.6104C16.579 17.454 16.5656 17.2813 16.6055 17.1169C16.6454 16.9525 16.7366 16.8047 16.8659 16.6947C16.9953 16.5847 17.1563 16.518 17.326 16.5041C17.4958 16.4902 17.6656 16.5297 17.8114 16.6172C17.9729 16.7247 18.1211 16.8505 18.2532 16.9921C19.4702 18.1966 20.6847 19.4043 21.8965 20.6153C21.9778 20.7094 22.0851 20.7778 22.2051 20.8121C22.3251 20.8464 22.4526 20.8452 22.5718 20.8085C23.013 20.7198 23.4677 20.7198 23.9089 20.8085C24.043 20.8501 24.1867 20.8501 24.3209 20.8087C24.4551 20.7673 24.5734 20.6864 24.6601 20.5766C27.4069 17.8391 30.1576 15.1061 32.9121 12.3776C33.0328 12.2485 33.1629 12.1283 33.3014 12.0182C33.4581 11.8876 33.6589 11.8207 33.8633 11.8311C34.0676 11.8415 34.2605 11.9284 34.4029 12.0742C34.5451 12.2202 34.6273 12.4136 34.6334 12.6166C34.6396 12.8196 34.5692 13.0176 34.436 13.1718C34.322 13.3079 34.1999 13.4369 34.0701 13.5583C31.3337 16.2726 28.5967 18.9876 25.859 21.7032C25.7433 21.7952 25.6605 21.9217 25.623 22.0641C25.5855 22.2065 25.5952 22.3571 25.6508 22.4935C25.9369 23.4848 25.6508 24.3467 24.8587 25.0056C24.5081 25.3245 24.0674 25.5288 23.5962 25.591C23.1249 25.6532 22.6457 25.5703 22.2235 25.3534C21.2873 24.9225 20.83 24.1457 20.7794 23.1351ZM23.2705 23.937C23.4818 23.9284 23.6823 23.8425 23.8336 23.6959C23.9848 23.5493 24.0761 23.3523 24.0899 23.1428C24.0874 22.9247 23.9994 22.7162 23.8446 22.5614C23.6899 22.4066 23.4804 22.3178 23.2608 22.3138C23.044 22.3138 22.8361 22.3993 22.6828 22.5515C22.5295 22.7037 22.4434 22.9102 22.4434 23.1254C22.4434 23.3407 22.5295 23.5471 22.6828 23.6993C22.8361 23.8515 23.044 23.937 23.2608 23.937H23.2705Z" fill="white"/>
</svg>
