<svg width="57" height="51" viewBox="0 0 57 51" fill="none" xmlns="http://www.w3.org/2000/svg">
<path d="M56.1688 34.0602H18.1204V28.3389H56.1688V34.0602ZM19.9324 32.2326H54.3571V30.1665H19.9324V32.2326Z" fill="white"/>
<path d="M53.4864 50.4387H20.7991C20.0801 50.4387 19.4069 50.1596 18.9051 49.6519C18.406 49.1459 18.1204 48.4484 18.1204 47.7365L18.1207 26.952C18.1207 26.2312 18.399 25.5519 18.9039 25.0394C19.4128 24.528 20.0835 24.2478 20.7968 24.2461H53.4867C54.2006 24.2461 54.8713 24.526 55.379 25.0345C55.8893 25.551 56.1687 26.2309 56.1687 26.952L56.1654 47.7368C56.1702 48.4479 55.8831 49.1479 55.3782 49.653C54.8828 50.1576 54.209 50.4387 53.4864 50.4387ZM53.4906 26.0737H20.7991C20.5691 26.0743 20.35 26.1658 20.1857 26.3307C20.0237 26.495 19.9324 26.7168 19.9324 26.9517L19.9321 47.7362C19.9321 47.9682 20.0254 48.196 20.1882 48.3609C20.3475 48.5218 20.5648 48.6108 20.7994 48.6108H53.487C53.6532 48.6108 53.8936 48.5677 54.0967 48.3609C54.2641 48.1937 54.3556 47.9702 54.3539 47.7416L54.357 26.9511C54.357 26.7174 54.2655 26.4958 54.0992 26.3275C53.9363 26.1649 53.719 26.0737 53.4906 26.0737Z" fill="white"/>
<path d="M52.2322 38.8921H37.3419V40.7197H52.2322V38.8921Z" fill="white"/>
<path d="M45.6914 42.0698H37.3411V43.8977H45.6914V42.0698Z" fill="white"/>
<path d="M31.2126 45.4304C30.256 45.4304 29.3483 45.0868 28.6361 44.4796C27.9233 45.0871 27.0148 45.4304 26.056 45.4304C23.8517 45.4304 22.0588 43.6204 22.0588 41.3953C22.0588 39.1702 23.8517 37.3599 26.056 37.3599C27.0145 37.3599 27.9236 37.7035 28.6361 38.3106C29.3478 37.7032 30.2555 37.3599 31.2126 37.3599C33.4189 37.3599 35.2143 39.1702 35.2143 41.3953C35.2143 43.6204 33.4189 45.4304 31.2126 45.4304ZM28.6367 42.2053C28.9403 42.2053 29.2236 42.3582 29.3913 42.6132C29.7994 43.2325 30.4796 43.6022 31.2126 43.6022C32.4199 43.6022 33.4026 42.6121 33.4026 41.395C33.4026 40.1776 32.4199 39.1872 31.2126 39.1872C30.4796 39.1872 29.7994 39.5572 29.3916 40.1765C29.2236 40.4318 28.9408 40.5853 28.637 40.5853C28.3337 40.5853 28.0497 40.4318 27.8821 40.1774C27.474 39.5575 26.7913 39.1872 26.0563 39.1872C24.8515 39.1872 23.8708 40.1776 23.8708 41.395C23.8708 42.6121 24.8515 43.6022 26.0563 43.6022C26.7915 43.6022 27.474 43.2322 27.8821 42.6127C28.05 42.3582 28.3337 42.2053 28.6367 42.2053Z" fill="white"/>
<path d="M38.0489 21.6273H0V0H38.0489V21.6273ZM1.812 19.7997H36.2372V1.82789H1.812V19.7997Z" fill="white"/>
<path d="M19.0244 16.196C16.0826 16.196 13.6892 13.7817 13.6892 10.8143C13.6892 7.84667 16.0826 5.43262 19.0244 5.43262C21.9657 5.43262 24.359 7.84667 24.359 10.8143C24.359 13.7817 21.9657 16.196 19.0244 16.196ZM19.0244 7.26023C17.0812 7.26023 15.5012 8.8544 15.5012 10.814C15.5012 12.7737 17.0812 14.3678 19.0244 14.3678C20.967 14.3678 22.547 12.7734 22.547 10.814C22.5473 8.8544 20.967 7.26023 19.0244 7.26023Z" fill="white"/>
<path d="M37.1429 7.51377C33.5354 7.51377 30.5998 4.55293 30.5998 0.913574H32.4115C32.4115 3.54493 34.5341 5.68616 37.1429 5.68616V7.51377Z" fill="white"/>
<path d="M0.906311 7.51377V5.68616C3.51506 5.68616 5.63768 3.54493 5.63768 0.913574H7.4494C7.4494 4.55293 4.51402 7.51377 0.906311 7.51377Z" fill="white"/>
<path d="M32.4115 20.7132H30.5998C30.5998 17.0741 33.5354 14.1133 37.1429 14.1133V15.9409C34.5341 15.9409 32.4115 18.0821 32.4115 20.7132Z" fill="white"/>
<path d="M7.4494 20.7132H5.63768C5.63768 18.0818 3.51478 15.9409 0.906311 15.9409V14.1133C4.51402 14.1133 7.4494 17.0741 7.4494 20.7132Z" fill="white"/>
<path d="M32.1555 9.8999H27.9283V11.7278H32.1555V9.8999Z" fill="white"/>
<path d="M10.1213 9.90039H5.89319V11.7283H10.1213V9.90039Z" fill="white"/>
<path d="M52.5636 9.8999H50.7518V11.7278H52.5636V9.8999Z" fill="white"/>
<path d="M48.9388 11.7278H47.1254V9.8999H48.9388V11.7278ZM45.312 11.7278H43.4986V9.8999H45.312V11.7278Z" fill="white"/>
<path d="M5.41609 32.4214H3.60437V30.6972H5.41609V32.4214ZM5.41609 28.973H3.60437V27.2485H5.41609V28.973Z" fill="white"/>
<path d="M5.41609 34.146H3.60437V35.9736H5.41609V34.146Z" fill="white"/>
<path d="M12.6696 35.9736H10.8561V34.146H12.6696V35.9736ZM9.04274 35.9736H7.22934V34.146H9.04274V35.9736Z" fill="white"/>
<path d="M52.5636 18.6266H50.7518V16.9021H52.5636V18.6266ZM52.5636 15.1773H50.7518V13.4531H52.5636V15.1773Z" fill="white"/>
</svg>
