<svg width="20" height="19" viewBox="0 0 20 19" fill="none" xmlns="http://www.w3.org/2000/svg">
<path fill-rule="evenodd" clip-rule="evenodd" d="M5.42233 7.37446C5.38785 6.93945 5.47771 6.50367 5.68253 6.11287C5.74494 5.9572 5.83167 5.81127 5.93983 5.67996C6.1329 5.43276 6.39089 5.23762 6.6882 5.11387C6.6882 5.11387 7.57183 5.03177 7.64829 5.1442C8.05778 5.81701 8.40035 6.52436 8.67158 7.25715C8.80684 7.73641 8.09672 8.28343 8.09672 8.28343C8.09672 8.28343 7.64682 8.50065 8.09672 9.03808C8.43194 9.43926 9.0024 10.1384 9.34497 10.3965C9.70684 10.6768 10.0918 10.9292 10.4962 11.1514C11.3328 11.5905 11.4886 11.5437 11.4886 11.5437C11.4886 11.5437 11.643 11.6034 12.0635 11.0609C12.2884 10.7728 12.534 10.4346 12.7677 10.3665C13.0383 10.2881 15.223 11.4757 15.1363 11.3927C15.2892 11.5387 15.1686 12.0067 15.1686 12.0067C15.1686 12.0067 15.2157 12.5302 14.3835 13.1339C13.8351 13.532 12.928 13.6268 12.928 13.6268C12.3568 13.588 11.7954 13.466 11.2637 13.2649C10.3771 12.9486 9.44052 12.6824 8.22462 11.635C7.37996 10.9091 6.64615 10.0754 6.04425 9.15803C5.40469 8.11436 5.42233 7.37446 5.42233 7.37446ZM10.1918 18.5774C8.4966 18.5797 6.82978 18.1652 5.35467 17.3745L0 19L1.75989 14.0508C0.649281 12.2904 0.185294 10.2316 0.440252 8.1955C0.69521 6.15938 1.65477 4.26032 3.16938 2.79439C4.68399 1.32846 6.66852 0.378033 8.81355 0.0912935C10.9586 -0.195446 13.1436 0.197612 15.0279 1.20919C16.9122 2.22077 18.3899 3.79401 19.2307 5.68366C20.0715 7.5733 20.228 9.67314 19.676 11.6558C19.1239 13.6385 17.8943 15.3926 16.1787 16.6446C14.4632 17.8966 12.3582 18.5762 10.1918 18.5774ZM10.1757 1.58194C8.66904 1.57664 7.19008 1.96465 5.90135 2.70332C4.61262 3.44198 3.56403 4.50269 2.87092 5.76881C2.1778 7.03493 1.86699 8.45743 1.97264 9.8799C2.0783 11.3024 2.59636 12.6697 3.46982 13.8316L2.68911 16.072L2.69205 16.0741L2.46415 16.706L3.78886 16.3338C3.78675 16.3314 3.78426 16.3293 3.7815 16.3276L5.59876 15.7863C6.66275 16.4666 7.88054 16.9011 9.15423 17.0549C10.4279 17.2087 11.722 17.0775 12.9323 16.6718C14.1427 16.2661 15.2356 15.5973 16.1232 14.7192C17.0108 13.841 17.6683 12.778 18.0428 11.6155C18.4174 10.4531 18.4985 9.22371 18.2798 8.0262C18.061 6.82868 17.5484 5.69646 16.7832 4.72055C16.018 3.74464 15.0216 2.95228 13.874 2.40717C12.7264 1.86206 11.4597 1.57941 10.1757 1.58194Z" fill="#3DC246"/>
</svg>
