<svg width="53" height="55" viewBox="0 0 53 55" fill="none" xmlns="http://www.w3.org/2000/svg">
<path d="M10.8867 10.8484C12.8267 11.7861 13.9024 13.3731 14.6536 15.3038C16.2065 19.2521 17.4998 23.2725 18.1297 27.4818C18.4687 29.7498 18.678 32.039 18.927 34.3218C19.1572 36.4265 19.3602 38.5332 19.5821 40.6994C20.5803 40.57 21.543 40.4511 22.5119 40.3217L34.9993 38.6605C37.7199 38.2998 40.4279 37.9752 43.1338 37.5742C47.0431 36.995 50.4103 39.3946 51.7978 42.7892C52.2863 43.9646 52.5334 45.2286 52.524 46.5041C52.5073 48.3902 51.3981 49.9602 49.6883 50.3569C48.9705 50.5245 48.2004 50.463 47.4533 50.4778C47.1561 50.4778 47.0117 50.5606 46.9866 50.8852C46.8359 52.8159 45.1952 54.5068 43.0104 54.5747C42.8534 54.5747 42.6965 54.5747 42.5395 54.5747H13.082C11.5082 54.5747 10.8281 54.0294 10.4661 52.4891C9.88707 50.0351 9.30528 47.5812 8.72071 45.1272C8.19752 42.9355 8.96556 40.9603 10.7507 39.9165C11.5795 39.412 12.5513 39.2036 13.5107 39.3248C14.4701 39.4459 15.3618 39.8895 16.0432 40.5848C16.4304 40.9815 16.7673 41.181 17.2989 41.0091C17.5336 40.9536 17.7722 40.9167 18.0125 40.8988C17.9351 40.1138 17.8597 39.3628 17.7844 38.6117C17.4935 35.7306 17.2298 32.8452 16.9034 29.9662C16.3195 24.8234 14.8776 19.9161 12.8811 15.1637C12.2533 13.6659 11.2069 12.6051 9.68128 12.1044C9.12985 11.947 8.56256 11.8538 7.99034 11.8264C7.33113 11.7713 6.66563 11.7692 6.00433 11.7713C4.76961 11.7713 4.06854 12.6602 4.33013 13.8802C5.16723 17.6991 6.00433 21.5236 6.84142 25.3538L9.60176 37.9116C9.62059 37.9986 9.63524 38.0855 9.64989 38.1725C9.74825 38.7135 9.54734 39.0997 9.10577 39.2164C8.66421 39.3331 8.26868 39.0997 8.12218 38.5247C7.91291 37.6867 7.72666 36.8423 7.53622 36C5.14072 25.3778 2.74104 14.7507 0.337167 4.11866C-0.202761 1.72549 1.31239 0.0494208 3.73788 0.337959C7.18464 0.747429 9.62478 2.57413 11.0269 5.75654C11.6861 7.25227 11.5857 8.82438 11.0688 10.3647C11.0102 10.5174 10.96 10.6638 10.8867 10.8484ZM45.3961 50.4927H44.8018C43.3201 50.4927 41.8377 50.4927 40.3547 50.4927C39.5783 50.4927 39.2309 50.2466 39.2225 49.7098C39.2141 49.1731 39.5866 48.893 40.3819 48.8888H40.8527C43.4157 48.8888 45.9786 48.8888 48.5415 48.8888C50.0546 48.8888 51.034 47.9362 50.9251 46.4001C50.8627 45.3814 50.657 44.3769 50.3141 43.4171C49.2468 40.5593 46.4697 38.792 43.6696 39.1357C40.4007 39.5367 37.1402 39.9992 33.8755 40.432L22.311 41.966L17.2884 42.6406C17.3052 42.7594 17.3135 42.8528 17.3324 42.9292C17.7384 44.7177 18.1695 46.502 18.5441 48.2968C18.6424 48.7551 18.814 48.9057 19.2975 48.9036C24.8077 48.8824 30.3158 48.8888 35.8302 48.893C36.0559 48.8893 36.2815 48.9071 36.504 48.946C36.6803 48.9704 36.8408 49.0622 36.9524 49.2027C37.0641 49.3431 37.1186 49.5215 37.1046 49.7013C37.1173 49.8904 37.0554 50.0768 36.9326 50.2196C36.8098 50.3624 36.6361 50.4499 36.4496 50.463C36.2245 50.4879 35.998 50.4978 35.7716 50.4927H19.7034C19.5046 50.4927 19.3058 50.5118 19.0756 50.5245C19.2305 51.2162 19.3958 51.8293 19.4942 52.4509C19.5653 52.8753 19.7453 53.0026 20.1806 53.0004C27.6601 52.9849 35.1402 52.9806 42.6211 52.9877C42.8308 52.9924 43.0405 52.9832 43.2489 52.9601C43.8456 52.8936 44.3963 52.6039 44.7934 52.1476C45.1905 51.6912 45.4054 51.1011 45.3961 50.4927ZM18.002 52.9877C17.6693 51.5344 17.3596 50.1575 17.0415 48.7848C16.5873 46.8266 16.1667 44.8577 15.6582 42.9143C15.4941 42.3509 15.1587 41.8543 14.6999 41.4955C14.241 41.1366 13.6822 40.9337 13.1029 40.9158C12.5343 40.8917 11.9715 41.0404 11.4867 41.3428C11.002 41.6453 10.6174 42.0876 10.3824 42.6131C10.0601 43.3217 10.0956 44.0515 10.2714 44.7898C10.8658 47.2763 11.4566 49.7643 12.044 52.2536C12.134 52.6376 12.2533 52.9813 12.7283 52.9813C14.4611 52.9919 16.2023 52.9898 18.0041 52.9898L18.002 52.9877ZM9.35272 10.2883C9.68149 9.64063 9.86045 8.92558 9.87605 8.19736C9.89164 7.46915 9.74344 6.7469 9.44271 6.08539C8.15985 3.47157 6.04618 2.1095 3.20005 1.88249C2.24366 1.80611 1.61374 2.56352 1.83767 3.51612C2.21855 5.14552 2.61826 6.76854 3.0096 8.39581C3.21888 9.26355 3.42815 10.1313 3.64999 11.0712C4.29284 10.4744 5.13925 10.1541 6.0106 10.178C7.1072 10.1971 8.19962 10.248 9.35272 10.2883Z" fill="white"/>
</svg>
