<svg width="69" height="66" viewBox="0 0 69 66" fill="none" xmlns="http://www.w3.org/2000/svg">
<path d="M66.1405 33.6945L62.2161 32.1253C62.0702 31.5386 61.7813 30.9971 61.3752 30.5492C60.969 30.1013 60.4583 29.7609 59.8886 29.5584V25.6665C59.8886 18.8594 57.1845 12.331 52.3711 7.51756C47.5577 2.70415 41.0293 0 34.2221 0C27.4149 0 20.8865 2.70415 16.0731 7.51756C11.2597 12.331 8.55553 18.8594 8.55553 25.6665V29.5584C7.98588 29.7609 7.47521 30.1012 7.0691 30.5491C6.663 30.997 6.3741 31.5384 6.22819 32.1251L2.30488 33.6943C1.6233 33.9649 1.0378 34.4345 0.626913 35.0419C0.216026 35.6494 -0.00242259 36.3664 2.02666e-05 37.0998V48.4554C-0.00236998 49.1888 0.21623 49.906 0.62733 50.5134C1.03843 51.1208 1.62297 51.5902 2.30475 51.8606L6.22807 53.4298C6.42297 54.2248 6.87838 54.9316 7.52171 55.4376C8.16504 55.9437 8.95925 56.2198 9.77775 56.2219H12.2222V57.4442C12.2241 59.0643 12.8685 60.6176 14.0142 61.7632C15.1598 62.9089 16.7131 63.5533 18.3333 63.5552H27.114C27.3651 64.2681 27.8307 64.8858 28.4469 65.3235C29.0631 65.7611 29.7996 65.9974 30.5554 65.9997H35.4443C36.4167 65.9997 37.3494 65.6134 38.037 64.9257C38.7246 64.2381 39.1109 63.3055 39.1109 62.333C39.1109 61.3606 38.7246 60.4279 38.037 59.7403C37.3494 59.0527 36.4167 58.6664 35.4443 58.6664H30.5554C29.7996 58.6687 29.0631 58.9049 28.4469 59.3426C27.8307 59.7803 27.3651 60.3979 27.114 61.1108H18.3333C17.3611 61.1097 16.4291 60.7231 15.7417 60.0357C15.0543 59.3483 14.6677 58.4163 14.6666 57.4442V56.2219C15.6387 56.2209 16.5707 55.8342 17.2581 55.1468C17.9455 54.4594 18.3322 53.5274 18.3333 52.5553V32.9998C18.3309 32.244 18.0947 31.5075 17.6571 30.8913C17.2194 30.2751 16.6017 29.8095 15.8888 29.5584V25.6665C15.8888 20.8043 17.8204 16.1411 21.2585 12.703C24.6967 9.26483 29.3598 7.3333 34.2221 7.3333C39.0844 7.3333 43.7475 9.26483 47.1856 12.703C50.6238 16.1411 52.5553 20.8043 52.5553 25.6665V29.5584C51.8424 29.8095 51.2248 30.2751 50.7871 30.8913C50.3494 31.5075 50.1132 32.244 50.1109 32.9998V52.5553C50.112 53.5274 50.4986 54.4594 51.186 55.1468C51.8734 55.8342 52.8054 56.2209 53.7775 56.2219H58.6664C59.4849 56.2197 60.2791 55.9436 60.9224 55.4376C61.5657 54.9316 62.0211 54.2247 62.216 53.4298L66.1405 51.8606C66.822 51.59 67.4063 51.1204 67.8172 50.5131C68.2281 49.9057 68.4465 49.1887 68.4441 48.4554V37.0998C68.4465 36.3665 68.2281 35.6495 67.8172 35.0421C67.4063 34.4347 66.822 33.9652 66.1405 33.6945ZM30.5554 61.1108H35.4443C35.7684 61.1108 36.0793 61.2396 36.3085 61.4688C36.5377 61.698 36.6665 62.0089 36.6665 62.333C36.6665 62.6572 36.5377 62.9681 36.3085 63.1973C36.0793 63.4265 35.7684 63.5552 35.4443 63.5552H30.5554C30.2313 63.5552 29.9204 63.4265 29.6912 63.1973C29.462 62.9681 29.3332 62.6572 29.3332 62.333C29.3332 62.0089 29.462 61.698 29.6912 61.4688C29.9204 61.2396 30.2313 61.1108 30.5554 61.1108ZM2.44445 48.4554V37.0998C2.44369 36.8552 2.51662 36.6162 2.65373 36.4137C2.79084 36.2112 2.98577 36.0548 3.2131 35.9647L6.1111 34.8046V50.7506L3.2131 49.5904C2.98577 49.5004 2.79084 49.3439 2.65373 49.1414C2.51662 48.939 2.44369 48.6999 2.44445 48.4554ZM15.8888 52.5553C15.8886 52.8794 15.7598 53.1902 15.5306 53.4193C15.3015 53.6485 14.9907 53.7773 14.6666 53.7775H9.77775C9.45366 53.7773 9.1429 53.6485 8.91373 53.4193C8.68456 53.1902 8.55573 52.8794 8.55553 52.5553V32.9998C8.55573 32.6757 8.68456 32.365 8.91373 32.1358C9.1429 31.9066 9.45366 31.7778 9.77775 31.7776H14.6666C14.9907 31.7778 15.3015 31.9066 15.5306 32.1358C15.7598 32.365 15.8886 32.6757 15.8888 32.9998V52.5553ZM34.2221 4.88886C28.7134 4.89501 23.4321 7.08606 19.5368 10.9813C15.6416 14.8765 13.4505 20.1578 13.4444 25.6665V29.3332H11V25.6665C11 19.5077 13.4466 13.601 17.8016 9.24603C22.1566 4.89104 28.0632 2.44443 34.2221 2.44443C40.381 2.44443 46.2876 4.89104 50.6426 9.24603C54.9976 13.601 57.4442 19.5077 57.4442 25.6665V29.3332H54.9997V25.6665C54.9936 20.1578 52.8026 14.8765 48.9073 10.9813C45.0121 7.08606 39.7308 4.89501 34.2221 4.88886ZM58.6664 53.7775H53.7775C53.4534 53.7773 53.1427 53.6485 52.9135 53.4193C52.6843 53.1902 52.5555 52.8794 52.5553 52.5553V32.9998C52.5555 32.6757 52.6843 32.365 52.9135 32.1358C53.1427 31.9066 53.4534 31.7778 53.7775 31.7776H58.6664C58.9905 31.7778 59.3013 31.9066 59.5304 32.1358C59.7596 32.365 59.8884 32.6757 59.8886 32.9998V52.5553C59.8884 52.8794 59.7596 53.1902 59.5304 53.4193C59.3013 53.6485 58.9905 53.7773 58.6664 53.7775ZM65.9997 48.4554C66.0005 48.6997 65.9277 48.9387 65.7908 49.1411C65.6539 49.3435 65.4593 49.5001 65.2323 49.5904L62.333 50.7506V34.8046L65.231 35.9647C65.4584 36.0548 65.6533 36.2112 65.7904 36.4137C65.9275 36.6162 66.0005 36.8552 65.9997 37.0998V48.4554Z" fill="#558CC9"/>
</svg>
