<svg width="58" height="100" viewBox="0 0 58 100" fill="none" xmlns="http://www.w3.org/2000/svg">
<path d="M40.3574 61.0684H29.5762V71H26.002V61.0684H20.0254V57.9922H26.002V53.627H20.0254V50.5801H26.002V28.3438H40.5332C45.0254 28.3438 48.5312 29.4863 51.0508 31.7715C53.5898 34.0371 54.8594 37.123 54.8594 41.0293C54.8594 45.0137 53.6289 48.1094 51.168 50.3164C48.707 52.5039 45.1914 53.6074 40.6211 53.627H29.5762V57.9922H40.3574V61.0684ZM29.5762 50.5801H40.5332C43.9316 50.5801 46.5684 49.7598 48.4434 48.1191C50.3184 46.459 51.2559 44.1152 51.2559 41.0879C51.2559 38.1582 50.3379 35.834 48.502 34.1152C46.6855 32.3965 44.1758 31.498 40.9727 31.4199H29.5762V50.5801Z" fill="white"/>
<path d="M2.56367 37.6266H0.751953V35.9021H2.56367V37.6266ZM2.56367 34.1773H0.751953V32.4531H2.56367V34.1773Z" fill="white"/>
<path d="M2.56367 28.9004H0.751953V30.7283H2.56367V28.9004Z" fill="white"/>
</svg>
