<svg width="98" height="36" viewBox="0 0 98 36" fill="none" xmlns="http://www.w3.org/2000/svg">
<path d="M39.3032 0.189903V2.04354H1.9997V3.45655C1.9997 7.16002 1.9997 10.8635 1.9997 14.567C1.9997 15.1899 2.09474 15.5508 2.75999 15.847C4.24635 16.5042 5.00284 17.7462 5.04085 19.3872C5.07506 20.7166 5.04085 22.0461 5.04085 23.3755C5.04085 24.3783 4.74054 24.6594 3.73696 24.6822L2.21638 24.7088C2.18977 24.7088 2.16316 24.7316 2.06813 24.7771V29.0314H2.93105C9.48726 29.0314 16.0447 29.0314 22.6035 29.0314C23.2345 29.0314 23.5805 28.9364 23.8047 28.2147C24.1678 27.119 24.8687 26.1663 25.807 25.4931C26.7452 24.8198 27.8726 24.4606 29.0277 24.467C30.1828 24.4733 31.3062 24.8448 32.237 25.5283C33.1678 26.2118 33.8582 27.1721 34.2093 28.2717C34.2264 28.3905 34.2671 28.5048 34.329 28.6077C34.3909 28.7106 34.4728 28.8 34.5699 28.8708C34.667 28.9416 34.7772 28.9923 34.8941 29.0198C35.0111 29.0474 35.1324 29.0513 35.2509 29.0314C47.2888 29.0137 59.3266 29.0137 71.3645 29.0314C71.9423 29.0314 72.2275 28.9288 72.4251 28.2945C72.769 27.182 73.4615 26.2094 74.4005 25.52C75.3396 24.8307 76.4755 24.461 77.6407 24.4657C78.8222 24.4705 79.9717 24.8496 80.924 25.5485C81.8762 26.2475 82.582 27.2301 82.9399 28.3553C83.0311 28.6136 83.32 28.9896 83.5367 28.9934C87.4902 29.0314 91.4437 29.02 95.458 29.02V26.3839H92.9225V24.4847H95.6177C95.4884 22.9121 95.5873 21.3624 95.2033 19.9265C93.6828 14.3163 92.0025 8.74777 90.3831 3.16407C90.3054 2.80497 90.0972 2.4874 89.7988 2.27272C89.5004 2.05805 89.133 1.9615 88.7675 2.00175C85.9164 2.00175 83.0654 2.00175 80.2143 2.00175H43.2035V0.102539H88.1099C90.7709 0.102539 91.4817 0.600133 92.4359 3.14128C93.6295 3.14128 94.8612 3.14128 96.0929 3.14128C97.1003 3.14128 97.4044 3.44516 97.4158 4.43275C97.4158 5.72801 97.4158 7.02328 97.4158 8.39071H95.5151V5.15065H92.9567C93.2684 6.2484 93.5573 7.30436 93.8652 8.35273C94.8384 11.6878 95.8762 15.0076 96.7657 18.3692C97.1263 19.8056 97.3327 21.2763 97.3816 22.7564C97.4804 25.0354 97.412 27.3145 97.4044 29.5935C97.4044 30.6533 97.1231 30.9306 96.0435 30.9306C92.0215 30.9306 87.9958 30.9306 83.9739 30.9306C83.3581 30.9306 83.0539 31.0446 82.8335 31.6903C82.4769 32.798 81.776 33.7632 80.8327 34.4457C79.8895 35.1281 78.753 35.4922 77.5885 35.485C76.424 35.4778 75.2921 35.0997 74.3574 34.4056C73.4226 33.7116 72.7338 32.7378 72.3909 31.6257C72.3753 31.5134 72.3372 31.4054 72.2786 31.3082C72.2201 31.211 72.1425 31.1267 72.0505 31.0603C71.9585 30.9939 71.854 30.9469 71.7433 30.922C71.6326 30.8971 71.518 30.8948 71.4064 30.9154C59.3381 30.9281 47.2698 30.9281 35.2015 30.9154C34.6655 30.9154 34.3918 31.0066 34.2055 31.6067C33.8636 32.7282 33.1701 33.7102 32.2273 34.408C31.2845 35.1058 30.1423 35.4825 28.969 35.4825C27.7957 35.4825 26.6535 35.1058 25.7107 34.408C24.7679 33.7102 24.0744 32.7282 23.7325 31.6067C23.5234 30.9344 23.1851 30.9078 22.6453 30.9116C15.709 30.9116 8.77133 30.9116 1.83244 30.9116C0.224428 30.9116 0.0761719 30.7673 0.0761719 29.2023C0.0761719 19.9924 0.0761719 10.7825 0.0761719 1.57253C0.0761719 0.433002 0.330868 0.144322 1.44089 0.144322H38.695C38.8698 0.163314 39.0295 0.178507 39.3032 0.189903ZM32.5937 29.9962C32.5997 29.0391 32.225 28.1189 31.5521 27.4379C30.8791 26.7569 29.9629 26.3709 29.0051 26.3649C28.0473 26.3588 27.1264 26.7332 26.4448 27.4057C25.7633 28.0781 25.377 28.9936 25.3709 29.9506C25.3679 30.4245 25.4584 30.8943 25.6371 31.3333C25.8158 31.7722 26.0793 32.1717 26.4126 32.5089C27.0855 33.1899 28.0017 33.5759 28.9595 33.5819C29.9173 33.5879 30.8383 33.2136 31.5198 32.5411C32.2013 31.8687 32.5876 30.9532 32.5937 29.9962ZM81.2521 30.0304C81.2667 29.0733 80.9002 28.1497 80.2333 27.4626C79.9031 27.1224 79.509 26.8506 79.0736 26.6625C78.6383 26.4745 78.1701 26.374 77.6958 26.3668C76.738 26.3522 75.8137 26.7183 75.1261 27.3847C74.4385 28.0511 74.044 28.9632 74.0293 29.9202C74.0147 30.8773 74.3812 31.8009 75.0481 32.4879C75.715 33.175 76.6278 33.5692 77.5856 33.5838C78.5434 33.5984 79.4678 33.2322 80.1554 32.5658C80.843 31.8994 81.2374 30.9874 81.2521 30.0304ZM2.07573 17.5601V22.783L3.19335 22.7298C2.82081 21.0091 3.851 19.1099 2.07573 17.5601Z" fill="white"/>
<path d="M90.2119 18.4112V16.5879L91.0901 16.4208L87.8969 5.15085H81.4344C81.5979 7.08425 81.1265 8.99486 81.8602 10.8751C82.4684 12.4324 83.0006 14.024 83.4872 15.6269C83.7001 16.341 84.0232 16.6031 84.7455 16.5158C85.2709 16.4857 85.7976 16.4857 86.3231 16.5158V18.415C85.2562 18.4651 84.1873 18.4498 83.1223 18.3694C82.7421 18.3238 82.305 17.8072 82.1491 17.4046C81.4914 15.6953 80.8718 13.967 80.3624 12.2083C80.1191 11.3613 79.7086 11.1904 78.8913 11.1904C56.369 11.2131 33.8468 11.2233 11.3245 11.2207C8.70155 11.2207 6.55754 10.3661 5.00275 8.21998C4.19966 7.11266 3.75044 5.78857 3.71406 4.42155C3.68365 3.63527 4.0714 3.24403 4.85449 3.24023H87.7258C89.2996 3.24023 89.3604 3.27822 89.771 4.75961C90.8861 8.71251 91.9999 12.6667 93.1124 16.6221C93.5192 18.0731 93.2303 18.453 91.7097 18.4567L90.2119 18.4112ZM29.8603 9.24555V5.18883H15.3541V9.24555H29.8603ZM46.4156 9.24555V5.18123H31.9169V9.24555H46.4156ZM62.967 5.18503H48.4266V9.24175H62.967V5.18503ZM79.4729 9.29114V5.11286H65.3696C65.2419 5.12305 65.115 5.14081 64.9894 5.16604V9.25695C65.2593 9.25695 65.476 9.28734 65.6927 9.28734L79.4729 9.29114ZM13.3507 5.16604H5.83526C6.33325 8.18199 8.89922 9.82671 13.3507 9.19238V5.16604Z" fill="white"/>
<path d="M8.13184 17.8682H15.8069V19.6648H8.13184V17.8682Z" fill="white"/>
<path d="M8.12012 22.5098V20.7207H15.799V22.5098H8.12012Z" fill="white"/>
<path d="M28.085 29.0469H29.8602V30.8663H28.085V29.0469Z" fill="white"/>
<path d="M76.7437 29.0732H78.5303V30.8737H76.7437V29.0732Z" fill="white"/>
</svg>
