<svg width="41" height="51" viewBox="0 0 41 51" fill="none" xmlns="http://www.w3.org/2000/svg">
<path d="M10.9374 39.405C11.5624 39.405 12.1515 39.1591 12.5944 38.713C13.0374 38.2669 13.2812 37.6727 13.2812 37.0406V32.312H11.7186V37.0406C11.7186 37.2519 11.6374 37.4489 11.4905 37.597C11.1944 37.8957 10.6811 37.8957 10.3851 37.597C10.2374 37.4489 10.1561 37.2519 10.1561 37.0406V32.312H8.59364V37.0406C8.59364 37.6727 8.83817 38.2669 9.28036 38.713C9.72255 39.1591 10.3124 39.405 10.9374 39.405Z" fill="white"/>
<path d="M29.6875 39.405C30.3133 39.405 30.9024 39.1583 31.3446 38.7122C31.7867 38.2661 32.0313 37.6719 32.0313 37.0406V32.312H30.4688V37.0406C30.4688 37.2511 30.3875 37.4489 30.2399 37.5978C29.9438 37.8949 29.4313 37.8949 29.1352 37.5978C28.9875 37.4489 28.9063 37.2511 28.9063 37.0406V32.312H27.3438V37.0406C27.3438 37.6719 27.5883 38.2661 28.0305 38.7122C28.4727 39.1583 29.0617 39.405 29.6875 39.405Z" fill="white"/>
<path d="M17.9687 32.312H16.4062V33.8882H17.9687V32.312Z" fill="white"/>
<path d="M21.0937 32.312H19.5312V33.8882H21.0937V32.312Z" fill="white"/>
<path d="M24.2188 32.312H22.6563V33.8882H24.2188V32.312Z" fill="white"/>
<path d="M25.7815 35.4648H14.8439V37.0411H25.7815V35.4648Z" fill="white"/>
<path d="M37.5001 45.71H3.12505V47.2862H37.5001V45.71Z" fill="white"/>
<path d="M39.9391 22.7597C39.497 22.3136 38.9079 22.0669 38.2813 22.0669H30.4688V18.9145C30.4688 18.284 30.2251 17.6898 29.7829 17.2429C29.3407 16.7961 28.7516 16.5502 28.1251 16.5502H27.3438V5.51673H29.2297L30.4688 4.2668V0H28.9063V3.61425L28.5829 3.94052H12.0422L11.7188 3.61425V0H10.1563V4.2668L11.3953 5.51673H13.2813V6.30484C13.2813 7.26317 12.8274 8.16634 12.0039 8.84805C10.8125 9.83476 10.1563 11.1714 10.1563 12.6097V14.974H11.7188V12.6097C11.7188 11.6513 12.1727 10.7482 12.9961 10.0665C14.1875 9.07975 14.8438 7.74313 14.8438 6.30484V5.51673H25.7813V18.9145C25.7813 19.1249 25.7001 19.3228 25.5516 19.4725C25.2571 19.7696 24.743 19.7696 24.4485 19.4725C24.3 19.3228 24.2188 19.1249 24.2188 18.9145V18.1264H22.6563V18.9145C22.6563 19.1249 22.575 19.3228 22.4266 19.4725C22.1321 19.7696 21.6188 19.7696 21.3227 19.4725C21.175 19.3228 21.0938 19.1249 21.0938 18.9145V18.1264H19.5313V18.9145C19.5313 19.1249 19.45 19.3228 19.3024 19.4717C19.0071 19.7696 18.493 19.7696 18.1977 19.4717C18.05 19.3228 17.9688 19.1249 17.9688 18.9145V18.1264H16.4063V18.9145C16.4063 19.1249 16.325 19.3228 16.1774 19.4717C15.8821 19.7696 15.368 19.7696 15.0727 19.4717C14.925 19.3228 14.8438 19.1249 14.8438 18.9145V12.6097H13.2813V16.5502H12.5C11.8742 16.5502 11.2852 16.7961 10.843 17.2429C10.4 17.689 10.1563 18.2832 10.1563 18.9145V22.0669H2.34375C1.71797 22.0669 1.12891 22.3128 0.68672 22.7597C0.243751 23.2057 0 23.8 0 24.4312V31.5242V48.0744C0 48.7065 0.244532 49.3007 0.68672 49.7467C1.12891 50.1928 1.71875 50.4387 2.34375 50.4387H38.2813C38.9071 50.4387 39.4962 50.192 39.9384 49.746C40.3806 49.2999 40.6251 48.7057 40.6251 48.0744V31.5242V24.4312C40.6251 23.8008 40.3813 23.2065 39.9391 22.7597ZM11.7188 18.9145C11.7188 18.7041 11.8 18.5063 11.9477 18.3573C12.0953 18.2084 12.2914 18.1264 12.5 18.1264H13.2813V18.9145C13.2813 19.5458 13.525 20.14 13.968 20.5861C14.4102 21.0329 14.9992 21.2788 15.625 21.2788C16.2094 21.2788 16.7571 21.0566 17.1875 20.6649C17.618 21.0566 18.1657 21.2788 18.75 21.2788C19.3344 21.2788 19.8821 21.0566 20.3125 20.6649C20.7438 21.0566 21.2907 21.2788 21.875 21.2788C22.4594 21.2788 23.0063 21.0566 23.4375 20.6649C23.8688 21.0566 24.4157 21.2788 25.0001 21.2788C25.6266 21.2788 26.2157 21.0322 26.6579 20.5861C27.1001 20.14 27.3438 19.545 27.3438 18.9145V18.1264H28.1251C28.3344 18.1264 28.5297 18.2084 28.6766 18.3565C28.8251 18.5063 28.9063 18.7041 28.9063 18.9145V22.0669H11.7188V18.9145ZM35.1563 37.0409C36.6165 37.0409 37.9899 36.4664 39.0227 35.4245C39.0368 35.4103 39.0485 35.3946 39.0626 35.3804V48.0744C39.0626 48.2848 38.9813 48.4826 38.8337 48.6316C38.686 48.7805 38.4899 48.8625 38.2813 48.8625H2.34375C2.13516 48.8625 1.93907 48.7805 1.79063 48.6308C1.64375 48.4826 1.5625 48.2856 1.5625 48.0744V35.3812C1.57657 35.3954 1.58828 35.4111 1.60235 35.4253C2.63516 36.4664 4.00782 37.0409 5.46876 37.0409H7.03126V35.4647H5.46876C4.42579 35.4647 3.44454 35.0541 2.70704 34.3101C1.96875 33.5662 1.5625 32.5763 1.5625 31.5242V24.4312C1.5625 24.2208 1.64375 24.023 1.79141 23.8741C1.93907 23.7251 2.13516 23.6431 2.34375 23.6431H38.2813C38.4907 23.6431 38.686 23.7251 38.8329 23.8733C38.9813 24.023 39.0626 24.2208 39.0626 24.4312V31.5242C39.0626 32.5763 38.6555 33.5662 37.918 34.3101C37.1805 35.0541 36.1993 35.4647 35.1563 35.4647H33.5938V37.0409H35.1563Z" fill="white"/>
<path d="M14.8438 0H13.2813V1.57621H14.8438V0Z" fill="white"/>
</svg>
