<svg width="54" height="54" viewBox="0 0 54 54" fill="none" xmlns="http://www.w3.org/2000/svg">
<path d="M9.69299 11.2319C9.55819 10.4568 9.42971 9.71749 9.30123 8.9761C9.09061 7.73552 9.45077 7.20264 10.685 6.98991L19.3038 5.5029C19.3038 4.81627 19.3038 4.13595 19.3038 3.45775C19.3038 2.77954 19.2911 2.12449 19.3038 1.45682C19.3269 0.570089 19.824 0.0666976 20.7086 0.00561664C20.8834 -0.0070208 21.0604 0.00561664 21.2352 0.00561664C29.3611 0.00561664 37.4876 0.00561664 45.6149 0.00561664C45.936 -0.00766901 46.2563 0.0467914 46.555 0.165455C46.8536 0.284119 47.1239 0.464327 47.3484 0.694357C49.3219 2.61735 51.3207 4.51297 53.328 6.40227C53.53 6.58047 53.6897 6.80154 53.7953 7.04932C53.901 7.29711 53.95 7.56537 53.9388 7.83451C53.9262 19.0495 53.9262 30.2646 53.9388 41.4796C53.9388 42.7834 53.4712 43.2509 52.1695 43.2509C49.9938 43.2509 47.8096 43.1393 45.6402 43.2868C43.9257 43.4047 42.1544 43.6153 40.5431 44.1777C32.0908 47.1264 23.6826 50.1973 15.2577 53.2345C14.1435 53.6347 13.5242 53.3504 13.1283 52.2488C11.1386 46.7262 9.1545 41.2121 7.17603 35.7064C7.14655 35.6243 7.11285 35.5421 7.08757 35.46C6.92118 34.9144 7.08757 34.4974 7.55726 34.3394C7.97851 34.1941 8.37659 34.409 8.57247 34.9229C8.88209 35.7422 9.17486 36.5678 9.47184 37.3935L14.4468 51.2441C14.4994 51.3916 14.5605 51.5348 14.6469 51.7475L31.8991 45.5468L31.8801 45.4625C30.9681 45.6163 30.0561 45.7679 29.142 45.9238C25.2202 46.5964 21.2984 47.269 17.3766 47.9415C16.5804 48.0763 15.9422 47.6067 15.7948 46.7684C15.2991 43.9362 14.8076 41.1033 14.3204 38.2697C13.322 32.4466 12.3251 26.6236 11.3295 20.8005C10.8914 18.2436 10.4505 15.6866 10.0068 13.1296C9.99208 13.0475 9.9668 12.9674 9.931 12.8221L1.65136 15.6655L4.05669 22.3528L7.21605 31.1569C7.24554 31.2391 7.27503 31.3212 7.3003 31.4055C7.44142 31.8772 7.2666 32.2859 6.85799 32.448C6.44938 32.6102 5.99654 32.4122 5.80487 31.9236C5.48893 31.0811 5.19827 30.2386 4.89708 29.3961C3.32582 25.0264 1.75457 20.6573 0.183314 16.289C-0.237934 15.139 0.0506208 14.5555 1.21748 14.1511C3.84887 13.2398 6.48168 12.3313 9.11588 11.4257L9.69299 11.2319ZM20.8792 41.6144H52.3191V8.31052H51.6872C50.0549 8.31052 48.4225 8.32527 46.7923 8.27682C45.6571 8.24312 44.9978 7.50594 44.9746 6.38121C44.9746 5.99576 44.9746 5.60822 44.9746 5.22277C44.9746 4.03275 44.9746 2.84483 44.9746 1.62321H20.8792V2.27825C20.8792 8.92976 20.8792 15.5806 20.8792 22.2307C20.8792 23.0163 20.6433 23.3596 20.1084 23.368C19.5734 23.3765 19.2996 22.9994 19.2974 22.2033C19.2974 22.098 19.2974 21.9927 19.2974 21.8873C19.2974 17.1848 19.2974 12.4809 19.2974 7.77554V7.10997L10.843 8.56327L17.3218 46.3429L34.9679 43.3162V43.2341H21.0667C19.7924 43.2341 19.3017 42.7539 19.3017 41.5007C19.3017 36.5341 19.3017 31.5676 19.3017 26.6011C19.3017 25.8576 19.5797 25.4637 20.0978 25.4616C20.616 25.4595 20.8813 25.8408 20.8834 26.5969C20.8834 26.7191 20.8834 26.8433 20.8834 26.9655V41.6123L20.8792 41.6144ZM46.5459 2.12028C46.5459 3.56516 46.5627 4.85839 46.5459 6.15373C46.5459 6.60447 46.7165 6.72874 47.1272 6.72663C48.3909 6.72663 49.6547 6.72663 50.9079 6.72663C51.0491 6.71687 51.1897 6.7 51.3292 6.67608L46.5459 2.12028Z" fill="white"/>
<path d="M36.7054 24.2838H25.8646C25.6896 24.2965 25.5137 24.2902 25.3401 24.2648C25.1616 24.2318 25 24.1377 24.8831 23.9988C24.7663 23.8598 24.7013 23.6845 24.6993 23.503C24.6973 23.3214 24.7584 23.1448 24.8722 23.0033C24.9861 22.8618 25.1455 22.7642 25.3233 22.7273C25.4966 22.6993 25.6726 22.6915 25.8477 22.7041H47.6894C47.8298 22.6965 47.9704 22.6965 48.1107 22.7041C48.3148 22.7145 48.5068 22.8042 48.6457 22.9541C48.7846 23.104 48.8594 23.3023 48.8542 23.5066C48.8534 23.703 48.7774 23.8916 48.6419 24.0338C48.5064 24.176 48.3216 24.2609 48.1254 24.2711C47.9676 24.2813 47.8093 24.2813 47.6515 24.2711L36.7054 24.2838Z" fill="white"/>
<path d="M36.7554 17.1002C40.4217 17.1002 44.088 17.1002 47.7542 17.1002C47.9775 17.1002 48.2639 17.0771 48.4093 17.1992C48.6199 17.3719 48.8305 17.6731 48.8305 17.909C48.8004 18.0467 48.7429 18.1769 48.6615 18.292C48.5801 18.407 48.4764 18.5046 48.3566 18.5788C48.1797 18.6989 47.8848 18.6736 47.6426 18.6736C40.3985 18.6736 33.1545 18.6736 25.9104 18.6736C25.8219 18.6736 25.7356 18.6736 25.6471 18.6736C25.0511 18.6525 24.6888 18.3303 24.7077 17.8416C24.7267 17.353 25.0637 17.0939 25.6577 17.0939C29.3548 17.0897 33.0541 17.0918 36.7554 17.1002Z" fill="white"/>
<path d="M36.8123 29.8838H25.9188C25.7434 29.8938 25.5676 29.8938 25.3923 29.8838C25.2193 29.8631 25.0583 29.7846 24.9355 29.661C24.8127 29.5374 24.7353 29.3759 24.7158 29.2028C24.6963 29.0297 24.7358 28.855 24.8281 28.7072C24.9203 28.5594 25.0597 28.447 25.2238 28.3884C25.4259 28.3322 25.6354 28.3073 25.8451 28.3146C33.1243 28.3146 40.4034 28.3146 47.6826 28.3146C47.908 28.3146 48.2007 28.2852 48.3419 28.4073C48.5872 28.6027 48.7582 28.8763 48.8263 29.1824C48.8642 29.5531 48.5799 29.8143 48.1776 29.8775C48.0033 29.8937 47.8281 29.8986 47.6531 29.8922L36.8123 29.8838Z" fill="white"/>
<path d="M36.7854 33.937H47.6326C47.8253 33.9291 48.0183 33.9369 48.2097 33.9602C48.612 34.0276 48.8816 34.3119 48.8289 34.6805C48.743 34.9822 48.5611 35.2476 48.3108 35.4367C48.1802 35.5483 47.9085 35.5167 47.7 35.5167C40.4208 35.5167 33.1423 35.5167 25.8646 35.5167C25.6723 35.523 25.4799 35.506 25.2917 35.4662C25.1067 35.4332 24.942 35.3288 24.8332 35.1755C24.7245 35.0223 24.6804 34.8324 24.7104 34.6468C24.7128 34.4679 24.7831 34.2966 24.907 34.1675C25.031 34.0385 25.1994 33.9614 25.378 33.9518C25.5699 33.9346 25.7626 33.929 25.9551 33.9349L36.7854 33.937Z" fill="white"/>
<path d="M36.7265 13.0618H25.9847C25.8098 13.0618 25.6329 13.0618 25.4581 13.0491C25.2511 13.0491 25.0526 12.9669 24.9063 12.8206C24.76 12.6742 24.6777 12.4757 24.6777 12.2688C24.6777 12.0618 24.76 11.8633 24.9063 11.717C25.0526 11.5706 25.2511 11.4884 25.4581 11.4884C25.6158 11.4763 25.774 11.4727 25.932 11.4779H47.6115C48.454 11.4779 48.8542 11.7285 48.8563 12.2677C48.8584 12.8069 48.4646 13.0618 47.6179 13.0618H36.7265Z" fill="white"/>
</svg>
