<svg width="64" height="58" viewBox="0 0 64 58" fill="none" xmlns="http://www.w3.org/2000/svg">
<path d="M54.7785 8.49444C52.0857 5.80139 48.8889 3.66513 45.3705 2.20765C41.8521 0.750161 38.081 0 34.2727 0C30.4644 0 26.6934 0.750161 23.175 2.20765C19.6566 3.66513 16.4597 5.80139 13.767 8.49444C13.4374 8.82401 13.2523 9.27101 13.2523 9.7371C13.2523 10.2032 13.4374 10.6502 13.767 10.9798C14.0966 11.3093 14.5436 11.4945 15.0097 11.4945C15.4757 11.4945 15.9227 11.3093 16.2523 10.9798C19.8164 7.41557 24.3574 4.9883 29.301 4.00491C34.2446 3.02152 39.3689 3.52617 44.0257 5.45505C48.6825 7.38393 52.6627 10.6504 55.4631 14.8414C58.2634 19.0324 59.7581 23.9597 59.7581 29.0002C59.7581 34.0406 58.2634 38.9679 55.4631 43.1589C52.6627 47.3499 48.6825 50.6164 44.0257 52.5452C39.3689 54.4741 34.2446 54.9788 29.301 53.9954C24.3574 53.012 19.8164 50.5847 16.2523 47.0205C16.0891 46.8573 15.8954 46.7279 15.6822 46.6396C15.469 46.5513 15.2404 46.5058 15.0096 46.5058C14.7789 46.5058 14.5503 46.5513 14.3371 46.6396C14.1239 46.7279 13.9302 46.8574 13.767 47.0205C13.6038 47.1837 13.4743 47.3775 13.386 47.5907C13.2977 47.8039 13.2522 48.0324 13.2523 48.2632C13.2523 48.494 13.2977 48.7225 13.386 48.9358C13.4743 49.149 13.6038 49.3427 13.767 49.5059C16.4598 52.1987 19.6567 54.3348 23.1751 55.7922C26.6935 57.2496 30.4645 57.9996 34.2727 57.9996C38.081 57.9996 41.852 57.2496 45.3703 55.7922C48.8887 54.3348 52.0856 52.1987 54.7785 49.5059C57.4713 46.813 59.6074 43.6162 61.0648 40.0978C62.5221 36.5794 63.2722 32.8084 63.2722 29.0002C63.2722 25.1919 62.5221 21.4209 61.0648 17.9025C59.6074 14.3842 57.4713 11.1873 54.7785 8.49444Z" fill="#558CC9"/>
<path d="M34.2729 8.01221C33.8068 8.01223 33.3597 8.19741 33.0301 8.52702C32.7005 8.85662 32.5153 9.30366 32.5153 9.76979V29.0002C32.5154 29.4663 32.7007 29.9133 33.0303 30.2428L42.6455 39.8581C42.9751 40.1876 43.4221 40.3728 43.8882 40.3728C44.3542 40.3728 44.8012 40.1876 45.1308 39.8581C45.4604 39.5285 45.6455 39.0815 45.6455 38.6154C45.6455 38.1493 45.4604 37.7023 45.1308 37.3727L36.0305 28.2725V9.76979C36.0304 9.30366 35.8453 8.85662 35.5157 8.52702C35.1861 8.19741 34.739 8.01223 34.2729 8.01221Z" fill="#558CC9"/>
<path d="M22.8486 29C22.8486 28.5339 22.6634 28.0868 22.3338 27.7572C22.0042 27.4276 21.5571 27.2424 21.091 27.2424H1.75758C1.29144 27.2424 0.844396 27.4276 0.514785 27.7572C0.185174 28.0868 0 28.5339 0 29C0 29.4662 0.185174 29.9132 0.514785 30.2428C0.844396 30.5724 1.29144 30.7576 1.75758 30.7576H21.091C21.5571 30.7576 22.0042 30.5724 22.3338 30.2428C22.6634 29.9132 22.8486 29.4662 22.8486 29Z" fill="#558CC9"/>
<path d="M8.78792 20.2122H21.091C21.5571 20.2122 22.0042 20.027 22.3338 19.6974C22.6634 19.3678 22.8486 18.9207 22.8486 18.4546C22.8486 17.9885 22.6634 17.5414 22.3338 17.2118C22.0042 16.8822 21.5571 16.697 21.091 16.697H8.78792C8.32178 16.697 7.87473 16.8822 7.54512 17.2118C7.21551 17.5414 7.03033 17.9885 7.03033 18.4546C7.03033 18.9207 7.21551 19.3678 7.54512 19.6974C7.87473 20.027 8.32178 20.2122 8.78792 20.2122Z" fill="#558CC9"/>
<path d="M22.8486 39.5457C22.8486 39.0795 22.6634 38.6325 22.3338 38.3029C22.0042 37.9733 21.5571 37.7881 21.091 37.7881H8.78792C8.32178 37.7881 7.87473 37.9733 7.54512 38.3029C7.21551 38.6325 7.03033 39.0795 7.03033 39.5457C7.03033 40.0118 7.21551 40.4589 7.54512 40.7885C7.87473 41.1181 8.32178 41.3033 8.78792 41.3033H21.091C21.5571 41.3033 22.0042 41.1181 22.3338 40.7885C22.6634 40.4589 22.8486 40.0118 22.8486 39.5457Z" fill="#558CC9"/>
</svg>
