<svg width="89" height="60" viewBox="0 0 89 60" fill="none" xmlns="http://www.w3.org/2000/svg">
<path d="M83.7963 30.2939C83.7963 30.2939 83.7963 30.2139 83.7963 30.1839C82.6163 24.4639 80.1963 20.7139 76.5863 18.9539V18.7739L73.7063 9.35387C73.6942 9.29923 73.6774 9.24571 73.6563 9.19387C71.4963 4.26387 68.1763 2.91387 64.3763 1.76387C57.5863 -0.236131 48.0263 0.00386856 47.7163 0.0138686C47.4063 0.0238686 37.7163 -0.286131 30.9663 1.76387C27.1563 2.91387 23.8363 4.26387 21.6563 9.24387L20.2063 12.9639C20.1179 13.1386 20.0672 13.3299 20.0573 13.5254C20.0475 13.7209 20.0787 13.9163 20.1491 14.099C20.2195 14.2817 20.3274 14.4476 20.4658 14.586C20.6043 14.7244 20.7702 14.8323 20.953 14.9025C21.1357 14.9728 21.3311 15.004 21.5267 14.9941C21.7222 14.9841 21.9135 14.9333 22.0881 14.8448C22.2628 14.7563 22.4169 14.6322 22.5406 14.4805C22.6643 14.3288 22.7548 14.1528 22.8063 13.9639L24.2363 10.2939C25.7763 6.76387 27.8963 5.58387 31.7663 4.41387C38.1063 2.50387 47.5263 2.77387 47.7063 2.77387C47.8863 2.77387 57.2263 2.50387 63.5663 4.41387C67.4063 5.57387 69.5663 6.74387 71.0663 10.2139L73.3063 17.7839H67.6963C66.6963 15.1639 63.7863 13.2739 60.4063 13.0739C58.7027 12.9159 56.9913 13.2775 55.4972 14.1111C54.0032 14.9447 52.7966 16.2112 52.0363 17.7439H36.7663C36.4167 17.7735 36.091 17.9333 35.8536 18.1916C35.6163 18.45 35.4845 18.788 35.4845 19.1389C35.4845 19.4897 35.6163 19.8278 35.8536 20.0861C36.091 20.3444 36.4167 20.5042 36.7663 20.5339H71.1063C76.3663 20.5339 79.6163 23.8439 81.0363 30.6439L82.3563 41.5739C82.5663 43.2439 82.9463 46.3539 81.9563 47.4739C81.8263 47.6239 81.4163 48.0839 80.0563 48.0839H76.3063V44.3839C76.3037 44.0143 76.155 43.6608 75.8927 43.4004C75.6305 43.14 75.2759 42.9939 74.9063 42.9939H44.1963C43.8277 42.9939 43.4741 43.1403 43.2134 43.401C42.9528 43.6617 42.8063 44.0152 42.8063 44.3839C42.8063 44.7525 42.9528 45.1061 43.2134 45.3667C43.4741 45.6274 43.8277 45.7739 44.1963 45.7739H73.4663V48.0839H43.3063C43.1132 48.0675 42.9188 48.0914 42.7354 48.1541C42.552 48.2168 42.3836 48.3168 42.2409 48.448C42.0981 48.5791 41.9842 48.7384 41.9063 48.9159C41.8283 49.0933 41.7881 49.2851 41.7881 49.4789C41.7881 49.6727 41.8283 49.8644 41.9063 50.0418C41.9842 50.2193 42.0981 50.3786 42.2409 50.5098C42.3836 50.6409 42.552 50.741 42.7354 50.8036C42.9188 50.8663 43.1132 50.8902 43.3063 50.8739H66.3063V55.2039C66.3063 56.3947 66.7794 57.5367 67.6214 58.3788C68.4634 59.2208 69.6055 59.6939 70.7963 59.6939H78.7263C79.3201 59.7058 79.9104 59.5998 80.463 59.382C81.0155 59.1642 81.5194 58.8389 81.9454 58.4251C82.3713 58.0112 82.711 57.5169 82.9446 56.9708C83.1782 56.4248 83.3011 55.8378 83.3063 55.2439V50.0339C83.5923 49.8428 83.8513 49.6141 84.0763 49.3539C85.7563 47.4639 85.5263 44.3539 85.1563 41.2739L83.7963 30.2939ZM55.3063 17.7839C55.92 17.0969 56.6874 16.5649 57.546 16.2312C58.4045 15.8975 59.3298 15.7716 60.2463 15.8639C61.8618 15.9226 63.389 16.6161 64.4963 17.7939H55.3063V17.7839ZM80.4963 55.2439C80.4937 55.6957 80.3123 56.128 79.9919 56.4466C79.6715 56.7651 79.2381 56.9439 78.7863 56.9439H70.8563C70.4054 56.9439 69.973 56.7648 69.6542 56.446C69.3354 56.1271 69.1563 55.6947 69.1563 55.2439V50.9139H80.0563C80.2163 50.9139 80.3463 50.9139 80.4963 50.9139V55.2439Z" fill="#558CC9"/>
<path d="M81.8163 11.2839C78.6963 11.2839 76.8163 13.2839 76.8163 16.6339C76.8163 19.9839 79.2163 20.5039 81.8163 20.5039C85.6463 20.5039 88.6563 18.5039 88.6563 15.8939C88.6563 13.2839 85.6463 11.2839 81.8163 11.2839ZM81.8163 17.7239C79.6163 17.7239 79.6163 17.5339 79.6163 16.6339C79.6163 14.5039 80.4963 14.0639 81.8163 14.0639C84.2563 14.0639 85.8163 15.1639 85.8163 15.8939C85.8163 16.6239 84.3063 17.7239 81.8163 17.7239Z" fill="#558CC9"/>
<path d="M75.0963 35.024C76.1572 35.024 77.1746 34.6025 77.9247 33.8524C78.6749 33.1022 79.0963 32.0848 79.0963 31.024V28.634C79.0989 28.0221 78.9611 27.4177 78.6934 26.8674C78.4258 26.3172 78.0355 25.8356 77.5525 25.4599C77.0696 25.0841 76.5068 24.8242 75.9076 24.7001C75.3085 24.576 74.6888 24.591 74.0963 24.744L64.6463 27.144C63.6972 27.3817 62.8681 27.9592 62.316 28.767C61.7638 29.5748 61.527 30.557 61.6502 31.5276C61.7733 32.4983 62.248 33.3902 62.9844 34.0345C63.7208 34.6788 64.6678 35.0308 65.6463 35.024H75.0963ZM64.4163 31.024C64.4194 30.7604 64.5078 30.505 64.6683 30.2959C64.8287 30.0868 65.0526 29.9352 65.3063 29.864L74.7663 27.474C74.8657 27.4589 74.9669 27.4589 75.0663 27.474C75.3355 27.4729 75.5969 27.5647 75.8063 27.734C75.959 27.8508 76.0814 28.0026 76.1632 28.1767C76.245 28.3507 76.2838 28.5418 76.2763 28.734V31.124C76.2763 31.4458 76.1491 31.7546 75.9225 31.9831C75.6959 32.2116 75.3881 32.3413 75.0663 32.344H65.6363C65.4673 32.3445 65.3 32.31 65.1451 32.2425C64.9902 32.1751 64.8509 32.0761 64.7362 31.952C64.6216 31.8279 64.5339 31.6814 64.4788 31.5216C64.4237 31.3618 64.4024 31.1924 64.4163 31.024Z" fill="#558CC9"/>
<path d="M44.0463 38.954C44.0463 39.3226 44.1928 39.6762 44.4534 39.9368C44.7141 40.1975 45.0677 40.344 45.4363 40.344H65.3063C65.6559 40.3143 65.9816 40.1545 66.219 39.8962C66.4564 39.6378 66.5881 39.2998 66.5881 38.949C66.5881 38.5981 66.4564 38.2601 66.219 38.0017C65.9816 37.7434 65.6559 37.5836 65.3063 37.554H45.4363C45.0668 37.5566 44.7132 37.7053 44.4528 37.9675C44.1924 38.2298 44.0463 38.5844 44.0463 38.954Z" fill="#558CC9"/>
<path d="M21.1163 28.4338C19.1701 28.4338 17.2677 29.0109 15.6495 30.0922C14.0313 31.1734 12.7701 32.7102 12.0253 34.5082C11.2806 36.3063 11.0857 38.2848 11.4654 40.1935C11.8451 42.1023 12.7822 43.8556 14.1584 45.2318C15.5345 46.6079 17.2878 47.5451 19.1966 47.9248C21.1054 48.3044 23.0839 48.1096 24.8819 47.3648C26.6799 46.62 28.2167 45.3588 29.298 43.7407C30.3792 42.1225 30.9563 40.22 30.9563 38.2738C30.9537 35.6649 29.9161 33.1636 28.0713 31.3188C26.2265 29.474 23.7252 28.4365 21.1163 28.4338ZM21.1163 45.3338C19.7196 45.3358 18.3536 44.9234 17.1913 44.1489C16.0289 43.3743 15.1225 42.2724 14.5866 40.9825C14.0507 39.6926 13.9095 38.2728 14.1807 36.9026C14.452 35.5325 15.1236 34.2736 16.1106 33.2852C17.0976 32.2969 18.3555 31.6235 19.7253 31.3502C21.0951 31.077 22.5151 31.2162 23.8057 31.7503C25.0964 32.2844 26.1996 33.1892 26.9758 34.3505C27.752 35.5117 28.1663 36.8771 28.1663 38.2738C28.1637 40.1437 27.4204 41.9364 26.0991 43.2596C24.7778 44.5827 22.9862 45.3286 21.1163 45.3338Z" fill="#558CC9"/>
<path d="M40.5563 38.9238C41.1184 38.7643 41.6014 38.402 41.9117 37.9069C42.2221 37.4118 42.3377 36.8192 42.2363 36.2438L41.6563 32.9538C41.552 32.381 41.2405 31.8667 40.7813 31.5089C40.322 31.1511 39.7472 30.9749 39.1663 31.0138L34.9663 31.3238L34.0563 29.7538L36.4263 26.2738C36.7553 25.7908 36.8925 25.2025 36.8111 24.6238C36.7298 24.045 36.4357 23.5174 35.9863 23.1438L33.4363 20.9938C32.9891 20.617 32.4175 20.4206 31.8331 20.4428C31.2488 20.4649 30.6937 20.7042 30.2763 21.1138L27.2763 24.0438L25.5763 23.4238L25.1463 19.2338C25.0869 18.6547 24.8146 18.1183 24.3823 17.7285C23.95 17.3387 23.3884 17.1232 22.8063 17.1238H19.4463C18.8642 17.1232 18.3026 17.3387 17.8703 17.7285C17.438 18.1183 17.1658 18.6547 17.1063 19.2338L16.6763 23.4238L14.9763 24.0438L11.9763 21.1138C11.5589 20.7042 11.0039 20.4649 10.4195 20.4428C9.83517 20.4206 9.26354 20.617 8.81631 20.9938L6.25631 23.1438C5.80847 23.5188 5.51632 24.0471 5.43683 24.6257C5.35733 25.2044 5.49618 25.7919 5.82631 26.2738L8.18631 29.7538L7.30631 31.3238L3.09631 31.0138C2.51662 30.9752 1.94308 31.1518 1.48549 31.5097C1.0279 31.8677 0.718417 32.3819 0.616308 32.9538L0.0363079 36.2438C-0.0655666 36.8179 0.0486904 37.4094 0.357053 37.9042C0.665415 38.3991 1.14605 38.7623 1.70631 38.9238L5.75631 40.0638L6.03631 41.8638L2.62631 44.3138C2.15026 44.6532 1.81783 45.1579 1.69394 45.7293C1.57005 46.3006 1.66359 46.8977 1.95631 47.4038L3.62631 50.2938C3.9123 50.8038 4.37819 51.1889 4.93295 51.3739C5.4877 51.5588 6.09148 51.5302 6.62631 51.2938L10.4663 49.5738L11.8563 50.7438L10.8563 54.8238C10.7211 55.3815 10.7938 55.9693 11.0607 56.4773C11.3276 56.9853 11.7704 57.3787 12.3063 57.5838L15.4463 58.7238C15.7214 58.8248 16.0133 58.8723 16.3063 58.8638C16.7491 58.8643 17.183 58.7398 17.5581 58.5045C17.9332 58.2692 18.2341 57.9327 18.4263 57.5338L20.2563 53.7438H22.0663L23.9063 57.5338C24.1589 58.0588 24.5975 58.4713 25.1371 58.6912C25.6767 58.9111 26.2787 58.9227 26.8263 58.7238L29.9663 57.5838C30.5155 57.3857 30.9713 56.9902 31.2449 56.4745C31.5185 55.9587 31.5903 55.3596 31.4463 54.7938L30.4463 50.7138L31.8363 49.5438L35.6763 51.2738C36.2111 51.5102 36.8149 51.5388 37.3697 51.3539C37.9244 51.1689 38.3903 50.7838 38.6763 50.2738L40.3063 47.4038C40.6 46.8988 40.6952 46.3026 40.5731 45.7313C40.4511 45.16 40.1207 44.6547 39.6463 44.3138L36.1963 41.8638L36.5063 40.0738L40.5563 38.9238ZM34.3463 43.9238L37.6563 46.3238L36.3763 48.5638L32.6463 46.8638C32.2426 46.6822 31.796 46.6178 31.3575 46.6779C30.919 46.738 30.5062 46.9202 30.1663 47.2038L28.3663 48.7238C28.0269 49.0077 27.7745 49.3818 27.6383 49.8028C27.5021 50.2239 27.4875 50.6748 27.5963 51.1038L28.5963 55.1038L26.1963 55.9838L24.4063 52.2938C24.2147 51.8987 23.9166 51.5649 23.5456 51.3299C23.1746 51.0949 22.7454 50.9681 22.3063 50.9638H19.9363C19.4951 50.9647 19.0629 51.0887 18.6883 51.3219C18.3138 51.5551 18.0118 51.8882 17.8163 52.2838L16.0363 55.9738L13.6263 55.0938L14.6263 51.0938C14.7312 50.6632 14.7147 50.2119 14.5788 49.7901C14.4429 49.3682 14.1928 48.9922 13.8563 48.7038L12.0463 47.1938C11.7064 46.9138 11.2949 46.7345 10.8584 46.6762C10.4219 46.6179 9.97781 46.6829 9.57631 46.8638L5.84631 48.5638L4.56631 46.3538L7.88631 43.9538C8.24568 43.6949 8.5246 43.3398 8.69092 42.9294C8.85723 42.5189 8.90416 42.0698 8.82631 41.6338L8.41631 39.3138C8.33941 38.8799 8.14205 38.4763 7.84675 38.1492C7.55146 37.822 7.17013 37.5845 6.74631 37.4638L2.80631 36.3438L3.24631 33.8638L7.32631 34.1638C7.76696 34.193 8.20705 34.099 8.59735 33.8924C8.98765 33.6858 9.31275 33.3746 9.53631 32.9938L10.7163 30.9938C10.936 30.6101 11.0439 30.1727 11.028 29.7309C11.0121 29.2892 10.873 28.8606 10.6263 28.4938L8.30631 25.0238L10.3063 23.3838L13.2463 26.2338C13.5638 26.5398 13.9607 26.7506 14.392 26.8426C14.8232 26.9345 15.2716 26.9037 15.6863 26.7538L17.9063 25.9538C18.3235 25.7979 18.6883 25.5275 18.9589 25.1738C19.2295 24.8201 19.395 24.3972 19.4363 23.9538L19.8363 19.8638H22.3963L22.8063 23.9338C22.8496 24.378 23.017 24.8011 23.2893 25.1548C23.5616 25.5084 23.9279 25.7784 24.3463 25.9338L26.5563 26.7338C26.9725 26.8846 27.4226 26.9158 27.8556 26.8239C28.2886 26.7319 28.6872 26.5206 29.0063 26.2138L31.9363 23.3638L33.9363 25.0038L31.6063 28.4138C31.3574 28.7797 31.2169 29.2085 31.201 29.6508C31.1851 30.0931 31.2944 30.5309 31.5163 30.9138L32.6863 32.9138C32.9124 33.2923 33.238 33.6015 33.6277 33.8078C34.0174 34.0141 34.4562 34.1096 34.8963 34.0838L38.9763 33.7838L39.4263 36.3038L35.4863 37.4638C35.0625 37.5845 34.6812 37.822 34.3859 38.1492C34.0906 38.4763 33.8932 38.8799 33.8163 39.3138L33.4063 41.6338C33.3253 42.0659 33.3667 42.5121 33.5257 42.922C33.6847 43.332 33.9551 43.6893 34.3063 43.9538L34.3463 43.9238Z" fill="#558CC9"/>
</svg>
