<svg width="22" height="23" viewBox="0 0 22 23" fill="none" xmlns="http://www.w3.org/2000/svg">
<path d="M19.5164 2.24175C18.94 1.71594 16.6102 0.0393059 11.4213 0.0165411C11.4213 0.0165411 5.30267 -0.349618 2.31977 2.36357C0.659532 4.00997 0.0753217 6.41829 0.0134938 9.40611C-0.0476277 12.3939 -0.127939 17.991 5.31475 19.5093L5.31974 19.5107L5.31689 21.8267C5.31689 21.8267 5.28278 22.7649 5.90466 22.9555C6.65804 23.1874 7.10009 22.4744 7.81934 21.7063C8.2145 21.2851 8.75889 20.6656 9.16972 20.1921C12.8925 20.5011 15.7552 19.7922 16.0801 19.6876C16.832 19.4453 21.085 18.9057 21.7765 13.3086C22.4901 7.53737 21.4304 3.88815 19.5164 2.24175ZM20.1596 12.8915C19.5747 17.5656 16.1262 17.8609 15.4909 18.0632C15.2201 18.1492 12.7048 18.7694 9.54354 18.5643L6.11648 22.2425L6.11293 18.004L6.08592 17.9972C1.48185 16.7293 1.63677 11.976 1.68866 9.48105C1.74055 6.98606 2.21319 4.94186 3.61828 3.5674C6.14065 1.30157 11.3381 1.64024 11.3381 1.64024C15.7275 1.6595 17.8313 2.96928 18.3188 3.4084C19.9378 4.78361 20.763 8.07286 20.1596 12.8915Z" fill="#7A44A1"/>
<path d="M16.1967 13.5887C16.1945 13.5867 15.4988 13.0119 15.159 12.7642C14.8385 12.5309 14.3275 12.217 14.0418 12.0573C13.5293 11.7744 13.0056 11.952 12.7895 12.2301L12.3403 12.7897C12.1101 13.0732 11.7554 13.0257 11.6623 13.0072C10.9985 12.8461 10.2927 12.4441 9.5706 11.7668C8.84002 11.0834 8.39791 10.3697 8.24018 9.62773L8.22878 9.57882C8.18611 9.27389 8.23873 9.1328 8.36735 8.92501L8.39152 8.90568C8.695 8.63245 9.25724 8.30003 9.33252 7.98337C9.55354 7.43346 8.5941 6.28683 8.45692 6.08446C8.45692 6.08446 7.75901 5.18969 7.51098 5.01896C7.243 4.80287 6.82796 4.67965 6.40935 4.92883L6.38802 4.94395C5.18549 5.73201 4.7498 6.18491 4.86849 6.86084L4.93032 7.13268C5.54012 8.99447 6.71778 10.9795 8.47398 12.747C10.211 14.4925 12.0901 15.5379 13.9423 16.262C14.4234 16.4169 14.9223 16.2833 15.4341 15.8601L15.4426 15.8538C15.8349 15.4987 16.1455 15.1188 16.3772 14.712L16.3793 14.7038C16.6046 14.2736 16.5286 13.8661 16.1967 13.5887Z" fill="#7A44A1"/>
<path d="M13.3134 9.51175C13.2402 9.51175 13.1791 9.45466 13.1755 9.3817C13.1514 8.89921 13.0171 8.52961 12.7761 8.28252C12.5366 8.03748 12.1777 7.90055 11.71 7.87574C11.634 7.87159 11.575 7.80692 11.5793 7.73121C11.5835 7.65551 11.6482 7.59772 11.725 7.60116C12.2651 7.63006 12.6851 7.79525 12.9751 8.09188C13.2636 8.38782 13.4243 8.81661 13.452 9.36792C13.4556 9.44363 13.3966 9.50766 13.3205 9.51175H13.3134Z" fill="#7A44A1"/>
<path d="M14.6837 9.96722H14.6801C14.6041 9.96512 14.5437 9.90248 14.5451 9.82678C14.5664 8.90038 14.2871 8.1171 13.7143 7.49767C13.4293 7.1886 13.0831 6.94432 12.6844 6.77154C12.285 6.59876 11.8195 6.49212 11.3021 6.45424C11.226 6.44869 11.1685 6.38267 11.1741 6.30767C11.1799 6.23196 11.2459 6.17481 11.322 6.1803C12.4264 6.26085 13.2999 6.64143 13.9189 7.31252C14.5409 7.98501 14.8451 8.8336 14.8223 9.83302C14.8202 9.90797 14.7583 9.96722 14.6837 9.96722Z" fill="#7A44A1"/>
<path d="M16.0868 10.5112C16.0108 10.5112 15.949 10.4507 15.9482 10.3749C15.9419 9.55594 15.8146 8.81528 15.5687 8.1725C15.3242 7.53445 14.9554 6.9735 14.4721 6.50549C13.9881 6.03811 13.438 5.68159 12.8367 5.44548C12.234 5.20873 11.5624 5.08626 10.8403 5.08142C10.7642 5.08072 10.7024 5.01879 10.7031 4.94308C10.7038 4.86737 10.7657 4.80678 10.8417 4.80678H10.8424C12.3584 4.81782 13.644 5.32302 14.6654 6.30931C15.1778 6.80487 15.5687 7.39885 15.8274 8.07543C16.0846 8.74786 16.2183 9.5215 16.2254 10.3729C16.2261 10.4486 16.1643 10.5105 16.0883 10.5112H16.0868Z" fill="#7A44A1"/>
</svg>
