<svg width="80" height="54" viewBox="0 0 80 54" fill="none" xmlns="http://www.w3.org/2000/svg">
<path d="M6.0261 34.512C5.7283 34.512 5.4271 34.427 5.1608 34.2492C1.92934 32.0945 0 28.4899 0 24.6063V8.02751C0 6.83261 0.65434 5.74011 1.70807 5.17641C2.76117 4.61231 4.03304 4.67451 5.0277 5.33731L8.3767 7.57001C9.0945 8.04851 9.2886 9.01881 8.8101 9.73691C8.3314 10.4553 7.3614 10.6494 6.6433 10.1703L3.294 7.93751C3.27119 7.92251 3.23992 7.90161 3.18242 7.93191C3.12492 7.96221 3.12493 8.00041 3.12493 8.02791V24.6066C3.12493 27.4431 4.53397 30.0761 6.8942 31.6495C7.6123 32.1283 7.8061 33.0983 7.3277 33.8164C7.0264 34.2673 6.5308 34.512 6.0261 34.512Z" fill="#558CC9"/>
<path d="M73.9724 34.5115C73.4675 34.5115 72.9721 34.2672 72.6709 33.8153C72.1922 33.0972 72.3862 32.1272 73.1043 31.6485C75.4646 30.0751 76.8736 27.442 76.8736 24.6055V8.02681C76.8736 7.99931 76.8736 7.96151 76.8161 7.93081C76.7596 7.90021 76.7277 7.92121 76.7046 7.93651L73.3552 10.1692C72.6371 10.648 71.6672 10.4539 71.1884 9.73581C70.7097 9.01771 70.9037 8.04771 71.6218 7.56901L74.9712 5.33621C75.9649 4.67341 77.2371 4.61151 78.2908 5.17531C79.3442 5.73931 79.9986 6.83181 79.9986 8.02651V24.6052C79.9986 28.4892 78.0692 32.0941 74.8377 34.2481C74.5712 34.4262 74.2703 34.5112 73.9724 34.5115Z" fill="#558CC9"/>
<path d="M39.9992 53.2598C35.499 53.2598 31.0975 51.9511 27.2707 49.4749L10.7408 38.7789C10.2958 38.4908 10.0271 37.997 10.0271 37.4671V11.1816C10.0271 10.3185 10.7268 9.6192 11.5895 9.6192C16.9179 9.6192 24.6324 6.8536 33.3122 1.8325C35.385 0.6337 37.6971 0 39.9992 0C42.3014 0 44.6138 0.6337 46.686 1.8325C55.3661 6.8536 63.0809 9.6192 68.409 9.6192C69.2721 9.6192 69.9714 10.3185 69.9714 11.1816V37.4671C69.9714 37.997 69.703 38.4908 69.2577 38.7789L52.7277 49.4749C48.9006 51.9508 44.4995 53.2598 39.9992 53.2598ZM13.152 36.617L28.9682 46.8509C32.2885 48.9993 36.1028 50.1349 39.9992 50.1349C43.8957 50.1349 47.71 48.9993 51.0303 46.8509L66.8465 36.617V12.6832C59.6323 12.1382 51.1515 8.0258 45.1213 4.5374C43.5239 3.6134 41.753 3.1246 39.9992 3.1246C38.2458 3.1246 36.4746 3.6131 34.8769 4.5374C28.8464 8.0261 20.3665 12.1388 13.152 12.6832V36.617Z" fill="#558CC9"/>
<path d="M24.5406 18.8446C23.8769 18.8449 23.2616 18.4187 23.051 17.7524C22.791 16.9293 23.2475 16.0518 24.0703 15.7922C24.4444 15.674 33.3073 12.8994 39.9991 12.8994C46.6908 12.8994 55.5537 15.674 55.9281 15.7922C56.7509 16.0518 57.2071 16.9296 56.9474 17.7521C56.6878 18.5752 55.8084 19.0299 54.9875 18.7721C54.9006 18.7446 46.2052 16.0243 39.9994 16.0243C33.7842 16.0243 25.0987 18.7443 25.0118 18.7718C24.8553 18.8212 24.6966 18.8446 24.5406 18.8446Z" fill="#558CC9"/>
<path d="M39.999 39.3682C33.307 39.3682 24.4443 36.5935 24.0703 36.4754C23.2475 36.2157 22.7912 35.338 23.0509 34.5155C23.3103 33.6924 24.1875 33.2367 25.0109 33.4955C25.0981 33.523 33.7929 36.2433 39.9987 36.2433C46.2139 36.2433 54.8997 33.5233 54.9865 33.4958C55.8106 33.2358 56.6874 33.6927 56.9468 34.5152C57.2068 35.3383 56.7502 36.2157 55.9274 36.4754C55.5537 36.5935 46.6907 39.3682 39.999 39.3682Z" fill="#558CC9"/>
<path d="M55.0399 28.1923H24.9589C24.0961 28.1923 23.3965 27.493 23.3965 26.6299C23.3965 25.7667 24.0961 25.0674 24.9589 25.0674H55.0399C55.903 25.0674 56.6023 25.7667 56.6023 26.6299C56.6023 27.493 55.903 28.1923 55.0399 28.1923Z" fill="#558CC9"/>
</svg>
