<svg width="57" height="51" viewBox="0 0 57 51" fill="none" xmlns="http://www.w3.org/2000/svg">
<path d="M56.1685 34.0602H18.1201V28.3389H56.1685V34.0602ZM19.9321 32.2326H54.3568V30.1665H19.9321V32.2326Z" fill="white"/>
<path d="M53.4861 50.4387H20.7988C20.0798 50.4387 19.4067 50.1596 18.9048 49.6519C18.4057 49.1459 18.1201 48.4484 18.1201 47.7365L18.1204 26.952C18.1204 26.2312 18.3987 25.5519 18.9037 25.0394C19.4126 24.528 20.0832 24.2478 20.7966 24.2461H53.4864C54.2003 24.2461 54.871 24.526 55.3787 25.0345C55.889 25.551 56.1685 26.2309 56.1685 26.952L56.1651 47.7368C56.1699 48.4479 55.8829 49.1479 55.3779 49.653C54.8825 50.1576 54.2087 50.4387 53.4861 50.4387ZM53.4904 26.0737H20.7988C20.5688 26.0743 20.3497 26.1658 20.1854 26.3307C20.0234 26.495 19.9321 26.7168 19.9321 26.9517L19.9318 47.7362C19.9318 47.9682 20.0251 48.196 20.188 48.3609C20.3472 48.5218 20.5646 48.6108 20.7991 48.6108H53.4867C53.653 48.6108 53.8934 48.5677 54.0964 48.3609C54.2638 48.1937 54.3554 47.9702 54.3537 47.7416L54.3568 26.9511C54.3568 26.7174 54.2652 26.4958 54.0989 26.3275C53.936 26.1649 53.7187 26.0737 53.4904 26.0737Z" fill="white"/>
<path d="M52.2321 38.8916H37.3418V40.7192H52.2321V38.8916Z" fill="white"/>
<path d="M45.6911 42.0693H37.3408V43.8972H45.6911V42.0693Z" fill="white"/>
<path d="M31.2124 45.4309C30.2558 45.4309 29.3482 45.0873 28.6359 44.4801C27.9232 45.0875 27.0146 45.4309 26.0558 45.4309C23.8515 45.4309 22.0586 43.6209 22.0586 41.3958C22.0586 39.1707 23.8515 37.3604 26.0558 37.3604C27.0144 37.3604 27.9234 37.704 28.6359 38.3111C29.3476 37.7037 30.2553 37.3604 31.2124 37.3604C33.4187 37.3604 35.2141 39.1707 35.2141 41.3958C35.2141 43.6209 33.4187 45.4309 31.2124 45.4309ZM28.6365 42.2057C28.9401 42.2057 29.2235 42.3587 29.3911 42.6137C29.7992 43.233 30.4794 43.6027 31.2124 43.6027C32.4197 43.6027 33.4024 42.6126 33.4024 41.3955C33.4024 40.1781 32.4197 39.1877 31.2124 39.1877C30.4794 39.1877 29.7992 39.5577 29.3914 40.177C29.2235 40.4322 28.9407 40.5858 28.6368 40.5858C28.3335 40.5858 28.0495 40.4322 27.8819 40.1778C27.4738 39.558 26.7911 39.1877 26.0561 39.1877C24.8513 39.1877 23.8706 40.1781 23.8706 41.3955C23.8706 42.6126 24.8513 43.6027 26.0561 43.6027C26.7914 43.6027 27.4738 43.2327 27.8819 42.6131C28.0498 42.3587 28.3335 42.2057 28.6365 42.2057Z" fill="white"/>
<path d="M38.0489 21.6273H0V0H38.0489V21.6273ZM1.812 19.7997H36.2372V1.82789H1.812V19.7997Z" fill="white"/>
<path d="M19.0246 16.196C16.0828 16.196 13.6895 13.7817 13.6895 10.8143C13.6895 7.84667 16.0828 5.43262 19.0246 5.43262C21.9659 5.43262 24.3592 7.84667 24.3592 10.8143C24.3592 13.7817 21.9659 16.196 19.0246 16.196ZM19.0246 7.26023C17.0815 7.26023 15.5015 8.8544 15.5015 10.814C15.5015 12.7737 17.0815 14.3678 19.0246 14.3678C20.9672 14.3678 22.5472 12.7734 22.5472 10.814C22.5475 8.8544 20.9672 7.26023 19.0246 7.26023Z" fill="white"/>
<path d="M37.1427 7.51426C33.5353 7.51426 30.5996 4.55342 30.5996 0.914062H32.4113C32.4113 3.54542 34.5339 5.68665 37.1427 5.68665V7.51426Z" fill="white"/>
<path d="M0.90625 7.51426V5.68665C3.515 5.68665 5.63762 3.54542 5.63762 0.914062H7.44934C7.44934 4.55342 4.51396 7.51426 0.90625 7.51426Z" fill="white"/>
<path d="M32.4113 20.7132H30.5996C30.5996 17.0741 33.5353 14.1133 37.1427 14.1133V15.9409C34.5339 15.9409 32.4113 18.0821 32.4113 20.7132Z" fill="white"/>
<path d="M7.44934 20.7132H5.63762C5.63762 18.0818 3.51472 15.9409 0.90625 15.9409V14.1133C4.51396 14.1133 7.44934 17.0741 7.44934 20.7132Z" fill="white"/>
<path d="M32.156 9.90039H27.9287V11.7283H32.156V9.90039Z" fill="white"/>
<path d="M10.1216 9.90039H5.89355V11.7283H10.1216V9.90039Z" fill="white"/>
<path d="M48.9392 11.7283H47.1258V9.90039H48.9392V11.7283ZM45.3124 11.7283H43.499V9.90039H45.3124V11.7283Z" fill="white"/>
<path d="M5.41621 32.4219H3.60449V30.6977H5.41621V32.4219ZM5.41621 28.9735H3.60449V27.249H5.41621V28.9735Z" fill="white"/>
<path d="M5.41621 34.1465H3.60449V35.9741H5.41621V34.1465Z" fill="white"/>
<path d="M12.6697 35.9741H10.8563V34.1465H12.6697V35.9741ZM9.0429 35.9741H7.22949V34.1465H9.0429V35.9741Z" fill="white"/>
</svg>
