<svg width="45" height="51" viewBox="0 0 45 51" fill="none" xmlns="http://www.w3.org/2000/svg">
<path d="M22.2275 50.4386L21.8002 50.1891C8.35349 42.3429 0 27.744 0 12.0906V11.2299H0.853249C6.5215 11.2299 11.1332 6.57845 11.1332 0.860734V0H33.3235V0.860734C33.3235 6.5782 37.9335 11.2299 43.6005 11.2299H44.4537V12.0906C44.4537 27.7463 36.1007 42.3444 22.6545 50.1891L22.2275 50.4386ZM1.7145 12.9203C2.00075 27.4802 9.79249 40.9904 22.2275 48.4462C34.6617 40.9922 42.4527 27.4817 42.739 12.9203C36.8135 12.4936 32.0657 7.70146 31.647 1.72147H12.8097C12.3907 7.70146 7.6415 12.4936 1.7145 12.9203Z" fill="white"/>
<path d="M22.5005 45.3948L22.0652 45.1076C12.3137 38.6753 5.95403 27.8182 5.05236 16.0641L4.99994 15.3836L5.65238 15.2162C10.281 14.027 13.861 10.3663 14.9949 5.66182L15.1437 5.04395H29.8592L30.008 5.66182C31.1416 10.3656 34.7202 14.0263 39.3475 15.2162L39.9999 15.3836L39.9475 16.0643C39.0458 27.8192 32.6866 38.6765 22.936 45.1081L22.5005 45.3948ZM6.70148 16.6013C7.73187 27.4254 13.5903 37.3885 22.5005 43.4576C31.4096 37.3895 37.268 27.4261 38.2981 16.6013C33.6164 15.1593 29.9849 11.4321 28.6192 6.66447H16.3833C15.0168 11.4325 11.3842 15.1597 6.70148 16.6013Z" fill="white"/>
<path d="M28 19.1665L22 25.2191L19 22.1928" stroke="white" stroke-width="2"/>
</svg>
