<svg width="26" height="22" viewBox="0 0 26 22" fill="none" xmlns="http://www.w3.org/2000/svg">
<path fill-rule="evenodd" clip-rule="evenodd" d="M7.38063 22C3.37785 22 0 20.4614 0 17.9978C0 15.5031 3.08342 13.0903 7.0862 13.0903L8.33438 13.0802C7.79206 12.5796 7.3565 11.9595 7.3565 11.1988C7.36909 10.7524 7.49425 10.3154 7.72151 9.92404L7.05522 9.94799C3.76519 9.94799 1.5598 7.73398 1.5598 4.99314C1.5598 2.3139 4.60191 0 7.83685 0H15.0522L13.4339 1.10334H11.1441C12.6643 1.65542 13.4717 3.32387 13.4717 5.03779C13.4717 6.47681 12.6264 7.71393 11.4368 8.59468C10.2695 9.45457 10.0509 9.81421 10.0509 10.5441C10.0509 11.1682 11.299 12.2267 11.9515 12.6654C13.8556 13.9364 14.4703 15.1225 14.4703 17.0931C14.4703 19.5567 11.9481 22 7.38063 22ZM26 8.40615H21.4773V12.6689H19.2168V8.40615H14.6924V6.22635H19.2168V1.95346H21.4773V6.22635H26V8.40615ZM10.8789 5.1675C10.5587 2.86468 8.79063 1.01437 6.93471 0.963366C5.0788 0.912362 3.83408 2.67321 4.15258 4.98288C4.47625 7.28586 6.24262 9.1976 8.09854 9.24975C9.95445 9.30189 11.2026 7.47733 10.8789 5.1675ZM9.648 14.0017C9.0663 13.8251 8.45977 13.7327 7.84891 13.7276C5.08398 13.7004 2.60312 15.3216 2.60312 17.271C2.60312 19.2621 4.60192 20.917 7.37374 20.917C11.2646 20.917 12.6195 19.3618 12.6195 17.3738C12.6175 17.1371 12.5875 16.9014 12.53 16.671C12.227 15.5441 11.1493 14.9855 9.648 14.0017Z" fill="#D7493E"/>
</svg>
