<svg width="49" height="75" viewBox="0 0 49 75" fill="none" xmlns="http://www.w3.org/2000/svg">
<path d="M3.97296 55.1352V37.919C3.97296 36.8653 4.39154 35.8548 5.13661 35.1097C5.88169 34.3646 6.89223 33.946 7.94592 33.946H10.5946C10.9458 33.946 11.2826 34.0856 11.531 34.3339C11.7794 34.5823 11.9189 34.9191 11.9189 35.2704C11.9189 35.6216 11.7794 35.9584 11.531 36.2068C11.2826 36.4552 10.9458 36.5947 10.5946 36.5947H7.94592C7.59469 36.5947 7.25784 36.7342 7.00949 36.9826C6.76113 37.2309 6.6216 37.5678 6.6216 37.919V55.1352C6.6216 55.4864 6.48208 55.8232 6.23372 56.0716C5.98536 56.32 5.64851 56.4595 5.29728 56.4595C4.94605 56.4595 4.6092 56.32 4.36084 56.0716C4.11249 55.8232 3.97296 55.4864 3.97296 55.1352Z" fill="#558CC9"/>
<path d="M45.9274 1.49093L47.1378 0.951936C47.4589 0.809336 47.8234 0.800103 48.1512 0.926269C48.4791 1.05244 48.7434 1.30366 48.886 1.62469C49.0286 1.94572 49.0378 2.31024 48.9116 2.63807C48.7854 2.96591 48.5342 3.23019 48.2132 3.37279L47.0028 3.91047C46.6837 4.0424 46.3258 4.04453 46.0052 3.91639C45.6846 3.78826 45.4267 3.54 45.2865 3.22451C45.1463 2.90903 45.1348 2.55126 45.2545 2.22743C45.3743 1.90361 45.6157 1.63934 45.9274 1.49093ZM29.1562 11.8431L31.54 10.7837C31.8607 10.6404 32.1113 10.3756 32.2367 10.0475C32.3621 9.71941 32.3521 9.35494 32.2088 9.03426C32.0655 8.71359 31.8007 8.46298 31.4726 8.33755C31.1445 8.21213 30.78 8.22218 30.4594 8.36548L28.0756 9.42494C27.9168 9.49589 27.7736 9.59743 27.654 9.72375C27.5345 9.85007 27.441 9.99869 27.3789 10.1611C27.3168 10.3236 27.2873 10.4967 27.2921 10.6705C27.2969 10.8444 27.3358 11.0156 27.4068 11.1744C27.4778 11.3331 27.5793 11.4764 27.7056 11.5959C27.8319 11.7155 27.9806 11.809 28.143 11.8711C28.3055 11.9332 28.4785 11.9627 28.6524 11.9579C28.8262 11.9531 28.9974 11.9141 29.1562 11.8431ZM35.1051 9.19451L37.4889 8.13505C37.8039 7.98855 38.0487 7.72413 38.1706 7.39878C38.2925 7.07343 38.2816 6.71323 38.1404 6.39581C37.9991 6.07839 37.7388 5.82919 37.4155 5.70194C37.0922 5.57468 36.7319 5.57956 36.4122 5.71552L34.0284 6.77497C33.707 6.91775 33.4555 7.18234 33.3292 7.51055C33.2029 7.83875 33.2122 8.20368 33.355 8.52506C33.4978 8.84644 33.7624 9.09794 34.0906 9.22423C34.4188 9.35052 34.7837 9.34125 35.1051 9.19848V9.19451ZM41.0539 6.54587L43.4377 5.48641C43.7587 5.34363 44.0099 5.07918 44.1359 4.75122C44.262 4.42326 44.2526 4.05867 44.1098 3.73764C43.967 3.41662 43.7026 3.16546 43.3746 3.03942C43.0466 2.91337 42.6821 2.92278 42.361 3.06555L39.9773 4.12501C39.8178 4.1957 39.6738 4.29712 39.5535 4.42346C39.4332 4.5498 39.339 4.6986 39.2762 4.86136C39.2134 5.02412 39.1833 5.19764 39.1876 5.37204C39.1919 5.54643 39.2305 5.71827 39.3012 5.87775C39.3719 6.03722 39.4733 6.18121 39.5996 6.3015C39.726 6.42178 39.8748 6.516 40.0375 6.57878C40.2003 6.64156 40.3738 6.67167 40.5482 6.66738C40.7226 6.6631 40.8944 6.62451 41.0539 6.55381V6.54587ZM24.3754 13.9621L25.5859 13.4231C25.8976 13.2747 26.139 13.0104 26.2587 12.6866C26.3785 12.3627 26.367 12.005 26.2268 11.6895C26.0866 11.374 25.8287 11.1257 25.5081 10.9976C25.1875 10.8695 24.8296 10.8716 24.5105 11.0035L23.3001 11.5412C22.9784 11.6838 22.7265 11.9484 22.5998 12.2767C22.4731 12.605 22.4821 12.9702 22.6247 13.292C22.7673 13.6137 23.0318 13.8656 23.3602 13.9922C23.6885 14.1189 24.0537 14.11 24.3754 13.9674V13.9621Z" fill="#558CC9"/>
<path d="M24.5107 25.0996L23.3002 24.5619C22.9792 24.4193 22.728 24.1551 22.6018 23.8272C22.4757 23.4994 22.4849 23.1349 22.6275 22.8138C22.7701 22.4928 23.0344 22.2416 23.3622 22.1154C23.69 21.9893 24.0546 21.9985 24.3756 22.1411L25.586 22.6801C25.8977 22.8285 26.1392 23.0928 26.2589 23.4166C26.3786 23.7404 26.3671 24.0982 26.2269 24.4137C26.0867 24.7291 25.8288 24.9774 25.5082 25.1055C25.1877 25.2337 24.8297 25.2315 24.5107 25.0996ZM43.4379 30.6114L41.0541 29.552C40.8951 29.4814 40.7238 29.4428 40.5499 29.4384C40.3761 29.434 40.203 29.4638 40.0407 29.5263C39.8784 29.5888 39.7299 29.6826 39.6039 29.8025C39.4778 29.9223 39.3766 30.0658 39.306 30.2247C39.2354 30.3837 39.1968 30.555 39.1924 30.7289C39.188 30.9027 39.2178 31.0758 39.2803 31.2381C39.3428 31.4004 39.4366 31.5489 39.5564 31.6749C39.6763 31.801 39.8198 31.9022 39.9787 31.9728L42.3625 33.0323C42.6835 33.1749 43.0481 33.1841 43.3759 33.058C43.7037 32.9318 43.968 32.6806 44.1106 32.3595C44.2532 32.0385 44.2624 31.674 44.1363 31.3462C44.0101 31.0183 43.7589 30.754 43.4379 30.6114ZM37.489 27.9628L35.1052 26.9033C34.7855 26.7674 34.4252 26.7625 34.1019 26.8898C33.7786 27.017 33.5183 27.2662 33.377 27.5836C33.2358 27.901 33.2249 28.2613 33.3468 28.5866C33.4687 28.912 33.7135 29.1764 34.0286 29.3229L36.4123 30.3823C36.7272 30.496 37.0735 30.4861 37.3815 30.3548C37.6894 30.2234 37.9362 29.9803 38.0721 29.6744C38.2081 29.3684 38.2231 29.0223 38.1142 28.7058C38.0052 28.3892 37.7804 28.1256 37.485 27.9681L37.489 27.9628ZM31.5402 25.3142L29.1564 24.2547C28.8354 24.1119 28.4708 24.1025 28.1428 24.2286C27.8149 24.3546 27.5504 24.6058 27.4076 24.9268C27.2648 25.2478 27.2554 25.6124 27.3815 25.9404C27.5075 26.2683 27.7587 26.5328 28.0797 26.6756L30.4635 27.735C30.7771 27.8442 31.1203 27.8315 31.4251 27.6996C31.7299 27.5676 31.9739 27.326 32.1089 27.0225C32.2438 26.7191 32.2599 26.376 32.1538 26.0613C32.0477 25.7466 31.8273 25.4832 31.5362 25.3234L31.5402 25.3142ZM48.2173 32.7303L47.0069 32.1927C46.6879 32.0607 46.3299 32.0586 46.0093 32.1867C45.6887 32.3149 45.4309 32.5631 45.2906 32.8786C45.1504 33.1941 45.139 33.5519 45.2587 33.8757C45.3784 34.1995 45.6198 34.4638 45.9315 34.6122L47.142 35.1512C47.4573 35.2661 47.8045 35.2569 48.1134 35.1256C48.4223 34.9943 48.6698 34.7506 48.8058 34.4438C48.9419 34.137 48.9564 33.79 48.8464 33.4729C48.7365 33.1558 48.5102 32.8923 48.2134 32.7356L48.2173 32.7303Z" fill="#558CC9"/>
<path d="M43.7026 19.3786H42.3783C42.027 19.3786 41.6902 19.239 41.4418 18.9907C41.1935 18.7423 41.0539 18.4055 41.0539 18.0542C41.0539 17.703 41.1935 17.3662 41.4418 17.1178C41.6902 16.8694 42.027 16.7299 42.3783 16.7299H43.7026C44.0538 16.7299 44.3906 16.8694 44.639 17.1178C44.8874 17.3662 45.0269 17.703 45.0269 18.0542C45.0269 18.4055 44.8874 18.7423 44.639 18.9907C44.3906 19.239 44.0538 19.3786 43.7026 19.3786ZM38.7099 16.7299H36.2665C35.9153 16.7299 35.5784 16.8694 35.3301 17.1178C35.0817 17.3662 34.9422 17.703 34.9422 18.0542C34.9422 18.4055 35.0817 18.7423 35.3301 18.9907C35.5784 19.239 35.9153 19.3786 36.2665 19.3786H38.7099C39.0611 19.3786 39.398 19.239 39.6463 18.9907C39.8947 18.7423 40.0342 18.4055 40.0342 18.0542C40.0342 17.703 39.8947 17.3662 39.6463 17.1178C39.398 16.8694 39.0611 16.7299 38.7099 16.7299ZM32.5981 16.7299H30.1535C29.8022 16.7299 29.4654 16.8694 29.217 17.1178C28.9687 17.3662 28.8291 17.703 28.8291 18.0542C28.8291 18.4055 28.9687 18.7423 29.217 18.9907C29.4654 19.239 29.8022 19.3786 30.1535 19.3786H32.5981C32.9494 19.3786 33.2862 19.239 33.5346 18.9907C33.7829 18.7423 33.9225 18.4055 33.9225 18.0542C33.9225 17.703 33.7829 17.3662 33.5346 17.1178C33.2862 16.8694 32.9494 16.7299 32.5981 16.7299ZM26.4864 16.7299H25.1621C24.8109 16.7299 24.474 16.8694 24.2257 17.1178C23.9773 17.3662 23.8378 17.703 23.8378 18.0542C23.8378 18.4055 23.9773 18.7423 24.2257 18.9907C24.474 19.239 24.8109 19.3786 25.1621 19.3786H26.4864C26.8376 19.3786 27.1745 19.239 27.4228 18.9907C27.6712 18.7423 27.8107 18.4055 27.8107 18.0542C27.8107 17.703 27.6712 17.3662 27.4228 17.1178C27.1745 16.8694 26.8376 16.7299 26.4864 16.7299Z" fill="#558CC9"/>
<path d="M22.5134 29.9731H21.1891V26.1207C21.204 25.4025 20.9336 24.7078 20.4371 24.1887C19.9406 23.6696 19.2586 23.3685 18.5405 23.3515V15.5102C18.5533 14.7942 18.2816 14.1023 17.7852 13.5862C17.2887 13.0701 16.6078 12.7719 15.8918 12.757H10.5946C9.87858 12.7719 9.19773 13.0701 8.70125 13.5862C8.20477 14.1023 7.93315 14.7942 7.94592 15.5102V23.3515C7.22782 23.3685 6.54577 23.6696 6.04927 24.1887C5.55278 24.7078 5.28236 25.4025 5.29728 26.1207V29.9731H3.97296C2.91927 29.9731 1.90873 30.3917 1.16365 31.1368C0.418578 31.8818 0 32.8924 0 33.9461V37.919C0 38.2703 0.139526 38.6071 0.387885 38.8555C0.636243 39.1038 0.973089 39.2434 1.32432 39.2434C1.67555 39.2434 2.0124 39.1038 2.26076 38.8555C2.50911 38.6071 2.64864 38.2703 2.64864 37.919V33.9461C2.64864 33.5949 2.78817 33.258 3.03652 33.0096C3.28488 32.7613 3.62173 32.6218 3.97296 32.6218H22.5134C22.8647 32.6218 23.2015 32.7613 23.4499 33.0096C23.6982 33.258 23.8378 33.5949 23.8378 33.9461V71.027C23.8378 71.3783 23.6982 71.7151 23.4499 71.9635C23.2015 72.2118 22.8647 72.3514 22.5134 72.3514H3.97296C3.62173 72.3514 3.28488 72.2118 3.03652 71.9635C2.78817 71.7151 2.64864 71.3783 2.64864 71.027V43.2163C2.64864 42.8651 2.50911 42.5282 2.26076 42.2799C2.0124 42.0315 1.67555 41.892 1.32432 41.892C0.973089 41.892 0.636243 42.0315 0.387885 42.2799C0.139526 42.5282 0 42.8651 0 43.2163V71.027C0 72.0807 0.418578 73.0913 1.16365 73.8364C1.90873 74.5814 2.91927 75 3.97296 75H22.5134C23.5671 75 24.5777 74.5814 25.3227 73.8364C26.0678 73.0913 26.4864 72.0807 26.4864 71.027V33.9461C26.4864 32.8924 26.0678 31.8818 25.3227 31.1368C24.5777 30.3917 23.5671 29.9731 22.5134 29.9731ZM10.5946 15.4056L15.8918 15.5102V18.0542H15.2297C14.8785 18.0542 14.5416 18.1938 14.2932 18.4421C14.0449 18.6905 13.9054 19.0273 13.9054 19.3786C13.9054 19.7298 14.0449 20.0666 14.2932 20.315C14.5416 20.5634 14.8785 20.7029 15.2297 20.7029H15.8918V23.3515H10.5946V15.4056ZM7.94592 29.9731C7.94592 25.7975 7.95519 26.0002 7.95519 26.0002L18.4955 25.9882C18.5696 26.0399 18.5405 29.8831 18.5405 29.9731H7.94592Z" fill="#558CC9"/>
<path d="M5.29728 60.4325C5.03536 60.4325 4.77931 60.3548 4.56153 60.2093C4.34375 60.0637 4.174 59.8569 4.07377 59.6149C3.97354 59.3729 3.94731 59.1067 3.99841 58.8498C4.04951 58.5929 4.17564 58.3569 4.36085 58.1717C4.54606 57.9865 4.78203 57.8604 5.03892 57.8093C5.29581 57.7582 5.56209 57.7844 5.80408 57.8846C6.04606 57.9849 6.2529 58.1546 6.39842 58.3724C6.54393 58.5902 6.6216 58.8462 6.6216 59.1081C6.6216 59.4594 6.48208 59.7962 6.23372 60.0446C5.98536 60.2929 5.64851 60.4325 5.29728 60.4325Z" fill="#558CC9"/>
</svg>
