<svg width="58" height="51" viewBox="0 0 58 51" fill="none" xmlns="http://www.w3.org/2000/svg">
<path d="M56.2179 20.8259L51.4185 25.6186L37.286 11.5059L47.5259 1.28034L46.2437 0L36.0048 10.2246C35.6612 10.566 35.4726 11.0214 35.4726 11.5059C35.4726 11.9903 35.6612 12.4458 36.0039 12.7862L36.5353 13.3168L34.7218 15.1278H29.2813L27.8433 16.5639L26.4052 15.1278H22.7782L20.9647 13.3168L21.4961 12.7862C21.8388 12.4439 22.0274 11.9894 22.0274 11.5059C22.0274 11.0224 21.8388 10.5678 21.4961 10.2255L11.2563 0L9.97414 1.28034L20.214 11.5059L6.0815 25.6186L1.28213 20.8259L0 22.1063L4.79847 26.898C5.14031 27.2412 5.5964 27.4296 6.0815 27.4296C6.56661 27.4296 7.0227 27.2412 7.36363 26.899L7.89498 26.3683L9.70846 28.1793V29.9902L12.9591 33.2373L12.5384 33.6574C11.1846 35.0093 11.1846 37.2087 12.5384 38.5597C13.194 39.2152 14.0663 39.5747 14.9939 39.5747C15.0528 39.5747 15.109 39.5602 15.167 39.5575C15.1199 40.5019 15.4445 41.4617 16.1654 42.1807C16.8209 42.8362 17.6932 43.1957 18.6208 43.1957C18.6797 43.1957 18.736 43.1812 18.794 43.1785C18.7468 44.1229 19.0715 45.0827 19.7923 45.8017C20.4479 46.4572 21.3202 46.8167 22.2478 46.8167C22.3067 46.8167 22.3629 46.8022 22.421 46.7995C22.3738 47.7439 22.6984 48.7037 23.4193 49.4226C24.0749 50.0782 24.9471 50.4377 25.8747 50.4377C26.8023 50.4377 27.6737 50.0773 28.3293 49.4226L28.75 49.0052L29.1707 49.4254C29.8472 50.1008 30.7367 50.4386 31.6253 50.4386C32.5139 50.4386 33.4034 50.1008 34.0798 49.4254C34.8016 48.7055 35.1253 47.7457 35.079 46.8004C35.1371 46.804 35.1942 46.8176 35.2522 46.8176C36.1408 46.8176 37.0303 46.4799 37.7068 45.8044C38.4285 45.0845 38.7522 44.1247 38.706 43.1794C38.764 43.183 38.8212 43.1966 38.8792 43.1966C39.7678 43.1966 40.6573 42.8589 41.3337 42.1834C42.0555 41.4635 42.3792 40.5037 42.333 39.5584C42.391 39.562 42.4481 39.5756 42.5062 39.5756C43.3948 39.5756 44.2843 39.2379 44.9607 38.5624C46.3145 37.2114 46.3145 35.0111 44.9607 33.6601L44.54 33.2373L47.7915 29.9902V28.1793L49.605 26.3683L50.1364 26.899C50.4791 27.2412 50.9343 27.4296 51.4185 27.4296C51.9027 27.4296 52.3579 27.2412 52.7006 26.899L57.5 22.1063L56.2179 20.8259ZM13.8205 37.2793C13.174 36.6337 13.174 35.5834 13.8205 34.9378L14.2422 34.5176L16.5861 36.8592L16.1654 37.2793C15.5397 37.905 14.448 37.9032 13.8205 37.2793ZM17.4475 40.9012C16.801 40.2556 16.801 39.2053 17.4475 38.5597L17.8691 38.1395L20.213 40.4811L19.7923 40.9012C19.1667 41.5278 18.075 41.5251 17.4475 40.9012ZM21.0744 44.5231C20.4279 43.8775 20.4279 42.8272 21.0744 42.1816L21.4961 41.7614L23.84 44.103L23.4193 44.5231C22.7936 45.1497 21.7019 45.147 21.0744 44.5231ZM27.0462 48.145C26.4206 48.7716 25.328 48.7689 24.7014 48.145C24.0549 47.4994 24.0549 46.4491 24.7014 45.8035L25.123 45.3833L27.467 47.7249L27.0462 48.145ZM45.9781 27.4296V29.2405L43.2578 31.9569L40.2719 28.9752L38.9898 30.2556L43.6786 34.9378C44.3251 35.5834 44.3251 36.6337 43.6786 37.2793C43.0321 37.9249 41.9802 37.9249 41.3337 37.2793L36.645 32.5971L35.3629 33.8775L40.0516 38.5597C40.6981 39.2053 40.6981 40.2556 40.0516 40.9012C39.4051 41.5468 38.3533 41.5468 37.7068 40.9012L33.018 36.219L31.7359 37.4994L36.4246 42.1816C37.0712 42.8272 37.0712 43.8775 36.4246 44.5231C35.7781 45.1687 34.7263 45.1687 34.0798 44.5231L29.3911 39.8409L28.1089 41.1213L32.7977 45.8035C33.4442 46.4491 33.4442 47.4994 32.7977 48.145C32.1512 48.7906 31.0994 48.7906 30.4529 48.145L11.5219 29.2405V27.4296L9.17711 25.088L19.6826 14.5972L22.0274 16.9387H25.6544L26.5611 17.8442L21.6058 22.7917C20.2529 24.1445 20.2529 26.3439 21.6058 27.694C22.2614 28.3495 23.1337 28.709 24.0612 28.709C24.9888 28.709 25.8602 28.3486 26.5158 27.694L31.8456 22.3716H32.4404C32.6327 23.7207 33.2529 24.9667 34.2358 25.9473C35.4354 27.1443 37.0294 27.8044 38.7241 27.8044H40.5376C42.5379 27.8044 44.1646 26.18 44.1646 24.1825H42.3511C42.3511 25.1813 41.5378 25.9935 40.5376 25.9935H38.7241C37.5136 25.9935 36.3748 25.5226 35.5188 24.667C34.6628 23.8122 34.1904 22.6749 34.1904 21.4661V20.5606H31.0948L25.2328 26.4136C24.6071 27.0402 23.5145 27.0375 22.8879 26.4136C22.2414 25.768 22.2423 24.7177 22.8879 24.073L30.0321 16.9387H35.4726L37.8174 14.5972L48.3229 25.088L45.9781 27.4296Z" fill="white"/>
</svg>
