<svg width="48" height="46" viewBox="0 0 48 46" fill="none" xmlns="http://www.w3.org/2000/svg">
<path d="M12.7294 8.9873C18.3385 9.00625 23.4731 13.2387 24.6377 19.0285C25.1084 21.3702 24.8552 23.6777 24.2401 25.9531C23.2108 29.8633 21.4563 33.5407 19.0698 36.79C18.0347 38.1882 16.8532 39.4424 15.3736 40.3745C13.232 41.7196 11.1204 41.5965 9.08563 40.0941C7.36597 38.8209 6.01761 37.2219 4.87179 35.441C2.71083 32.1125 1.16672 28.4148 0.314767 24.5284C-1.01108 18.4658 1.93692 12.5036 7.54975 10.0104C9.11189 9.31506 10.7622 9.00436 12.7294 8.9873ZM23.098 21.9594C23.098 20.4645 22.9611 19.2615 22.5354 18.1115C21.0577 14.095 18.2353 11.67 14.0496 10.9122C10.0589 10.1903 5.6238 12.2384 3.46905 15.7206C1.74939 18.4942 1.44558 21.4743 2.10007 24.5947C2.96834 28.7362 4.77615 32.4457 7.34159 35.7726C8.27925 36.9965 9.34255 38.1124 10.6797 38.9195C11.6642 39.5125 12.6975 39.7644 13.7364 39.1449C14.5191 38.6919 15.2526 38.1572 15.9249 37.5497C17.5696 36.017 18.8185 34.1622 19.895 32.1938C21.6915 28.9351 22.9705 25.4965 23.098 21.9594Z" fill="white"/>
<path d="M39.0716 0C44.0355 0.0966226 47.8987 3.95016 47.9981 8.81729C48.0262 10.1965 47.6624 11.5038 47.1786 12.775C46.0346 15.7817 44.4594 18.5231 42.1621 20.789C41.6848 21.2426 41.1619 21.6446 40.6018 21.9883C39.5948 22.6305 38.5671 22.5756 37.5526 21.9561C36.2155 21.1395 35.1953 19.9914 34.2839 18.7353C32.508 16.3008 31.0958 13.6749 30.447 10.6986C29.3218 5.5037 33.1306 0.435751 38.3833 0.043577L39.0716 0ZM46.224 9.13747C46.224 4.564 42.2296 1.16326 37.9314 1.90782C34.0213 2.58418 31.3678 6.33352 32.1723 10.2572C32.9374 13.9781 34.9196 17.0643 37.5432 19.73C38.7659 20.9728 39.4391 20.9425 40.6881 19.73C42.6009 17.8866 43.9924 15.668 45.097 13.26C45.7233 11.8997 46.1847 10.4826 46.224 9.13747Z" fill="white"/>
<path d="M29.188 45.9997C24.9442 45.9485 21.3342 45.3972 17.8517 44.1051C17.6439 44.0376 17.4464 43.9413 17.2647 43.819C17.097 43.7113 16.9749 43.5444 16.9222 43.3507C16.8695 43.1571 16.89 42.9506 16.9797 42.7713C17.0491 42.5833 17.1832 42.4268 17.3574 42.3305C17.5317 42.2341 17.7344 42.2043 17.9286 42.2465C18.0821 42.2758 18.2323 42.3209 18.3768 42.3811C20.6999 43.2243 23.1175 43.7735 25.5743 44.0161C28.0572 44.2832 30.5382 44.3021 32.993 43.8266C33.7975 43.6541 34.5727 43.3637 35.294 42.9646C35.9954 42.5857 36.2655 41.9055 36.1136 41.07C35.8791 39.776 35.1946 38.7151 34.3545 37.783C33.3268 36.6462 32.1998 35.5909 31.0952 34.5224C30.1294 33.5865 29.4374 32.5161 29.3118 31.1368C29.1955 29.8751 29.5668 28.7345 30.1969 27.6717C31.1852 26.0064 32.5505 24.6972 34.1032 23.5775C34.1936 23.5008 34.2984 23.4433 34.4113 23.4086C34.5242 23.3738 34.6429 23.3624 34.7602 23.3752C34.8776 23.3879 34.9912 23.4245 35.0942 23.4827C35.1972 23.5409 35.2875 23.6196 35.3597 23.7139C35.6747 24.1137 35.6147 24.648 35.1571 25.0041C34.1013 25.8245 33.0605 26.6676 32.2898 27.7759C31.8666 28.3605 31.5187 28.9971 31.2546 29.6704C30.8027 30.8962 31.1271 32.0064 32.0404 32.9177C33.1168 33.9938 34.2645 35.0017 35.2978 36.1176C36.4324 37.3434 37.4075 38.698 37.8088 40.3804C38.2608 42.275 37.5032 43.9043 35.7835 44.8023C34.6096 45.4142 33.3456 45.6814 32.0554 45.8178C30.9189 45.9277 29.7787 45.9618 29.188 45.9997Z" fill="white"/>
<path d="M12.4401 15.2754C13.6689 15.2761 14.8699 15.6447 15.8916 16.3344C16.9132 17.0242 17.7097 18.0043 18.1804 19.151C18.6512 20.2977 18.7751 21.5596 18.5365 22.7774C18.298 23.9952 17.7077 25.1143 16.8401 25.9934C15.9725 26.8725 14.8666 27.4722 13.6619 27.7169C12.4572 27.9616 11.2077 27.8402 10.0713 27.368C8.93482 26.8959 7.96229 26.0942 7.27645 25.0642C6.59062 24.0341 6.22222 22.8219 6.21778 21.5805C6.21579 19.9109 6.87011 18.3089 8.03691 17.1266C9.20371 15.9443 10.7875 15.2784 12.4401 15.2754ZM12.3782 26.0384C12.9604 26.0455 13.5382 25.9367 14.0788 25.7181C14.6194 25.4996 15.112 25.1757 15.5286 24.7648C15.9453 24.3539 16.2777 23.8642 16.507 23.3235C16.7363 22.7828 16.8579 22.2018 16.8649 21.6136C16.8719 21.0255 16.7642 20.4417 16.5479 19.8956C16.3316 19.3495 16.0109 18.8518 15.6042 18.4309C15.1975 18.01 14.7127 17.6741 14.1776 17.4425C13.6424 17.2109 13.0673 17.088 12.4851 17.0809C10.0959 17.0184 8.06122 19.038 8.00308 21.5312C7.94682 23.926 9.95154 25.991 12.3782 26.0384Z" fill="white"/>
<path d="M39.053 13.4643C38.4622 13.4684 37.8767 13.353 37.3307 13.1251C36.7847 12.8971 36.2894 12.5612 35.8738 12.137C35.4582 11.7128 35.1307 11.209 34.9107 10.6551C34.6906 10.1013 34.5824 9.50853 34.5924 8.91179C34.6024 8.31506 34.7304 7.72636 34.9689 7.18033C35.2074 6.6343 35.5516 6.14196 35.9811 5.73225C36.4107 5.32254 36.917 5.00375 37.4703 4.79461C38.0236 4.58547 38.6127 4.49021 39.203 4.51443C41.654 4.58832 43.6363 6.6496 43.5556 9.04054C43.4694 11.5584 41.4609 13.5325 39.053 13.4643ZM39.1392 6.30859C38.6147 6.30559 38.1011 6.45983 37.6634 6.75178C37.2256 7.04373 36.8834 7.46028 36.68 7.94874C36.4766 8.4372 36.4212 8.97563 36.5208 9.49591C36.6203 10.0162 36.8704 10.495 37.2393 10.8717C37.6082 11.2483 38.0795 11.506 38.5934 11.6121C39.1073 11.7182 39.6408 11.6679 40.1264 11.4677C40.6121 11.2674 41.028 10.9261 41.3216 10.487C41.6152 10.0479 41.7733 9.53066 41.7759 9.00075C41.7789 8.64876 41.7129 8.29967 41.5818 7.97354C41.4507 7.64741 41.2571 7.35069 41.012 7.10048C40.7669 6.85026 40.4753 6.65148 40.1539 6.51557C39.8325 6.37967 39.4877 6.30932 39.1392 6.30859Z" fill="white"/>
</svg>
