<svg width="191" height="35" viewBox="0 0 191 35" fill="none" xmlns="http://www.w3.org/2000/svg">
<path d="M48.4724 20.5431L56.9373 34.9932H61.7276L50.8676 16.4561L48.4724 20.5431Z" fill="white" fill-opacity="0.5"/>
<path d="M19.325 10.1792C20.2369 8.62277 21.5736 7.27321 23.2242 6.24255C24.8748 5.21188 26.7916 4.52985 28.8155 4.25308C30.8394 3.9763 32.912 4.11278 34.8612 4.65116C36.8105 5.18954 38.58 6.11431 40.0231 7.34867C40.7804 6.30577 41.69 5.34808 42.7303 4.49833C40.7839 2.92081 38.427 1.75361 35.8501 1.09111C33.2731 0.428599 30.5484 0.289367 27.8962 0.684666C25.244 1.07997 22.7387 1.9987 20.5829 3.36661C18.4271 4.73452 16.6813 6.51321 15.4865 8.55891L0 34.9923H4.79029L19.325 10.1792Z" fill="white" fill-opacity="0.5"/>
<path d="M42.7305 30.3439L45.4533 34.993H50.2436L45.1256 26.2568L42.7305 30.3439Z" fill="white" fill-opacity="0.5"/>
<path d="M30.864 13.3875C31.4459 13.3823 32.0175 13.5176 32.5121 13.7775C33.0067 14.0375 33.4038 14.4115 33.657 14.8556L34.5932 16.4494L36.9337 12.4418C36.1982 11.547 35.2005 10.8299 34.0389 10.3611C32.8773 9.89229 31.5917 9.68786 30.3086 9.76793C29.0255 9.84801 27.7891 10.2098 26.721 10.8178C25.6529 11.4258 24.7899 12.2589 24.2169 13.2354L11.4844 34.9932H16.2747L28.0865 14.8556C28.3386 14.4135 28.7332 14.0409 29.2248 13.7811C29.7163 13.5213 30.2847 13.3848 30.864 13.3875Z" fill="white" fill-opacity="0.5"/>
<path d="M69.9818 8.55927C68.57 6.12718 66.3808 4.08011 63.6635 2.6513C60.9461 1.22249 57.81 0.469388 54.6123 0.477795C51.6887 0.463034 48.8101 1.08765 46.2544 2.2913C43.6988 3.49496 41.5525 5.23696 40.023 7.34903C39.7343 7.73922 39.4613 8.14263 39.2428 8.55927L36.9413 12.4479L34.6008 16.4556L23.7407 34.9729H28.531L36.9881 20.5426L39.3833 16.4556L42.7302 10.7417L43.0579 10.1795C43.6608 9.14114 44.4504 8.18848 45.3984 7.35565C46.8409 6.12104 48.61 5.19591 50.5588 4.65703C52.5077 4.11816 54.58 3.98109 56.6039 4.25721C58.6277 4.53332 60.5447 5.21466 62.1956 6.24466C63.8466 7.27467 65.1839 8.62362 66.0965 10.1795L80.6312 34.9993H85.4215L69.9818 8.55927Z" fill="white" fill-opacity="0.5"/>
<path d="M54.6125 9.73636C53.4178 9.73299 52.24 9.9763 51.1811 10.4453C50.1222 10.9142 49.214 11.5948 48.5349 12.428C48.3279 12.6808 48.1428 12.9461 47.981 13.2216L46.1008 16.4357L42.7304 22.1694L40.3352 26.2697L35.2173 34.9926H40.0076L42.7304 30.3633L45.1255 26.2697L48.4725 20.5558L50.8676 16.4687L51.8038 14.8749C52.0619 14.433 52.4605 14.0609 52.9547 13.8008C53.4489 13.5407 54.0191 13.4029 54.6008 13.4029C55.1825 13.4029 55.7526 13.5407 56.2469 13.8008C56.7411 14.0609 57.1397 14.433 57.3977 14.8749L69.1862 34.9926H73.9765L61.2362 13.2414C60.6307 12.1896 59.6886 11.3033 58.5174 10.6836C57.3462 10.0638 55.9931 9.73559 54.6125 9.73636Z" fill="white" fill-opacity="0.5"/>
<path d="M95.5405 4.57812H93.2156V31.7919H95.5405V4.57812Z" fill="white" fill-opacity="0.5"/>
<path d="M103.236 29.4497V26.1357H103.867V27.4627H104.589H104.81C104.885 27.4502 104.957 27.4267 105.023 27.3932C105.097 27.3558 105.161 27.3062 105.212 27.2473C105.276 27.1694 105.323 27.0823 105.351 26.9903L105.646 26.1566H106.244L105.949 27.0598C105.914 27.1898 105.847 27.3122 105.753 27.4188C105.658 27.5253 105.538 27.6137 105.4 27.6781C105.567 27.7188 105.718 27.7982 105.834 27.9074C105.943 28.0148 106.024 28.1402 106.072 28.2756L106.482 29.4636H105.859L105.474 28.3937C105.44 28.2987 105.388 28.2094 105.318 28.1297C105.259 28.0676 105.187 28.0157 105.105 27.9768C105.028 27.9404 104.945 27.9145 104.859 27.9004H104.613H103.867V29.4497H103.236Z" fill="white" fill-opacity="0.5"/>
<path d="M110.096 29.0407H110.613V29.3672C110.506 29.4106 110.393 29.4432 110.277 29.4645C110.164 29.4868 110.048 29.4985 109.932 29.4992C109.805 29.5053 109.678 29.476 109.572 29.4158C109.52 29.3711 109.481 29.3176 109.455 29.2589C109.43 29.2003 109.419 29.1377 109.424 29.0754C109.292 29.1732 109.146 29.2572 108.99 29.3255C108.867 29.3801 108.738 29.4243 108.605 29.4575C108.503 29.4831 108.399 29.4994 108.293 29.5061H108.154C107.962 29.5114 107.771 29.478 107.597 29.4089C107.46 29.3536 107.339 29.2729 107.244 29.1727C107.16 29.0797 107.099 28.9734 107.064 28.86C107.032 28.7603 107.015 28.6576 107.015 28.5543C107.01 28.4224 107.04 28.2912 107.104 28.1708C107.168 28.0505 107.264 27.944 107.383 27.8596C107.708 27.6603 108.098 27.5533 108.498 27.5539L109.498 27.4983V27.2899C109.522 27.0843 109.462 26.878 109.326 26.7063C109.235 26.6414 109.129 26.5931 109.014 26.5644C108.9 26.5358 108.78 26.5273 108.662 26.5396C108.461 26.541 108.261 26.5573 108.064 26.5882C107.858 26.6207 107.655 26.6671 107.457 26.7271L107.31 26.352C107.546 26.2636 107.794 26.1984 108.047 26.1574C108.301 26.113 108.559 26.0897 108.818 26.088C109.164 26.0714 109.506 26.1573 109.785 26.3311C109.915 26.4425 110.014 26.577 110.075 26.7248C110.136 26.8726 110.157 27.03 110.137 27.1857L110.096 29.0407ZM108.457 27.9291C108.243 27.9223 108.033 27.9815 107.867 28.0958C107.802 28.1483 107.75 28.212 107.716 28.2827C107.682 28.3534 107.667 28.4294 107.67 28.5057C107.663 28.5847 107.675 28.6641 107.705 28.7392C107.734 28.8143 107.781 28.8837 107.842 28.9434C107.998 29.0521 108.199 29.1045 108.4 29.0893C108.582 29.0871 108.762 29.0491 108.924 28.9781C109.122 28.8937 109.304 28.7861 109.465 28.6585V27.8735L108.457 27.9291Z" fill="white" fill-opacity="0.5"/>
<path d="M113.67 29.4498V27.97C113.467 28.0612 113.249 28.1246 113.022 28.1576C112.809 28.1925 112.592 28.2111 112.375 28.2132C112.162 28.2215 111.949 28.1907 111.752 28.1228C111.61 28.0716 111.488 27.9873 111.4 27.8797C111.319 27.7772 111.266 27.661 111.244 27.5393C111.232 27.4121 111.232 27.2843 111.244 27.1571V26.1359H111.891V27.039C111.882 27.1454 111.882 27.2522 111.891 27.3586C111.903 27.4404 111.937 27.5188 111.99 27.5879C112.04 27.6504 112.112 27.6988 112.195 27.7268C112.307 27.7623 112.427 27.7788 112.547 27.7755C112.742 27.7756 112.937 27.7593 113.129 27.7268C113.321 27.6952 113.506 27.639 113.678 27.5601V26.1289H114.326V29.4498H113.67Z" fill="white" fill-opacity="0.5"/>
<path d="M116.907 26.0669C117.133 26.0621 117.358 26.0927 117.571 26.1572C117.735 26.2087 117.885 26.2866 118.014 26.3865C118.126 26.4778 118.218 26.5862 118.284 26.7061C118.346 26.8194 118.393 26.9382 118.423 27.0604C118.452 27.1701 118.468 27.2817 118.473 27.3939C118.473 27.5004 118.473 27.5861 118.473 27.6509V27.9149H115.85C115.85 28.0618 115.866 28.2084 115.899 28.3526C115.926 28.4841 115.985 28.6094 116.071 28.7208C116.159 28.8296 116.277 28.918 116.415 28.9779C116.584 29.0462 116.77 29.0795 116.956 29.0752C117.169 29.0769 117.381 29.0559 117.587 29.0126C117.799 28.9667 118.008 28.9087 118.21 28.8389L118.366 29.1933C118.143 29.2931 117.906 29.3701 117.661 29.4225C117.417 29.4734 117.167 29.4991 116.915 29.499C116.634 29.5023 116.354 29.4549 116.096 29.36C115.885 29.2794 115.702 29.1551 115.563 28.9987C115.429 28.8386 115.337 28.6563 115.293 28.4638C115.242 28.2488 115.217 28.03 115.219 27.8107C115.212 27.6996 115.212 27.5883 115.219 27.4772C115.235 27.3501 115.265 27.2245 115.309 27.1021C115.357 26.9721 115.42 26.8464 115.497 26.7269C115.578 26.6034 115.683 26.4929 115.809 26.4004C115.945 26.3016 116.1 26.224 116.268 26.1711C116.471 26.1029 116.688 26.0675 116.907 26.0669ZM116.907 26.4768C116.742 26.4726 116.579 26.5037 116.432 26.5671C116.305 26.6236 116.196 26.7045 116.112 26.8033C116.027 26.9087 115.966 27.0265 115.932 27.1507C115.892 27.2851 115.868 27.4223 115.858 27.5606H117.858C117.859 27.4137 117.842 27.2671 117.809 27.1229C117.782 27.0022 117.729 26.8868 117.653 26.7825C117.583 26.688 117.484 26.6112 117.366 26.5602C117.229 26.5016 117.077 26.4707 116.924 26.4698L116.907 26.4768Z" fill="white" fill-opacity="0.5"/>
<path d="M119.907 27.7757C119.906 27.946 119.925 28.1159 119.964 28.2829C119.996 28.4253 120.057 28.5617 120.145 28.6859C120.228 28.8013 120.347 28.895 120.489 28.9568C120.657 29.0251 120.843 29.0584 121.03 29.0541C121.22 29.0547 121.41 29.036 121.595 28.9985C121.788 28.9592 121.977 28.9081 122.161 28.8457L122.333 29.2139C122.138 29.3004 121.931 29.368 121.718 29.4154C121.475 29.471 121.224 29.4991 120.972 29.4987C120.692 29.5052 120.413 29.4627 120.153 29.3737C119.941 29.2985 119.755 29.179 119.612 29.0263C119.47 28.87 119.37 28.69 119.317 28.4983C119.256 28.2844 119.226 28.0652 119.227 27.8452C119.229 27.6514 119.254 27.4583 119.3 27.2686C119.349 27.0641 119.44 26.8688 119.571 26.6919C119.706 26.5088 119.892 26.3562 120.112 26.2473C120.388 26.1211 120.7 26.0611 121.013 26.0736C121.193 26.064 121.374 26.064 121.554 26.0736C121.755 26.0976 121.95 26.1443 122.136 26.2126L121.98 26.6086C121.816 26.5583 121.646 26.5234 121.472 26.5044H121.054C120.887 26.4964 120.72 26.524 120.568 26.5847C120.416 26.6453 120.285 26.7371 120.185 26.8517C119.978 27.1265 119.881 27.4504 119.907 27.7757Z" fill="white" fill-opacity="0.5"/>
<path d="M123.964 26.5665H122.587V26.1357H125.988V26.5665H124.62V29.4497H123.972L123.964 26.5665Z" fill="white" fill-opacity="0.5"/>
<path d="M128.308 26.1365C128.653 26.1136 128.997 26.1975 129.275 26.3727C129.379 26.4491 129.462 26.5443 129.517 26.6513C129.572 26.7582 129.599 26.8743 129.595 26.9911C129.582 27.1225 129.538 27.2504 129.463 27.3662C129.383 27.5088 129.251 27.6257 129.086 27.6997C129.196 27.7363 129.296 27.7905 129.381 27.8595C129.455 27.9195 129.516 27.99 129.562 28.0679C129.603 28.1408 129.633 28.2178 129.652 28.2972C129.661 28.3711 129.661 28.4456 129.652 28.5195C129.654 28.6516 129.62 28.7823 129.554 28.9016C129.489 29.0159 129.396 29.1176 129.283 29.2004C129.168 29.2839 129.034 29.3476 128.89 29.3879C128.736 29.4309 128.576 29.4521 128.414 29.4505H126.447V26.1365H128.308ZM127.169 26.5603V27.5469H128.218C128.409 27.5547 128.597 27.5056 128.75 27.4079C128.806 27.3631 128.85 27.3092 128.88 27.2495C128.911 27.1898 128.926 27.1255 128.926 27.0605C128.926 26.9955 128.911 26.9312 128.88 26.8715C128.85 26.8118 128.806 26.7579 128.75 26.7132C128.573 26.6103 128.358 26.5635 128.144 26.5811L127.169 26.5603ZM127.169 27.9498V29.0336H128.259C128.387 29.0365 128.514 29.02 128.636 28.985C128.726 28.9572 128.81 28.9147 128.881 28.8599C128.944 28.8125 128.992 28.7529 129.021 28.6862C129.049 28.6193 129.063 28.5488 129.062 28.4778C129.061 28.4061 129.044 28.3353 129.01 28.2696C128.976 28.2039 128.927 28.1447 128.865 28.0957C128.782 28.035 128.686 27.9889 128.582 27.9603C128.478 27.9317 128.368 27.921 128.259 27.929L127.169 27.9498Z" fill="white" fill-opacity="0.5"/>
<path d="M133.889 27.8032C133.891 28.0137 133.863 28.2235 133.807 28.4285C133.756 28.626 133.659 28.8127 133.521 28.9774C133.378 29.1433 133.189 29.2769 132.971 29.3664C132.714 29.4657 132.434 29.5155 132.152 29.5123C131.869 29.5219 131.589 29.4742 131.332 29.3734C131.127 29.2888 130.949 29.1623 130.816 29.0052C130.682 28.8441 130.588 28.6623 130.537 28.4702C130.48 28.2583 130.453 28.0414 130.455 27.8241C130.455 27.606 130.489 27.3889 130.554 27.178C130.613 26.9783 130.716 26.7897 130.857 26.6222C130.998 26.456 131.183 26.3204 131.398 26.2262C131.653 26.1219 131.934 26.0718 132.217 26.0803C132.501 26.0707 132.782 26.1208 133.037 26.2262C133.246 26.318 133.426 26.4515 133.562 26.6152C133.697 26.7829 133.792 26.9719 133.84 27.171C133.883 27.3797 133.899 27.5916 133.889 27.8032ZM133.209 27.8032C133.221 27.6506 133.221 27.4974 133.209 27.3447C133.187 27.1977 133.137 27.0546 133.062 26.9209C132.991 26.7937 132.884 26.6837 132.75 26.6013C132.595 26.5135 132.412 26.4697 132.226 26.4763C132.038 26.4698 131.853 26.5109 131.693 26.5944C131.556 26.672 131.443 26.777 131.365 26.9001C131.281 27.0325 131.223 27.1756 131.193 27.3239C131.161 27.4776 131.145 27.6333 131.144 27.7893C131.131 27.9466 131.131 28.1045 131.144 28.2618C131.166 28.403 131.219 28.5395 131.299 28.6647C131.378 28.7804 131.491 28.8763 131.627 28.9426C131.799 29.0187 131.991 29.0547 132.185 29.0468C132.366 29.0543 132.546 29.0156 132.701 28.9357C132.833 28.8602 132.94 28.7574 133.012 28.6369C133.09 28.5083 133.143 28.3699 133.168 28.227C133.19 28.0912 133.201 27.9542 133.201 27.8171L133.209 27.8032Z" fill="white" fill-opacity="0.5"/>
<path d="M139.463 29.4497V26.893L139.291 27.1362L138.922 27.6364L138.496 28.2061L138.069 28.7758L137.725 29.2274L137.553 29.4497H136.947V26.1357H137.594V28.6577L137.774 28.4076L137.955 28.1575L138.61 27.289L139.028 26.7332L139.291 26.3859L139.479 26.1357H140.118V26.8861C140.118 27.1779 140.118 27.4812 140.118 27.7962C140.118 28.1112 140.118 28.4145 140.118 28.7063V29.4497H139.463Z" fill="white" fill-opacity="0.5"/>
<path d="M144.815 24.8304L145.118 24.7262L145.462 24.6081L145.798 24.49L146.085 24.3857L146.282 24.7401C146.112 24.8197 145.936 24.8916 145.757 24.9554L145.397 25.0805C145.156 25.1595 144.92 25.25 144.692 25.3514C144.501 25.4346 144.327 25.5424 144.175 25.671C144.031 25.7997 143.917 25.9506 143.839 26.1157C143.748 26.3187 143.69 26.5315 143.667 26.7479C143.801 26.5737 143.984 26.4305 144.2 26.331C144.434 26.2232 144.696 26.1681 144.962 26.1713C145.211 26.166 145.457 26.2088 145.683 26.2963C145.874 26.3756 146.038 26.4952 146.159 26.6437C146.285 26.8039 146.374 26.9831 146.421 27.1717C146.476 27.3838 146.504 27.6005 146.503 27.8178C146.504 28.019 146.476 28.2196 146.421 28.4153C146.367 28.6098 146.27 28.7938 146.134 28.9572C145.994 29.124 145.808 29.2599 145.593 29.3532C145.338 29.4571 145.057 29.5094 144.774 29.5061C144.49 29.5168 144.208 29.4667 143.954 29.3602C143.752 29.2682 143.578 29.1374 143.446 28.978C143.32 28.8226 143.231 28.648 143.184 28.4639C143.134 28.2816 143.11 28.0952 143.11 27.9081C143.11 27.6441 143.11 27.4218 143.11 27.2134C143.11 27.005 143.11 26.8868 143.11 26.7687C143.11 26.6506 143.11 26.5603 143.11 26.4908C143.11 26.4214 143.11 26.3658 143.11 26.3241C143.188 25.9789 143.378 25.659 143.659 25.4001C143.989 25.1395 144.384 24.9448 144.815 24.8304ZM144.872 26.5881C144.688 26.5846 144.507 26.6308 144.356 26.7201C144.215 26.8044 144.098 26.9134 144.011 27.0397C143.921 27.1716 143.854 27.3145 143.815 27.4635C143.776 27.6094 143.757 27.7586 143.757 27.9081C143.746 28.0469 143.746 28.1862 143.757 28.325C143.778 28.4568 143.828 28.584 143.905 28.7001C143.981 28.8146 144.092 28.9103 144.225 28.978C144.392 29.0569 144.582 29.0954 144.774 29.0892C144.955 29.0942 145.134 29.0557 145.29 28.978C145.424 28.9086 145.535 28.8103 145.61 28.6932C145.687 28.5719 145.74 28.4403 145.765 28.3041C145.794 28.1572 145.808 28.0084 145.806 27.8595C145.818 27.7068 145.818 27.5537 145.806 27.401C145.786 27.2581 145.736 27.1193 145.659 26.9911C145.59 26.875 145.488 26.7749 145.364 26.6993C145.217 26.621 145.045 26.5823 144.872 26.5881Z" fill="white" fill-opacity="0.5"/>
<path d="M148.954 26.0669C149.18 26.0621 149.405 26.0927 149.618 26.1572C149.781 26.2087 149.932 26.2866 150.06 26.3865C150.173 26.4778 150.265 26.5862 150.331 26.7061C150.393 26.8194 150.44 26.9382 150.47 27.0604C150.498 27.1701 150.515 27.2817 150.519 27.3939C150.519 27.5004 150.519 27.5861 150.519 27.6509V27.9149H147.897C147.897 28.0618 147.913 28.2084 147.946 28.3526C147.973 28.4841 148.031 28.6094 148.118 28.7208C148.205 28.8296 148.324 28.918 148.462 28.9779C148.631 29.0462 148.816 29.0795 149.003 29.0752C149.216 29.0769 149.428 29.0559 149.634 29.0126C149.846 28.9667 150.054 28.9087 150.257 28.8389L150.413 29.1933C150.189 29.2931 149.953 29.3701 149.708 29.4225C149.464 29.4734 149.213 29.4991 148.962 29.499C148.68 29.5023 148.401 29.4549 148.142 29.36C147.932 29.2794 147.749 29.1551 147.61 28.9987C147.476 28.8386 147.384 28.6563 147.339 28.4638C147.288 28.2488 147.264 28.03 147.265 27.8107C147.259 27.6996 147.259 27.5883 147.265 27.4772C147.282 27.3501 147.312 27.2245 147.356 27.1021C147.404 26.9721 147.467 26.8464 147.544 26.7269C147.625 26.6034 147.73 26.4929 147.856 26.4004C147.991 26.3016 148.147 26.224 148.315 26.1711C148.518 26.1029 148.735 26.0675 148.954 26.0669ZM148.954 26.4768C148.789 26.4726 148.625 26.5037 148.478 26.5671C148.352 26.6236 148.242 26.7045 148.159 26.8033C148.074 26.9087 148.013 27.0265 147.978 27.1507C147.939 27.2851 147.914 27.4223 147.905 27.5606H149.954C149.955 27.4137 149.938 27.2671 149.905 27.1229C149.878 27.0022 149.825 26.8868 149.749 26.7825C149.678 26.688 149.579 26.6112 149.462 26.5602C149.31 26.495 149.141 26.4639 148.97 26.4698L148.954 26.4768Z" fill="white" fill-opacity="0.5"/>
<path d="M152.462 29.5053C152.2 29.5062 151.939 29.4829 151.683 29.4359C151.474 29.4014 151.27 29.3454 151.076 29.2691L151.232 28.9148C151.42 28.9711 151.611 29.0175 151.806 29.0537C151.989 29.0859 152.176 29.1022 152.363 29.1024C152.647 29.1126 152.93 29.0599 153.183 28.9495C153.284 28.8954 153.365 28.8189 153.419 28.7283C153.472 28.6377 153.496 28.5364 153.486 28.4354C153.492 28.3425 153.466 28.2502 153.412 28.169C153.359 28.0879 153.279 28.0213 153.183 27.9769C153.091 27.9323 152.992 27.9017 152.888 27.8866C152.79 27.8794 152.691 27.8794 152.593 27.8866H151.994V27.5114H152.503C152.603 27.5191 152.705 27.5191 152.806 27.5114C152.905 27.4975 153.002 27.4718 153.093 27.435C153.179 27.3982 153.252 27.3432 153.306 27.2752C153.365 27.1964 153.393 27.1042 153.388 27.0112C153.39 26.9439 153.374 26.877 153.342 26.8156C153.309 26.7542 153.26 26.7 153.199 26.6568C153.022 26.5531 152.808 26.5041 152.593 26.5179C152.434 26.5109 152.276 26.5109 152.117 26.5179C151.87 26.5485 151.628 26.6045 151.396 26.6846L151.257 26.3373C151.467 26.2592 151.687 26.201 151.912 26.1636C152.152 26.1185 152.396 26.0953 152.642 26.0941C153.002 26.0771 153.36 26.1547 153.666 26.3164C153.786 26.3831 153.883 26.4753 153.948 26.5838C154.013 26.6923 154.043 26.8133 154.035 26.9347C154.041 27.1075 153.971 27.2759 153.838 27.4072C153.716 27.527 153.557 27.6159 153.379 27.6642C153.593 27.7085 153.785 27.8081 153.929 27.9491C154.071 28.0928 154.147 28.2756 154.142 28.4632C154.146 28.6284 154.098 28.7915 154.002 28.9356C153.914 29.0667 153.79 29.1785 153.642 29.2622C153.476 29.3533 153.293 29.4192 153.101 29.4567C152.891 29.4942 152.676 29.5106 152.462 29.5053Z" fill="white" fill-opacity="0.5"/>
<path d="M158.395 27.8032C158.396 28.0137 158.369 28.2235 158.313 28.4285C158.262 28.626 158.165 28.8127 158.026 28.9774C157.884 29.1433 157.695 29.2769 157.477 29.3664C157.22 29.4657 156.94 29.5155 156.658 29.5123C156.375 29.5219 156.094 29.4742 155.838 29.3734C155.633 29.2888 155.455 29.1623 155.322 29.0052C155.188 28.8441 155.093 28.6623 155.043 28.4702C154.986 28.2583 154.959 28.0414 154.961 27.8241C154.961 27.606 154.994 27.3889 155.059 27.178C155.119 26.9783 155.222 26.7897 155.363 26.6222C155.504 26.456 155.689 26.3204 155.904 26.2262C156.159 26.1219 156.44 26.0718 156.723 26.0803C157.006 26.0707 157.288 26.1208 157.543 26.2262C157.752 26.318 157.932 26.4515 158.067 26.6152C158.203 26.7829 158.298 26.9719 158.346 27.171C158.389 27.3797 158.405 27.5916 158.395 27.8032ZM157.715 27.8032C157.726 27.6506 157.726 27.4974 157.715 27.3447C157.693 27.1977 157.643 27.0546 157.567 26.9209C157.497 26.7937 157.39 26.6837 157.256 26.6013C157.101 26.5135 156.918 26.4697 156.731 26.4763C156.544 26.4698 156.358 26.5109 156.199 26.5944C156.062 26.672 155.949 26.777 155.871 26.9001C155.779 27.045 155.718 27.2026 155.691 27.3655C155.659 27.5193 155.642 27.675 155.641 27.831C155.628 27.9883 155.628 28.1462 155.641 28.3035C155.664 28.4447 155.717 28.5812 155.797 28.7064C155.875 28.8221 155.988 28.918 156.125 28.9843C156.296 29.0604 156.489 29.0964 156.682 29.0885C156.864 29.096 157.043 29.0573 157.199 28.9774C157.331 28.9019 157.438 28.7991 157.51 28.6786C157.588 28.55 157.64 28.4116 157.666 28.2687C157.695 28.1194 157.712 27.9685 157.715 27.8171V27.8032Z" fill="white" fill-opacity="0.5"/>
<path d="M161.78 29.4496V26.5525H159.895V29.4496H159.248V26.1426H162.436C162.436 26.6937 162.436 27.2449 162.436 27.7961C162.436 28.3473 162.436 28.8984 162.436 29.4496H161.78Z" fill="white" fill-opacity="0.5"/>
<path d="M166.346 29.0398H166.87V29.3663C166.766 29.4094 166.656 29.442 166.542 29.4636C166.427 29.4865 166.309 29.4981 166.19 29.4984C166.062 29.5044 165.936 29.4752 165.829 29.415C165.777 29.3705 165.737 29.3171 165.712 29.2583C165.687 29.1996 165.676 29.1369 165.682 29.0746C165.446 29.2522 165.166 29.3828 164.862 29.4567C164.761 29.4823 164.656 29.4986 164.551 29.5053H164.321C164.129 29.5103 163.938 29.477 163.764 29.408C163.63 29.3517 163.513 29.271 163.42 29.1718C163.336 29.0788 163.274 28.9725 163.239 28.8592C163.208 28.7595 163.191 28.6568 163.19 28.5535C163.185 28.4215 163.216 28.2904 163.28 28.17C163.344 28.0496 163.439 27.9432 163.559 27.8587C163.883 27.6599 164.273 27.553 164.674 27.553L165.674 27.4975V27.289C165.696 27.0826 165.632 26.8762 165.493 26.7054C165.402 26.6406 165.296 26.5923 165.182 26.5636C165.068 26.5349 164.948 26.5264 164.829 26.5387C164.629 26.5401 164.428 26.5564 164.231 26.5873C164.025 26.62 163.822 26.6664 163.625 26.7263L163.477 26.3511C163.713 26.2627 163.961 26.1974 164.215 26.1566C164.468 26.1123 164.726 26.089 164.985 26.0871C165.331 26.0699 165.673 26.156 165.952 26.3303C166.082 26.4417 166.181 26.5761 166.242 26.7239C166.303 26.8717 166.324 27.0292 166.305 27.1848L166.346 29.0398ZM164.706 27.9282C164.492 27.9214 164.283 27.9807 164.116 28.095C164.053 28.1483 164.003 28.2124 163.971 28.283C163.938 28.3536 163.924 28.4292 163.928 28.5049C163.92 28.5839 163.932 28.6633 163.961 28.7385C163.991 28.8137 164.038 28.8831 164.1 28.9426C164.253 29.0501 164.451 29.1025 164.649 29.0884C164.832 29.0863 165.011 29.0482 165.174 28.9773C165.371 28.8929 165.553 28.7853 165.715 28.6577V27.8726L164.706 27.9282Z" fill="white" fill-opacity="0.5"/>
<path d="M168.214 27.7758C168.214 27.946 168.233 28.1159 168.272 28.2829C168.306 28.4257 168.37 28.5622 168.46 28.6859C168.544 28.8013 168.663 28.895 168.805 28.9569C168.973 29.0251 169.159 29.0585 169.346 29.0541C169.539 29.0548 169.731 29.0361 169.919 28.9985C170.109 28.9591 170.295 28.908 170.477 28.8457L170.657 29.2139C170.462 29.3004 170.255 29.368 170.042 29.4154C169.799 29.471 169.548 29.499 169.296 29.4988C169.016 29.5049 168.737 29.4623 168.477 29.3737C168.265 29.2985 168.079 29.179 167.936 29.0263C167.794 28.87 167.694 28.6901 167.641 28.4983C167.579 28.2845 167.549 28.0652 167.551 27.8452C167.553 27.6515 167.578 27.4583 167.624 27.2686C167.673 27.0641 167.764 26.8688 167.895 26.692C168.03 26.509 168.216 26.3564 168.436 26.2473C168.712 26.1215 169.024 26.0614 169.337 26.0736C169.517 26.064 169.698 26.064 169.878 26.0736C170.079 26.0978 170.274 26.1445 170.46 26.2126L170.304 26.6086C170.14 26.5583 169.97 26.5234 169.796 26.5044H169.378C169.211 26.4964 169.044 26.5241 168.892 26.5847C168.74 26.6454 168.609 26.7372 168.51 26.8518C168.297 27.125 168.194 27.4489 168.214 27.7758Z" fill="white" fill-opacity="0.5"/>
<path d="M173.812 29.4497V27.9004H171.919V29.4497H171.263V26.1357H171.919V27.4558H173.804V26.1357H174.451V29.4497H173.812Z" fill="white" fill-opacity="0.5"/>
<path d="M178.771 27.8032C178.772 28.0137 178.744 28.2235 178.689 28.4285C178.638 28.626 178.54 28.8127 178.402 28.9774C178.259 29.1433 178.071 29.2769 177.853 29.3664C177.596 29.4657 177.316 29.5155 177.033 29.5123C176.751 29.5219 176.47 29.4742 176.214 29.3734C176.008 29.2888 175.831 29.1623 175.697 29.0052C175.564 28.8441 175.469 28.6623 175.419 28.4702C175.362 28.2583 175.334 28.0414 175.337 27.8241C175.337 27.606 175.37 27.3889 175.435 27.178C175.494 26.9783 175.597 26.7897 175.738 26.6222C175.879 26.456 176.065 26.3204 176.279 26.2262C176.534 26.1219 176.816 26.0718 177.099 26.0803C177.382 26.0707 177.664 26.1208 177.918 26.2262C178.128 26.318 178.308 26.4515 178.443 26.6152C178.578 26.7829 178.673 26.9719 178.722 27.171C178.764 27.3797 178.781 27.5916 178.771 27.8032ZM178.09 27.8032C178.102 27.6506 178.102 27.4974 178.09 27.3447C178.068 27.1977 178.018 27.0546 177.943 26.9209C177.873 26.7937 177.766 26.6837 177.631 26.6013C177.477 26.5135 177.293 26.4697 177.107 26.4763C176.919 26.4698 176.734 26.5109 176.574 26.5944C176.437 26.672 176.324 26.777 176.246 26.9001C176.162 27.0325 176.104 27.1756 176.074 27.3239C176.042 27.4776 176.026 27.6333 176.025 27.7893C176.012 27.9466 176.012 28.1045 176.025 28.2618C176.048 28.403 176.1 28.5395 176.181 28.6647C176.259 28.7804 176.372 28.8763 176.509 28.9426C176.68 29.0187 176.873 29.0547 177.066 29.0468C177.247 29.0543 177.427 29.0156 177.582 28.9357C177.714 28.8602 177.822 28.7574 177.894 28.6369C177.971 28.5083 178.024 28.3699 178.049 28.227C178.074 28.0913 178.088 27.9544 178.09 27.8171V27.8032Z" fill="white" fill-opacity="0.5"/>
<path d="M180.221 27.7758C180.221 27.946 180.24 28.1159 180.279 28.2829C180.313 28.4257 180.376 28.5622 180.467 28.6859C180.55 28.8013 180.669 28.895 180.811 28.9569C180.98 29.0251 181.165 29.0585 181.352 29.0541C181.546 29.0548 181.738 29.0361 181.926 28.9985C182.116 28.9591 182.302 28.908 182.483 28.8457L182.664 29.2139C182.468 29.3004 182.262 29.368 182.049 29.4154C181.806 29.471 181.555 29.499 181.303 29.4988C181.023 29.5049 180.744 29.4623 180.484 29.3737C180.272 29.2985 180.085 29.179 179.943 29.0263C179.801 28.87 179.701 28.6901 179.648 28.4983C179.586 28.2845 179.556 28.0652 179.557 27.8452C179.56 27.6515 179.585 27.4583 179.631 27.2686C179.68 27.0641 179.771 26.8688 179.902 26.692C180.037 26.509 180.223 26.3564 180.443 26.2473C180.719 26.1215 181.031 26.0614 181.344 26.0736C181.524 26.064 181.705 26.064 181.885 26.0736C182.086 26.0978 182.281 26.1445 182.467 26.2126L182.311 26.6086C182.147 26.5583 181.976 26.5234 181.803 26.5044H181.385C181.218 26.4964 181.051 26.5241 180.899 26.5847C180.747 26.6454 180.616 26.7372 180.516 26.8518C180.304 27.125 180.2 27.4489 180.221 27.7758Z" fill="white" fill-opacity="0.5"/>
<path d="M184.27 26.5665H182.893V26.1357H186.295V26.5665H184.926V29.4497H184.278L184.27 26.5665Z" fill="white" fill-opacity="0.5"/>
<path d="M187.475 26.1357V27.3238H188.68C188.887 27.3192 189.093 27.3499 189.286 27.4141C189.445 27.4689 189.587 27.5518 189.704 27.6572C189.813 27.7555 189.896 27.8713 189.95 27.9977C190.004 28.1223 190.032 28.254 190.032 28.3867C190.036 28.5391 190.002 28.6904 189.934 28.8314C189.871 28.9567 189.779 29.0701 189.663 29.1649C189.548 29.2588 189.411 29.3321 189.262 29.3802C189.099 29.4322 188.927 29.4581 188.754 29.4567H186.836V26.1357H187.475ZM187.475 27.7198V29.0329H188.639C188.841 29.0412 189.038 28.9812 189.188 28.8661C189.258 28.8048 189.313 28.7317 189.348 28.6516C189.383 28.5715 189.399 28.486 189.393 28.4006C189.4 28.3075 189.382 28.2142 189.341 28.1277C189.3 28.0411 189.236 27.9635 189.155 27.9004C188.988 27.7815 188.775 27.7195 188.557 27.7267L187.475 27.7198Z" fill="white" fill-opacity="0.5"/>
<path d="M118.44 22.4054V11.2894L113.014 22.4054H111.686L106.285 11.2894V22.4054H103.236V7.44043H107.605L112.399 17.292L117.17 7.44043H121.538V22.4054H118.44Z" fill="white" fill-opacity="0.5"/>
<path d="M125.292 22.4054V7.44043H137.389V9.75395H128.373V13.6376H137.184V15.9511H128.39V20.1196H137.405V22.4332L125.292 22.4054Z" fill="white" fill-opacity="0.5"/>
<path d="M140.569 22.4054V7.44043H148.314C152.019 7.44043 154.052 9.59416 154.052 12.13C154.052 14.6658 151.962 16.8196 148.314 16.8196H143.659V22.3776L140.569 22.4054ZM150.921 12.13C150.924 11.8016 150.847 11.4761 150.694 11.1744C150.541 10.8727 150.315 10.6014 150.031 10.3778C149.747 10.1542 149.412 9.98321 149.045 9.8758C148.679 9.76839 148.291 9.72689 147.905 9.75395H143.667V14.513H147.905C148.291 14.5391 148.679 14.4967 149.045 14.3884C149.411 14.2801 149.746 14.1083 150.029 13.8841C150.312 13.6598 150.537 13.388 150.689 13.086C150.841 12.784 150.917 12.4584 150.912 12.13H150.921Z" fill="white" fill-opacity="0.5"/>
<path d="M155.863 14.9367C155.863 10.3375 159.912 7.19721 165.124 7.19721C166.553 7.16852 167.964 7.46541 169.211 8.05688C170.458 8.64836 171.495 9.51275 172.214 10.5598L169.567 11.7061C169.107 11.0506 168.456 10.5063 167.677 10.1255C166.897 9.74464 166.016 9.54013 165.116 9.53157C161.625 9.53157 159.026 11.7965 159.026 14.9367C159.026 18.077 161.625 20.3419 165.116 20.3419C166.017 20.3388 166.901 20.1366 167.682 19.7552C168.462 19.3738 169.112 18.8265 169.567 18.1673L172.214 19.3137C171.493 20.3587 170.455 21.2215 169.209 21.8127C167.962 22.4039 166.552 22.702 165.124 22.6763C159.912 22.6763 155.863 19.536 155.863 14.9367Z" fill="white" fill-opacity="0.5"/>
<path d="M174.706 22.4054V7.44043H177.82V17.8617L186.836 7.44043H190.016V22.4054H186.918V11.727L177.697 22.4054H174.706Z" fill="white" fill-opacity="0.5"/>
</svg>
