<svg width="191" height="35" viewBox="0 0 191 35" fill="none" xmlns="http://www.w3.org/2000/svg">
<path d="M48.4725 20.5431L56.9374 34.9932H61.7277L50.8676 16.4561L48.4725 20.5431Z" fill="white"/>
<path d="M19.325 10.1792C20.2369 8.62277 21.5736 7.27321 23.2242 6.24255C24.8748 5.21188 26.7916 4.52985 28.8155 4.25308C30.8394 3.9763 32.912 4.11278 34.8612 4.65116C36.8105 5.18954 38.58 6.11431 40.0231 7.34867C40.7804 6.30577 41.69 5.34808 42.7303 4.49833C40.7839 2.92081 38.427 1.75361 35.8501 1.09111C33.2731 0.428599 30.5484 0.289367 27.8962 0.684666C25.244 1.07997 22.7387 1.9987 20.5829 3.36661C18.4271 4.73452 16.6813 6.51321 15.4865 8.55891L0 34.9923H4.79029L19.325 10.1792Z" fill="white"/>
<path d="M42.7303 30.3444L45.4532 34.9935H50.2435L45.1255 26.2573L42.7303 30.3444Z" fill="white"/>
<path d="M30.8638 13.3875C31.4458 13.3823 32.0174 13.5176 32.512 13.7775C33.0066 14.0375 33.4037 14.4115 33.6569 14.8556L34.5931 16.4494L36.9336 12.4418C36.1981 11.547 35.2004 10.8299 34.0388 10.3611C32.8772 9.89229 31.5916 9.68786 30.3085 9.76793C29.0254 9.84801 27.789 10.2098 26.7209 10.8178C25.6528 11.4258 24.7898 12.2589 24.2167 13.2354L11.4843 34.9932H16.2745L28.0864 14.8556C28.3385 14.4135 28.7331 14.0409 29.2247 13.7811C29.7162 13.5213 30.2846 13.3848 30.8638 13.3875Z" fill="white"/>
<path d="M69.9819 8.55927C68.5701 6.12718 66.3809 4.08011 63.6635 2.6513C60.9462 1.22249 57.81 0.469388 54.6124 0.477795C51.6888 0.463034 48.8101 1.08765 46.2545 2.2913C43.6988 3.49496 41.5526 5.23696 40.0231 7.34903C39.7344 7.73922 39.4613 8.14263 39.2429 8.55927L36.9414 12.4479L34.6008 16.4556L23.7408 34.9729H28.5311L36.9882 20.5426L39.3833 16.4556L42.7303 10.7417L43.058 10.1795C43.6608 9.14114 44.4504 8.18848 45.3985 7.35565C46.841 6.12104 48.6101 5.19591 50.5589 4.65703C52.5077 4.11816 54.5801 3.98109 56.6039 4.25721C58.6278 4.53332 60.5447 5.21466 62.1957 6.24466C63.8466 7.27467 65.1839 8.62362 66.0966 10.1795L80.6313 34.9993H85.4216L69.9819 8.55927Z" fill="white"/>
<path d="M54.6125 9.73685C53.4178 9.73348 52.24 9.97679 51.1811 10.4458C50.1222 10.9147 49.214 11.5952 48.5349 12.4285C48.3279 12.6813 48.1428 12.9466 47.981 13.2221L46.1008 16.4361L42.7304 22.1699L40.3352 26.2701L35.2173 34.9931H40.0076L42.7304 30.3638L45.1255 26.2701L48.4725 20.5562L50.8676 16.4692L51.8038 14.8754C52.0619 14.4335 52.4605 14.0614 52.9547 13.8013C53.4489 13.5412 54.0191 13.4034 54.6008 13.4034C55.1825 13.4034 55.7526 13.5412 56.2469 13.8013C56.7411 14.0614 57.1397 14.4335 57.3977 14.8754L69.1862 34.9931H73.9765L61.2362 13.2419C60.6307 12.1901 59.6886 11.3038 58.5174 10.684C57.3462 10.0643 55.9931 9.73608 54.6125 9.73685Z" fill="white"/>
<path d="M95.5404 4.57861H93.2155V31.7924H95.5404V4.57861Z" fill="white"/>
<path d="M103.236 29.4492V26.1353H103.867V27.4622H104.589H104.81C104.885 27.4497 104.957 27.4262 105.023 27.3928C105.097 27.3554 105.161 27.3057 105.212 27.2469C105.276 27.1689 105.323 27.0818 105.351 26.9898L105.646 26.1561H106.244L105.949 27.0593C105.914 27.1894 105.847 27.3117 105.753 27.4183C105.658 27.5249 105.538 27.6132 105.4 27.6776C105.567 27.7183 105.718 27.7977 105.834 27.9069C105.943 28.0143 106.024 28.1397 106.072 28.2751L106.482 29.4631H105.859L105.474 28.3932C105.44 28.2982 105.388 28.2089 105.318 28.1292C105.259 28.0671 105.187 28.0152 105.105 27.9763C105.028 27.9399 104.945 27.9141 104.859 27.8999H104.613H103.867V29.4492H103.236Z" fill="white"/>
<path d="M110.096 29.0397H110.613V29.3662C110.506 29.4096 110.393 29.4423 110.277 29.4635C110.164 29.4858 110.048 29.4975 109.933 29.4982C109.805 29.5043 109.678 29.475 109.572 29.4148C109.52 29.3701 109.481 29.3166 109.455 29.258C109.43 29.1993 109.419 29.1368 109.424 29.0744C109.292 29.1722 109.146 29.2562 108.99 29.3245C108.867 29.3791 108.738 29.4233 108.605 29.4565C108.503 29.4822 108.399 29.4985 108.293 29.5052H108.154C107.962 29.5104 107.771 29.4771 107.597 29.4079C107.46 29.3526 107.339 29.2719 107.244 29.1717C107.16 29.0787 107.099 28.9724 107.064 28.859C107.032 28.7594 107.016 28.6566 107.015 28.5534C107.01 28.4214 107.041 28.2903 107.104 28.1699C107.168 28.0495 107.264 27.943 107.384 27.8586C107.708 27.6594 108.098 27.5523 108.498 27.5529L109.498 27.4973V27.2889C109.522 27.0833 109.462 26.877 109.326 26.7053C109.235 26.6404 109.129 26.5921 109.015 26.5635C108.9 26.5348 108.78 26.5263 108.662 26.5386C108.461 26.54 108.261 26.5563 108.064 26.5872C107.858 26.6197 107.655 26.6662 107.457 26.7262L107.31 26.351C107.546 26.2627 107.794 26.1974 108.047 26.1565C108.301 26.112 108.559 26.0887 108.818 26.087C109.164 26.0704 109.506 26.1563 109.785 26.3301C109.915 26.4415 110.014 26.576 110.075 26.7238C110.136 26.8716 110.157 27.029 110.137 27.1847L110.096 29.0397ZM108.457 27.9281C108.243 27.9213 108.034 27.9806 107.867 28.0948C107.802 28.1473 107.75 28.211 107.716 28.2817C107.682 28.3524 107.667 28.4285 107.67 28.5047C107.663 28.5837 107.675 28.6631 107.705 28.7382C107.734 28.8134 107.781 28.8828 107.843 28.9424C107.999 29.0511 108.199 29.1035 108.4 29.0883C108.582 29.0862 108.762 29.0481 108.924 28.9772C109.122 28.8928 109.304 28.7852 109.465 28.6576V27.8725L108.457 27.9281Z" fill="white"/>
<path d="M113.67 29.4493V27.9695C113.467 28.0607 113.249 28.1241 113.022 28.1571C112.809 28.192 112.592 28.2106 112.375 28.2127C112.162 28.2211 111.949 28.1902 111.752 28.1224C111.61 28.0711 111.488 27.9868 111.4 27.8792C111.319 27.7768 111.266 27.6605 111.244 27.5388C111.232 27.4116 111.232 27.2838 111.244 27.1566V26.1354H111.891V27.0385C111.882 27.1449 111.882 27.2517 111.891 27.3581C111.903 27.4399 111.937 27.5183 111.99 27.5874C112.04 27.6499 112.112 27.6983 112.195 27.7263C112.307 27.7618 112.427 27.7783 112.547 27.775C112.742 27.7751 112.937 27.7588 113.129 27.7263C113.321 27.6947 113.506 27.6385 113.678 27.5596V26.1284H114.326V29.4493H113.67Z" fill="white"/>
<path d="M116.907 26.0659C117.133 26.0611 117.358 26.0917 117.571 26.1562C117.735 26.2077 117.885 26.2856 118.014 26.3855C118.127 26.4768 118.218 26.5852 118.284 26.7051C118.346 26.8184 118.393 26.9372 118.423 27.0594C118.452 27.1691 118.468 27.2807 118.473 27.3929C118.473 27.4994 118.473 27.5851 118.473 27.6499V27.914H115.85C115.85 28.0608 115.866 28.2074 115.899 28.3516C115.926 28.4831 115.985 28.6084 116.071 28.7199C116.159 28.8287 116.277 28.9171 116.415 28.9769C116.584 29.0452 116.77 29.0785 116.956 29.0742C117.169 29.0759 117.381 29.0549 117.588 29.0117C117.8 28.9658 118.008 28.9077 118.21 28.838L118.366 29.1923C118.143 29.2922 117.906 29.3691 117.661 29.4216C117.417 29.4725 117.167 29.4981 116.915 29.498C116.634 29.5013 116.354 29.454 116.096 29.359C115.885 29.2784 115.702 29.1542 115.563 28.9978C115.429 28.8376 115.337 28.6553 115.293 28.4628C115.242 28.2478 115.217 28.029 115.219 27.8097C115.212 27.6987 115.212 27.5873 115.219 27.4763C115.235 27.3491 115.265 27.2235 115.309 27.1011C115.357 26.9711 115.42 26.8455 115.498 26.7259C115.578 26.6024 115.683 26.4919 115.809 26.3994C115.945 26.3006 116.1 26.223 116.268 26.1701C116.472 26.1019 116.688 26.0665 116.907 26.0659ZM116.907 26.4758C116.742 26.4717 116.579 26.5027 116.432 26.5661C116.305 26.6226 116.196 26.7035 116.112 26.8024C116.027 26.9077 115.966 27.0255 115.932 27.1497C115.892 27.2841 115.868 27.4213 115.858 27.5596H117.858C117.859 27.4127 117.842 27.2661 117.809 27.1219C117.782 27.0012 117.73 26.8858 117.653 26.7815C117.583 26.687 117.484 26.6102 117.366 26.5592C117.229 26.5006 117.077 26.4697 116.924 26.4689L116.907 26.4758Z" fill="white"/>
<path d="M119.907 27.7753C119.906 27.9455 119.925 28.1155 119.964 28.2824C119.996 28.4248 120.057 28.5612 120.145 28.6854C120.228 28.8008 120.347 28.8945 120.489 28.9563C120.658 29.0246 120.843 29.0579 121.03 29.0536C121.22 29.0542 121.41 29.0356 121.595 28.998C121.788 28.9587 121.977 28.9076 122.161 28.8452L122.333 29.2134C122.138 29.2999 121.931 29.3675 121.718 29.4149C121.475 29.4705 121.224 29.4986 120.972 29.4982C120.692 29.5048 120.413 29.4622 120.153 29.3732C119.941 29.298 119.755 29.1785 119.612 29.0258C119.471 28.8695 119.37 28.6895 119.317 28.4978C119.256 28.2839 119.226 28.0647 119.227 27.8447C119.229 27.6509 119.254 27.4578 119.3 27.2681C119.349 27.0636 119.441 26.8683 119.571 26.6914C119.706 26.5083 119.892 26.3557 120.112 26.2468C120.388 26.1206 120.7 26.0606 121.013 26.0731C121.194 26.0635 121.374 26.0635 121.554 26.0731C121.755 26.0971 121.951 26.1438 122.136 26.2121L121.981 26.6081C121.816 26.5578 121.646 26.5229 121.472 26.5039H121.054C120.887 26.4959 120.72 26.5235 120.568 26.5842C120.416 26.6449 120.285 26.7366 120.186 26.8512C119.978 27.126 119.881 27.4499 119.907 27.7753Z" fill="white"/>
<path d="M123.964 26.566H122.587V26.1353H125.988V26.566H124.62V29.4492H123.972L123.964 26.566Z" fill="white"/>
<path d="M128.308 26.1355C128.653 26.1127 128.997 26.1966 129.275 26.3717C129.379 26.4482 129.462 26.5433 129.517 26.6503C129.573 26.7573 129.599 26.8733 129.595 26.9901C129.583 27.1216 129.538 27.2494 129.464 27.3652C129.383 27.5078 129.251 27.6247 129.086 27.6987C129.196 27.7353 129.296 27.7896 129.382 27.8585C129.456 27.9185 129.517 27.9891 129.562 28.0669C129.603 28.1398 129.634 28.2169 129.652 28.2962C129.661 28.3701 129.661 28.4446 129.652 28.5185C129.654 28.6506 129.621 28.7813 129.554 28.9006C129.489 29.0149 129.397 29.1166 129.283 29.1994C129.168 29.2829 129.034 29.3466 128.89 29.387C128.737 29.43 128.576 29.4511 128.414 29.4495H126.447V26.1355H128.308ZM127.169 26.5593V27.5459H128.218C128.409 27.5537 128.597 27.5046 128.75 27.4069C128.806 27.3621 128.85 27.3083 128.88 27.2485C128.911 27.1888 128.926 27.1245 128.926 27.0596C128.926 26.9946 128.911 26.9303 128.88 26.8706C128.85 26.8108 128.806 26.757 128.75 26.7122C128.573 26.6093 128.358 26.5626 128.144 26.5802L127.169 26.5593ZM127.169 27.9488V29.0326H128.259C128.387 29.0355 128.514 29.019 128.636 28.984C128.726 28.9562 128.81 28.9137 128.882 28.859C128.944 28.8115 128.992 28.7519 129.021 28.6853C129.049 28.6183 129.063 28.5478 129.062 28.4768C129.061 28.4052 129.044 28.3343 129.01 28.2686C128.976 28.2029 128.927 28.1438 128.865 28.0947C128.782 28.034 128.686 27.988 128.582 27.9593C128.478 27.9307 128.368 27.92 128.259 27.928L127.169 27.9488Z" fill="white"/>
<path d="M133.889 27.8028C133.891 28.0132 133.863 28.223 133.807 28.428C133.756 28.6255 133.659 28.8122 133.521 28.9769C133.378 29.1428 133.189 29.2764 132.971 29.3659C132.714 29.4652 132.434 29.515 132.152 29.5118C131.87 29.5214 131.589 29.4737 131.332 29.3729C131.127 29.2884 130.949 29.1618 130.816 29.0047C130.682 28.8437 130.588 28.6619 130.537 28.4697C130.48 28.2578 130.453 28.0409 130.455 27.8236C130.456 27.6056 130.489 27.3884 130.554 27.1775C130.613 26.9778 130.716 26.7892 130.857 26.6217C130.998 26.4556 131.183 26.3199 131.398 26.2257C131.653 26.1214 131.934 26.0713 132.217 26.0798C132.501 26.0702 132.782 26.1203 133.037 26.2257C133.246 26.3175 133.426 26.451 133.562 26.6147C133.697 26.7824 133.792 26.9714 133.84 27.1705C133.883 27.3792 133.9 27.5911 133.889 27.8028ZM133.209 27.8028C133.221 27.6501 133.221 27.4969 133.209 27.3442C133.187 27.1972 133.137 27.0541 133.062 26.9204C132.992 26.7932 132.884 26.6832 132.75 26.6008C132.595 26.513 132.412 26.4692 132.226 26.4758C132.038 26.4693 131.853 26.5104 131.693 26.5939C131.556 26.6715 131.443 26.7765 131.365 26.8996C131.281 27.032 131.223 27.1751 131.193 27.3234C131.161 27.4771 131.145 27.6328 131.144 27.7889C131.131 27.9461 131.131 28.104 131.144 28.2613C131.166 28.4025 131.219 28.539 131.299 28.6642C131.378 28.7799 131.491 28.8758 131.627 28.9421C131.799 29.0182 131.991 29.0542 132.185 29.0464C132.366 29.0538 132.546 29.0151 132.701 28.9352C132.833 28.8598 132.94 28.7569 133.012 28.6365C133.09 28.5078 133.143 28.3694 133.168 28.2266C133.19 28.0907 133.201 27.9538 133.201 27.8166L133.209 27.8028Z" fill="white"/>
<path d="M139.463 29.4492V26.8925L139.291 27.1357L138.922 27.6359L138.496 28.2056L138.069 28.7753L137.725 29.2269L137.553 29.4492H136.947V26.1353H137.594V28.6572L137.774 28.4071L137.955 28.157L138.61 27.2885L139.028 26.7327L139.291 26.3854L139.479 26.1353H140.118V26.8856C140.118 27.1774 140.118 27.4808 140.118 27.7957C140.118 28.1107 140.118 28.414 140.118 28.7058V29.4492H139.463Z" fill="white"/>
<path d="M144.815 24.8299L145.118 24.7257L145.462 24.6076L145.798 24.4895L146.085 24.3853L146.282 24.7396C146.112 24.8192 145.937 24.8911 145.757 24.9549L145.397 25.08C145.156 25.159 144.921 25.2495 144.692 25.351C144.501 25.4341 144.327 25.5419 144.175 25.6705C144.031 25.7992 143.917 25.9501 143.839 26.1152C143.748 26.3182 143.69 26.531 143.667 26.7474C143.801 26.5732 143.985 26.43 144.2 26.3306C144.434 26.2227 144.696 26.1677 144.962 26.1708C145.211 26.1656 145.457 26.2083 145.684 26.2958C145.875 26.3751 146.038 26.4947 146.159 26.6432C146.285 26.8035 146.374 26.9827 146.421 27.1712C146.477 27.3833 146.504 27.6 146.503 27.8173C146.504 28.0185 146.476 28.2191 146.421 28.4148C146.367 28.6093 146.27 28.7933 146.134 28.9567C145.994 29.1236 145.809 29.2594 145.593 29.3527C145.338 29.4566 145.057 29.5089 144.774 29.5056C144.49 29.5164 144.208 29.4662 143.954 29.3597C143.752 29.2677 143.578 29.1369 143.446 28.9776C143.32 28.8221 143.231 28.6475 143.184 28.4634C143.134 28.2811 143.11 28.0947 143.11 27.9076C143.11 27.6436 143.11 27.4213 143.11 27.2129C143.11 27.0045 143.11 26.8864 143.11 26.7682C143.11 26.6501 143.11 26.5598 143.11 26.4904C143.11 26.4209 143.11 26.3653 143.11 26.3236C143.188 25.9784 143.379 25.6585 143.659 25.3996C143.989 25.139 144.384 24.9443 144.815 24.8299ZM144.872 26.5876C144.688 26.5841 144.507 26.6303 144.356 26.7196C144.215 26.8039 144.098 26.9129 144.012 27.0392C143.921 27.1711 143.854 27.314 143.815 27.463C143.776 27.609 143.757 27.7581 143.757 27.9076C143.746 28.0464 143.746 28.1857 143.757 28.3245C143.779 28.4563 143.829 28.5835 143.905 28.6997C143.982 28.8141 144.092 28.9098 144.225 28.9776C144.392 29.0564 144.582 29.0949 144.774 29.0887C144.955 29.0937 145.134 29.0552 145.29 28.9776C145.424 28.9081 145.535 28.8099 145.61 28.6927C145.687 28.5714 145.74 28.4399 145.765 28.3036C145.794 28.1567 145.808 28.0079 145.806 27.859C145.818 27.7063 145.818 27.5532 145.806 27.4005C145.786 27.2576 145.736 27.1188 145.659 26.9906C145.59 26.8746 145.489 26.7744 145.364 26.6988C145.217 26.6205 145.046 26.5818 144.872 26.5876Z" fill="white"/>
<path d="M148.954 26.0659C149.18 26.0611 149.405 26.0917 149.618 26.1562C149.781 26.2077 149.932 26.2856 150.06 26.3855C150.173 26.4768 150.265 26.5852 150.331 26.7051C150.393 26.8184 150.439 26.9372 150.47 27.0594C150.498 27.1691 150.515 27.2807 150.519 27.3929C150.519 27.4994 150.519 27.5851 150.519 27.6499V27.914H147.896C147.897 28.0608 147.913 28.2074 147.946 28.3516C147.973 28.4831 148.031 28.6084 148.118 28.7199C148.205 28.8287 148.324 28.9171 148.462 28.9769C148.631 29.0452 148.816 29.0785 149.003 29.0742C149.216 29.0759 149.428 29.0549 149.634 29.0117C149.846 28.9658 150.054 28.9077 150.257 28.838L150.413 29.1923C150.189 29.2922 149.953 29.3691 149.708 29.4216C149.464 29.4725 149.213 29.4981 148.962 29.498C148.68 29.5013 148.401 29.454 148.142 29.359C147.932 29.2784 147.749 29.1542 147.61 28.9978C147.476 28.8376 147.384 28.6553 147.339 28.4628C147.288 28.2478 147.264 28.029 147.265 27.8097C147.258 27.6987 147.258 27.5873 147.265 27.4763C147.282 27.3491 147.312 27.2235 147.356 27.1011C147.404 26.9711 147.467 26.8455 147.544 26.7259C147.624 26.6024 147.73 26.4919 147.855 26.3994C147.991 26.3006 148.147 26.223 148.314 26.1701C148.518 26.1019 148.735 26.0665 148.954 26.0659ZM148.954 26.4758C148.789 26.4717 148.625 26.5027 148.478 26.5661C148.352 26.6226 148.242 26.7035 148.159 26.8024C148.074 26.9077 148.013 27.0255 147.978 27.1497C147.939 27.2841 147.914 27.4213 147.905 27.5596H149.954C149.954 27.4127 149.938 27.2661 149.904 27.1219C149.878 27.0012 149.825 26.8858 149.749 26.7815C149.678 26.687 149.579 26.6102 149.462 26.5592C149.31 26.494 149.14 26.463 148.97 26.4689L148.954 26.4758Z" fill="white"/>
<path d="M152.462 29.5053C152.2 29.5062 151.939 29.4829 151.683 29.4359C151.474 29.4014 151.27 29.3454 151.076 29.2691L151.232 28.9148C151.42 28.9711 151.611 29.0175 151.806 29.0537C151.989 29.0859 152.176 29.1022 152.363 29.1024C152.647 29.1126 152.93 29.0599 153.183 28.9495C153.284 28.8954 153.366 28.8189 153.419 28.7283C153.472 28.6377 153.496 28.5364 153.486 28.4354C153.492 28.3425 153.466 28.2502 153.413 28.169C153.359 28.0879 153.279 28.0213 153.183 27.9769C153.092 27.9323 152.992 27.9017 152.888 27.8866C152.79 27.8794 152.691 27.8794 152.593 27.8866H151.994V27.5114H152.503C152.603 27.5191 152.705 27.5191 152.806 27.5114C152.905 27.4975 153.002 27.4718 153.093 27.435C153.179 27.3982 153.252 27.3432 153.306 27.2752C153.365 27.1964 153.393 27.1042 153.388 27.0112C153.39 26.9439 153.374 26.877 153.342 26.8156C153.309 26.7542 153.26 26.7 153.199 26.6568C153.022 26.5531 152.808 26.5041 152.593 26.5179C152.434 26.5109 152.276 26.5109 152.117 26.5179C151.87 26.5485 151.628 26.6045 151.396 26.6846L151.257 26.3373C151.467 26.2592 151.687 26.201 151.912 26.1636C152.152 26.1185 152.397 26.0953 152.642 26.0941C153.002 26.0771 153.36 26.1547 153.666 26.3164C153.786 26.3831 153.884 26.4753 153.948 26.5838C154.013 26.6923 154.043 26.8133 154.035 26.9347C154.041 27.1075 153.971 27.2759 153.839 27.4072C153.716 27.527 153.558 27.6159 153.38 27.6642C153.593 27.7085 153.785 27.8081 153.929 27.9491C154.071 28.0928 154.147 28.2756 154.142 28.4632C154.146 28.6284 154.098 28.7915 154.002 28.9356C153.914 29.0667 153.79 29.1785 153.642 29.2622C153.476 29.3533 153.293 29.4192 153.101 29.4567C152.891 29.4942 152.676 29.5106 152.462 29.5053Z" fill="white"/>
<path d="M158.395 27.8028C158.397 28.0132 158.369 28.223 158.313 28.428C158.262 28.6255 158.165 28.8122 158.027 28.9769C157.884 29.1428 157.695 29.2764 157.477 29.3659C157.22 29.4652 156.94 29.515 156.658 29.5118C156.375 29.5214 156.094 29.4737 155.838 29.3729C155.633 29.2884 155.455 29.1618 155.322 29.0047C155.188 28.8437 155.094 28.6619 155.043 28.4697C154.986 28.2578 154.959 28.0409 154.961 27.8236C154.961 27.6056 154.995 27.3884 155.06 27.1775C155.119 26.9778 155.222 26.7892 155.363 26.6217C155.504 26.4556 155.689 26.3199 155.904 26.2257C156.159 26.1214 156.44 26.0713 156.723 26.0798C157.007 26.0702 157.288 26.1203 157.543 26.2257C157.752 26.3175 157.932 26.451 158.067 26.6147C158.203 26.7824 158.298 26.9714 158.346 27.1705C158.389 27.3792 158.405 27.5911 158.395 27.8028ZM157.715 27.8028C157.727 27.6501 157.727 27.4969 157.715 27.3442C157.693 27.1972 157.643 27.0541 157.568 26.9204C157.497 26.7932 157.39 26.6832 157.256 26.6008C157.101 26.513 156.918 26.4692 156.732 26.4758C156.544 26.4693 156.359 26.5104 156.199 26.5939C156.062 26.6715 155.949 26.7765 155.871 26.8996C155.779 27.0445 155.718 27.2021 155.691 27.3651C155.659 27.5188 155.642 27.6745 155.641 27.8305C155.628 27.9878 155.628 28.1457 155.641 28.303C155.664 28.4442 155.717 28.5807 155.797 28.7059C155.875 28.8216 155.989 28.9175 156.125 28.9838C156.297 29.0599 156.489 29.0959 156.682 29.088C156.864 29.0955 157.044 29.0568 157.199 28.9769C157.331 28.9014 157.438 28.7986 157.51 28.6781C157.588 28.5495 157.64 28.4111 157.666 28.2682C157.695 28.1189 157.712 27.968 157.715 27.8166V27.8028Z" fill="white"/>
<path d="M161.78 29.4496V26.5525H159.895V29.4496H159.248V26.1426H162.436C162.436 26.6937 162.436 27.2449 162.436 27.7961C162.436 28.3473 162.436 28.8984 162.436 29.4496H161.78Z" fill="white"/>
<path d="M166.346 29.0393H166.87V29.3659C166.766 29.4089 166.656 29.4415 166.542 29.4631C166.427 29.486 166.309 29.4976 166.19 29.4979C166.062 29.5039 165.936 29.4747 165.829 29.4145C165.777 29.37 165.737 29.3166 165.712 29.2578C165.686 29.1991 165.676 29.1364 165.682 29.0741C165.446 29.2517 165.166 29.3823 164.862 29.4562C164.761 29.4818 164.656 29.4981 164.551 29.5048H164.321C164.129 29.5098 163.938 29.4765 163.764 29.4075C163.63 29.3512 163.512 29.2706 163.42 29.1713C163.336 29.0783 163.274 28.972 163.239 28.8587C163.208 28.759 163.191 28.6563 163.19 28.553C163.185 28.4211 163.216 28.2899 163.28 28.1695C163.344 28.0491 163.439 27.9427 163.559 27.8582C163.883 27.6594 164.273 27.5525 164.674 27.5526L165.674 27.497V27.2886C165.695 27.0822 165.632 26.8757 165.493 26.705C165.402 26.6401 165.296 26.5918 165.182 26.5631C165.068 26.5344 164.948 26.526 164.829 26.5382C164.629 26.5396 164.428 26.5559 164.231 26.5869C164.025 26.6195 163.822 26.6659 163.625 26.7258L163.477 26.3506C163.713 26.2622 163.961 26.1969 164.215 26.1561C164.468 26.1118 164.726 26.0885 164.985 26.0866C165.331 26.0694 165.673 26.1555 165.952 26.3298C166.082 26.4412 166.181 26.5756 166.242 26.7234C166.303 26.8712 166.324 27.0287 166.305 27.1843L166.346 29.0393ZM164.706 27.9277C164.492 27.921 164.283 27.9802 164.116 28.0945C164.053 28.1478 164.003 28.2119 163.971 28.2825C163.938 28.3531 163.924 28.4287 163.928 28.5044C163.92 28.5834 163.932 28.6629 163.961 28.7381C163.991 28.8132 164.038 28.8826 164.1 28.9421C164.253 29.0496 164.451 29.102 164.649 29.088C164.832 29.0858 165.011 29.0478 165.174 28.9768C165.371 28.8924 165.553 28.7848 165.715 28.6572V27.8721L164.706 27.9277Z" fill="white"/>
<path d="M168.214 27.7753C168.214 27.9455 168.233 28.1154 168.272 28.2825C168.306 28.4253 168.37 28.5617 168.46 28.6854C168.544 28.8008 168.663 28.8946 168.805 28.9564C168.973 29.0246 169.159 29.058 169.346 29.0536C169.539 29.0543 169.731 29.0356 169.919 28.998C170.109 28.9586 170.295 28.9075 170.477 28.8452L170.657 29.2134C170.462 29.2999 170.255 29.3675 170.042 29.4149C169.799 29.4705 169.548 29.4985 169.296 29.4983C169.016 29.5044 168.737 29.4618 168.477 29.3732C168.265 29.298 168.079 29.1785 167.936 29.0258C167.794 28.8695 167.694 28.6896 167.641 28.4978C167.579 28.2841 167.549 28.0647 167.551 27.8448C167.553 27.651 167.578 27.4579 167.624 27.2681C167.673 27.0637 167.764 26.8683 167.895 26.6915C168.03 26.5085 168.216 26.3559 168.436 26.2468C168.712 26.121 169.024 26.061 169.337 26.0731C169.517 26.0635 169.698 26.0635 169.878 26.0731C170.079 26.0973 170.274 26.144 170.46 26.2121L170.304 26.6081C170.14 26.5578 169.97 26.5229 169.796 26.5039H169.378C169.211 26.496 169.044 26.5236 168.892 26.5842C168.74 26.6449 168.609 26.7367 168.51 26.8513C168.297 27.1245 168.194 27.4484 168.214 27.7753Z" fill="white"/>
<path d="M173.812 29.4492V27.8999H171.919V29.4492H171.263V26.1353H171.919V27.4553H173.804V26.1353H174.451V29.4492H173.812Z" fill="white"/>
<path d="M178.771 27.8028C178.772 28.0132 178.745 28.223 178.689 28.428C178.638 28.6255 178.54 28.8122 178.402 28.9769C178.259 29.1428 178.071 29.2764 177.853 29.3659C177.596 29.4652 177.316 29.515 177.033 29.5118C176.751 29.5214 176.47 29.4737 176.214 29.3729C176.008 29.2884 175.831 29.1618 175.697 29.0047C175.564 28.8437 175.469 28.6619 175.419 28.4697C175.362 28.2578 175.334 28.0409 175.337 27.8236C175.337 27.6056 175.37 27.3884 175.435 27.1775C175.494 26.9778 175.597 26.7892 175.738 26.6217C175.88 26.4556 176.065 26.3199 176.279 26.2257C176.534 26.1214 176.816 26.0713 177.099 26.0798C177.382 26.0702 177.664 26.1203 177.918 26.2257C178.128 26.3175 178.308 26.451 178.443 26.6147C178.579 26.7824 178.673 26.9714 178.722 27.1705C178.764 27.3792 178.781 27.5911 178.771 27.8028ZM178.091 27.8028C178.102 27.6501 178.102 27.4969 178.091 27.3442C178.068 27.1972 178.019 27.0541 177.943 26.9204C177.873 26.7932 177.766 26.6832 177.632 26.6008C177.477 26.513 177.293 26.4692 177.107 26.4758C176.92 26.4693 176.734 26.5104 176.574 26.5939C176.437 26.6715 176.325 26.7765 176.246 26.8996C176.162 27.032 176.104 27.1751 176.074 27.3234C176.043 27.4771 176.026 27.6328 176.025 27.7889C176.012 27.9461 176.012 28.104 176.025 28.2613C176.048 28.4025 176.101 28.539 176.181 28.6642C176.259 28.7799 176.372 28.8758 176.509 28.9421C176.68 29.0182 176.873 29.0542 177.066 29.0464C177.247 29.0538 177.427 29.0151 177.582 28.9352C177.715 28.8598 177.822 28.7569 177.894 28.6365C177.971 28.5078 178.024 28.3694 178.05 28.2266C178.074 28.0909 178.088 27.9539 178.091 27.8166V27.8028Z" fill="white"/>
<path d="M180.221 27.7753C180.221 27.9455 180.24 28.1154 180.279 28.2825C180.313 28.4253 180.376 28.5617 180.467 28.6854C180.55 28.8008 180.67 28.8946 180.811 28.9564C180.98 29.0246 181.166 29.058 181.352 29.0536C181.546 29.0543 181.738 29.0356 181.926 28.998C182.116 28.9586 182.302 28.9075 182.483 28.8452L182.664 29.2134C182.468 29.2999 182.262 29.3675 182.049 29.4149C181.806 29.4705 181.555 29.4985 181.303 29.4983C181.023 29.5044 180.744 29.4618 180.484 29.3732C180.272 29.298 180.085 29.1785 179.943 29.0258C179.801 28.8695 179.701 28.6896 179.648 28.4978C179.586 28.2841 179.556 28.0647 179.557 27.8448C179.56 27.651 179.585 27.4579 179.631 27.2681C179.68 27.0637 179.771 26.8683 179.902 26.6915C180.037 26.5085 180.223 26.3559 180.443 26.2468C180.719 26.121 181.031 26.061 181.344 26.0731C181.524 26.0635 181.705 26.0635 181.885 26.0731C182.086 26.0973 182.281 26.144 182.467 26.2121L182.311 26.6081C182.147 26.5578 181.977 26.5229 181.803 26.5039H181.385C181.218 26.496 181.051 26.5236 180.899 26.5842C180.747 26.6449 180.616 26.7367 180.516 26.8513C180.304 27.1245 180.2 27.4484 180.221 27.7753Z" fill="white"/>
<path d="M184.27 26.566H182.893V26.1353H186.295V26.566H184.926V29.4492H184.278L184.27 26.566Z" fill="white"/>
<path d="M187.475 26.1353V27.3233H188.68C188.887 27.3187 189.093 27.3494 189.286 27.4136C189.444 27.4684 189.587 27.5513 189.704 27.6568C189.813 27.755 189.896 27.8708 189.95 27.9972C190.004 28.1218 190.032 28.2535 190.032 28.3862C190.036 28.5386 190.002 28.69 189.934 28.8309C189.871 28.9562 189.779 29.0696 189.663 29.1644C189.548 29.2583 189.411 29.3316 189.262 29.3797C189.099 29.4317 188.927 29.4576 188.753 29.4562H186.836V26.1353H187.475ZM187.475 27.7193V29.0324H188.639C188.841 29.0407 189.038 28.9807 189.188 28.8656C189.258 28.8043 189.313 28.7312 189.348 28.6511C189.383 28.571 189.398 28.4855 189.393 28.4001C189.4 28.307 189.382 28.2138 189.341 28.1272C189.3 28.0406 189.236 27.963 189.155 27.8999C188.988 27.781 188.775 27.719 188.557 27.7262L187.475 27.7193Z" fill="white"/>
<path d="M118.44 22.4049V11.2889L113.014 22.4049H111.686L106.285 11.2889V22.4049H103.236V7.43994H107.605L112.399 17.2915L117.17 7.43994H121.538V22.4049H118.44Z" fill="white"/>
<path d="M125.292 22.4049V7.43994H137.389V9.75346H128.373V13.6371H137.184V15.9506H128.39V20.1191H137.405V22.4327L125.292 22.4049Z" fill="white"/>
<path d="M140.569 22.4049V7.43994H148.314C152.019 7.43994 154.052 9.59367 154.052 12.1295C154.052 14.6654 151.962 16.8191 148.314 16.8191H143.659V22.3771L140.569 22.4049ZM150.921 12.1295C150.924 11.8011 150.847 11.4756 150.694 11.1739C150.541 10.8722 150.315 10.6009 150.031 10.3773C149.747 10.1537 149.412 9.98272 149.045 9.87531C148.679 9.7679 148.291 9.7264 147.905 9.75346H143.667V14.5125H147.905C148.291 14.5386 148.679 14.4962 149.045 14.3879C149.411 14.2796 149.746 14.1078 150.029 13.8836C150.312 13.6594 150.537 13.3875 150.689 13.0855C150.841 12.7835 150.917 12.4579 150.912 12.1295H150.921Z" fill="white"/>
<path d="M155.863 14.9363C155.863 10.337 159.912 7.19672 165.124 7.19672C166.553 7.16803 167.964 7.46492 169.211 8.0564C170.459 8.64787 171.495 9.51226 172.214 10.5593L169.567 11.7057C169.107 11.0501 168.456 10.5058 167.677 10.125C166.898 9.74415 166.016 9.53964 165.116 9.53109C161.625 9.53109 159.027 11.796 159.027 14.9363C159.027 18.0765 161.625 20.3414 165.116 20.3414C166.017 20.3383 166.901 20.1361 167.682 19.7547C168.462 19.3734 169.112 18.8261 169.567 18.1668L172.214 19.3132C171.493 20.3583 170.455 21.221 169.209 21.8122C167.962 22.4034 166.552 22.7015 165.124 22.6758C159.912 22.6758 155.863 19.5355 155.863 14.9363Z" fill="white"/>
<path d="M174.706 22.4049V7.43994H177.82V17.8612L186.836 7.43994H190.016V22.4049H186.918V11.7266L177.697 22.4049H174.706Z" fill="white"/>
</svg>
