<?xml version="1.0" encoding="utf-8"?>
<!-- Generator: Adobe Illustrator 17.1.0, SVG Export Plug-In . SVG Version: 6.00 Build 0)  -->
<!DOCTYPE svg PUBLIC "-//W3C//DTD SVG 1.1//EN" "http://www.w3.org/Graphics/SVG/1.1/DTD/svg11.dtd">
<svg version="1.1" id="Layer_1" xmlns="http://www.w3.org/2000/svg" xmlns:xlink="http://www.w3.org/1999/xlink" x="0px" y="0px"
	 viewBox="0 0 42 56" enable-background="new 0 0 42 56" xml:space="preserve">
<linearGradient id="SVGID_1_" gradientUnits="userSpaceOnUse" x1="10.3094" y1="32.5055" x2="26.7254" y2="29.028" gradientTransform="matrix(1 0 0 -1 0 58)">
	<stop  offset="0" style="stop-color:#2766DF"/>
	<stop  offset="1" style="stop-color:#5882EF"/>
</linearGradient>
<path fill="url(#SVGID_1_)" d="M21,0c11.6,0,21,9.2,21,20.5C42,31.8,21,56,21,56S0,31.8,0,20.5C0,9.2,9.4,0,21,0z M21,11.6
	c1.9,0,3.7,0.6,5.2,1.6c1.5,1,2.8,2.5,3.5,4.2c0.7,1.7,0.9,3.6,0.5,5.4c-0.4,1.8-1.3,3.5-2.6,4.8c-1.3,1.3-3,2.2-4.8,2.6
	c-1.8,0.4-3.7,0.2-5.4-0.5c-1.7-0.7-3.2-1.9-4.2-3.5c-1-1.5-1.6-3.4-1.6-5.2c0-2.5,1-4.9,2.8-6.7C16.1,12.6,18.5,11.6,21,11.6z"/>
<path fill="#FFFFFF" d="M21,11L21,11c5.5,0,10,4.5,10,10l0,0c0,5.5-4.5,10-10,10l0,0c-5.5,0-10-4.5-10-10l0,0C11,15.5,15.5,11,21,11
	z"/>
</svg>
