<svg width="37" height="42" viewBox="0 0 37 42" fill="none" xmlns="http://www.w3.org/2000/svg">
<path d="M32.4173 29.3144C33.7345 31.5585 35.0243 33.741 36.2904 35.9362C36.4281 36.1777 36.4813 36.4578 36.4416 36.7325C36.3596 37.1451 35.9534 37.2881 35.4506 37.156C33.664 36.683 31.8781 36.2077 30.0927 35.7299C29.9907 35.7028 29.8869 35.6865 29.7284 35.6539C29.477 36.5732 29.2256 37.4817 28.9778 38.392C28.7216 39.3367 28.4683 40.2826 28.2181 41.2297C28.1216 41.5916 27.974 41.9301 27.5459 41.9898C27.1178 42.0495 26.8901 41.7708 26.697 41.4378C25.5638 39.4779 24.4325 37.5179 23.2811 35.5688C23.1469 35.3861 22.9602 35.248 22.7455 35.1725C22.199 34.9499 21.6342 34.7816 21.0859 34.5644C20.6068 34.3835 20.1422 34.1536 19.674 33.9419C19.316 33.7741 18.9249 33.6871 18.529 33.6871C18.1331 33.6871 17.7421 33.7741 17.3841 33.9419C16.5533 34.3038 15.7445 34.7653 14.8718 34.9807C14.0885 35.1743 13.6986 35.6105 13.3397 36.2565C12.3578 38.0228 11.3175 39.7584 10.3065 41.5048C10.1243 41.816 9.89474 42.0477 9.51217 41.9916C9.12959 41.9355 8.94013 41.6803 8.85451 41.3292C8.84358 41.2858 8.83811 41.2406 8.82536 41.1971L7.39162 35.9217C7.37158 35.8512 7.34972 35.7806 7.31693 35.6738C7.19123 35.6955 7.07464 35.7064 6.96351 35.7353C5.2055 36.2004 3.44931 36.6619 1.69494 37.1379C1.31783 37.241 0.966229 37.2809 0.70025 36.9424C0.434271 36.604 0.561795 36.2439 0.76219 35.8982C1.95849 33.8472 3.14993 31.7998 4.33651 29.756C4.41849 29.6148 4.49683 29.47 4.59156 29.2999C3.06309 28.5054 2.89731 27.1554 3.04487 25.6805C3.10499 25.0814 3.17786 24.4824 3.2562 23.8834C3.32335 23.4649 3.29093 23.0366 3.16155 22.6328C3.03216 22.2289 2.8094 21.8608 2.51109 21.5579C1.89674 20.9316 1.31658 20.2732 0.773123 19.5853C-0.254357 18.2298 -0.258001 17.0516 0.764013 15.6925C1.30554 15.0036 1.88579 14.3457 2.50198 13.7217C3.15964 13.0304 3.36368 12.2341 3.25073 11.3094C3.12867 10.4439 3.05084 9.57295 3.01755 8.69972C2.9884 7.18497 3.6916 6.20952 5.14356 5.75166C5.94105 5.51163 6.75428 5.3266 7.57744 5.19788C8.65958 5.01691 9.4393 4.48304 9.94575 3.50397C10.3153 2.77842 10.7335 2.07829 11.1973 1.4083C12.1301 0.0799529 13.276 -0.287423 14.8099 0.250068C15.6224 0.534196 16.4058 0.905192 17.1891 1.26533C17.6001 1.46156 18.0503 1.56344 18.5063 1.56344C18.9623 1.56344 19.4124 1.46156 19.8234 1.26533C20.786 0.827256 21.7725 0.442992 22.7783 0.114338C23.7967 -0.198746 24.7076 0.150533 25.4108 0.925099C25.7704 1.35188 26.098 1.80432 26.3909 2.27878C26.5781 2.55376 26.7397 2.84512 26.8737 3.14926C27.4348 4.45589 28.444 5.09292 29.8413 5.29018C30.6646 5.40906 31.4726 5.61535 32.2515 5.90549C33.3446 6.31087 33.9658 7.1723 33.9731 8.33415C33.9579 9.38783 33.8886 10.44 33.7654 11.4867C33.7131 11.8835 33.7515 12.2869 33.8776 12.6669C34.0038 13.047 34.2145 13.3939 34.4941 13.6819C35.0407 14.2538 35.5763 14.8257 36.0682 15.4374C37.3143 16.9865 37.307 18.3004 36.0682 19.8531C35.7287 20.2982 35.3508 20.713 34.9387 21.0928C33.8456 22.0519 33.5614 23.2301 33.8365 24.6109C33.9238 25.1312 33.9786 25.6565 34.0004 26.1836C34.0915 27.5173 33.729 28.6358 32.4173 29.3144ZM32.5394 9.20463C32.5831 7.77494 32.3026 7.38404 31.082 7.04924C30.5869 6.90594 30.0822 6.79769 29.5717 6.7253C27.7281 6.49003 26.3854 5.59421 25.5857 3.89849C25.301 3.31544 24.9645 2.75884 24.5801 2.23535C24.0335 1.47526 23.5726 1.33048 22.6909 1.64175C21.9933 1.89338 21.3108 2.18462 20.6468 2.51405C19.9811 2.86609 19.2386 3.05021 18.4844 3.05021C17.7302 3.05021 16.9877 2.86609 16.322 2.51405C15.7262 2.21725 15.1159 1.94398 14.5002 1.70871C13.4344 1.30333 12.9207 1.45897 12.2886 2.39822C11.9025 2.97503 11.5509 3.57387 11.2356 4.19167C10.5069 5.60145 9.37007 6.39593 7.80517 6.65472C7.01428 6.79031 6.23201 6.97159 5.46237 7.19764C5.15288 7.26682 4.87964 7.44627 4.69433 7.70205C4.50903 7.95783 4.4245 8.2722 4.45675 8.5857C4.47353 9.29288 4.53009 9.99857 4.62617 10.6995C4.89033 12.3934 4.52051 13.8611 3.23798 15.07C2.78977 15.4992 2.37276 15.9594 1.99007 16.4472C1.26136 17.372 1.2486 17.9637 1.99007 18.874C2.49652 19.493 3.0558 20.0703 3.59505 20.6621C4.00376 21.09 4.31259 21.6021 4.49962 22.1619C4.68664 22.7218 4.74727 23.3157 4.67718 23.9015C4.58245 24.8444 4.495 25.7908 4.45493 26.7373C4.42346 27.0425 4.50454 27.3487 4.68312 27.599C4.8617 27.8493 5.12564 28.0267 5.42593 28.0983C5.98282 28.293 6.55672 28.436 7.14022 28.5254C9.197 28.7588 10.6763 29.7379 11.5307 31.6435C11.7845 32.1744 12.0947 32.6767 12.4562 33.142C12.9517 33.8116 13.4126 33.9636 14.2032 33.6849C14.9045 33.4444 15.5886 33.1572 16.2509 32.8253C17.7411 32.0779 19.2113 32.067 20.7033 32.809C21.3111 33.1153 21.9351 33.389 22.5725 33.6288C23.5416 33.9908 24.07 33.8261 24.6475 32.9845C25.0403 32.4119 25.3933 31.8133 25.7041 31.1929C26.4729 29.6564 27.7281 28.8602 29.4078 28.6086C30.1246 28.4916 30.8325 28.326 31.5265 28.1127C32.1987 27.9155 32.543 27.4305 32.5321 26.7229C32.5321 26.3157 32.5121 25.9103 32.4793 25.5049C32.4337 24.962 32.3681 24.4191 32.3098 23.887C32.2366 23.3014 32.2957 22.7069 32.4829 22.1468C32.6701 21.5867 32.9806 21.0752 33.392 20.6494C33.9385 20.0486 34.5142 19.4622 35.0316 18.8288C35.7275 17.9692 35.7166 17.381 35.0571 16.5051C34.8749 16.2517 34.6508 16.0183 34.4395 15.7812C34.046 15.3414 33.6434 14.9125 33.2517 14.471C32.8914 14.0704 32.621 13.5983 32.4586 13.0859C32.2963 12.5736 32.2455 12.0327 32.3098 11.4994C32.3882 10.6723 32.4738 9.84709 32.5394 9.20463ZM2.75703 35.3372L3.12139 35.2485C4.5697 34.8649 6.01801 34.4776 7.46632 34.0975C8.07297 33.9383 8.3772 34.1229 8.55938 34.7201C8.59582 34.8504 8.62679 34.9825 8.66322 35.1128L9.82005 39.4037L12.3796 34.9716C11.4797 34.4287 10.9605 33.627 10.4868 32.7782C10.2227 32.3041 9.94939 31.8354 9.67613 31.3666C9.51524 31.0749 9.29274 30.8211 9.02389 30.6228C8.75504 30.4244 8.44619 30.2861 8.11851 30.2175C7.49729 30.0799 6.87788 29.937 6.25301 29.8229C6.18493 29.8168 6.11635 29.8269 6.05299 29.8524C5.98962 29.8779 5.93329 29.9181 5.88866 29.9695C4.85389 31.7195 3.83188 33.4804 2.75703 35.3372ZM27.1797 39.4055C27.6242 37.7478 28.0268 36.2348 28.4367 34.7255C28.6007 34.1192 28.9159 33.9419 29.5298 34.0975C29.8668 34.1844 30.202 34.2785 30.5391 34.369L34.2282 35.3589C34.0988 35.1291 34.0241 34.997 33.9458 34.854L31.4245 30.5106C31.0073 29.7867 31.0146 29.8718 30.1875 29.9406C28.4623 30.0835 27.3546 30.9468 26.6569 32.4977C26.2124 33.4858 25.6203 34.4124 24.6165 34.9934L27.1797 39.4055Z" fill="white"/>
<path d="M18.4551 28.9179C12.1809 28.8763 7.10184 23.8054 7.13098 17.6107C7.13861 16.1226 7.44176 14.6506 8.02309 13.2791C8.60441 11.9075 9.45246 10.6634 10.5187 9.61807C11.5848 8.57271 12.8482 7.74663 14.2364 7.18717C15.6245 6.6277 17.1102 6.34586 18.6082 6.35779C24.8277 6.40484 29.9032 11.5228 29.8649 17.6922C29.8157 23.9195 24.6929 28.9614 18.4551 28.9179ZM18.4879 27.4557C20.4431 27.4542 22.3539 26.8772 23.979 25.7975C25.6042 24.7177 26.8707 23.1837 27.6187 21.3892C28.3666 19.5948 28.5624 17.6203 28.1813 15.7154C27.8002 13.8104 26.8593 12.0604 25.4774 10.6865C24.0956 9.31248 22.3348 8.37617 20.4175 7.99582C18.5002 7.61547 16.5125 7.80814 14.7054 8.54949C12.8983 9.29084 11.3529 10.5476 10.2645 12.161C9.1761 13.7744 8.59347 15.6721 8.59022 17.6143C8.58903 18.9063 8.84416 20.1858 9.34103 21.3798C9.8379 22.5737 10.5668 23.6587 11.486 24.5727C12.4052 25.4866 13.4967 26.2117 14.6981 26.7064C15.8996 27.201 17.1874 27.4557 18.4879 27.4557Z" fill="white"/>
<path d="M17.0121 20.6274C17.0912 20.4644 17.1877 20.3103 17.2999 20.1677C19.548 17.9248 21.8003 15.6856 24.0569 13.4499C24.1651 13.326 24.2874 13.2149 24.4212 13.1188C24.5589 13.0314 24.7225 12.9934 24.8849 13.0111C25.0472 13.0288 25.1986 13.1011 25.3139 13.2161C25.4292 13.331 25.5015 13.4817 25.5187 13.6431C25.5359 13.8045 25.4971 13.9668 25.4086 14.1033C25.3026 14.2508 25.1804 14.3861 25.0443 14.5068C22.5909 16.9512 20.137 19.3949 17.6825 21.8381C17.0704 22.4479 16.7716 22.4479 16.1668 21.8381L11.9184 17.6178C11.8437 17.5436 11.7635 17.473 11.6943 17.3934C11.3901 17.0549 11.3864 16.6242 11.6797 16.3419C11.7463 16.2736 11.8262 16.2195 11.9147 16.1832C12.0031 16.1469 12.0981 16.129 12.1938 16.1307C12.2895 16.1324 12.3838 16.1536 12.4709 16.1931C12.5579 16.2325 12.6359 16.2893 12.6999 16.36C13.3357 16.9644 13.9515 17.5888 14.5745 18.2077C15.3524 18.9733 16.1212 19.7406 17.0121 20.6274Z" fill="white"/>
</svg>
