<svg width="63" height="52" viewBox="0 0 63 52" fill="none" xmlns="http://www.w3.org/2000/svg">
<path d="M29.5641 16.4655C29.0134 17.021 28.4527 17.5667 27.917 18.1354C27.8012 18.2807 27.6396 18.3832 27.4581 18.4267C27.2766 18.4701 27.0855 18.452 26.9156 18.3752C26.4267 18.19 25.9227 18.0445 25.3502 17.861C25.5388 18.4281 25.684 18.934 25.8776 19.4301C25.9511 19.5862 25.971 19.7619 25.9343 19.9303C25.8975 20.0987 25.8061 20.2505 25.674 20.3626C24.182 21.8259 22.7017 23.3024 21.2148 24.7706C20.7892 25.1906 20.5188 25.1773 20.0916 24.7342C17.5349 22.0888 17.5299 17.7717 20.0916 15.1014C20.896 14.2648 21.7455 13.4695 22.6333 12.5965L21.1213 12.1947C20.5422 12.0393 20.4221 11.864 20.4738 11.2837C20.4938 11.0522 20.5105 10.8191 20.5372 10.457C20.2151 10.8108 19.9648 11.0753 19.7295 11.3498C19.6362 11.4792 19.5016 11.5735 19.3474 11.6176C19.1932 11.6617 19.0285 11.653 18.88 11.5929C18.2342 11.3829 17.5766 11.2076 16.9258 11.0125C16.3934 10.8472 16.2766 10.624 16.4334 10.0816C17.4681 6.52017 21.2498 4.35585 24.9113 5.24043C25.9761 5.49836 27.0325 5.79101 28.0822 6.08367C29.5697 6.48871 30.8807 7.3686 31.8121 8.58694C31.8772 8.67127 31.9456 8.75229 32.0341 8.85976L32.3345 8.48609C33.1289 7.49404 34.1051 6.69709 35.3218 6.31845C36.8538 5.84062 38.4092 5.37931 39.9946 5.12138C43.3574 4.5741 46.7802 6.88392 47.6714 10.166C47.7882 10.6008 47.6714 10.862 47.2358 10.9927C46.5349 11.2109 45.8323 11.4374 45.1164 11.5962C44.8666 11.6226 44.6164 11.5501 44.4205 11.3944C44.1234 11.1597 43.8948 10.8389 43.551 10.4586C43.5793 10.8505 43.5977 11.1299 43.6194 11.4077C43.6511 11.8095 43.4859 12.069 43.0787 12.1616C42.5563 12.2889 42.039 12.4361 41.4749 12.5849C42.2409 13.3455 42.9769 14.073 43.7112 14.8021C44.8956 15.9096 45.6523 17.3921 45.8507 18.9936C46.1227 21.2158 45.4802 23.1585 43.9348 24.7954C43.5894 25.1625 43.2873 25.1658 42.9335 24.8169C41.4159 23.3233 39.8989 21.8259 38.3825 20.3246C38.2653 20.2253 38.1836 20.0913 38.1493 19.9424C38.1151 19.7935 38.1301 19.6376 38.1922 19.4979C38.3791 18.982 38.541 18.4579 38.7379 17.861C38.1722 18.0428 37.6615 18.1917 37.1659 18.3735C37.0021 18.4499 36.8172 18.4699 36.6407 18.4303C36.4641 18.3908 36.306 18.294 36.1912 18.1553C35.6455 17.5865 35.0764 17.0392 34.4172 16.3845L35.1999 41.1262C36.0544 41.1973 36.8688 41.2519 37.6815 41.3345C41.041 41.6768 44.3287 42.3167 47.4178 43.737C48.6152 44.2606 49.7183 44.9744 50.6837 45.85C50.88 46.0252 51.0578 46.2197 51.2144 46.4304C51.5048 46.8437 51.2712 47.315 50.7688 47.3629C50.6454 47.3745 50.5185 47.3629 50.3934 47.3629H13.6781C13.5679 47.3839 13.4546 47.3839 13.3444 47.3629C13.1524 47.2786 12.8871 47.1976 12.8203 47.0322C12.7829 46.9273 12.7706 46.8153 12.7842 46.7048C12.7978 46.5944 12.837 46.4886 12.8988 46.3957C13.3024 45.9416 13.7496 45.5275 14.2339 45.1589C16.3483 43.6063 18.7832 42.7681 21.3082 42.1613C23.7043 41.6069 26.1466 41.2709 28.6045 41.1576C28.673 41.1576 28.7397 41.1444 28.8749 41.1295L29.6643 16.5085L29.5641 16.4655ZM14.8614 46.0617L14.9214 46.1939H49.2502C49.1172 46.0823 48.9773 45.979 48.8313 45.8848C47.9969 45.4367 47.1991 44.9357 46.3363 44.562C42.9769 43.1202 39.4138 42.5779 35.794 42.3448C32.4216 42.1123 29.0347 42.1925 25.6773 42.5845C22.882 42.9251 20.1383 43.4873 17.5599 44.6463C16.6254 45.058 15.7592 45.5822 14.863 46.0567L14.8614 46.0617ZM17.6818 10.0304C18.0523 10.1428 18.361 10.2255 18.6597 10.3313C18.7569 10.3793 18.8685 10.3904 18.9734 10.3623C19.0783 10.3343 19.1692 10.2691 19.2288 10.1792C19.7094 9.60876 20.2218 9.06313 20.7174 8.50427C20.9461 8.24469 21.2415 8.11241 21.5168 8.33893C21.6857 8.5072 21.7806 8.73487 21.7805 8.97219C21.7805 9.69639 21.7121 10.4206 21.672 11.1448C22.3529 11.3234 22.9821 11.497 23.6163 11.654C23.9684 11.7417 24.5375 11.4374 24.6677 11.1034C24.893 10.5264 25.1066 9.94605 25.3352 9.36736C25.5021 8.94408 25.7891 8.77213 26.1196 8.88787C26.45 9.00361 26.5869 9.34256 26.4283 9.78071C26.3015 10.1312 26.1663 10.4801 26.0144 10.8852C28.3142 10.4999 30.3035 11.034 32.0524 12.4394C32.8713 11.7563 33.832 11.2601 34.8662 10.9861C35.9178 10.7245 37.0136 10.6885 38.0804 10.8802C37.9135 10.4487 37.775 10.0932 37.6465 9.73111C37.5013 9.32602 37.6348 8.99699 37.9803 8.88291C38.3257 8.76882 38.5894 8.94078 38.7446 9.33429C38.9766 9.92291 39.1952 10.5181 39.4255 11.1084C39.5307 11.3796 40.0764 11.7334 40.3567 11.6706C41.0427 11.5151 41.7202 11.3267 42.4211 11.1464C42.3778 10.4074 42.3427 9.70631 42.2943 9.00691C42.2726 8.69607 42.3143 8.4183 42.6414 8.28602C42.9685 8.15375 43.1972 8.30421 43.4074 8.54396C43.9003 9.10502 44.401 9.66056 44.9094 10.2106C44.9895 10.2966 45.1431 10.3941 45.2432 10.3759C45.6304 10.2916 46.0076 10.1627 46.3881 10.0453C45.6604 7.63292 42.7265 5.82739 40.1465 6.27051C38.7975 6.52655 37.4642 6.85776 36.1529 7.26256C34.6142 7.70898 33.4827 8.6845 32.7033 10.0734C32.5598 10.3313 32.4346 10.5925 32.0775 10.6025C31.7203 10.6124 31.5635 10.3379 31.4099 10.0684C31.0335 9.36651 30.5151 8.74896 29.8872 8.25427C29.2592 7.75958 28.5351 7.39835 27.7601 7.19311C26.7721 6.91534 25.7791 6.6541 24.7845 6.39782C23.5666 6.06777 22.2729 6.14388 21.103 6.61442C20.3216 6.91043 19.6126 7.36763 19.0231 7.95569C18.4335 8.54376 17.9769 9.24926 17.6834 10.0254L17.6818 10.0304ZM20.6473 23.5884L22.4113 21.8358C22.0492 21.4952 21.637 21.1447 21.2765 20.7495C21.1253 20.5804 21.0452 20.3602 21.0529 20.1344C21.1096 19.6731 21.6821 19.5491 22.0542 19.9079C22.4581 20.2981 22.8369 20.7115 23.2591 21.1496C23.7197 20.68 24.1036 20.2634 24.5158 19.8765C24.5893 19.8165 24.6397 19.7332 24.6582 19.6407C24.6768 19.5482 24.6624 19.4521 24.6176 19.3689C24.384 18.7075 24.1687 18.0462 23.9417 17.3749C23.8399 17.0806 23.7481 16.7862 24.0135 16.5283C24.2788 16.2704 24.5775 16.3795 24.8713 16.4771C25.5288 16.6953 26.193 16.897 26.8422 17.1384C26.9405 17.1844 27.0518 17.1953 27.1573 17.1694C27.2628 17.1435 27.356 17.0823 27.4213 16.9962C28.6029 15.8124 29.7961 14.6385 30.9844 13.4596C31.0478 13.3967 31.1012 13.3223 31.1512 13.2562C29.1202 11.4259 25.659 11.4689 23.5195 13.3752C22.5692 14.2232 21.6635 15.1189 20.8059 16.0587C18.8967 18.147 18.8483 21.5018 20.6473 23.5851V23.5884ZM32.9052 13.2678C34.1986 14.5475 35.4736 15.814 36.7637 17.0706C36.8271 17.1116 36.8987 17.1385 36.9736 17.1493C37.0486 17.1602 37.125 17.1548 37.1976 17.1335C37.8651 16.9351 38.516 16.7102 39.1735 16.4919C39.4772 16.3911 39.7877 16.2555 40.0697 16.5283C40.3517 16.8011 40.2366 17.1103 40.1298 17.4145C39.9062 18.0759 39.6758 18.7373 39.4622 19.4119C39.4407 19.471 39.4319 19.5339 39.4365 19.5966C39.4411 19.6592 39.459 19.7202 39.4889 19.7756C39.9095 20.2287 40.3534 20.6619 40.824 21.1331C41.2396 20.7065 41.6117 20.3163 41.9922 19.9393C42.3027 19.6334 42.6097 19.6086 42.8717 19.8566C43.1338 20.1047 43.1171 20.4386 42.8117 20.7627C42.6982 20.8834 42.5763 20.9958 42.4579 21.1132L41.7269 21.8407L43.4558 23.5636C45.2032 21.5018 45.1848 18.2115 43.3157 16.1232C42.4316 15.1315 41.4881 14.1934 40.4903 13.3141C38.3758 11.454 34.9696 11.4424 32.9052 13.2678ZM30.25 34.5473V37.4159H33.8231V34.5473H30.25ZM30.3552 33.3337H33.7063V30.4633H30.3552V33.3337ZM33.9816 38.6444H30.1032V41.0551H33.9816V38.6444ZM33.5828 26.3695H30.5037V29.2398H33.5811L33.5828 26.3695ZM33.4626 22.2657H30.6255V25.1492H33.4626V22.2657ZM33.3124 21.0587V18.1768H30.7591V21.0587H33.3124ZM32.0341 13.9969C31.6552 14.3921 31.3198 14.7377 30.9894 15.0898C30.9309 15.1466 30.8934 15.2211 30.8825 15.3015C30.8742 15.8471 30.8825 16.3927 30.8825 16.9549H33.219C33.219 16.3911 33.219 15.8587 33.219 15.3263C33.2008 15.2208 33.1487 15.1239 33.0704 15.0502C32.7417 14.7162 32.4196 14.3937 32.0324 13.9969H32.0341Z" fill="white"/>
<path d="M14.8633 46.0559C15.7595 45.5813 16.634 45.0638 17.5585 44.6422C20.1386 43.4848 22.8822 42.921 25.6759 42.5804C29.0333 42.1884 32.4202 42.1081 35.7926 42.3406C39.4124 42.5721 42.9688 43.1161 46.3349 44.5579C47.1977 44.9282 48.0038 45.4292 48.8299 45.8806C48.9759 45.9749 49.1158 46.0781 49.2488 46.1898H14.9217L14.8633 46.0559Z" fill="#5882EF"/>
<path d="M17.6836 10.0256C17.9756 9.25078 18.4302 8.54609 19.0173 7.95811C19.6045 7.37013 20.3108 6.91223 21.0898 6.61464C22.2597 6.14411 23.5534 6.06799 24.7713 6.39804C25.7726 6.65432 26.7589 6.91556 27.7469 7.19334C28.5209 7.39784 29.2442 7.75789 29.8718 8.25111C30.4994 8.74433 31.0179 9.36018 31.3951 10.0604C31.5453 10.3299 31.6788 10.6043 32.0626 10.5944C32.4465 10.5845 32.5449 10.3233 32.6884 10.0653C33.4611 8.67646 34.5993 7.70094 36.138 7.25452C37.4493 6.84972 38.7826 6.51851 40.1316 6.26246C42.7117 5.81935 45.6389 7.62488 46.3732 10.0372C45.9927 10.1497 45.6155 10.277 45.2284 10.3679C45.1332 10.3877 44.9797 10.2902 44.8946 10.2026C44.3872 9.65142 43.8866 9.09587 43.3926 8.53592C43.1823 8.29617 42.947 8.14902 42.6266 8.27798C42.3062 8.40695 42.2594 8.68803 42.2795 8.99887C42.3279 9.69827 42.3629 10.3977 42.4063 11.1384C41.7054 11.3186 41.0278 11.5071 40.3419 11.6625C40.0615 11.727 39.5158 11.3715 39.4107 11.1004C39.182 10.5101 38.9634 9.91487 38.7298 9.32625C38.5746 8.93108 38.2842 8.76739 37.9654 8.87487C37.6467 8.98234 37.4898 9.31964 37.6316 9.72307C37.7601 10.0835 37.902 10.4407 38.0656 10.8722C36.9987 10.6804 35.9029 10.7165 34.8513 10.978C33.8171 11.252 32.8565 11.7482 32.0376 12.4314C30.2886 11.026 28.2993 10.4919 25.9996 10.8772C26.1515 10.4721 26.285 10.1232 26.4135 9.77267C26.5804 9.33452 26.4552 9.00218 26.1047 8.87983C25.7543 8.75747 25.4856 8.93604 25.3204 9.35932C25.0951 9.93636 24.8814 10.5167 24.6528 11.0954C24.5226 11.4261 23.9536 11.7336 23.6014 11.646C22.9689 11.4807 22.3398 11.3153 21.6572 11.1367C21.6989 10.4125 21.7623 9.68835 21.7657 8.96415C21.7657 8.72683 21.6709 8.49916 21.502 8.33089C21.2249 8.10768 20.9312 8.23995 20.7026 8.49623C20.2019 9.05509 19.7013 9.60072 19.214 10.1711C19.1543 10.2611 19.0634 10.3263 18.9586 10.3543C18.8537 10.3823 18.7421 10.3713 18.6449 10.3233C18.3628 10.2257 18.0541 10.1381 17.6836 10.0256Z" fill="#5882EF"/>
<path d="M20.6472 23.5858C18.8465 21.5025 18.8948 18.1477 20.8141 16.0512C21.6706 15.1114 22.5752 14.2157 23.5243 13.3677C25.6638 11.4613 29.125 11.4183 31.1561 13.2487C31.0993 13.3148 31.0476 13.3892 30.9892 13.452C29.8009 14.6309 28.6077 15.8048 27.4261 16.9887C27.3609 17.0748 27.2676 17.136 27.1621 17.1619C27.0566 17.1878 26.9453 17.1768 26.847 17.1309C26.1978 16.8911 25.5336 16.6894 24.8761 16.4695C24.5824 16.372 24.2836 16.2628 24.0183 16.5208C23.7529 16.7787 23.8514 17.0714 23.9465 17.3673C24.1735 18.0287 24.3888 18.7 24.6224 19.3613C24.6672 19.4446 24.6816 19.5406 24.663 19.6332C24.6445 19.7257 24.5942 19.809 24.5206 19.8689C24.1084 20.2575 23.7246 20.6725 23.264 21.1421C22.8417 20.7039 22.4629 20.2906 22.059 19.9004C21.6885 19.5416 21.1161 19.6672 21.0577 20.1269C21.0501 20.3527 21.1301 20.5728 21.2813 20.742C21.6418 21.1371 22.054 21.4876 22.4162 21.8282L20.6472 23.5858Z" fill="#5882EF"/>
<path d="M32.9053 13.2685C34.9697 11.4497 38.3758 11.4497 40.4936 13.3148C41.4941 14.1907 42.4404 15.1254 43.3274 16.114C45.1965 18.2039 45.2149 21.4942 43.4676 23.5544L41.7386 21.8315L42.4696 21.104C42.5864 20.9866 42.7082 20.8742 42.8234 20.7535C43.1271 20.4228 43.1488 20.0921 42.8835 19.8474C42.6181 19.6027 42.3161 19.6259 42.004 19.9301C41.6201 20.3071 41.2496 20.699 40.8358 21.1239C40.3668 20.6527 39.9229 20.2211 39.5007 19.7664C39.4707 19.711 39.4529 19.65 39.4483 19.5874C39.4437 19.5247 39.4524 19.4618 39.474 19.4027C39.6842 18.7413 39.9145 18.07 40.1415 17.4053C40.2433 17.1011 40.3635 16.7919 40.0814 16.5191C39.7994 16.2463 39.489 16.3819 39.1852 16.4827C38.5277 16.701 37.8718 16.9259 37.2093 17.1243C37.1367 17.1456 37.0603 17.151 36.9854 17.1401C36.9104 17.1293 36.8388 17.1024 36.7754 17.0614C35.4737 15.8131 34.1987 14.5466 32.9053 13.2685Z" fill="#5882EF"/>
<path d="M30.2505 34.5469H33.8235V37.4156H30.2505V34.5469Z" fill="#5882EF"/>
<path d="M30.355 33.3349V30.4629H33.7061V33.3349H30.355Z" fill="#5882EF"/>
<path d="M33.982 38.6445V41.0552H30.1035V38.6445H33.982Z" fill="#5882EF"/>
<path d="M33.5797 26.3691V29.2395H30.5039V26.3691H33.5797Z" fill="#5882EF"/>
<path d="M33.4611 22.2656V25.1492H30.624V22.2656H33.4611Z" fill="#5882EF"/>
<path d="M33.3141 21.0596H30.7607V18.1777H33.3141V21.0596Z" fill="#5882EF"/>
<path d="M32.0323 13.9961C32.4194 14.3929 32.7415 14.7153 33.0536 15.0477C33.1319 15.1214 33.184 15.2183 33.2022 15.3238C33.2155 15.8562 33.2022 16.3902 33.2022 16.9524H30.8657C30.8657 16.3902 30.8657 15.8446 30.8657 15.299C30.8765 15.2186 30.9141 15.1441 30.9725 15.0874C31.3113 14.7368 31.6451 14.3913 32.0323 13.9961Z" fill="#5882EF"/>
</svg>
