<svg width="18" height="17" viewBox="0 0 18 17" fill="none" xmlns="http://www.w3.org/2000/svg">
<path d="M16.243 7.45919L9.88359 7.47842V1.24416C9.88359 0.700961 9.4463 0.263672 8.90309 0.263672C8.36007 0.263672 7.9226 0.700961 7.9226 1.24416L7.94183 7.45937H1.85159C1.30838 7.45937 0.871094 7.89666 0.871094 8.43986C0.871094 8.98289 1.30838 9.42018 1.85159 9.42018H7.93221V15.6356C7.93221 16.1784 8.3695 16.6161 8.91271 16.6161C9.45591 16.6161 9.8932 16.1784 9.8932 15.6356V9.42035H16.243C16.7862 9.42035 17.2235 8.98272 17.2235 8.43986C17.2235 7.89648 16.7813 7.45919 16.243 7.45919Z" fill="#989898"/>
</svg>
