<svg width="370" height="292" viewBox="0 0 370 292" fill="none" xmlns="http://www.w3.org/2000/svg">
<path d="M239.576 86.4989C241.119 85.7847 241.792 83.9545 241.077 82.411C240.363 80.8676 238.533 80.1953 236.99 80.9095C235.446 81.6237 234.774 83.4539 235.488 84.9973C236.202 86.5408 238.033 87.2131 239.576 86.4989Z" fill="#37A6FF"/>
<path d="M202.166 173.084C203.709 172.37 204.382 170.54 203.668 168.996C202.953 167.453 201.123 166.781 199.58 167.495C198.036 168.209 197.364 170.039 198.078 171.583C198.792 173.126 200.623 173.799 202.166 173.084Z" fill="#37A6FF"/>
<path d="M141.517 174.004C143.06 173.289 143.733 171.459 143.018 169.916C142.304 168.372 140.474 167.7 138.931 168.414C137.387 169.128 136.715 170.959 137.429 172.502C138.143 174.045 139.973 174.718 141.517 174.004Z" fill="#37A6FF"/>
<path d="M298.084 76.6741C299.628 75.9599 300.3 74.1297 299.586 72.5862C298.872 71.0427 297.041 70.3705 295.498 71.0847C293.954 71.7988 293.282 73.6291 293.996 75.1725C294.711 76.716 296.541 77.3883 298.084 76.6741Z" fill="#37A6FF"/>
<path d="M307.858 26.911C309.401 26.1968 310.074 24.3666 309.359 22.8232C308.645 21.2797 306.815 20.6074 305.271 21.3216C303.728 22.0358 303.056 23.866 303.77 25.4095C304.484 26.9529 306.314 27.6252 307.858 26.911Z" fill="#37A6FF"/>
<path d="M225.343 120.512C226.887 119.798 227.559 117.968 226.845 116.424C226.13 114.881 224.3 114.209 222.757 114.923C221.213 115.637 220.541 117.467 221.255 119.011C221.969 120.554 223.8 121.226 225.343 120.512Z" fill="#37A6FF"/>
<path d="M161.928 208.951C162.829 208.534 163.221 207.467 162.804 206.566C162.388 205.666 161.32 205.274 160.42 205.69C159.519 206.107 159.127 207.175 159.544 208.075C159.96 208.975 161.028 209.368 161.928 208.951Z" fill="#37A6FF"/>
<path d="M178.116 174.882C179.016 174.465 179.408 173.398 178.992 172.497C178.575 171.597 177.507 171.205 176.607 171.622C175.707 172.038 175.314 173.106 175.731 174.006C176.148 174.907 177.215 175.299 178.116 174.882Z" fill="#37A6FF"/>
<path d="M206.914 133.847C207.814 133.43 208.206 132.362 207.79 131.462C207.373 130.562 206.305 130.17 205.405 130.586C204.505 131.003 204.113 132.07 204.529 132.971C204.946 133.871 206.013 134.263 206.914 133.847Z" fill="#37A6FF"/>
<path d="M260.048 146.018C260.949 145.602 261.341 144.534 260.924 143.634C260.507 142.733 259.44 142.341 258.54 142.758C257.639 143.174 257.247 144.242 257.664 145.142C258.08 146.043 259.148 146.435 260.048 146.018Z" fill="#37A6FF"/>
<path d="M313.655 108.49C314.555 108.073 314.948 107.005 314.531 106.105C314.114 105.205 313.047 104.813 312.146 105.229C311.246 105.646 310.854 106.713 311.271 107.614C311.687 108.514 312.755 108.906 313.655 108.49Z" fill="#37A6FF"/>
<path d="M265.07 112.874C265.97 112.458 266.363 111.39 265.946 110.49C265.529 109.589 264.462 109.197 263.561 109.614C262.661 110.03 262.269 111.098 262.686 111.998C263.102 112.899 264.17 113.291 265.07 112.874Z" fill="#37A6FF"/>
<path d="M310.177 52.6996C311.078 52.283 311.47 51.2153 311.053 50.315C310.637 49.4146 309.569 49.0225 308.669 49.4391C307.768 49.8557 307.376 50.9233 307.793 51.8237C308.209 52.724 309.277 53.1162 310.177 52.6996Z" fill="#37A6FF"/>
<path d="M151.536 81.2813C151.121 80.3804 150.054 79.9867 149.153 80.4021C148.252 80.8174 147.858 81.8845 148.274 82.7854C148.689 83.6863 149.756 84.08 150.657 83.6647C151.558 83.2493 151.952 82.1822 151.536 81.2813Z" fill="#37A6FF"/>
<path d="M88.1618 119.803C89.0622 119.387 89.4543 118.319 89.0377 117.419C88.6211 116.518 87.5535 116.126 86.6531 116.543C85.7528 116.96 85.3606 118.027 85.7772 118.927C86.1939 119.828 87.2615 120.22 88.1618 119.803Z" fill="#37A6FF"/>
<path d="M105.829 169.593C106.729 169.177 107.121 168.109 106.705 167.209C106.288 166.308 105.22 165.916 104.32 166.333C103.42 166.75 103.027 167.817 103.444 168.718C103.861 169.618 104.928 170.01 105.829 169.593Z" fill="#37A6FF"/>
<path d="M315.926 177.562C316.827 177.145 317.219 176.078 316.802 175.177C316.385 174.277 315.318 173.885 314.418 174.301C313.517 174.718 313.125 175.786 313.542 176.686C313.958 177.586 315.026 177.978 315.926 177.562Z" fill="#37A6FF"/>
<path d="M199.35 152.332C200.251 151.916 200.643 150.848 200.226 149.948C199.81 149.048 198.742 148.655 197.842 149.072C196.941 149.489 196.549 150.556 196.966 151.457C197.382 152.357 198.45 152.749 199.35 152.332Z" fill="#37A6FF"/>
<path d="M221.229 184.339C222.001 183.982 222.337 183.067 221.98 182.295C221.623 181.524 220.708 181.187 219.936 181.544C219.164 181.902 218.828 182.817 219.185 183.588C219.542 184.36 220.457 184.696 221.229 184.339Z" fill="#37A6FF"/>
<path d="M164.438 190.542C165.21 190.185 165.546 189.27 165.189 188.498C164.831 187.726 163.916 187.39 163.145 187.747C162.373 188.104 162.037 189.019 162.394 189.791C162.751 190.563 163.666 190.899 164.438 190.542Z" fill="#37A6FF"/>
<path d="M180.273 145.325C181.045 144.968 181.381 144.053 181.024 143.281C180.667 142.51 179.752 142.174 178.98 142.531C178.208 142.888 177.872 143.803 178.229 144.575C178.586 145.346 179.501 145.682 180.273 145.325Z" fill="#37A6FF"/>
<path d="M215.43 155.919C216.073 155.622 216.353 154.859 216.056 154.216C215.758 153.573 214.995 153.293 214.352 153.59C213.709 153.888 213.429 154.651 213.727 155.294C214.024 155.937 214.787 156.217 215.43 155.919Z" fill="#37A6FF"/>
<path d="M248.644 139.703C249.287 139.405 249.567 138.643 249.269 137.999C248.972 137.356 248.209 137.076 247.566 137.374C246.923 137.671 246.643 138.434 246.94 139.077C247.238 139.72 248 140 248.644 139.703Z" fill="#37A6FF"/>
<path d="M209.635 112.229C210.278 111.932 210.558 111.169 210.26 110.526C209.963 109.883 209.2 109.603 208.557 109.9C207.914 110.198 207.634 110.96 207.932 111.604C208.229 112.247 208.992 112.527 209.635 112.229Z" fill="#37A6FF"/>
<path d="M175.075 161.586C175.718 161.288 175.997 160.525 175.699 159.882C175.401 159.239 174.638 158.96 173.995 159.258C173.352 159.557 173.073 160.32 173.371 160.962C173.669 161.605 174.432 161.884 175.075 161.586Z" fill="#37A6FF"/>
<path d="M299.782 107.84C300.425 107.542 300.705 106.78 300.408 106.137C300.11 105.494 299.348 105.214 298.705 105.511C298.061 105.809 297.781 106.571 298.079 107.214C298.376 107.857 299.139 108.138 299.782 107.84Z" fill="#37A6FF"/>
<path d="M294.656 125.481C295.299 125.183 295.579 124.421 295.281 123.778C294.984 123.135 294.221 122.855 293.578 123.152C292.935 123.45 292.655 124.212 292.952 124.855C293.25 125.498 294.012 125.779 294.656 125.481Z" fill="#37A6FF"/>
<path d="M311.622 80.8723C312.264 80.5741 312.544 79.8112 312.245 79.1684C311.947 78.5256 311.184 78.2463 310.542 78.5446C309.899 78.8429 309.619 79.6058 309.918 80.2486C310.216 80.8914 310.979 81.1706 311.622 80.8723Z" fill="#37A6FF"/>
<path d="M307.213 94.5547C306.916 93.9112 306.153 93.6303 305.51 93.9272C304.867 94.224 304.586 94.9863 304.882 95.6298C305.179 96.2732 305.942 96.5541 306.585 96.2573C307.229 95.9604 307.509 95.1981 307.213 94.5547Z" fill="#37A6FF"/>
<path d="M341.155 133.089C341.798 132.791 342.078 132.029 341.78 131.386C341.483 130.742 340.72 130.462 340.077 130.76C339.434 131.057 339.154 131.82 339.451 132.463C339.749 133.106 340.511 133.386 341.155 133.089Z" fill="#37A6FF"/>
<path d="M290.558 150.846C291.201 150.548 291.481 149.786 291.183 149.142C290.886 148.499 290.123 148.219 289.48 148.517C288.837 148.814 288.557 149.577 288.855 150.22C289.152 150.863 289.915 151.143 290.558 150.846Z" fill="#37A6FF"/>
<path d="M210.331 172.636C210.034 171.992 209.272 171.711 208.629 172.008C207.985 172.305 207.704 173.067 208.001 173.711C208.298 174.354 209.06 174.635 209.704 174.338C210.347 174.041 210.628 173.279 210.331 172.636Z" fill="#37A6FF"/>
<path d="M132.493 183.834C133.136 183.536 133.416 182.774 133.118 182.131C132.821 181.488 132.058 181.208 131.415 181.505C130.772 181.803 130.492 182.565 130.789 183.208C131.087 183.852 131.85 184.132 132.493 183.834Z" fill="#37A6FF"/>
<path d="M140.795 148.608C141.438 148.309 141.717 147.546 141.419 146.904C141.12 146.261 140.357 145.982 139.715 146.28C139.072 146.578 138.793 147.341 139.091 147.984C139.389 148.627 140.152 148.906 140.795 148.608Z" fill="#37A6FF"/>
<path d="M169.137 118.81C169.78 118.512 170.059 117.749 169.761 117.106C169.463 116.464 168.7 116.184 168.057 116.483C167.414 116.781 167.135 117.544 167.433 118.187C167.732 118.829 168.495 119.109 169.137 118.81Z" fill="#37A6FF"/>
<path d="M140.096 114.716C140.739 114.419 141.019 113.656 140.722 113.013C140.424 112.37 139.662 112.09 139.019 112.388C138.376 112.685 138.095 113.448 138.393 114.091C138.691 114.734 139.453 115.014 140.096 114.716Z" fill="#37A6FF"/>
<path d="M277.994 135.207C277.638 134.434 276.724 134.097 275.952 134.452C275.179 134.808 274.841 135.723 275.197 136.495C275.553 137.267 276.467 137.605 277.24 137.249C278.012 136.894 278.35 135.979 277.994 135.207Z" fill="#37A6FF"/>
<path d="M335.155 156.789C335.927 156.431 336.263 155.516 335.906 154.745C335.549 153.973 334.634 153.637 333.862 153.994C333.09 154.351 332.754 155.266 333.111 156.038C333.468 156.809 334.383 157.146 335.155 156.789Z" fill="#37A6FF"/>
<path d="M283.612 160.28C284.384 159.923 284.72 159.008 284.363 158.236C284.006 157.464 283.091 157.128 282.319 157.485C281.547 157.842 281.211 158.757 281.568 159.529C281.925 160.301 282.84 160.637 283.612 160.28Z" fill="#37A6FF"/>
<path d="M321.068 102.514C321.84 102.157 322.176 101.242 321.819 100.47C321.462 99.6986 320.547 99.3624 319.775 99.7195C319.004 100.077 318.667 100.992 319.024 101.763C319.382 102.535 320.297 102.871 321.068 102.514Z" fill="#37A6FF"/>
<path d="M277.567 117.271C278.339 116.914 278.675 115.999 278.318 115.227C277.961 114.455 277.046 114.119 276.274 114.476C275.503 114.833 275.166 115.749 275.524 116.52C275.881 117.292 276.796 117.628 277.567 117.271Z" fill="#37A6FF"/>
<path d="M312.562 68.8455C313.334 68.4871 313.668 67.5715 313.31 66.8004C312.951 66.0292 312.036 65.6946 311.265 66.053C310.494 66.4114 310.159 67.327 310.517 68.0982C310.876 68.8693 311.791 69.2039 312.562 68.8455Z" fill="#37A6FF"/>
<path d="M290.08 64.2614C290.851 63.9043 291.187 62.9892 290.83 62.2175C290.473 61.4458 289.558 61.1096 288.786 61.4667C288.015 61.8238 287.679 62.7389 288.036 63.5106C288.393 64.2824 289.308 64.6185 290.08 64.2614Z" fill="#37A6FF"/>
<path d="M241.482 110.782C242.254 110.425 242.59 109.51 242.233 108.738C241.876 107.967 240.961 107.631 240.189 107.988C239.418 108.345 239.081 109.26 239.438 110.032C239.796 110.803 240.711 111.139 241.482 110.782Z" fill="#37A6FF"/>
<path d="M218.454 131.9C219.226 131.543 219.562 130.628 219.205 129.856C218.848 129.084 217.932 128.748 217.161 129.105C216.389 129.462 216.053 130.377 216.41 131.149C216.767 131.921 217.682 132.257 218.454 131.9Z" fill="#37A6FF"/>
<path d="M169.585 138.113C170.357 137.756 170.693 136.841 170.336 136.069C169.979 135.297 169.064 134.961 168.292 135.318C167.52 135.675 167.184 136.59 167.541 137.362C167.898 138.134 168.813 138.47 169.585 138.113Z" fill="#37A6FF"/>
<path d="M151.822 155.945C152.594 155.588 152.93 154.673 152.573 153.901C152.216 153.13 151.301 152.794 150.529 153.151C149.757 153.508 149.421 154.423 149.778 155.195C150.135 155.966 151.05 156.302 151.822 155.945Z" fill="#37A6FF"/>
<path d="M158.925 179.238C159.697 178.881 160.033 177.966 159.676 177.194C159.319 176.422 158.404 176.086 157.632 176.443C156.86 176.8 156.524 177.716 156.881 178.487C157.238 179.259 158.153 179.595 158.925 179.238Z" fill="#37A6FF"/>
<path d="M143.697 94.3887C144.469 94.0316 144.805 93.1165 144.448 92.3447C144.091 91.573 143.176 91.2369 142.404 91.594C141.632 91.9511 141.296 92.8662 141.653 93.6379C142.011 94.4096 142.926 94.7458 143.697 94.3887Z" fill="#37A6FF"/>
<path d="M126.535 156.902C127.306 156.545 127.643 155.63 127.285 154.858C126.928 154.086 126.013 153.75 125.242 154.107C124.47 154.464 124.134 155.379 124.491 156.151C124.848 156.923 125.763 157.259 126.535 156.902Z" fill="#37A6FF"/>
<path d="M184.756 183.12C185.527 182.763 185.863 181.848 185.506 181.076C185.149 180.304 184.234 179.968 183.462 180.325C182.691 180.682 182.355 181.598 182.712 182.369C183.069 183.141 183.984 183.477 184.756 183.12Z" fill="#37A6FF"/>
<path d="M248.866 128.572C249.637 128.215 249.973 127.3 249.616 126.529C249.259 125.757 248.344 125.421 247.572 125.778C246.801 126.135 246.464 127.05 246.822 127.822C247.179 128.593 248.094 128.93 248.866 128.572Z" fill="#37A6FF"/>
<path d="M291.391 142.26C292.163 141.903 292.499 140.988 292.142 140.216C291.785 139.444 290.87 139.108 290.098 139.465C289.326 139.822 288.99 140.737 289.347 141.509C289.704 142.281 290.619 142.617 291.391 142.26Z" fill="#37A6FF"/>
<path d="M339.381 96.8686C340.152 96.5115 340.489 95.5964 340.131 94.8247C339.774 94.0529 338.859 93.7168 338.087 94.0739C337.316 94.431 336.98 95.3461 337.337 96.1178C337.694 96.8896 338.609 97.2257 339.381 96.8686Z" fill="#37A6FF"/>
<path d="M320.137 84.0008C320.909 83.6437 321.245 82.7286 320.888 81.9569C320.531 81.1852 319.615 80.8491 318.844 81.2062C318.072 81.5633 317.736 82.4783 318.093 83.2501C318.45 84.0218 319.365 84.3579 320.137 84.0008Z" fill="#37A6FF"/>
<path d="M254.116 91.6464C254.888 91.2893 255.224 90.3743 254.867 89.6026C254.51 88.8308 253.595 88.4947 252.823 88.8518C252.051 89.2089 251.715 90.124 252.072 90.8957C252.43 91.6674 253.345 92.0035 254.116 91.6464Z" fill="#37A6FF"/>
<path d="M122.758 88.2436C124.301 87.5294 124.974 85.6992 124.259 84.1557C123.545 82.6123 121.715 81.94 120.171 82.6542C118.628 83.3684 117.956 85.1986 118.67 86.742C119.384 88.2855 121.214 88.9578 122.758 88.2436Z" fill="#37A6FF"/>
<path d="M20.1445 174.462C21.6879 173.748 22.3602 171.918 21.646 170.374C20.9318 168.831 19.1016 168.159 17.5582 168.873C16.0147 169.587 15.3425 171.417 16.0567 172.961C16.7709 174.504 18.601 175.176 20.1445 174.462Z" fill="#37A6FF"/>
<path d="M145.44 135.43C147.884 134.299 148.948 131.401 147.818 128.958C146.687 126.514 143.789 125.449 141.345 126.58C138.901 127.711 137.837 130.609 138.968 133.053C140.098 135.496 142.996 136.561 145.44 135.43Z" fill="#37A6FF"/>
<path d="M252.11 184.47C254.553 183.339 255.618 180.442 254.487 177.998C253.356 175.554 250.458 174.49 248.015 175.62C245.571 176.751 244.506 179.649 245.637 182.093C246.768 184.537 249.666 185.601 252.11 184.47Z" fill="#37A6FF"/>
<path d="M309.794 137.421C312.237 136.29 313.302 133.392 312.171 130.948C311.04 128.505 308.142 127.44 305.699 128.571C303.255 129.702 302.19 132.6 303.321 135.043C304.452 137.487 307.35 138.552 309.794 137.421Z" fill="#37A6FF"/>
</svg>
