<svg width="208" height="106" viewBox="0 0 208 106" fill="none" xmlns="http://www.w3.org/2000/svg">
<path d="M150.598 33.7714C151.669 33.7714 152.537 32.9032 152.537 31.8323C152.537 30.7614 151.669 29.8933 150.598 29.8933C149.527 29.8933 148.659 30.7614 148.659 31.8323C148.659 32.9032 149.527 33.7714 150.598 33.7714Z" fill="#37A6FF"/>
<path d="M106.323 73.3598C107.394 73.3598 108.262 72.4916 108.262 71.4207C108.262 70.3499 107.394 69.4818 106.323 69.4818C105.252 69.4818 104.384 70.3499 104.384 71.4207C104.384 72.4916 105.252 73.3598 106.323 73.3598Z" fill="#37A6FF"/>
<path d="M71.4208 57.8476C72.4917 57.8476 73.3598 56.9794 73.3598 55.9085C73.3598 54.8376 72.4917 53.9695 71.4208 53.9695C70.3499 53.9695 69.4818 54.8376 69.4818 55.9085C69.4818 56.9794 70.3499 57.8476 71.4208 57.8476Z" fill="#37A6FF"/>
<path d="M186.631 43.6281C187.702 43.6281 188.57 42.7599 188.57 41.689C188.57 40.6182 187.702 39.75 186.631 39.75C185.56 39.75 184.692 40.6182 184.692 41.689C184.692 42.7599 185.56 43.6281 186.631 43.6281Z" fill="#37A6FF"/>
<path d="M205.375 17.7745C206.446 17.7745 207.314 16.9063 207.314 15.8354C207.314 14.7645 206.446 13.8964 205.375 13.8964C204.304 13.8964 203.436 14.7645 203.436 15.8354C203.436 16.9063 204.304 17.7745 205.375 17.7745Z" fill="#37A6FF"/>
<path d="M133.47 49.4451C134.54 49.4451 135.409 48.577 135.409 47.5061C135.409 46.4352 134.54 45.5671 133.47 45.5671C132.399 45.5671 131.531 46.4352 131.531 47.5061C131.531 48.577 132.399 49.4451 133.47 49.4451Z" fill="#37A6FF"/>
<path d="M73.8445 83.2165C74.4692 83.2165 74.9756 82.7101 74.9756 82.0854C74.9756 81.4607 74.4692 80.9543 73.8445 80.9543C73.2198 80.9543 72.7134 81.4607 72.7134 82.0854C72.7134 82.7101 73.2198 83.2165 73.8445 83.2165Z" fill="#37A6FF"/>
<path d="M92.1037 68.0274C92.7284 68.0274 93.2348 67.5211 93.2348 66.8964C93.2348 66.2717 92.7284 65.7653 92.1037 65.7653C91.479 65.7653 90.9726 66.2717 90.9726 66.8964C90.9726 67.5211 91.479 68.0274 92.1037 68.0274Z" fill="#37A6FF"/>
<path d="M119.412 52.1921C120.036 52.1921 120.543 51.6856 120.543 51.0609C120.543 50.4363 120.036 49.9299 119.412 49.9299C118.787 49.9299 118.281 50.4363 118.281 51.0609C118.281 51.6856 118.787 52.1921 119.412 52.1921Z" fill="#37A6FF"/>
<path d="M146.558 73.1982C147.183 73.1982 147.689 72.6917 147.689 72.067C147.689 71.4424 147.183 70.936 146.558 70.936C145.933 70.936 145.427 71.4424 145.427 72.067C145.427 72.6917 145.933 73.1982 146.558 73.1982Z" fill="#37A6FF"/>
<path d="M187.116 65.9269C187.741 65.9269 188.247 65.4204 188.247 64.7957C188.247 64.1711 187.741 63.6647 187.116 63.6647C186.491 63.6647 185.985 64.1711 185.985 64.7957C185.985 65.4204 186.491 65.9269 187.116 65.9269Z" fill="#37A6FF"/>
<path d="M158.192 55.5854C158.817 55.5854 159.323 55.0789 159.323 54.4542C159.323 53.8296 158.817 53.3232 158.192 53.3232C157.567 53.3232 157.061 53.8296 157.061 54.4542C157.061 55.0789 157.567 55.5854 158.192 55.5854Z" fill="#37A6FF"/>
<path d="M199.881 33.125C200.506 33.125 201.012 32.6186 201.012 31.9939C201.012 31.3692 200.506 30.8628 199.881 30.8628C199.256 30.8628 198.75 31.3692 198.75 31.9939C198.75 32.6186 199.256 33.125 199.881 33.125Z" fill="#37A6FF"/>
<path d="M101.665 7.50917C101.666 6.88449 101.16 6.37736 100.535 6.37648C99.9107 6.3756 99.4036 6.8813 99.4027 7.50599C99.4018 8.13068 99.9075 8.6378 100.532 8.63868C101.157 8.63955 101.664 8.13386 101.665 7.50917Z" fill="#37A6FF"/>
<path d="M55.2622 12.7652C55.8869 12.7652 56.3933 12.2588 56.3933 11.6341C56.3933 11.0094 55.8869 10.5031 55.2622 10.5031C54.6375 10.5031 54.1311 11.0094 54.1311 11.6341C54.1311 12.2588 54.6375 12.7652 55.2622 12.7652Z" fill="#37A6FF"/>
<path d="M52.1921 45.8902C52.8168 45.8902 53.3232 45.3838 53.3232 44.7591C53.3232 44.1344 52.8168 43.6281 52.1921 43.6281C51.5674 43.6281 51.061 44.1344 51.061 44.7591C51.061 45.3838 51.5674 45.8902 52.1921 45.8902Z" fill="#37A6FF"/>
<path d="M170.149 106C170.774 106 171.28 105.494 171.28 104.869C171.28 104.244 170.774 103.738 170.149 103.738C169.525 103.738 169.018 104.244 169.018 104.869C169.018 105.494 169.525 106 170.149 106Z" fill="#37A6FF"/>
<path d="M110.201 60.7561C110.826 60.7561 111.332 60.2497 111.332 59.625C111.332 59.0003 110.826 58.4939 110.201 58.4939C109.577 58.4939 109.07 59.0003 109.07 59.625C109.07 60.2497 109.577 60.7561 110.201 60.7561Z" fill="#37A6FF"/>
<path d="M114.241 84.8324C114.776 84.8324 115.21 84.3983 115.21 83.8628C115.21 83.3274 114.776 82.8933 114.241 82.8933C113.705 82.8933 113.271 83.3274 113.271 83.8628C113.271 84.3983 113.705 84.8324 114.241 84.8324Z" fill="#37A6FF"/>
<path d="M80.1464 73.3598C80.6818 73.3598 81.1159 72.9257 81.1159 72.3902C81.1159 71.8548 80.6818 71.4207 80.1464 71.4207C79.6109 71.4207 79.1769 71.8548 79.1769 72.3902C79.1769 72.9257 79.6109 73.3598 80.1464 73.3598Z" fill="#37A6FF"/>
<path d="M101.152 51.7074C101.688 51.7074 102.122 51.2733 102.122 50.7378C102.122 50.2024 101.688 49.7683 101.152 49.7683C100.617 49.7683 100.183 50.2024 100.183 50.7378C100.183 51.2733 100.617 51.7074 101.152 51.7074Z" fill="#37A6FF"/>
<path d="M118.442 67.0579C118.888 67.0579 119.25 66.6962 119.25 66.25C119.25 65.8038 118.888 65.4421 118.442 65.4421C117.996 65.4421 117.634 65.8038 117.634 66.25C117.634 66.6962 117.996 67.0579 118.442 67.0579Z" fill="#37A6FF"/>
<path d="M141.71 66.5732C142.157 66.5732 142.518 66.2115 142.518 65.7653C142.518 65.3191 142.157 64.9573 141.71 64.9573C141.264 64.9573 140.903 65.3191 140.903 65.7653C140.903 66.2115 141.264 66.5732 141.71 66.5732Z" fill="#37A6FF"/>
<path d="M126.683 40.5579C127.129 40.5579 127.491 40.1961 127.491 39.7499C127.491 39.3037 127.129 38.942 126.683 38.942C126.237 38.942 125.875 39.3037 125.875 39.7499C125.875 40.1961 126.237 40.5579 126.683 40.5579Z" fill="#37A6FF"/>
<path d="M93.8822 59.6253C94.3284 59.6249 94.6897 59.2627 94.6893 58.8165C94.6888 58.3703 94.3266 58.009 93.8804 58.0095C93.4342 58.01 93.0729 58.3721 93.0734 58.8183C93.0739 59.2645 93.436 59.6258 93.8822 59.6253Z" fill="#37A6FF"/>
<path d="M179.36 61.8872C179.806 61.8872 180.168 61.5255 180.168 61.0793C180.168 60.6331 179.806 60.2714 179.36 60.2714C178.914 60.2714 178.552 60.6331 178.552 61.0793C178.552 61.5255 178.914 61.8872 179.36 61.8872Z" fill="#37A6FF"/>
<path d="M171.765 70.6128C172.212 70.6128 172.573 70.2511 172.573 69.8049C172.573 69.3587 172.212 68.9969 171.765 68.9969C171.319 68.9969 170.957 69.3587 170.957 69.8049C170.957 70.2511 171.319 70.6128 171.765 70.6128Z" fill="#37A6FF"/>
<path d="M193.257 49.6069C193.703 49.6064 194.065 49.2443 194.064 48.7981C194.064 48.3519 193.702 47.9906 193.255 47.9911C192.809 47.9915 192.448 48.3537 192.448 48.7999C192.449 49.2461 192.811 49.6074 193.257 49.6069Z" fill="#37A6FF"/>
<path d="M187.119 56.2599C187.12 55.8137 186.758 55.4516 186.312 55.4511C185.866 55.4506 185.504 55.8119 185.503 56.2581C185.503 56.7043 185.864 57.0664 186.31 57.0669C186.757 57.0674 187.119 56.7061 187.119 56.2599Z" fill="#37A6FF"/>
<path d="M196.326 87.2561C196.773 87.2561 197.134 86.8944 197.134 86.4482C197.134 86.002 196.773 85.6403 196.326 85.6403C195.88 85.6403 195.518 86.002 195.518 86.4482C195.518 86.8944 195.88 87.2561 196.326 87.2561Z" fill="#37A6FF"/>
<path d="M162.717 84.0244C163.163 84.0244 163.524 83.6627 163.524 83.2165C163.524 82.7703 163.163 82.4086 162.717 82.4086C162.27 82.4086 161.909 82.7703 161.909 83.2165C161.909 83.6627 162.27 84.0244 162.717 84.0244Z" fill="#37A6FF"/>
<path d="M111.108 75.2624C111.108 74.8162 110.747 74.4541 110.301 74.4536C109.855 74.4531 109.492 74.8145 109.492 75.2607C109.491 75.7069 109.853 76.069 110.299 76.0695C110.745 76.07 111.107 75.7087 111.108 75.2624Z" fill="#37A6FF"/>
<path d="M63.6646 61.0793C64.1108 61.0793 64.4725 60.7176 64.4725 60.2714C64.4725 59.8252 64.1108 59.4634 63.6646 59.4634C63.2184 59.4634 62.8567 59.8252 62.8567 60.2714C62.8567 60.7176 63.2184 61.0793 63.6646 61.0793Z" fill="#37A6FF"/>
<path d="M77.7235 43.1437C78.1697 43.1432 78.531 42.781 78.5306 42.3348C78.5301 41.8886 78.168 41.5273 77.7217 41.5278C77.2755 41.5283 76.9142 41.8904 76.9147 42.3366C76.9152 42.7828 77.2773 43.1441 77.7235 43.1437Z" fill="#37A6FF"/>
<path d="M101.8 33.6101C102.246 33.6096 102.607 33.2475 102.607 32.8013C102.606 32.3551 102.244 31.9937 101.798 31.9942C101.352 31.9947 100.99 32.3568 100.991 32.803C100.991 33.2493 101.353 33.6106 101.8 33.6101Z" fill="#37A6FF"/>
<path d="M86.2866 23.5914C86.7328 23.5914 87.0946 23.2297 87.0946 22.7835C87.0946 22.3373 86.7328 21.9756 86.2866 21.9756C85.8404 21.9756 85.4787 22.3373 85.4787 22.7835C85.4787 23.2297 85.8404 23.5914 86.2866 23.5914Z" fill="#37A6FF"/>
<path d="M159.673 71.7652C159.674 71.2298 159.24 70.795 158.705 70.794C158.169 70.7931 157.734 71.2264 157.734 71.7618C157.733 72.2972 158.166 72.7321 158.701 72.733C159.237 72.734 159.672 72.3007 159.673 71.7652Z" fill="#37A6FF"/>
<path d="M186.631 99.2135C187.167 99.2135 187.601 98.7794 187.601 98.2439C187.601 97.7085 187.167 97.2744 186.631 97.2744C186.096 97.2744 185.662 97.7085 185.662 98.2439C185.662 98.7794 186.096 99.2135 186.631 99.2135Z" fill="#37A6FF"/>
<path d="M156.253 87.5793C156.789 87.5793 157.223 87.1452 157.223 86.6097C157.223 86.0743 156.789 85.6403 156.253 85.6403C155.718 85.6403 155.284 86.0743 155.284 86.6097C155.284 87.1452 155.718 87.5793 156.253 87.5793Z" fill="#37A6FF"/>
<path d="M192.933 64.4726C193.468 64.4726 193.903 64.0385 193.903 63.503C193.903 62.9676 193.468 62.5335 192.933 62.5335C192.398 62.5335 191.964 62.9676 191.964 63.503C191.964 64.0385 192.398 64.4726 192.933 64.4726Z" fill="#37A6FF"/>
<path d="M164.171 61.4025C164.706 61.4025 165.14 60.9684 165.14 60.433C165.14 59.8975 164.706 59.4634 164.171 59.4634C163.635 59.4634 163.201 59.8975 163.201 60.433C163.201 60.9684 163.635 61.4025 164.171 61.4025Z" fill="#37A6FF"/>
<path d="M196.975 42.9825C197.51 42.9816 197.943 42.5468 197.942 42.0114C197.942 41.4759 197.507 41.0426 196.971 41.0435C196.436 41.0444 196.003 41.4792 196.003 42.0146C196.004 42.5501 196.439 42.9834 196.975 42.9825Z" fill="#37A6FF"/>
<path d="M185.338 34.4177C185.874 34.4177 186.308 33.9836 186.308 33.4482C186.308 32.9127 185.874 32.4786 185.338 32.4786C184.803 32.4786 184.369 32.9127 184.369 33.4482C184.369 33.9836 184.803 34.4177 185.338 34.4177Z" fill="#37A6FF"/>
<path d="M145.265 48.1524C145.801 48.1524 146.235 47.7183 146.235 47.1829C146.235 46.6475 145.801 46.2134 145.265 46.2134C144.73 46.2134 144.296 46.6475 144.296 47.1829C144.296 47.7183 144.73 48.1524 145.265 48.1524Z" fill="#37A6FF"/>
<path d="M126.521 54.1311C127.057 54.1311 127.491 53.697 127.491 53.1616C127.491 52.6262 127.057 52.1921 126.521 52.1921C125.986 52.1921 125.552 52.6262 125.552 53.1616C125.552 53.697 125.986 54.1311 126.521 54.1311Z" fill="#37A6FF"/>
<path d="M96.9513 44.7591C97.4867 44.7591 97.9208 44.325 97.9208 43.7896C97.9208 43.2542 97.4867 42.8201 96.9513 42.8201C96.4158 42.8201 95.9818 43.2542 95.9818 43.7896C95.9818 44.325 96.4158 44.7591 96.9513 44.7591Z" fill="#37A6FF"/>
<path d="M82.0854 50.253C82.6209 50.253 83.0549 49.819 83.0549 49.2835C83.0549 48.7481 82.6209 48.314 82.0854 48.314C81.55 48.314 81.1159 48.7481 81.1159 49.2835C81.1159 49.819 81.55 50.253 82.0854 50.253Z" fill="#37A6FF"/>
<path d="M79.9848 65.4421C80.5202 65.4421 80.9543 65.008 80.9543 64.4726C80.9543 63.9371 80.5202 63.5031 79.9848 63.5031C79.4493 63.5031 79.0153 63.9371 79.0153 64.4726C79.0153 65.008 79.4493 65.4421 79.9848 65.4421Z" fill="#37A6FF"/>
<path d="M93.7195 12.9268C94.255 12.9268 94.689 12.4928 94.689 11.9573C94.689 11.4219 94.255 10.9878 93.7195 10.9878C93.1841 10.9878 92.75 11.4219 92.75 11.9573C92.75 12.4928 93.1841 12.9268 93.7195 12.9268Z" fill="#37A6FF"/>
<path d="M67.3811 44.1128C67.9166 44.1128 68.3506 43.6787 68.3506 43.1433C68.3506 42.6078 67.9166 42.1738 67.3811 42.1738C66.8457 42.1738 66.4116 42.6078 66.4116 43.1433C66.4116 43.6787 66.8457 44.1128 67.3811 44.1128Z" fill="#37A6FF"/>
<path d="M93.7195 74.4909C94.255 74.4909 94.689 74.0568 94.689 73.5214C94.689 72.986 94.255 72.5519 93.7195 72.5519C93.1841 72.5519 92.75 72.986 92.75 73.5214C92.75 74.0568 93.1841 74.4909 93.7195 74.4909Z" fill="#37A6FF"/>
<path d="M144.781 60.2713C145.316 60.2713 145.75 59.8372 145.75 59.3018C145.75 58.7664 145.316 58.3323 144.781 58.3323C144.245 58.3323 143.811 58.7664 143.811 59.3018C143.811 59.8372 144.245 60.2713 144.781 60.2713Z" fill="#37A6FF"/>
<path d="M165.463 79.3384C165.999 79.3384 166.433 78.9044 166.433 78.3689C166.433 77.8335 165.999 77.3994 165.463 77.3994C164.928 77.3994 164.494 77.8335 164.494 78.3689C164.494 78.9044 164.928 79.3384 165.463 79.3384Z" fill="#37A6FF"/>
<path d="M204.89 66.0885C205.426 66.0885 205.86 65.6544 205.86 65.1189C205.86 64.5835 205.426 64.1494 204.89 64.1494C204.355 64.1494 203.921 64.5835 203.921 65.1189C203.921 65.6544 204.355 66.0885 204.89 66.0885Z" fill="#37A6FF"/>
<path d="M197.296 53.6463C197.831 53.6463 198.265 53.2123 198.265 52.6768C198.265 52.1414 197.831 51.7073 197.296 51.7073C196.76 51.7073 196.326 52.1414 196.326 52.6768C196.326 53.2123 196.76 53.6463 197.296 53.6463Z" fill="#37A6FF"/>
<path d="M157.546 40.5579C158.081 40.5579 158.515 40.1239 158.515 39.5884C158.515 39.053 158.081 38.6189 157.546 38.6189C157.01 38.6189 156.576 39.053 156.576 39.5884C156.576 40.1239 157.01 40.5579 157.546 40.5579Z" fill="#37A6FF"/>
<path d="M83.378 3.87804C84.4489 3.87804 85.3171 3.00989 85.3171 1.939C85.3171 0.868101 84.4489 0 83.378 0C82.3072 0 81.439 0.868101 81.439 1.939C81.439 3.00989 82.3072 3.87804 83.378 3.87804Z" fill="#37A6FF"/>
<path d="M1.93902 26.0152C3.00991 26.0152 3.87805 25.1471 3.87805 24.0763C3.87805 23.0054 3.00991 22.1372 1.93902 22.1372C0.868126 22.1372 0 23.0054 0 24.0763C0 25.1471 0.868126 26.0152 1.93902 26.0152Z" fill="#37A6FF"/>
<path d="M83.8629 36.8414C85.5584 36.8414 86.933 35.4669 86.933 33.7713C86.933 32.0757 85.5584 30.7012 83.8629 30.7012C82.1673 30.7012 80.7927 32.0757 80.7927 33.7713C80.7927 35.4669 82.1673 36.8414 83.8629 36.8414Z" fill="#37A6FF"/>
<path d="M131.854 93.0731C133.549 93.0731 134.924 91.6986 134.924 90.003C134.924 88.3075 133.549 86.9329 131.854 86.9329C130.158 86.9329 128.784 88.3075 128.784 90.003C128.784 91.6986 130.158 93.0731 131.854 93.0731Z" fill="#37A6FF"/>
<path d="M177.259 81.439C178.955 81.439 180.329 80.0645 180.329 78.3689C180.329 76.6733 178.955 75.2988 177.259 75.2988C175.564 75.2988 174.189 76.6733 174.189 78.3689C174.189 80.0645 175.564 81.439 177.259 81.439Z" fill="#37A6FF"/>
</svg>
