<svg width="330" height="169" viewBox="0 0 330 169" fill="none" xmlns="http://www.w3.org/2000/svg">
<path d="M239.165 53.6325C240.865 53.6325 242.244 52.2538 242.244 50.5531C242.244 48.8524 240.865 47.4738 239.165 47.4738C237.464 47.4738 236.085 48.8524 236.085 50.5531C236.085 52.2538 237.464 53.6325 239.165 53.6325Z" fill="#37A6FF"/>
<path d="M168.853 116.503C170.553 116.503 171.932 115.124 171.932 113.424C171.932 111.723 170.553 110.344 168.853 110.344C167.152 110.344 165.773 111.723 165.773 113.424C165.773 115.124 167.152 116.503 168.853 116.503Z" fill="#37A6FF"/>
<path d="M113.424 91.868C115.125 91.868 116.503 90.4892 116.503 88.7886C116.503 87.0879 115.125 85.7092 113.424 85.7092C111.723 85.7092 110.345 87.0879 110.345 88.7886C110.345 90.4892 111.723 91.868 113.424 91.868Z" fill="#37A6FF"/>
<path d="M296.389 69.2859C298.09 69.2859 299.469 67.9072 299.469 66.2065C299.469 64.5058 298.09 63.1271 296.389 63.1271C294.689 63.1271 293.31 64.5058 293.31 66.2065C293.31 67.9072 294.689 69.2859 296.389 69.2859Z" fill="#37A6FF"/>
<path d="M326.157 28.2275C327.857 28.2275 329.236 26.8488 329.236 25.1481C329.236 23.4474 327.857 22.0687 326.157 22.0687C324.456 22.0687 323.077 23.4474 323.077 25.1481C323.077 26.8488 324.456 28.2275 326.157 28.2275Z" fill="#37A6FF"/>
<path d="M211.964 78.524C213.665 78.524 215.043 77.1453 215.043 75.4446C215.043 73.7439 213.665 72.3652 211.964 72.3652C210.263 72.3652 208.885 73.7439 208.885 75.4446C208.885 77.1453 210.263 78.524 211.964 78.524Z" fill="#37A6FF"/>
<path d="M117.272 132.157C118.265 132.157 119.069 131.352 119.069 130.36C119.069 129.368 118.265 128.564 117.272 128.564C116.28 128.564 115.476 129.368 115.476 130.36C115.476 131.352 116.28 132.157 117.272 132.157Z" fill="#37A6FF"/>
<path d="M146.27 108.035C147.262 108.035 148.067 107.231 148.067 106.238C148.067 105.246 147.262 104.442 146.27 104.442C145.278 104.442 144.474 105.246 144.474 106.238C144.474 107.231 145.278 108.035 146.27 108.035Z" fill="#37A6FF"/>
<path d="M189.639 82.8864C190.631 82.8864 191.435 82.0821 191.435 81.0901C191.435 80.098 190.631 79.2938 189.639 79.2938C188.647 79.2938 187.842 80.098 187.842 81.0901C187.842 82.0821 188.647 82.8864 189.639 82.8864Z" fill="#37A6FF"/>
<path d="M232.75 116.246C233.742 116.246 234.546 115.442 234.546 114.45C234.546 113.458 233.742 112.654 232.75 112.654C231.758 112.654 230.954 113.458 230.954 114.45C230.954 115.442 231.758 116.246 232.75 116.246Z" fill="#37A6FF"/>
<path d="M297.159 104.699C298.151 104.699 298.956 103.895 298.956 102.902C298.956 101.91 298.151 101.106 297.159 101.106C296.167 101.106 295.363 101.91 295.363 102.902C295.363 103.895 296.167 104.699 297.159 104.699Z" fill="#37A6FF"/>
<path d="M251.225 88.2753C252.217 88.2753 253.022 87.4711 253.022 86.479C253.022 85.4869 252.217 84.6827 251.225 84.6827C250.233 84.6827 249.429 85.4869 249.429 86.479C249.429 87.4711 250.233 88.2753 251.225 88.2753Z" fill="#37A6FF"/>
<path d="M317.432 52.606C318.424 52.606 319.228 51.8017 319.228 50.8096C319.228 49.8176 318.424 49.0133 317.432 49.0133C316.44 49.0133 315.636 49.8176 315.636 50.8096C315.636 51.8017 316.44 52.606 317.432 52.606Z" fill="#37A6FF"/>
<path d="M161.454 11.9253C161.456 10.9332 160.653 10.1279 159.661 10.1265C158.669 10.1251 157.863 10.9282 157.862 11.9203C157.86 12.9123 158.663 13.7177 159.656 13.7191C160.648 13.7205 161.453 12.9174 161.454 11.9253Z" fill="#37A6FF"/>
<path d="M87.762 20.2725C88.7541 20.2725 89.5583 19.4683 89.5583 18.4762C89.5583 17.4841 88.7541 16.6799 87.762 16.6799C86.7699 16.6799 85.9657 17.4841 85.9657 18.4762C85.9657 19.4683 86.7699 20.2725 87.762 20.2725Z" fill="#37A6FF"/>
<path d="M82.8862 72.8785C83.8783 72.8785 84.6825 72.0742 84.6825 71.0821C84.6825 70.0901 83.8783 69.2859 82.8862 69.2859C81.8941 69.2859 81.0899 70.0901 81.0899 71.0821C81.0899 72.0742 81.8941 72.8785 82.8862 72.8785Z" fill="#37A6FF"/>
<path d="M270.215 168.339C271.207 168.339 272.011 167.535 272.011 166.543C272.011 165.551 271.207 164.747 270.215 164.747C269.223 164.747 268.418 165.551 268.418 166.543C268.418 167.535 269.223 168.339 270.215 168.339Z" fill="#37A6FF"/>
<path d="M175.011 96.487C176.003 96.487 176.808 95.6828 176.808 94.6907C176.808 93.6987 176.003 92.8944 175.011 92.8944C174.019 92.8944 173.215 93.6987 173.215 94.6907C173.215 95.6828 174.019 96.487 175.011 96.487Z" fill="#37A6FF"/>
<path d="M181.427 134.723C182.277 134.723 182.966 134.033 182.966 133.183C182.966 132.333 182.277 131.643 181.427 131.643C180.576 131.643 179.887 132.333 179.887 133.183C179.887 134.033 180.576 134.723 181.427 134.723Z" fill="#37A6FF"/>
<path d="M127.281 116.503C128.132 116.503 128.821 115.814 128.821 114.963C128.821 114.113 128.132 113.424 127.281 113.424C126.431 113.424 125.742 114.113 125.742 114.963C125.742 115.814 126.431 116.503 127.281 116.503Z" fill="#37A6FF"/>
<path d="M160.641 82.1166C161.491 82.1166 162.181 81.4273 162.181 80.5769C162.181 79.7266 161.491 79.0372 160.641 79.0372C159.791 79.0372 159.101 79.7266 159.101 80.5769C159.101 81.4273 159.791 82.1166 160.641 82.1166Z" fill="#37A6FF"/>
<path d="M188.099 106.495C188.807 106.495 189.382 105.921 189.382 105.212C189.382 104.503 188.807 103.929 188.099 103.929C187.39 103.929 186.816 104.503 186.816 105.212C186.816 105.921 187.39 106.495 188.099 106.495Z" fill="#37A6FF"/>
<path d="M225.051 105.725C225.76 105.725 226.334 105.151 226.334 104.442C226.334 103.734 225.76 103.159 225.051 103.159C224.342 103.159 223.768 103.734 223.768 104.442C223.768 105.151 224.342 105.725 225.051 105.725Z" fill="#37A6FF"/>
<path d="M201.186 64.4103C201.894 64.4103 202.469 63.8358 202.469 63.1272C202.469 62.4186 201.894 61.8441 201.186 61.8441C200.477 61.8441 199.903 62.4186 199.903 63.1272C199.903 63.8358 200.477 64.4103 201.186 64.4103Z" fill="#37A6FF"/>
<path d="M149.095 94.6913C149.804 94.6905 150.378 94.1155 150.377 93.4068C150.376 92.6982 149.801 92.1244 149.092 92.1252C148.384 92.126 147.81 92.701 147.811 93.4097C147.812 94.1183 148.387 94.6921 149.095 94.6913Z" fill="#37A6FF"/>
<path d="M284.843 98.2833C285.551 98.2833 286.126 97.7089 286.126 97.0002C286.126 96.2916 285.551 95.7172 284.843 95.7172C284.134 95.7172 283.56 96.2916 283.56 97.0002C283.56 97.7089 284.134 98.2833 284.843 98.2833Z" fill="#37A6FF"/>
<path d="M272.781 112.14C273.49 112.14 274.064 111.566 274.064 110.857C274.064 110.149 273.49 109.574 272.781 109.574C272.072 109.574 271.498 110.149 271.498 110.857C271.498 111.566 272.072 112.14 272.781 112.14Z" fill="#37A6FF"/>
<path d="M306.912 78.7809C307.621 78.7801 308.194 78.2051 308.194 77.4964C308.193 76.7878 307.618 76.214 306.909 76.2148C306.201 76.2156 305.627 76.7906 305.628 77.4993C305.628 78.2079 306.203 78.7817 306.912 78.7809Z" fill="#37A6FF"/>
<path d="M297.165 89.3467C297.165 88.6381 296.592 88.063 295.883 88.0622C295.174 88.0614 294.599 88.6353 294.599 89.3439C294.598 90.0525 295.172 90.6276 295.88 90.6284C296.589 90.6291 297.164 90.0553 297.165 89.3467Z" fill="#37A6FF"/>
<path d="M311.786 138.572C312.495 138.572 313.069 137.997 313.069 137.289C313.069 136.58 312.495 136.006 311.786 136.006C311.078 136.006 310.503 136.58 310.503 137.289C310.503 137.997 311.078 138.572 311.786 138.572Z" fill="#37A6FF"/>
<path d="M258.411 133.44C259.119 133.44 259.694 132.865 259.694 132.156C259.694 131.448 259.119 130.873 258.411 130.873C257.702 130.873 257.128 131.448 257.128 132.156C257.128 132.865 257.702 133.44 258.411 133.44Z" fill="#37A6FF"/>
<path d="M176.451 119.525C176.452 118.816 175.878 118.241 175.169 118.24C174.461 118.239 173.886 118.813 173.885 119.522C173.884 120.23 174.458 120.806 175.166 120.806C175.875 120.807 176.45 120.233 176.451 119.525Z" fill="#37A6FF"/>
<path d="M101.107 97.0002C101.815 97.0002 102.39 96.4258 102.39 95.7172C102.39 95.0085 101.815 94.4341 101.107 94.4341C100.398 94.4341 99.8235 95.0085 99.8235 95.7172C99.8235 96.4258 100.398 97.0002 101.107 97.0002Z" fill="#37A6FF"/>
<path d="M123.433 68.5166C124.141 68.5159 124.715 67.9408 124.714 67.2322C124.714 66.5235 124.139 65.9497 123.43 65.9505C122.721 65.9513 122.148 66.5264 122.148 67.235C122.149 67.9436 122.724 68.5174 123.433 68.5166Z" fill="#37A6FF"/>
<path d="M161.668 53.3764C162.377 53.3756 162.951 52.8005 162.95 52.0919C162.949 51.3833 162.374 50.8095 161.666 50.8102C160.957 50.811 160.383 51.3861 160.384 52.0947C160.385 52.8033 160.96 53.3772 161.668 53.3764Z" fill="#37A6FF"/>
<path d="M137.032 37.4657C137.741 37.4657 138.315 36.8912 138.315 36.1826C138.315 35.474 137.741 34.8995 137.032 34.8995C136.323 34.8995 135.749 35.474 135.749 36.1826C135.749 36.8912 136.323 37.4657 137.032 37.4657Z" fill="#37A6FF"/>
<path d="M253.577 113.971C253.578 113.12 252.89 112.43 252.04 112.428C251.189 112.427 250.499 113.115 250.497 113.965C250.496 114.816 251.184 115.506 252.034 115.508C252.885 115.509 253.575 114.821 253.577 113.971Z" fill="#37A6FF"/>
<path d="M296.39 157.561C297.24 157.561 297.93 156.872 297.93 156.022C297.93 155.171 297.24 154.482 296.39 154.482C295.54 154.482 294.85 155.171 294.85 156.022C294.85 156.872 295.54 157.561 296.39 157.561Z" fill="#37A6FF"/>
<path d="M248.146 139.085C248.996 139.085 249.686 138.396 249.686 137.545C249.686 136.695 248.996 136.006 248.146 136.006C247.296 136.006 246.606 136.695 246.606 137.545C246.606 138.396 247.296 139.085 248.146 139.085Z" fill="#37A6FF"/>
<path d="M306.397 102.389C307.248 102.389 307.937 101.7 307.937 100.85C307.937 99.9992 307.248 99.3098 306.397 99.3098C305.547 99.3098 304.858 99.9992 304.858 100.85C304.858 101.7 305.547 102.389 306.397 102.389Z" fill="#37A6FF"/>
<path d="M260.72 97.5135C261.571 97.5135 262.26 96.8241 262.26 95.9738C262.26 95.1234 261.571 94.4341 260.72 94.4341C259.87 94.4341 259.181 95.1234 259.181 95.9738C259.181 96.8241 259.87 97.5135 260.72 97.5135Z" fill="#37A6FF"/>
<path d="M312.816 68.2607C313.667 68.2593 314.355 67.5689 314.353 66.7185C314.352 65.8682 313.662 65.18 312.811 65.1814C311.961 65.1828 311.273 65.8733 311.274 66.7237C311.275 67.574 311.966 68.2621 312.816 68.2607Z" fill="#37A6FF"/>
<path d="M294.337 54.6589C295.187 54.6589 295.877 53.9695 295.877 53.1192C295.877 52.2688 295.187 51.5795 294.337 51.5795C293.487 51.5795 292.797 52.2688 292.797 53.1192C292.797 53.9695 293.487 54.6589 294.337 54.6589Z" fill="#37A6FF"/>
<path d="M230.696 76.4711C231.546 76.4711 232.236 75.7818 232.236 74.9314C232.236 74.0811 231.546 73.3917 230.696 73.3917C229.846 73.3917 229.156 74.0811 229.156 74.9314C229.156 75.7818 229.846 76.4711 230.696 76.4711Z" fill="#37A6FF"/>
<path d="M200.93 85.9659C201.78 85.9659 202.469 85.2765 202.469 84.4262C202.469 83.5758 201.78 82.8865 200.93 82.8865C200.079 82.8865 199.39 83.5758 199.39 84.4262C199.39 85.2765 200.079 85.9659 200.93 85.9659Z" fill="#37A6FF"/>
<path d="M153.969 71.0821C154.819 71.0821 155.509 70.3928 155.509 69.5424C155.509 68.6921 154.819 68.0028 153.969 68.0028C153.119 68.0028 152.429 68.6921 152.429 69.5424C152.429 70.3928 153.119 71.0821 153.969 71.0821Z" fill="#37A6FF"/>
<path d="M130.36 79.8071C131.21 79.8071 131.899 79.1178 131.899 78.2675C131.899 77.4171 131.21 76.7278 130.36 76.7278C129.509 76.7278 128.82 77.4171 128.82 78.2675C128.82 79.1178 129.509 79.8071 130.36 79.8071Z" fill="#37A6FF"/>
<path d="M127.024 103.929C127.875 103.929 128.564 103.24 128.564 102.389C128.564 101.539 127.875 100.849 127.024 100.849C126.174 100.849 125.485 101.539 125.485 102.389C125.485 103.24 126.174 103.929 127.024 103.929Z" fill="#37A6FF"/>
<path d="M148.836 20.5291C149.687 20.5291 150.376 19.8398 150.376 18.9894C150.376 18.1391 149.687 17.4497 148.836 17.4497C147.986 17.4497 147.297 18.1391 147.297 18.9894C147.297 19.8398 147.986 20.5291 148.836 20.5291Z" fill="#37A6FF"/>
<path d="M107.009 70.0557C107.859 70.0557 108.548 69.3664 108.548 68.516C108.548 67.6657 107.859 66.9763 107.009 66.9763C106.158 66.9763 105.469 67.6657 105.469 68.516C105.469 69.3664 106.158 70.0557 107.009 70.0557Z" fill="#37A6FF"/>
<path d="M148.836 118.299C149.687 118.299 150.376 117.61 150.376 116.76C150.376 115.909 149.687 115.22 148.836 115.22C147.986 115.22 147.297 115.909 147.297 116.76C147.297 117.61 147.986 118.299 148.836 118.299Z" fill="#37A6FF"/>
<path d="M229.926 95.7172C230.777 95.7172 231.466 95.0279 231.466 94.1775C231.466 93.3272 230.777 92.6378 229.926 92.6378C229.076 92.6378 228.387 93.3272 228.387 94.1775C228.387 95.0279 229.076 95.7172 229.926 95.7172Z" fill="#37A6FF"/>
<path d="M262.773 125.998C263.624 125.998 264.313 125.308 264.313 124.458C264.313 123.608 263.624 122.918 262.773 122.918C261.923 122.918 261.234 123.608 261.234 124.458C261.234 125.308 261.923 125.998 262.773 125.998Z" fill="#37A6FF"/>
<path d="M325.388 104.955C326.238 104.955 326.928 104.266 326.928 103.416C326.928 102.565 326.238 101.876 325.388 101.876C324.538 101.876 323.848 102.565 323.848 103.416C323.848 104.266 324.538 104.955 325.388 104.955Z" fill="#37A6FF"/>
<path d="M313.326 85.196C314.177 85.196 314.866 84.5067 314.866 83.6563C314.866 82.806 314.177 82.1167 313.326 82.1167C312.476 82.1167 311.787 82.806 311.787 83.6563C311.787 84.5067 312.476 85.196 313.326 85.196Z" fill="#37A6FF"/>
<path d="M250.199 64.4101C251.049 64.4101 251.739 63.7209 251.739 62.8705C251.739 62.0202 251.049 61.3308 250.199 61.3308C249.349 61.3308 248.659 62.0202 248.659 62.8705C248.659 63.7209 249.349 64.4101 250.199 64.4101Z" fill="#37A6FF"/>
<path d="M132.413 6.15874C134.114 6.15874 135.493 4.78002 135.493 3.07933C135.493 1.37864 134.114 0 132.413 0C130.713 0 129.334 1.37864 129.334 3.07933C129.334 4.78002 130.713 6.15874 132.413 6.15874Z" fill="#37A6FF"/>
<path d="M3.07937 41.3149C4.78006 41.3149 6.15874 39.9362 6.15874 38.2355C6.15874 36.5348 4.78006 35.1561 3.07937 35.1561C1.37868 35.1561 0 36.5348 0 38.2355C0 39.9362 1.37868 41.3149 3.07937 41.3149Z" fill="#37A6FF"/>
<path d="M133.183 58.5082C135.876 58.5082 138.059 56.3253 138.059 53.6325C138.059 50.9397 135.876 48.7568 133.183 48.7568C130.49 48.7568 128.307 50.9397 128.307 53.6325C128.307 56.3253 130.49 58.5082 133.183 58.5082Z" fill="#37A6FF"/>
<path d="M209.397 147.81C212.09 147.81 214.273 145.627 214.273 142.934C214.273 140.241 212.09 138.059 209.397 138.059C206.704 138.059 204.522 140.241 204.522 142.934C204.522 145.627 206.704 147.81 209.397 147.81Z" fill="#37A6FF"/>
<path d="M281.506 129.334C284.199 129.334 286.382 127.151 286.382 124.458C286.382 121.765 284.199 119.582 281.506 119.582C278.814 119.582 276.631 121.765 276.631 124.458C276.631 127.151 278.814 129.334 281.506 129.334Z" fill="#37A6FF"/>
</svg>
