<svg width="170" height="170" viewBox="0 0 170 170" fill="none" xmlns="http://www.w3.org/2000/svg">
<g opacity="0.6">
<path d="M165.321 121.638C163.353 123.801 161.314 124.487 159.516 123.98C157.563 123.332 156.567 121.012 156.555 117.611C149.969 109.637 132.235 106.768 129.256 106.316C127.905 109.041 126.259 111.78 124.305 114.237C128.655 124.978 137.578 126.04 138.618 126.139C141.499 124.526 144.015 124.556 145.405 125.822C147.877 128.073 146.497 133.313 142.419 137.792C138.341 142.271 133.252 144.136 130.78 141.885C129.39 140.619 129.265 137.963 130.602 134.943C127.319 124.892 118.032 122.368 116.838 122.128C114.7 123.855 112.704 125.427 110.398 126.718C111.127 129.641 115.642 147.029 124.056 152.995C127.289 152.548 129.846 153.464 130.674 155.348C131.488 156.936 130.854 159.184 128.885 161.346C127.479 162.891 125.623 164.309 123.304 165.304C117.807 167.927 112.327 167.739 110.853 164.703C110.025 162.819 110.954 160.557 113.218 158.381C112.839 156.624 109.492 138.886 100.418 131.472C97.5081 132.496 92.9822 133.742 92.1107 134.079C87.5791 144.642 93.2382 151.772 93.8701 152.63C97.0174 153.518 98.8714 155.206 98.9685 157.272C99.0101 158.157 98.616 159.211 97.7723 160.138C95.9441 162.146 92.3036 163.351 88.3264 163.684C85.3751 163.822 82.6912 163.356 80.7244 162.413C78.603 161.329 77.3531 159.908 77.2837 158.433C77.1866 156.367 79.0286 154.654 81.9244 153.336C87.0878 143.63 81.5 134.87 81.3317 134.434C80.5869 134.321 76.3996 133.334 73.5751 133.022C73.2939 133.331 73.1533 133.485 72.872 133.794C65.1376 142.289 63.5674 159.221 63.3555 161.006C65.8136 162.961 66.8099 165.281 66.3029 167.079C66.1762 167.529 65.8949 167.838 65.6137 168.147C63.6449 170.309 58.9229 170.529 53.9632 168.839C51.2515 167.782 48.8212 166.417 47.2623 164.715C45.7034 163.013 45.03 161.27 45.5508 159.767C46.1985 157.814 48.5178 156.818 51.9187 156.808C52.3406 156.344 53.0576 155.867 53.4795 155.404C60.6514 147.527 63.107 130.553 63.3328 129.064C60.4528 127.571 56.3784 125.839 55.6198 125.431C52.5695 126.609 49.9966 128.503 48.0279 130.666C44.3716 134.682 43.6943 139.15 43.7221 139.74C45.3364 142.622 45.3068 145.138 44.0411 146.528C41.9318 148.845 36.5501 147.617 32.0696 143.538C27.5892 139.458 25.7232 134.369 27.9732 131.898C29.2389 130.508 31.895 130.384 34.9156 131.722C38.1204 130.685 40.8478 128.931 43.0978 126.46C46.7541 122.444 47.7264 117.962 47.7264 117.962C47.2352 116.95 43.8936 111.93 43.1072 110.931C41.2097 111.463 24.9759 115.327 17.9446 123.05C17.5228 123.513 16.9602 124.131 16.6929 124.735C17.1406 127.968 16.2256 130.524 14.3419 131.352C12.8941 132.011 11.0956 131.503 9.25545 130.111C7.41533 128.718 5.6881 126.58 4.52336 123.825C2.23551 119.199 2.15415 114.323 4.12292 112.16C4.40417 111.852 4.68543 111.543 5.12118 111.374C7.00482 110.547 9.26681 111.477 11.4437 113.741C13.2006 113.363 29.9117 110.217 37.6462 101.722C37.9274 101.413 38.068 101.258 38.3493 100.949C37.7887 98.4615 36.7091 94.3712 36.5268 93.6403C35.9227 93.3727 26.8331 88.7692 17.6527 94.8175C16.7654 97.9646 14.9373 99.9724 13.012 99.9145C9.76562 100.066 7.02815 95.3138 6.59618 89.2707C6.40196 85.139 7.41598 81.5424 9.24412 79.5345C10.0879 78.6078 10.9594 78.2713 11.9854 78.0755C14.0513 77.979 15.9053 79.6671 17.0839 82.7176C17.8425 83.1258 25.4703 88.0934 35.7184 82.7346L37.2275 73.9389C28.9974 65.5981 11.3195 63.9097 9.39421 63.8517C7.43932 66.3092 5.11994 67.3048 3.32144 66.7973C0.314692 65.7546 -0.384657 60.3156 1.55825 54.4573C2.33264 52.055 3.57053 50.0747 4.97679 48.5302C6.94556 46.3678 9.12433 45.5266 10.7822 46.1886C12.7352 46.8368 13.7316 49.1564 13.7435 52.5572C20.7931 60.9532 39.8476 63.6125 41.4916 63.9793C42.7156 61.7039 43.9397 59.4285 45.3182 57.2937C44.9676 56.127 41.5862 47.1161 31.2726 44.788C28.3907 46.4014 25.7346 46.5255 24.3441 45.2595C22.0266 43.1494 23.2525 37.7683 27.3307 33.2892C31.4088 28.8101 36.4972 26.9457 38.9692 29.1964C40.3597 30.4624 40.4846 33.1185 39.2883 35.9842C39.4844 37.0102 41.3762 45.7949 52.4762 49.1215C54.7401 46.9454 57.1724 45.2051 59.7592 43.6054C59.2124 41.4127 54.8108 23.2805 45.9469 17.1876C42.7144 17.6343 40.1573 16.7186 39.3293 14.8348C38.5152 13.2461 39.1489 10.9982 41.1177 8.83583C42.524 7.29131 44.3798 5.87367 46.6992 4.87803C52.1956 2.25517 57.6763 2.44285 59.15 5.4796C59.978 7.36343 59.0491 9.62507 56.7852 11.8012C57.1636 13.5581 60.5115 31.2958 69.5853 38.7099C72.0592 37.8549 74.6876 37.1407 77.3298 36.7215C78.3994 34.3054 80.9899 26.4944 75.8933 18.7466C72.7459 17.8584 70.7374 16.0298 70.7948 14.1046C70.7532 13.2192 71.1474 12.1656 71.9911 11.2389C73.8193 9.231 77.4598 8.02578 81.437 7.69213C87.3395 7.41646 92.4815 9.83823 92.6341 13.0846C92.7313 15.1504 90.8893 16.8632 87.9935 18.1815C87.7122 18.4904 86.4743 20.4707 85.8683 23.3088C85.2623 26.147 85.0346 30.742 87.6592 36.239C90.6244 36.3963 93.6034 36.8487 96.4417 37.4556C96.5824 37.3011 96.8635 36.9922 97.0041 36.8378C104.739 28.3429 106.309 11.4107 106.521 9.62618C104.063 7.6706 103.066 5.35097 103.573 3.55267C103.7 3.10309 103.981 2.7942 104.263 2.48529C106.231 0.32296 110.953 0.102418 115.913 1.79328C119.678 3.24414 122.895 5.60794 123.892 7.92756C124.383 8.93981 124.438 10.1203 124.185 11.0195C123.537 12.9722 121.218 13.9679 117.817 13.9788C117.395 14.4422 116.678 14.9193 116.256 15.3826C109.506 22.7964 107.094 37.5496 106.67 41.1186C109.396 42.4702 111.981 43.9762 114.579 45.7773C116.027 45.1181 119.064 43.6454 121.454 41.0197C123.704 38.5484 125.196 35.669 125.928 32.3813C124.314 29.499 124.189 26.8429 125.455 25.4528C127.564 23.136 132.946 24.3635 137.426 28.4429C141.907 32.5223 143.773 37.6112 141.523 40.0824C140.257 41.4725 137.601 41.5965 134.735 40.3994C134.145 40.427 129.759 41.5191 126.103 45.5349C124.275 47.5427 122.91 49.9726 121.855 52.6839C123.877 54.8077 125.773 57.3811 127.373 59.9682C130.732 59.0719 145.336 55.1364 151.945 47.8771C152.508 47.2593 152.93 46.796 153.197 46.1919C152.75 42.9594 153.665 40.4026 155.548 39.5752C156.996 38.916 158.795 39.4236 160.635 40.8165C162.475 42.2094 164.202 44.347 165.367 47.1024C167.655 51.7278 167.736 56.6043 165.767 58.7666C165.486 59.0755 165.205 59.3844 164.769 59.5526C162.885 60.38 160.623 59.4505 158.446 57.186C156.69 57.5638 139.978 60.7105 132.244 69.2054C132.103 69.3598 131.963 69.5143 131.822 69.6687C132.846 72.5786 133.435 75.6567 134.023 78.7348C144.265 82.6929 151.112 77.3451 151.829 76.8679C152.717 73.7209 154.404 71.8675 156.47 71.771C157.946 71.7021 159.477 72.8136 160.755 74.8244C162.032 76.8351 162.607 79.618 162.731 82.2741C162.926 86.4058 161.912 90.0024 160.083 92.0103C159.24 92.937 158.368 93.2735 157.342 93.4693C155.276 93.5658 153.422 91.8778 152.244 88.8272C144.053 84.4775 136.519 87.787 134.213 89.0778C134.043 91.7476 133.578 94.4313 132.958 96.9743C141.174 105.02 158.711 106.863 160.637 106.921C160.777 106.766 160.918 106.612 161.058 106.457C163.027 104.295 165.206 103.454 166.864 104.116C169.871 105.159 170.724 110.738 168.627 116.456C167.965 118.114 166.728 120.094 165.321 121.638ZM157.426 117.275C157.581 117.415 157.581 117.415 157.581 117.415C157.579 120.521 158.421 122.7 160.078 123.362C161.582 123.883 163.465 123.056 165.153 121.203C166.559 119.658 167.797 117.678 168.431 115.43C170.402 110.162 169.716 105.018 167.004 103.962C165.501 103.44 163.336 104.576 161.367 106.739C161.227 106.893 161.227 106.893 161.072 106.753C160.032 106.653 141.329 105.161 132.635 96.3979C132.48 96.2572 132.48 96.2572 132.621 96.1028C133.241 93.5598 133.692 90.581 133.863 87.9111L134.003 87.7566C136.168 86.6203 144.125 82.8474 152.919 87.4647L153.074 87.6054C154.098 90.5153 155.952 92.2033 157.723 92.1206C158.608 92.0792 159.325 91.6021 159.887 90.9843C161.575 89.1308 162.589 85.5342 162.409 81.6977C162.284 79.0416 161.569 76.413 160.586 74.3885C159.463 72.5185 158.086 71.5476 156.906 71.6028C155.135 71.6855 153.743 73.5251 152.842 76.377L152.701 76.5314C151.984 77.0086 144.715 82.8198 134.009 78.4396L133.855 78.299C133.407 75.0665 132.664 71.8477 131.64 68.9378L131.626 68.6427C139.459 59.108 157.506 56.0468 158.827 55.8373L159.122 55.8235C161.144 57.9473 163.406 58.8769 164.995 58.0633C165.43 57.895 165.571 57.7405 165.852 57.4316C167.54 55.5782 167.318 50.8563 165.339 46.5122C164.188 44.0519 162.461 41.9143 160.916 40.5076C159.23 39.2554 157.586 38.8885 156.279 39.3932C154.691 40.2068 154.057 42.4547 154.35 45.5465C154.35 45.5465 154.364 45.8417 154.069 45.8555C153.647 46.3188 153.239 47.0773 152.817 47.5406C145.926 55.1088 130.732 59.0719 127.514 59.8138C127.373 59.9682 127.219 59.8276 127.064 59.6869C125.464 57.0997 123.568 54.5263 121.532 52.1074C121.377 51.9667 121.377 51.9667 121.518 51.8123C122.56 48.8059 123.924 46.376 125.893 44.2137C129.831 39.889 134.37 38.9376 134.961 38.91C134.961 38.91 135.101 38.7556 135.256 38.8962C138.122 40.0933 140.342 40.1375 141.467 38.9019C143.436 36.7396 141.584 31.9459 137.412 28.1478C133.241 24.3498 128.295 22.954 126.326 25.1163C125.201 26.352 125.312 28.7129 126.927 31.5952C127.081 31.7359 126.941 31.8904 126.941 31.8904C126.067 35.3325 124.73 38.3526 122.34 40.9783C119.668 43.9129 116.631 45.3857 115.183 46.0449L114.888 46.0587C112.43 44.1031 109.691 42.4564 106.825 41.2593C106.67 41.1186 106.67 41.1186 106.656 40.8235C107.108 37.8447 109.478 22.2061 116.51 14.4835C117.072 13.8657 117.494 13.4023 118.07 13.0797C118.211 12.9252 118.211 12.9252 118.211 12.9252C121.317 12.928 123.496 12.0868 124.157 10.4292C124.565 9.67072 124.383 8.93981 123.892 7.92756C122.895 5.60794 119.833 3.38481 116.222 2.07461C111.712 0.510637 107.131 0.576741 105.302 2.58462C105.021 2.89354 104.881 3.04798 104.754 3.49756C104.233 5.00074 105.215 7.02523 107.533 9.13526C107.687 9.27593 107.687 9.27592 107.547 9.43037C107.462 10.7653 106.06 28.1333 97.9035 37.0915C97.6222 37.4004 97.4816 37.5549 97.2004 37.8638C97.0597 38.0183 97.0597 38.0183 96.9052 37.8776C93.9124 37.1301 90.7927 36.8321 87.8276 36.6748L87.6731 36.5342C84.894 30.8965 84.9672 26.1607 85.7138 23.1682C86.3059 20.0349 87.6983 18.1953 87.9796 17.8864L88.1202 17.7319C90.8754 16.568 92.5768 15.0097 92.4935 13.239C92.3548 10.2878 87.6763 8.28803 82.0689 8.54994C78.2322 8.72912 74.7463 10.075 73.0587 11.9285C72.3556 12.7007 71.9476 13.4592 72.1298 14.1901C72.2131 15.9608 74.0532 17.3537 77.06 18.3964C77.2145 18.5371 77.2145 18.537 77.369 18.6777C82.7884 27.0019 79.9166 35.1218 78.6926 37.3972L78.552 37.5517C75.6146 37.9847 72.9862 38.699 70.3717 39.7084C70.2311 39.8628 70.0766 39.7222 69.9221 39.5815C69.9221 39.5815 69.7676 39.4408 69.9082 39.2864C60.5254 31.5909 57.1358 12.9679 57.0942 12.0825L57.0803 11.7874C59.2036 9.76576 60.1325 7.5041 59.3184 5.9154C58.013 3.31444 52.982 3.25365 47.7669 5.5676C45.7426 6.54946 43.7322 7.82643 42.326 9.37096C40.6385 11.2244 39.9908 13.1771 40.6504 14.6252C41.4645 16.2139 43.7127 16.8483 46.8045 16.556C46.8045 16.556 47.0997 16.5422 47.1135 16.8373C56.4409 23.3523 60.9119 42.96 61.2486 43.8316C61.4031 43.9722 61.2625 44.1267 61.1219 44.2812C58.5351 45.8808 55.9622 47.7756 53.6984 49.9517C53.5577 50.1062 53.4032 49.9655 53.4032 49.9655C41.8536 46.5121 39.934 37.1371 39.7518 36.4062C39.7518 36.4062 39.5973 36.2655 39.7379 36.1111C40.9342 33.2454 40.9777 31.0251 39.7417 29.8997C37.5787 27.9304 32.7854 29.781 28.9885 33.9512C25.1916 38.1214 23.7974 43.0667 25.9603 45.0361C27.1963 46.1614 29.5573 46.0511 32.4392 44.4377C32.5799 44.2832 32.7344 44.4239 32.7344 44.4239C43.3431 46.7383 46.8928 56.185 47.2434 57.3517C47.3979 57.4923 47.2573 57.6468 47.2573 57.6468C45.7382 59.936 44.219 62.2252 43.1495 64.6413C43.0089 64.7958 43.0089 64.7958 42.7138 64.8096C42.5593 64.6689 42.5592 64.6689 42.4047 64.5282C39.8754 64.2027 21.5518 61.3614 14.3615 53.1199C14.207 52.9792 14.207 52.9792 14.207 52.9792C14.2089 49.8736 13.3671 47.6946 11.7092 47.0326C10.2058 46.5113 8.32219 47.3387 6.63468 49.1921C5.22842 50.7367 3.99053 52.717 3.35676 54.9648C1.3861 60.2329 2.07157 65.3768 4.78319 66.4332C6.28656 66.9546 8.45146 65.8183 10.4202 63.6559C10.5608 63.5015 10.5608 63.5015 10.7153 63.6421C11.7552 63.7414 30.6136 65.3747 39.3072 74.1375C39.3072 74.1375 39.4617 74.2782 39.3211 74.4326L37.8259 83.5234L37.6852 83.6779C27.0153 89.5001 19.0785 84.2512 18.3199 83.8429L18.1654 83.7023C17.0006 80.9469 15.4418 79.245 13.671 79.3277C12.7856 79.3691 12.0686 79.8462 11.5061 80.4641C9.81862 82.3175 8.80458 85.9141 8.98493 89.7506C9.24852 95.3579 11.8315 99.9696 14.6282 99.6911C16.399 99.6084 17.932 97.6143 18.8332 94.7624C18.9738 94.608 18.9738 94.608 19.1144 94.4535C28.1542 88.5596 37.3706 92.7135 38.2837 93.2624C38.5788 93.2487 38.7333 93.3893 40.429 101.148L40.4429 101.443C32.6234 111.273 13.2561 114.544 12.9609 114.557L12.6658 114.571C10.6434 112.447 8.38143 111.518 6.79292 112.331C6.35717 112.5 6.21655 112.654 5.9353 112.963C4.24779 114.817 4.46976 119.538 6.44861 123.883C7.59947 126.343 9.32671 128.48 10.8717 129.887C12.5573 131.139 14.2013 131.506 15.5086 131.002C17.0971 130.188 17.7308 127.94 17.4376 124.848C17.4376 124.848 17.4237 124.553 17.5782 124.694C18.0001 124.23 18.4081 123.472 18.83 123.009C26.4238 114.668 44.2739 110.581 44.569 110.567L44.8641 110.553C44.8641 110.553 50.3826 117.838 49.8201 118.456C49.5666 119.355 48.5664 123.246 45.0508 127.108C42.8007 129.579 39.9327 131.488 36.4328 132.538C36.4328 132.538 36.2922 132.693 36.1377 132.552C33.2716 131.355 30.8967 131.17 29.6311 132.56C27.6623 134.723 29.5144 139.516 33.6859 143.314C37.8574 147.112 42.8033 148.508 44.772 146.346C45.897 145.11 45.786 142.749 44.1856 140.162C44.1856 140.162 44.0311 140.021 44.1717 139.867C44.144 139.277 44.6667 134.668 48.6043 130.343C50.7137 128.026 53.441 126.272 56.4913 125.095C56.4913 125.095 56.6319 124.94 56.7864 125.081C56.7864 125.081 61.9284 127.503 65.1036 128.981C65.2581 129.122 65.258 129.122 65.2719 129.417C65.1313 129.571 65.1313 129.571 64.9906 129.726C64.652 131.96 62.1687 148.343 54.9967 156.22C54.4342 156.838 54.0123 157.301 53.436 157.624C53.2953 157.778 53.2953 157.778 53.2953 157.778C50.3302 157.621 48.0108 158.617 47.3493 160.274C46.8146 161.482 47.3336 163.085 48.8924 164.787C50.4513 166.489 52.5865 167.868 55.2843 168.629C59.7944 170.193 64.3758 170.127 66.204 168.119C66.4852 167.81 66.6258 167.656 66.7526 167.206C67.2735 165.703 66.2909 163.678 63.9734 161.568C63.9734 161.568 63.819 161.428 63.9596 161.273C63.9457 160.978 65.5456 141.531 74.4467 132.685C74.4467 132.685 74.5873 132.531 74.7417 132.672C82.934 133.916 82.9479 134.211 83.1024 134.351C83.7481 135.504 88.7318 143.997 83.7229 153.843L83.5823 153.998C80.6726 155.021 78.9852 156.874 79.0684 158.645C79.1378 160.121 80.2192 161.105 82.1861 162.049C84.153 162.992 86.8369 163.458 89.6336 163.18C93.4702 163.001 96.9563 161.655 98.6438 159.801C99.3469 159.029 99.7549 158.27 99.5727 157.54C99.4894 155.769 97.6493 154.376 94.7971 153.474L94.6426 153.333C94.1652 152.616 88.1971 145.205 92.996 134.037L93.1367 133.883C93.1367 133.883 98.8292 132.286 101.879 131.108C102.02 130.954 102.175 131.095 102.329 131.235C102.329 131.235 102.484 131.376 102.343 131.53C111.88 139.366 115.101 157.554 115.157 158.734L115.171 159.029C115.03 159.184 114.89 159.338 114.608 159.647C112.921 161.501 112.273 163.453 112.933 164.901C114.238 167.502 119.269 167.563 124.484 165.249C126.509 164.267 128.519 162.99 129.925 161.446C131.613 159.592 132.26 157.64 131.601 156.192C130.787 154.603 128.539 153.968 125.447 154.261C125.447 154.261 125.151 154.275 125.138 153.979C116.119 147.746 111.549 129.178 111.157 127.126C111.002 126.985 111.143 126.831 111.284 126.676C113.589 125.385 115.726 123.659 117.864 121.932C118.004 121.778 118.159 121.919 118.159 121.919C119.508 122.299 128.95 124.964 132.091 135.169C132.091 135.169 132.246 135.31 132.105 135.464C130.909 138.33 130.725 140.705 132.115 141.971C134.278 143.94 139.072 142.089 142.868 137.919C146.665 133.749 148.06 128.804 145.897 126.834C144.661 125.709 142.3 125.819 139.713 127.419C139.713 127.419 139.572 127.573 139.418 127.433C138.378 127.333 129.005 126.144 124.641 115.109C124.487 114.968 124.627 114.814 124.627 114.814C126.582 112.356 128.369 109.463 129.72 106.738C129.86 106.584 129.86 106.584 130.155 106.57C131.617 106.206 150.236 109.033 157.426 117.275Z" fill="white"/>
<path fill-rule="evenodd" clip-rule="evenodd" d="M155.829 39.2663C153.946 40.0937 153.326 42.6367 153.76 45.5741C147.81 54.2814 130.423 58.7905 127.345 59.378C125.745 56.7908 123.849 54.2174 121.813 51.7985C125.572 40.5316 135.115 39.0506 135.115 39.0506C137.981 40.2478 140.497 40.2781 141.762 38.8881C143.731 36.7257 141.865 31.6369 137.539 27.6982C133.213 23.7595 127.972 22.3776 126.003 24.5399C124.738 25.93 125.003 28.4316 126.618 31.3139C124.827 40.4185 117.616 44.3045 115.001 45.3139C112.402 43.5128 109.663 41.8661 106.783 40.3739C107.094 37.5496 109.944 19.5224 118.197 12.63C121.303 12.6329 123.777 11.7779 124.284 9.97963C125.185 7.12773 121.744 3.14765 116.18 1.18924C110.617 -0.769161 105.473 -0.085289 104.276 2.78039C103.615 4.43802 104.906 6.74387 107.21 8.55879C107.21 8.55879 105.905 27.9926 97.0041 36.8378C94.0113 36.0902 90.8917 35.7923 87.772 35.4943C82.2416 24.8092 87.9379 17.001 87.9379 17.001C90.693 15.8371 92.535 14.1244 92.4518 12.3536C92.3131 9.40242 87.3255 7.12132 81.7182 7.38321C75.8157 7.65889 71.2046 10.2404 71.4979 13.3323C71.595 15.3981 73.5896 16.9317 76.5825 17.6792C81.8474 25.8628 79.1162 33.8282 78.0467 36.2443C75.2639 36.8179 72.481 37.3916 69.712 38.2603L69.8526 38.1059C60.0201 30.2836 56.8841 10.7614 56.8841 10.7614C59.0074 8.7397 60.0769 6.32359 59.1083 4.59422C57.9436 1.83881 52.4629 1.65113 47.1072 4.11954C41.7514 6.58795 38.5447 10.7306 39.864 13.6267C40.692 15.5105 43.2352 16.1311 46.1726 15.6982C55.6406 22.0587 60.1116 41.6664 60.1532 42.5518C57.5664 44.1514 54.9935 46.0462 52.589 48.3768C40.5898 44.7964 39.0921 34.9581 39.0921 34.9581C40.2883 32.0924 40.318 29.577 38.9275 28.311C36.7645 26.3416 31.6761 28.206 27.7386 32.5307C23.801 36.8554 22.4206 42.0958 24.5836 44.0651C25.9741 45.3312 28.4758 45.0664 31.3576 43.453C42.7111 45.8804 45.7122 56.2401 45.7122 56.2401C44.2165 58.4939 42.7209 60.7478 41.5201 63.2701C41.5283 63.2178 41.5165 63.1546 41.4499 63.094C41.4499 63.094 20.6246 60.5174 13.2522 51.545C13.2541 48.4393 12.3984 45.9652 10.5999 45.4577C7.74761 44.5557 3.76847 47.995 1.81168 53.5581C-0.145105 59.1213 0.540347 64.2652 3.40647 65.4623C5.06434 66.1243 7.36988 64.8336 9.33864 62.6712C9.33864 62.6712 28.9279 64.1224 37.776 73.0259L36.2808 82.1167C25.1751 88.1071 17.2105 82.268 17.2105 82.268C16.0458 79.5126 14.3324 77.6701 12.5617 77.7528C9.61043 77.8906 7.33076 82.8773 7.59436 88.4846C7.87182 94.387 10.4548 98.9987 13.5467 98.7064C15.6125 98.6099 17.1456 96.6158 17.8922 93.6233C27.649 87.2522 37.0615 92.4322 37.0615 92.4322C37.1882 91.9826 39.1929 100.023 39.1929 100.023C31.3734 109.852 11.8516 112.982 11.8516 112.982C9.82922 110.859 7.41273 109.788 5.82423 110.602C3.06909 111.766 2.88305 117.246 5.35315 122.603C7.82325 127.959 11.967 131.167 14.8627 129.849C16.7464 129.021 17.3663 126.478 16.9324 123.541C23.4308 113.921 43.9231 109.414 43.9231 109.414C43.9093 109.119 49.3149 117.148 48.7107 116.881C48.7107 116.881 46.6947 127.475 35.6186 130.95C32.7525 129.752 30.0825 129.581 28.8169 130.971C26.8481 133.134 28.7141 138.223 33.0401 142.161C37.3661 146.1 42.6071 147.482 44.5758 145.32C45.8415 143.93 45.576 141.428 44.1161 138.686C44.1161 138.686 44.6843 128.752 56.2951 124.068C56.2951 124.068 61.4371 126.49 64.6122 127.969L64.3171 127.982C64.3171 127.982 61.7467 148.806 52.7763 156.176C49.6705 156.173 47.1966 157.028 46.6896 158.826C45.7885 161.678 49.2291 165.658 54.7929 167.617C60.3568 169.575 65.5007 168.891 66.697 166.026C67.3585 164.368 66.067 162.062 63.7634 160.247C63.7634 160.247 65.2087 140.659 74.1098 131.814C74.1098 131.814 82.5972 133.044 82.0208 133.367C82.0208 133.367 88.0583 142.254 82.6274 152.563C79.7178 153.587 77.7352 155.454 77.9729 157.365C78.1116 160.316 83.0991 162.598 88.7065 162.336C94.609 162.06 99.2201 159.478 98.9268 156.387C98.8436 154.616 96.9896 152.928 93.9967 152.18C93.9967 152.18 87.2839 144.656 92.3641 133.179C92.3641 133.179 97.9021 131.442 101.107 130.405L100.966 130.559C110.799 138.382 113.935 157.904 113.935 157.904C111.811 159.926 110.742 162.342 111.556 163.93C112.721 166.686 118.201 166.873 123.557 164.405C128.913 161.937 132.12 157.794 130.8 154.898C129.972 153.014 127.429 152.393 124.492 152.826C115.473 146.593 110.917 128.32 110.37 126.127C112.676 124.837 114.968 123.251 116.95 121.383C116.95 121.383 127.545 123.403 131.024 134.479C129.827 137.345 129.657 140.015 131.048 141.281C133.211 143.25 138.299 141.386 142.237 137.061C146.174 132.737 147.554 127.496 145.391 125.527C144.001 124.261 141.499 124.526 138.758 125.985C138.758 125.985 128.823 125.413 124.136 113.802C126.232 111.19 127.877 108.451 129.214 105.431C132.039 105.742 150.067 108.597 156.962 116.853C156.961 119.958 157.816 122.433 159.615 122.94C162.467 123.842 166.446 120.403 168.403 114.84C170.36 109.276 169.674 104.133 166.808 102.935C165.15 102.273 162.845 103.564 161.031 105.867C161.031 105.867 141.736 104.402 132.748 95.6531C133.508 92.9557 133.819 90.1314 133.989 87.4615C136.154 86.3252 143.97 82.7067 152.61 87.1834C153.634 90.0932 155.502 92.0764 157.413 91.8392C160.365 91.7014 162.644 86.7147 162.381 81.1074C162.103 75.205 159.52 70.5933 156.428 70.8856C154.658 70.9683 152.97 72.8217 152.223 75.8143C152.223 75.8143 144.982 82.2158 133.827 77.7087C133.379 74.4762 132.636 71.2574 131.612 68.3476C139.586 58.6584 158.672 55.6966 158.672 55.6966C160.695 57.8204 163.111 58.8906 164.699 58.077C167.455 56.9131 167.641 51.4327 165.171 46.0763C162.869 41.1558 158.571 37.8073 155.829 39.2663ZM80.2759 84.8902C91.6029 80.5154 103.626 84.6831 107.173 94.1269C110.72 103.571 104.432 114.51 92.9506 118.744C81.6237 123.119 69.6007 118.951 66.0534 109.508C62.6606 100.204 68.9489 89.2649 80.2759 84.8902ZM58.7773 102.154C56.9067 99.1068 53.4776 97.8103 51.1182 99.2585C48.7588 100.707 48.3625 104.351 50.2332 107.399C52.1038 110.446 55.5329 111.743 57.8923 110.295C60.2517 108.846 60.6479 105.202 58.7773 102.154ZM54.9494 66.535C59.2139 66.7053 62.4919 71.3282 62.271 76.8605C62.0501 82.3928 58.414 86.7396 54.1495 86.5693C49.885 86.399 46.607 81.7762 46.8279 76.2439C47.0488 70.7116 50.6849 66.3648 54.9494 66.535ZM91.6684 50.932C89.5579 45.3171 81.9822 42.9697 74.7477 45.6891C67.5131 48.4084 63.3592 55.1646 65.4697 60.7795C67.5802 66.3944 75.1559 68.7417 82.3905 66.0224C89.6251 63.3031 93.7789 56.5469 91.6684 50.932ZM102.034 72.7821C97.7533 66.6253 98.279 58.9127 103.156 55.7273C108.034 52.5418 115.239 54.8654 119.52 61.0222C123.8 67.179 123.274 74.8916 118.397 78.0771C113.519 81.2625 106.314 78.939 102.034 72.7821ZM125.699 97.2683C127.17 93.2619 125.904 89.1119 122.872 87.999C119.841 86.8861 116.191 89.2318 114.72 93.2382C113.249 97.2446 114.515 101.395 117.547 102.507C120.579 103.62 124.229 101.275 125.699 97.2683Z" fill="white"/>
</g>
</svg>
