<svg width="168" height="156" viewBox="0 0 168 156" fill="none" xmlns="http://www.w3.org/2000/svg">
<path d="M0 156V0H168V156H0ZM89.3293 26.3355C94.2691 18.0378 90.7756 11.1045 86.4199 7.58194C81.4578 3.56731 74.4429 3.40516 69.7311 7.26323C67.2038 9.28819 65.4619 12.139 64.8079 15.3204C64.3652 17.2114 64.3246 19.175 64.6889 21.0828C65.0532 22.9906 65.8141 24.7996 66.9219 26.3914C65.5033 28.0688 64.1849 29.6847 62.7775 31.2224C62.3408 31.7094 61.7523 32.0328 61.1086 32.1394C50.5891 33.0563 41.9332 37.5183 35.3913 45.8886C28.8493 54.2589 25.9343 63.7811 25.4114 74.2482C25.4325 74.6494 25.3182 75.0461 25.0869 75.3739C24.8557 75.7017 24.5212 75.9414 24.1375 76.0542C19.3812 78.2013 16.8223 82.0314 16.1158 87.1475C15.6448 90.4579 16.4205 93.8258 18.2909 96.5914C16.1547 99.5548 13.8739 102.183 12.2106 105.141C7.66013 113.237 9.21775 126.438 22.3407 129.905C27.9304 131.314 33.728 131.693 39.4522 131.023C45.6437 130.386 49.6101 127.148 51.0064 120.959C51.0064 120.897 51.1399 120.864 51.2901 120.769C60.1073 125.594 69.5865 127.311 79.5664 126.243C89.5462 125.175 98.4803 121.395 106.658 115.395C106.736 115.787 106.78 115.954 106.802 116.133C107.609 122.34 110.73 126.802 116.66 128.994C123.079 131.399 130.019 132.047 136.77 130.872C144.391 129.581 148.14 125.012 147.99 117.235C147.84 109.457 144.185 103.189 138.628 97.9613C138.233 97.5923 137.832 97.2344 137.437 96.871C140.18 92.4426 140.87 87.9247 138.683 83.2C136.497 78.4753 132.787 75.9312 127.78 75.0366C127.735 74.8524 127.702 74.6657 127.68 74.4774C127.561 69.298 126.51 64.1831 124.576 59.3806C119.708 47.5884 111.781 39.4473 98.586 37.7028C98.037 37.5199 97.5777 37.1341 97.3009 36.6237C96.1883 34.9462 95.2593 33.0675 94.0132 31.4628C92.6225 29.6624 90.9091 28.052 89.3293 26.3355Z" fill="transperent"/>
<path d="M89.3291 26.3364C90.909 28.053 92.5945 29.6912 94.0131 31.4861C95.2592 33.0908 96.1715 34.9471 97.3008 36.6469C97.5809 37.1394 98.0329 37.5099 98.5691 37.6869C111.77 39.4314 119.708 47.5725 124.559 59.3648C126.493 64.1672 127.544 69.2821 127.663 74.4616C127.685 74.6498 127.719 74.8366 127.763 75.0207C132.77 75.9041 136.519 78.5489 138.667 83.1841C140.814 87.8194 140.163 92.4267 137.42 96.8551C137.815 97.2186 138.222 97.5764 138.611 97.9454C144.174 103.173 147.818 109.38 147.973 117.219C148.129 125.058 144.374 129.565 136.753 130.856C130.002 132.032 123.062 131.383 116.643 128.978C110.713 126.78 107.592 122.318 106.786 116.117C106.786 115.944 106.719 115.771 106.641 115.379C98.469 121.379 89.5238 125.159 79.5495 126.227C69.5752 127.295 60.0793 125.578 51.2732 120.753C51.1286 120.848 51.0062 120.881 50.9895 120.943C49.5988 127.155 45.6324 130.392 39.4353 131.007C33.7111 131.677 27.9135 131.298 22.3238 129.889C9.20091 126.422 7.64329 113.221 12.1938 105.125C13.8626 102.161 16.1379 99.5334 18.274 96.5755C16.4036 93.8099 15.6279 90.4421 16.0989 87.1317C16.8054 82.0155 19.3699 78.1854 24.1206 76.0383C24.5043 75.9255 24.8389 75.6858 25.0701 75.358C25.3013 75.0302 25.4156 74.6336 25.3945 74.2323C25.923 63.7932 28.8825 54.1816 35.3744 45.8727C41.8663 37.5639 50.589 33.0573 61.114 32.1515C61.7577 32.0449 62.3462 31.7215 62.7829 31.2345C64.1959 29.7024 65.5087 28.0753 66.9272 26.4035C65.817 24.8107 65.0542 23 64.6889 21.0901C64.3237 19.1803 64.3642 17.2144 64.8078 15.3213C65.4561 12.1402 67.192 9.28762 69.7143 7.25855C74.4483 3.40048 81.4576 3.56263 86.403 7.57726C90.7755 11.0998 94.2912 18.0332 89.3291 26.3364ZM128.943 100.21L132.714 98.7003C131.874 97.7945 131.874 97.7889 131.262 98.3648C130.956 98.7116 130.621 99.0315 130.261 99.3209C130.055 99.4551 129.705 99.3545 129.415 99.3601C129.454 99.1084 129.415 98.8009 129.543 98.6164C130.005 98.0573 130.539 97.5373 131.101 96.939L129.777 95.5523L127.608 97.6547C128.058 98.499 128.514 99.3321 128.959 100.204L126.35 98.6891L124.731 100.523L128.943 100.21ZM40.7982 90.1454C41.5214 88.0487 40.7982 86.1588 40.025 84.1347L39.4075 84.7106L40.0139 86.388C39.5299 86.2035 39.0459 86.019 38.5564 85.8289C38.3394 85.7562 38.0001 85.7841 37.9167 85.6499C37.5885 85.0405 37.3604 84.3863 37.06 83.7489H38.6621L39.3519 83.0332C39.3094 82.8794 39.2536 82.7298 39.185 82.5859C36.7095 78.6383 31.7752 76.3403 27.3416 77.2293C22.4518 78.2134 19.6592 81.4508 18.4743 86.1755C17.9109 88.4022 18.0266 90.7476 18.8063 92.9073C19.586 95.067 20.9938 96.9412 22.8467 98.2865C23.8647 99.0302 24.6157 99.1364 25.261 97.8056C24.899 97.4644 24.5693 97.0901 24.2764 96.6874C24.1698 96.3864 24.1244 96.067 24.1429 95.748C24.4302 95.7557 24.7134 95.8184 24.9773 95.9325C25.4555 96.325 25.9088 96.747 26.3347 97.1962L26.7463 95.7089C27.5975 95.1497 28.2316 94.831 28.799 94.3949C29.2719 94.0315 29.6224 93.5059 30.1008 93.1424C30.4936 92.9089 30.9116 92.7213 31.3469 92.5833L30.9018 93.8581L30.7683 94.2216L31.0632 93.9755L32.0923 95.5132L33.9392 93.8358L33.1715 92.0633L35.2576 92.6783L36.1254 92.4938C36.0262 92.8368 35.983 93.1937 35.9975 93.5506C36.1203 93.9172 36.2925 94.2653 36.5092 94.585L38.2171 93.0697C37.327 92.2198 36.4314 91.3923 35.6081 90.5424C35.4245 90.3467 35.4968 89.9106 35.4467 89.5863C35.7304 89.6366 36.0976 89.5863 36.2756 89.7596C37.1572 90.4391 37.9383 91.2411 38.5953 92.1416C38.918 92.7007 38.74 93.6512 38.523 94.3446C38.4062 94.7192 37.7386 94.9037 37.238 95.2672L38.4006 96.3127C39.8081 94.3446 40.9151 92.3988 40.8483 90.0056L40.7982 90.1454ZM45.3376 117.7C46.1887 118.65 47.0677 119.579 47.8798 120.563C48.063 120.888 48.1908 121.241 48.2581 121.608C47.8613 121.542 47.4732 121.432 47.101 121.278C46.8063 121.084 46.5371 120.853 46.3 120.591L44.3585 122.402L46.1609 124.214C48.8311 122.665 49.1927 120.115 49.1204 117.409L47.5628 116.582L45.3376 117.7L46.4502 115.351C46.1451 115.079 45.8709 114.773 45.6324 114.44C45.5249 114.135 45.4758 113.813 45.4878 113.49C45.7814 113.489 46.0724 113.546 46.3445 113.657C46.731 113.958 47.0937 114.289 47.4292 114.647C48.7866 113.529 48.7922 113.529 48.3805 112.036C48.208 111.41 48.0189 110.783 47.7908 110.174C46.0696 105.62 43.1627 101.615 39.3741 98.5773C38.1072 99.8707 36.5945 100.895 34.926 101.59C33.2575 102.284 31.4671 102.634 29.6613 102.62C26.0244 102.625 22.5263 101.216 19.8984 98.6891C17.1816 101.099 14.9983 104.055 13.4899 107.367C9.55137 116.475 13.7959 125.388 23.2584 127.932C25.1275 128.435 25.3445 128.34 26.4682 126.54C26.13 126.233 25.8226 125.895 25.5503 125.528C25.4081 125.197 25.3162 124.846 25.2777 124.488C25.6453 124.551 26.0027 124.664 26.3402 124.823C26.7553 125.14 27.1441 125.489 27.5029 125.869C28.354 124.985 29.0828 124.141 29.9172 123.403C30.392 123.078 30.9061 122.815 31.447 122.62C31.1911 123.14 30.9296 123.666 30.6737 124.186C30.6348 124.264 30.6237 124.359 30.6737 124.186L32.6875 126.478L34.0894 125.231L33.6555 123.571L35.5357 123.973C36.0475 123.414 36.7318 122.581 37.4994 121.843C37.8502 121.62 38.2385 121.462 38.6454 121.379C38.5893 121.773 38.459 122.152 38.2616 122.497C37.5217 123.314 36.6873 124.052 36.0364 124.695L37.9723 126.931L40.5535 124.566C40.1668 124.195 39.8045 123.799 39.4687 123.381C39.3441 123.113 39.267 122.825 39.2406 122.531C39.5633 122.564 39.9471 122.497 40.1919 122.654C40.5426 122.914 40.8652 123.21 41.1543 123.537L42.3948 122.732L41.8385 120.831L43.5074 121.39L45.4043 119.651C45.0094 119.226 44.6812 118.908 44.3975 118.533C43.7132 117.7 44.0915 117.314 45.3376 117.7ZM40.7927 96.8998C40.901 97.0361 41.0161 97.1667 41.1376 97.2912C47.2012 102.709 51.1508 109.19 51.3344 117.599C51.3775 117.832 51.4705 118.053 51.6069 118.246C51.7433 118.439 51.9199 118.6 52.1243 118.717C53.6489 119.596 55.2305 120.372 56.8584 121.038C74.7654 127.798 91.0202 124.108 106.085 113.07C106.434 112.792 106.668 112.394 106.741 111.952C107.264 107.227 109.422 103.296 112.51 99.8074C113.366 98.8401 114.279 97.9175 115.186 96.9502C112.321 92.477 111.803 87.8082 113.951 82.9717C116.148 78.0289 120.07 75.4177 125.343 74.9312C126.918 59.4263 111.881 39.8005 98.8027 40.1527C99.1087 41.8302 99.5482 43.5076 99.6928 45.185C100.36 53.013 97.0059 59.4431 88.2221 60.5837C82.5963 61.2708 76.8936 60.9413 71.3831 59.6108C60.1683 57.0052 56.5079 46.8233 59.2949 37.9385C59.6621 36.7755 60.1572 35.6573 60.6412 34.3936C54.3693 34.882 48.3713 37.1809 43.3683 41.0138C35.647 46.9798 31.1744 55.0259 28.9715 64.397C28.1704 67.8022 27.8589 71.3248 27.3026 74.8697C40.6425 74.2155 47.1233 87.4616 40.8094 96.8831L40.7927 96.8998ZM136.091 98.6499C130.35 104.068 122.273 103.939 116.565 98.7059C113.893 101.085 111.753 104.007 110.285 107.277C108.838 110.632 108.271 114.06 109.172 117.638C110.841 124.465 115.959 127.267 121.85 128.323C122.277 128.3 122.698 128.207 123.096 128.05C122.736 127.706 122.407 127.332 122.111 126.931C121.986 126.622 121.905 126.296 121.872 125.964C122.198 125.974 122.52 126.04 122.823 126.16C123.209 126.452 123.566 126.779 123.891 127.138C124.898 126.081 125.761 125.103 126.712 124.225C127.188 123.889 127.706 123.619 128.253 123.42L127.513 124.985C127.486 125.047 127.464 125.111 127.446 125.176L129.187 126.942C129.349 126.652 129.716 126.266 129.632 126.087C128.715 124.052 130.1 125.114 130.745 125.209C131.858 124.091 132.97 122.973 134.144 121.916C134.339 121.737 134.7 121.754 134.995 121.675C134.98 121.998 134.941 122.32 134.878 122.637C134.776 122.86 134.643 123.067 134.483 123.252L136.23 125.025L137.571 123.61C137.076 123.129 136.606 122.624 136.163 122.095C136.008 121.888 136.046 121.536 135.996 121.239C136.313 121.284 136.742 121.239 136.925 121.396C137.321 121.83 137.682 122.296 138.005 122.788L140.653 120.266C140.115 119.887 139.61 119.463 139.145 118.997C138.911 118.723 138.917 118.237 138.817 117.851C139.179 117.943 139.529 118.074 139.863 118.242C140.619 118.729 141.342 119.282 142.316 119.97L143.428 122.083C145.776 120.266 146.254 118.868 145.492 116.324L144.736 117.141L145.092 118.885L143.729 118.432L142.21 118.868L142.611 117.163C142.555 117.102 142.405 116.928 142.244 116.76C141.687 116.201 141.131 115.642 140.658 115.083C140.604 114.971 140.577 114.849 140.577 114.725C140.577 114.601 140.604 114.479 140.658 114.367C140.708 114.267 141.092 114.233 141.264 114.306C141.546 114.462 141.809 114.65 142.049 114.865C142.288 114.636 142.494 114.457 142.689 114.256C142.883 114.054 143.1 113.786 143.579 113.232C143.083 112.943 142.617 112.604 142.188 112.22C141.96 111.98 141.96 111.521 141.86 111.163C142.21 111.247 142.666 111.225 142.883 111.449C143.273 111.911 143.619 112.409 143.918 112.936L144.63 112.612C144.744 112.075 144.766 111.523 144.697 110.979C143.106 106.031 140.135 102.01 136.102 98.6332L136.091 98.6499ZM97.0337 44.0164C96.127 42.9764 95.4094 42.1377 94.6806 41.3158C94.5917 41.2281 94.4762 41.173 94.3524 41.1592C94.0019 41.1201 93.6459 41.1089 93.2899 41.0865C93.4812 40.6969 93.7025 40.323 93.9519 39.9682C94.3023 39.5377 94.7974 39.2134 95.0978 38.7549C95.215 38.588 95.2959 38.3982 95.3352 38.1978C95.3745 37.9974 95.3713 37.791 95.3259 37.5919C93.564 33.9192 91.0053 30.6902 87.8382 28.1424C86.5721 29.4273 85.0641 30.4459 83.4023 31.139C81.7405 31.8321 79.958 32.1858 78.1588 32.1794C74.5168 32.1907 71.0134 30.777 68.3903 28.2375C65.164 31.0558 62.7282 34.6741 61.3254 38.7325C58.811 46.622 62.4102 54.1592 70.0258 56.9381C70.494 57.0792 70.9694 57.1949 71.4499 57.2848L71.0716 55.6856L72.8017 55.8534C73.23 55.3893 73.8197 54.7351 74.4261 54.0921C75.0196 53.4384 75.6472 52.8169 76.3063 52.2302C76.6878 51.9864 77.1017 51.7982 77.5357 51.671C77.4506 52.1083 77.2926 52.5279 77.0684 52.9123C76.6622 53.3105 76.2124 53.6612 75.7278 53.9579L77.9084 56.1945L79.5773 53.6895C80.3364 53.2139 81.0665 52.693 81.7635 52.1295C81.9861 51.9674 82.381 52.0401 82.6925 52.0065C82.6313 52.2917 82.6592 52.6663 82.4923 52.8396C81.9861 53.3596 81.3797 53.8013 80.7455 54.3605L82.3087 55.8925L84.3892 54.0194L83.6438 52.2805L85.8133 52.8899C86.1135 52.4932 86.4427 52.1194 86.798 51.7717C86.9816 51.6039 87.3543 51.6487 87.638 51.5927C87.599 51.9114 87.6658 52.3308 87.4933 52.5321C87.0966 52.9401 86.6668 53.3141 86.2083 53.6504L87.6435 55.3278L90.3972 52.9179C89.8309 52.4885 89.2938 52.0215 88.7895 51.5201C88.6171 51.3244 88.6949 50.905 88.656 50.5863C88.9453 50.6422 89.3347 50.5863 89.496 50.7652C89.8953 51.233 90.2668 51.724 90.6086 52.2357L92.4666 50.7764C92.1797 50.4688 91.9398 50.1202 91.7545 49.742C91.7045 49.5798 92.1551 49.099 92.1773 49.1157C92.8765 49.4727 93.5334 49.9079 94.1355 50.413C94.6244 50.9696 95.0585 51.5725 95.4316 52.2134C97.7625 50.357 98.3521 49.4177 95.7876 47.5278L93.9463 47.3992C94.2101 46.6803 94.5674 45.9997 95.0088 45.3751C95.6249 44.8393 96.3052 44.3829 97.0337 44.0164ZM128.931 94.4844C128.523 94.2077 128.139 93.8952 127.786 93.5506C127.619 93.3549 127.635 92.9915 127.574 92.7175C127.897 92.7175 128.281 92.6672 128.525 92.8181C128.912 93.102 129.27 93.4242 129.593 93.7798L131.34 92.354L131.179 91.1966C131.602 91.3476 132.136 91.3923 132.425 91.6775C133.051 92.3602 133.64 93.077 134.188 93.8246C134.468 93.5133 134.777 93.2305 135.112 92.9803C135.54 92.7566 136.002 92.6056 136.453 92.4211C136.331 92.861 136.144 93.2796 135.896 93.6624C134.906 94.7807 133.849 95.8151 132.792 96.911C133.004 97.2186 133.209 97.5205 133.421 97.8168C133.421 97.8168 133.504 97.8168 133.549 97.8168C135.574 96.1394 136.942 93.9029 137.148 92.2254L134.984 90.4026L133.538 90.4921C133.652 90.0359 133.84 89.6015 134.094 89.2061C134.592 88.747 135.128 88.3317 135.696 87.9648C135.329 87.5175 135.14 87.4056 135.112 87.2379C135.042 86.9153 134.994 86.5884 134.967 86.2594C135.292 86.293 135.61 86.3798 135.907 86.5166C136.503 86.9304 137.02 87.4224 137.61 87.8809C137.665 82.9549 133.232 78.1575 127.752 77.2069C122.273 76.2564 117.26 79.4435 115.453 84.9287C113.711 90.1902 115.686 96.1562 119.942 98.376C120.226 98.102 120.665 97.8727 120.793 97.5261C120.988 97.0061 120.793 96.1953 121.099 95.8934C121.405 95.5915 122.295 95.7927 122.768 95.5244C123.241 95.256 123.663 94.585 124.175 94.1936C124.63 93.9004 125.11 93.6496 125.61 93.4444C125.393 93.9364 125.171 94.434 124.96 94.9317C124.926 95.0099 124.921 95.105 124.96 94.7919L126.512 96.9054L128.931 94.4844ZM87.1039 16.5906C89.2623 14.5665 89.2623 14.5665 87.6324 12.1175C86.3228 10.065 84.414 8.46967 82.1674 7.54981C79.9208 6.62995 77.4462 6.43057 75.0825 6.97898C70.6322 8.09726 67.2221 12.1678 66.7381 17.0435C66.1818 22.1428 68.5461 26.6327 72.9129 28.7854L74.2202 27.6336C73.6302 27.2699 73.0719 26.8565 72.5514 26.3979C72.34 26.1742 72.3789 25.7213 72.301 25.3691C72.6181 25.4474 73.052 25.4306 73.2356 25.6319C73.6555 26.1626 74.0367 26.7232 74.376 27.3093L76.6735 24.8826L76.4899 23.3953L78.0531 23.6973C78.5899 22.8657 79.1847 22.0734 79.8332 21.3265C80.4091 20.8552 81.0407 20.4571 81.7135 20.1411C81.847 20.4095 82.1196 20.7003 82.0751 20.9351C81.9747 21.2026 81.8148 21.4436 81.6078 21.6396L83.2766 23.5966L85.4351 21.2706C85.0205 20.9889 84.6331 20.6688 84.278 20.3145C84.0833 20.0852 84.0888 19.6882 84.0054 19.3639C84.3559 19.4422 84.812 19.4142 85.0457 19.6267C85.8867 20.356 86.6732 21.1465 87.3988 21.9919C87.7527 22.5157 88.0457 23.0785 88.2721 23.6693C89.4763 21.4062 89.8486 18.789 89.3235 16.2775L87.9384 17.3398L88.8674 19.4366L86.8091 18.6538L85.741 18.8831C85.8022 18.514 85.869 18.1506 85.919 17.7648C85.9378 17.635 85.9378 17.5032 85.919 17.3734C85.8634 17.0044 85.7967 16.6409 85.7299 16.2551L87.1039 16.5906ZM83.5047 28.8917L83.5548 28.4276C82.0695 27.231 83.9553 26.9235 84.1111 26.0289L83.2766 25.2181L81.2851 27.2758L81.6356 27.4603L81.0793 28.6345C80.3561 27.9691 79.9667 28.6345 79.4883 29.0091C79.2936 29.1545 78.932 29.065 78.6539 29.0874C78.6523 28.8019 78.6994 28.5182 78.7929 28.2487C78.9737 27.9691 79.1845 27.7103 79.4216 27.477L77.825 25.7381L75.5998 27.5721L76.9516 29.7472L76.8571 30.2672L83.5047 28.8917ZM81.4131 56.9046L80.0891 55.3669L78.8263 56.5914L78.9988 58.0452C78.6763 57.9732 78.3491 57.9247 78.0197 57.8998C77.7749 57.8998 77.5023 58.0899 77.2798 58.034C77.0573 57.9781 76.6234 57.637 76.6512 57.5699C77.2854 55.9988 75.611 55.9317 75.1492 54.9084L73.091 57.1003C75.4441 59.0405 78.2978 58.062 80.5842 58.705L81.4131 56.9046ZM87.3042 57.1674L85.3906 54.4276C84.8064 55.7527 82.9985 55.9205 83.7217 57.5979C83.4989 57.7782 83.2467 57.9182 82.9763 58.0117C82.5787 58.1119 82.1756 58.1885 81.7691 58.2409L81.8414 58.8001L88.6727 58.4702L88.7895 57.9837L87.3042 57.1674ZM139.701 125.992L138.494 124.37L136.964 125.64C137.35 126.001 137.707 126.392 138.032 126.808C138.165 127.104 138.249 127.419 138.283 127.742C137.962 127.748 137.643 127.693 137.343 127.58C137.039 127.368 136.761 127.123 136.514 126.847L133.971 128.827C136.58 128.933 138.978 128.631 140.942 127.01C140.335 127.093 139.584 127.803 139.334 127.653C137.971 126.819 139.796 126.557 139.701 125.981V125.992ZM32.2091 97.3975C31.7641 97.8672 31.4025 98.2753 31.0131 98.6499C30.6968 98.999 30.3198 99.287 29.9005 99.4998C29.7892 99.5446 29.3442 98.9798 29.1773 98.6388C28.5487 97.4366 27.7087 97.1459 27.1914 97.8224L28.5432 100.367C30.1397 100.473 32.2202 100.501 34.1061 99.4998L32.2091 97.3975ZM39.0237 127.764L38.6287 128.161C39.0014 128.391 39.4242 128.871 39.7413 128.804C40.8873 128.57 41.9998 128.15 43.1124 127.764C42.6062 127.049 42.1055 126.333 41.5882 125.628C41.5214 125.533 41.3601 125.505 41.1654 125.416L39.0237 127.764ZM88.7283 56.2671C90.2359 58.2409 90.5029 58.2856 92.5111 56.9157C90.9145 56.4908 92.411 55.7975 92.3831 55.4228L91.0981 53.8349L88.7283 56.2671ZM33.6555 127.177L33.9837 128.776C33.6038 128.623 33.2083 128.513 32.8043 128.447C32.5596 128.447 32.3037 128.659 32.0534 128.782L32.1702 129.151H36.4369L36.9487 128.061L34.9349 125.824L33.6555 127.177ZM80.5953 22.6461L78.6594 24.4633L80.3839 26.5265L82.4812 24.4968L80.5953 22.6461ZM135.368 125.662L133.699 123.873L131.524 126.109L133.12 127.764L135.368 125.662ZM126.306 125.757C125.824 126.246 125.41 126.799 125.076 127.401C124.932 127.787 125.16 128.726 125.321 128.748C126.595 128.95 127.891 128.983 129.371 129.084C128.748 128.754 128.008 128.486 128.03 128.357C128.292 127.026 127.051 126.797 126.306 125.774V125.757ZM140.669 124.969L142.894 122.682L141.637 121.44L139.412 123.52L140.669 124.969ZM28.2594 126.534L30.3177 129.112L31.6194 127.513L29.5278 125.343L28.2594 126.534ZM42.2335 124.298L43.9024 126.35L45.2152 125.422L43.3016 123.291L42.2335 124.298ZM130.534 94.613L131.646 95.9884L133.449 94.5962L131.947 92.9188L130.534 94.613ZM93.1286 54.3549L94.7696 53.1136L93.4234 51.5648L91.7545 53.0521L93.1286 54.3549ZM28.5988 96.3239L30.0618 97.9342L31.4526 96.6538L29.8337 94.8869L28.5988 96.3239ZM120.732 99.1196L123.88 100.176L124.197 99.7459L122.278 97.5876L120.732 99.1196ZM86.2417 22.3665C83.9331 24.2788 83.9108 24.3403 84.8843 24.9553L87.0594 23.1549L86.2417 22.3665ZM145.047 122.844L144.58 122.447C143.695 123.42 142.794 124.376 141.938 125.371C141.793 125.545 141.854 125.891 141.815 126.16C142.088 126.132 142.488 126.21 142.611 126.059C143.44 125.041 144.224 123.945 145.031 122.872L145.047 122.844ZM124.036 95.9102L123.218 96.7992L124.815 98.5884L125.839 97.828L124.036 95.9102ZM132.675 129.095L130.728 127.015C130.055 127.574 130.055 127.574 130.472 129.095H132.675ZM33.0992 96.57C34.1228 97.6267 34.1728 97.6044 35.8417 95.4517L35.0184 94.708L33.0992 96.57ZM36.4369 96.1338C36.3312 97.4142 34.4343 97.4422 35.2632 99.1364L37.6496 97.2633L36.4369 96.1338ZM137.804 89.0775C137.026 89.4801 136.269 87.8362 135.802 89.2899L137.554 91.191L137.804 89.0775ZM143.567 116.615C145.153 115.24 145.153 115.24 144.235 114.485L142.689 115.76L143.567 116.615ZM96.9503 42.0091L96.1659 39.5041L94.9421 40.5385L96.9503 42.0091ZM96.127 46.2585L97.5177 47.5781V44.9725L96.127 46.2585Z" fill="#558CC9"/>
<path d="M40.8097 96.8818C47.1292 87.4603 40.6484 74.2142 27.2974 74.874C27.8537 71.3291 28.1707 67.8065 28.9662 64.4013C31.1914 55.0302 35.6417 46.9841 43.3631 41.0181C48.371 37.1772 54.3774 34.8741 60.6582 34.3867C60.1742 35.6504 59.6735 36.7687 59.3119 37.9317C56.5305 46.8164 60.1797 56.9983 71.4001 59.6039C76.9106 60.9344 82.6133 61.2639 88.2391 60.5768C97.0229 59.4585 100.372 52.9949 99.7098 45.1781C99.5652 43.5007 99.1201 41.8233 98.8197 40.1459C111.898 39.7936 126.935 59.4194 125.36 74.9244C120.07 75.4108 116.165 78.022 113.968 82.9648C111.815 87.8069 112.332 92.4702 115.203 96.9433C114.29 97.9106 113.383 98.8332 112.527 99.8005C109.445 103.29 107.281 107.215 106.758 111.945C106.685 112.387 106.451 112.786 106.102 113.063C91.0372 124.101 74.7768 127.763 56.8698 121.053C55.2419 120.387 53.6604 119.612 52.1358 118.733C51.9313 118.615 51.7547 118.454 51.6183 118.261C51.4819 118.068 51.3889 117.848 51.3458 117.615C51.1623 109.228 47.2182 102.719 41.149 97.3067C41.0285 97.1712 40.9153 97.0293 40.8097 96.8818Z" fill="transperent"/>
<path d="M45.3377 117.698C44.0805 117.329 43.6689 117.698 44.4087 118.571C44.6924 118.923 45.0207 119.242 45.4156 119.689L43.5187 121.428L41.8498 120.869L42.4061 122.77L41.1211 123.597C40.8319 123.27 40.5094 122.974 40.1587 122.714C39.9139 122.557 39.5301 122.624 39.2074 122.591C39.2337 122.885 39.3109 123.173 39.4355 123.441C39.7713 123.859 40.1336 124.255 40.5203 124.626L37.9391 126.991L36.0032 124.755C36.6763 124.106 37.5052 123.374 38.2283 122.557C38.4258 122.212 38.5561 121.833 38.6122 121.439C38.2053 121.522 37.817 121.68 37.4662 121.903C36.6985 122.641 36.0143 123.469 35.5025 124.033L33.6556 123.569L34.1173 125.208L32.7155 126.455L30.7017 124.162C30.6516 124.341 30.6628 124.246 30.7017 124.162C30.9576 123.636 31.2135 123.116 31.475 122.596C30.934 122.791 30.42 123.054 29.9452 123.379C29.1163 124.112 28.382 124.962 27.5309 125.845C27.1721 125.466 26.7832 125.116 26.3682 124.799C26.0307 124.64 25.6733 124.527 25.3057 124.464C25.3442 124.822 25.436 125.173 25.5783 125.504C25.8506 125.871 26.158 126.21 26.4962 126.516C25.3836 128.322 25.1555 128.412 23.2864 127.908C13.8294 125.364 9.57377 116.452 13.5179 107.343C15.0208 104.042 17.1943 101.094 19.8985 98.6877C22.5212 101.227 26.0199 102.648 29.6614 102.652C31.4673 102.666 33.2576 102.316 34.9261 101.622C36.5947 100.927 38.1073 99.9028 39.3743 98.6094C43.1629 101.647 46.0698 105.652 47.791 110.206C48.0191 110.815 48.2082 111.442 48.3807 112.068C48.7923 113.55 48.7868 113.55 47.4294 114.679C47.0938 114.321 46.7311 113.991 46.3446 113.689C46.0725 113.578 45.7816 113.521 45.4879 113.522C45.476 113.845 45.5251 114.167 45.6326 114.472C45.872 114.799 46.1462 115.099 46.4503 115.367L45.3377 117.698Z" fill="transperent"/>
<path d="M136.103 98.6328C140.136 101.988 143.106 106.03 144.703 111.001C144.773 111.545 144.75 112.097 144.636 112.634L143.924 112.958C143.625 112.431 143.279 111.933 142.889 111.471C142.672 111.253 142.216 111.275 141.866 111.186C141.966 111.543 141.966 112.002 142.194 112.242C142.623 112.626 143.089 112.965 143.585 113.254C143.106 113.813 142.906 114.048 142.695 114.278C142.483 114.507 142.294 114.663 142.055 114.887C141.815 114.672 141.552 114.484 141.271 114.328C141.098 114.255 140.714 114.289 140.664 114.389C140.61 114.501 140.583 114.623 140.583 114.747C140.583 114.871 140.61 114.994 140.664 115.105C141.154 115.698 141.716 116.223 142.25 116.782C142.411 116.95 142.561 117.124 142.617 117.185L142.216 118.89L143.735 118.454L145.098 118.907L144.742 117.163L145.543 116.296C146.299 118.84 145.827 120.244 143.479 122.055L142.366 119.942C141.393 119.248 140.698 118.7 139.913 118.214C139.58 118.046 139.229 117.914 138.867 117.823C138.967 118.214 138.962 118.695 139.196 118.969C139.661 119.435 140.165 119.859 140.703 120.238L138.055 122.76C137.733 122.268 137.372 121.802 136.976 121.367C136.792 121.189 136.364 121.256 136.047 121.211C136.097 121.502 136.047 121.859 136.214 122.066C136.657 122.595 137.127 123.101 137.621 123.582L136.281 124.996L134.534 123.224C134.694 123.038 134.827 122.831 134.929 122.609C134.992 122.292 135.031 121.97 135.046 121.647C134.756 121.72 134.389 121.709 134.194 121.887C133.037 122.961 131.925 124.079 130.796 125.181C130.128 125.086 128.737 124.018 129.683 126.059C129.766 126.238 129.394 126.618 129.238 126.914L127.497 125.147C127.515 125.082 127.537 125.019 127.564 124.957L128.303 123.392C127.757 123.59 127.238 123.861 126.762 124.197C125.806 125.075 124.949 126.053 123.942 127.11C123.617 126.751 123.259 126.424 122.874 126.131C122.57 126.012 122.249 125.945 121.923 125.936C121.956 126.268 122.037 126.594 122.162 126.903C122.457 127.304 122.787 127.678 123.147 128.021C122.748 128.179 122.328 128.272 121.9 128.295C116.009 127.238 110.919 124.437 109.223 117.61C108.338 114.032 108.9 110.582 110.335 107.249C111.793 103.986 113.92 101.069 116.577 98.6887C122.284 103.922 130.362 104.051 136.103 98.6328Z" fill="transperent"/>
<path d="M97.0336 44.0163C96.3101 44.3766 95.6337 44.8254 95.0198 45.3526C94.5783 45.9773 94.2211 46.6579 93.9573 47.3767L95.7986 47.5053C98.3631 49.3729 97.7734 50.3346 95.4426 52.1909C95.0695 51.55 94.6354 50.9471 94.1464 50.3905C93.5443 49.8854 92.8875 49.4503 92.1883 49.0933C92.1883 49.0933 91.721 49.5574 91.7655 49.7195C91.9508 50.0977 92.1907 50.4463 92.4776 50.7539L90.6195 52.2133C90.2778 51.7015 89.9063 51.2105 89.5069 50.7427C89.3456 50.5694 88.9507 50.6197 88.667 50.5638C88.7059 50.8825 88.628 51.3019 88.8005 51.4976C89.3047 51.999 89.8418 52.466 90.4081 52.8954L87.6656 55.2606L86.2304 53.5832C86.6889 53.2469 87.1187 52.8729 87.5154 52.4649C87.6879 52.2636 87.6211 51.8498 87.6601 51.5255C87.3708 51.5759 86.9981 51.5255 86.8201 51.7045C86.4648 52.0522 86.1356 52.426 85.8354 52.8227L83.6436 52.2804L84.4002 54.0584L82.3197 55.9316L80.7565 54.3995C81.4129 53.8404 81.997 53.3987 82.5032 52.8787C82.6757 52.7053 82.6423 52.3195 82.7035 52.0455C82.3864 52.0791 81.997 52.0064 81.7745 52.1686C81.0775 52.732 80.3474 53.253 79.5883 53.7285L77.9194 56.2335L75.7387 53.9969C76.2264 53.7062 76.6799 53.3611 77.0905 52.9681C77.3148 52.5838 77.4728 52.1641 77.5578 51.7268C77.1238 51.854 76.7099 52.0422 76.3284 52.286C75.6693 52.8727 75.0417 53.4943 74.4482 54.1479C73.8362 54.7853 73.2521 55.4451 72.8238 55.9092L71.0937 55.7415L71.472 57.3406C70.9915 57.2507 70.5161 57.135 70.0479 56.9939C62.4267 54.1982 58.8275 46.6778 61.3475 38.7883C62.7354 34.7122 65.164 31.0739 68.3901 28.2374C71.0132 30.7769 74.5166 32.1906 78.1586 32.1793C79.961 32.1872 81.7469 31.8337 83.4118 31.1396C85.0766 30.4454 86.5871 29.4246 87.8548 28.1367C91.0219 30.6845 93.5805 33.9135 95.3424 37.5862C95.3878 37.7853 95.391 37.9917 95.3517 38.1921C95.3124 38.3925 95.2315 38.5823 95.1144 38.7492C94.814 39.2077 94.3189 39.5264 93.9684 39.9625C93.719 40.3173 93.4977 40.6912 93.3064 41.0808C93.6624 41.0808 94.0185 41.1144 94.3689 41.1535C94.4927 41.1673 94.6083 41.2224 94.6971 41.3101C95.4036 42.1432 96.1324 42.9763 97.0336 44.0163Z" fill="transperent"/>
<path d="M128.931 94.4833L126.556 96.9379L125.004 94.8243C124.937 95.1375 124.943 95.0424 125.004 94.9641C125.215 94.4665 125.438 93.9744 125.655 93.4768C125.155 93.682 124.674 93.9328 124.22 94.2261C123.708 94.6175 123.357 95.2549 122.812 95.5568C122.267 95.8588 121.488 95.5904 121.143 95.9258C120.798 96.2613 121.038 97.0441 120.837 97.5585C120.704 97.9052 120.281 98.1177 119.986 98.4084C115.731 96.1719 113.756 90.2226 115.497 84.9611C117.305 79.4983 122.389 76.3056 127.797 77.2394C133.204 78.1732 137.682 82.9762 137.626 87.9022C137.07 87.4437 136.514 86.9461 135.924 86.5379C135.627 86.4011 135.309 86.3142 134.984 86.2807C135.011 86.6097 135.059 86.9366 135.128 87.2592C135.173 87.4157 135.345 87.5388 135.713 87.9861C135.144 88.353 134.608 88.7683 134.11 89.2274C133.857 89.6228 133.669 90.0572 133.554 90.5134L135.001 90.4239L137.165 92.2467C136.964 93.9241 135.596 96.1607 133.565 97.8381C133.521 97.8381 133.448 97.8381 133.437 97.8381C133.226 97.5418 133.02 97.2398 132.809 96.9323C133.866 95.814 134.928 94.7908 135.913 93.6837C136.16 93.3009 136.348 92.8823 136.469 92.4424C136.019 92.6213 135.557 92.7723 135.128 93.0016C134.794 93.2518 134.485 93.5346 134.205 93.8458C133.657 93.0982 133.068 92.3815 132.442 91.6988C132.152 91.408 131.618 91.3689 131.196 91.2179L131.357 92.3753L129.61 93.8011C129.287 93.4455 128.929 93.1233 128.542 92.8394C128.297 92.6884 127.913 92.7667 127.591 92.7388C127.657 93.0239 127.635 93.3762 127.802 93.5719C128.152 93.908 128.529 94.2129 128.931 94.4833Z" fill="transperent"/>
<path d="M40.837 90.0722C40.9037 92.4765 39.7967 94.4111 38.3893 96.3793L37.2267 95.3337C37.7329 94.9926 38.3949 94.7746 38.5117 94.4111C38.7286 93.7178 38.9067 92.7337 38.584 92.2081C37.9269 91.3077 37.1459 90.5057 36.2643 89.8262C36.0863 89.664 35.708 89.7088 35.4354 89.6528C35.4799 89.9771 35.4354 90.4133 35.5967 90.609C36.42 91.4812 37.3157 92.2864 38.2057 93.1363L36.4979 94.6516C36.2812 94.3318 36.109 93.9838 35.9861 93.6171C35.9717 93.2603 36.0149 92.9034 36.1141 92.5604L35.2463 92.7449L33.1602 92.1298L33.9279 93.9023L32.081 95.5797L31.0518 94.0421L30.757 94.2881L30.8905 93.9247L31.3355 92.6498C30.9003 92.7879 30.4822 92.9755 30.0894 93.209C29.611 93.5668 29.2606 94.0924 28.7877 94.4614C28.2314 94.8976 27.5806 95.2386 26.735 95.7754L26.3233 97.2627C25.8975 96.8136 25.4441 96.3915 24.966 95.9991C24.702 95.8849 24.4188 95.8223 24.1316 95.8146C24.1131 96.1335 24.1585 96.4529 24.2651 96.7539C24.558 97.1566 24.8876 97.531 25.2497 97.8722C24.61 99.2029 23.859 99.0967 22.8354 98.3531C20.9824 97.0078 19.5747 95.1336 18.795 92.9739C18.0153 90.8142 17.8996 88.4687 18.463 86.2421C19.6423 81.5285 22.4349 78.2855 27.3302 77.2959C31.7806 76.4068 36.6926 78.7049 39.1737 82.6524C39.2423 82.7963 39.2981 82.946 39.3406 83.0997L38.6619 83.7875H37.0486C37.3268 84.4249 37.6049 85.0791 37.9053 85.6885C37.9777 85.8227 38.3337 85.7892 38.5451 85.8675C39.0346 86.0408 39.5186 86.2253 40.0026 86.4266L39.4073 84.7101L40.0304 84.1118C40.8036 86.1359 41.5212 88.0257 40.8036 90.1225C40.837 89.9883 40.9427 89.7926 40.8926 89.7255C40.086 88.6911 39.2961 87.6399 38.4116 86.6782C38.2224 86.4713 37.6717 86.5999 37.299 86.572C37.3935 86.9298 37.5104 87.2821 37.5827 87.6399C37.6828 88.1264 37.7162 88.624 37.8386 89.1049C37.961 89.5857 38.139 89.966 38.2947 90.3965L39.1125 89.446L40.837 90.0722Z" fill="transperent"/>
<path d="M87.104 16.5896L85.7411 16.2877C85.8023 16.6511 85.8746 17.0145 85.9302 17.4059C85.949 17.5357 85.949 17.6675 85.9302 17.7973C85.8746 18.1664 85.8134 18.5354 85.7522 18.9156L86.8203 18.6864L88.8786 19.4692L87.9496 17.3724L89.3347 16.31C89.8598 18.8216 89.4875 21.4388 88.2833 23.7018C88.0569 23.111 87.7638 22.5482 87.4099 22.0244C86.6844 21.1791 85.8979 20.3885 85.0568 19.6593C84.8176 19.4468 84.367 19.4803 84.0166 19.3965C84.1 19.7208 84.0944 20.1178 84.2892 20.347C84.6511 20.7044 85.046 21.0264 85.4685 21.3087L83.3101 23.6347L81.6412 21.6778C81.8483 21.4817 82.0081 21.2408 82.1085 20.9732C82.153 20.7384 81.8748 20.4477 81.7469 20.1793C81.0625 20.4802 80.4179 20.8652 79.8277 21.3255C79.1792 22.0724 78.5844 22.8646 78.0476 23.6963L76.4899 23.3943L76.668 24.8816L74.376 27.2132C74.0367 26.6271 73.6556 26.0665 73.2356 25.5358C73.0521 25.3345 72.6182 25.3513 72.3011 25.273C72.379 25.6253 72.34 26.0782 72.5514 26.3018C73.0719 26.7604 73.6302 27.1738 74.2203 27.5375L72.913 28.6894C68.5461 26.559 66.2041 22.0692 66.7382 16.9474C67.2444 12.0885 70.6322 8.0012 75.0825 6.88292C77.4507 6.34478 79.9265 6.55619 82.1704 7.48818C84.4143 8.42016 86.3164 10.0271 87.6158 12.0885C89.2846 14.5655 89.2846 14.5655 87.104 16.5896Z" fill="transperent"/>
<path d="M83.505 28.8842L76.8295 30.2597L76.9241 29.7397L75.5723 27.5646L77.7974 25.7307L79.394 27.4696C79.1612 27.7017 78.9541 27.9586 78.7765 28.2356C78.6829 28.5052 78.6359 28.7888 78.6374 29.0743C78.9211 29.0743 79.2827 29.1414 79.4719 28.996C79.967 28.627 80.3397 27.956 81.0629 28.6214L81.6192 27.4472L81.2687 27.2627L83.2602 25.2051L84.1113 25.9991C83.9556 26.8937 82.0698 27.2012 83.5551 28.3978L83.505 28.8842Z" fill="transperent"/>
<path d="M45.3375 117.698L47.5627 116.58L49.1481 117.38C49.2148 120.091 48.8588 122.636 46.1886 124.184L44.3862 122.373L46.3277 120.561C46.5648 120.823 46.834 121.054 47.1287 121.249C47.5009 121.402 47.8891 121.513 48.2858 121.579C48.2185 121.212 48.0907 120.858 47.9076 120.533C47.0954 119.549 46.2387 118.621 45.3653 117.67L45.3375 117.698Z" fill="transperent"/>
<path d="M81.4132 56.8982L80.5899 58.693C78.298 58.05 75.4498 59.0229 73.0967 57.0883L75.155 54.8965C75.6167 55.9197 77.2911 55.9868 76.6569 57.558C76.6569 57.6251 77.0408 57.9606 77.2856 58.0221C77.5303 58.0836 77.7751 57.8879 78.0254 57.8879C78.3548 57.9127 78.682 57.9613 79.0045 58.0333L78.832 56.5795L80.0948 55.355L81.4132 56.8982Z" fill="transperent"/>
<path d="M87.3042 57.1553L88.7728 57.9604L88.656 58.4469L81.8248 58.7768L81.7524 58.2176C82.159 58.1652 82.5621 58.0887 82.9596 57.9884C83.23 57.8949 83.4823 57.7549 83.705 57.5746C83.0041 55.8972 84.8176 55.7295 85.3739 54.4043L87.3042 57.1553Z" fill="transperent"/>
<path d="M139.702 125.98C139.791 126.539 137.972 126.818 139.34 127.657C139.585 127.803 140.342 127.098 140.948 127.014C138.967 128.636 136.592 128.938 133.978 128.831L136.52 126.852C136.767 127.127 137.045 127.373 137.349 127.584C137.649 127.698 137.968 127.753 138.289 127.747C138.256 127.424 138.171 127.109 138.038 126.813C137.713 126.396 137.356 126.005 136.97 125.644L138.5 124.375L139.702 125.98Z" fill="transperent"/>
<path d="M32.2092 97.3965L34.1284 99.51C32.2203 100.511 30.1453 100.483 28.5655 100.377L27.2192 97.827C27.7422 97.1561 28.5766 97.4468 29.2052 98.6434C29.3832 98.9844 29.8171 99.5492 29.9284 99.5044C30.3477 99.2916 30.7247 99.0036 31.041 98.6545C31.4026 98.2743 31.7641 97.8662 32.2092 97.3965Z" fill="transperent"/>
<path d="M128.97 100.214L127.607 97.6531L129.777 95.5508L131.101 96.9374C130.545 97.5301 129.988 98.0557 129.543 98.6149C129.404 98.7826 129.454 99.1069 129.415 99.3585C129.699 99.3585 130.055 99.4536 130.261 99.3194C130.621 99.03 130.956 98.7101 131.262 98.3633C131.874 97.8041 131.88 97.8041 132.714 98.6987L128.943 100.208L128.97 100.214Z" fill="transperent"/>
<path d="M39.0239 127.763L41.1934 125.432C41.3825 125.527 41.5439 125.549 41.6162 125.644C42.1335 126.349 42.6342 127.064 43.1404 127.78C42.0278 128.138 40.9153 128.563 39.7415 128.803C39.43 128.87 39.0072 128.39 38.6289 128.16L39.0239 127.763Z" fill="transperent"/>
<path d="M88.7285 56.266L91.1039 53.8281L92.3889 55.4161C92.4167 55.7851 90.9203 56.484 92.5169 56.909C90.4753 58.2789 90.2138 58.2341 88.7285 56.266Z" fill="transperent"/>
<path d="M33.6556 127.176L34.9183 125.834L36.9321 128.071L36.437 129.15H32.1925L32.0757 128.781C32.326 128.663 32.5875 128.428 32.8267 128.445C33.2307 128.511 33.6262 128.622 34.006 128.775L33.6556 127.176Z" fill="transperent"/>
<path d="M80.5952 22.6445L82.4977 24.4785L80.3838 26.525L78.6426 24.4785L80.5952 22.6445Z" fill="transperent"/>
<path d="M135.368 125.679L133.142 127.781L131.546 126.143L133.721 123.906L135.368 125.679Z" fill="transperent"/>
<path d="M126.306 125.773C127.051 126.797 128.286 127.026 128.036 128.379C128.036 128.508 128.754 128.776 129.377 129.106C127.897 129.005 126.595 128.972 125.327 128.77C125.165 128.77 124.932 127.803 125.082 127.423C125.414 126.82 125.825 126.265 126.306 125.773Z" fill="transperent"/>
<path d="M140.669 124.968L139.351 123.531L141.576 121.451L142.833 122.692L140.669 124.968Z" fill="transperent"/>
<path d="M28.2598 126.533L29.5003 125.342L31.5919 127.511L30.318 129.11L28.2598 126.533Z" fill="transperent"/>
<path d="M42.2334 124.286L43.3015 123.291L45.1929 125.433L43.88 126.361L42.2334 124.286Z" fill="transperent"/>
<path d="M130.534 94.6012L131.952 92.9238L133.454 94.6012L131.652 95.9935L130.534 94.6012Z" fill="transperent"/>
<path d="M93.1285 54.3643L91.7656 53.0615L93.4345 51.5742L94.7807 53.123L93.1285 54.3643Z" fill="transperent"/>
<path d="M28.5767 96.3352L29.8116 94.8926L31.4304 96.6595L30.0397 97.9399L28.5767 96.3352Z" fill="transperent"/>
<path d="M120.709 99.1473L122.262 97.6152L124.181 99.7735L123.864 100.204L120.709 99.1473Z" fill="transperent"/>
<path d="M86.2253 22.3926L87.0597 23.153L84.8958 24.9814C83.8944 24.3663 83.9167 24.3216 86.2253 22.3926Z" fill="transperent"/>
<path d="M145.031 122.872C144.224 123.951 143.44 125.041 142.6 126.087C142.477 126.238 142.077 126.159 141.804 126.187C141.838 125.919 141.804 125.567 141.927 125.399C142.778 124.398 143.684 123.442 144.569 122.475L145.031 122.872Z" fill="transperent"/>
<path d="M128.943 100.203L124.731 100.516L126.35 98.6816L128.959 100.208L128.943 100.203Z" fill="transperent"/>
<path d="M124.019 95.9375L125.85 97.8274L124.826 98.5878L123.229 96.7986L124.019 95.9375Z" fill="transperent"/>
<path d="M132.675 129.094H130.45C130.033 127.584 130.033 127.584 130.706 127.014L132.675 129.094Z" fill="transperent"/>
<path d="M33.0996 96.5695L35.0188 94.7188L35.8421 95.4624C34.1566 97.6039 34.1065 97.6263 33.0996 96.5695Z" fill="transperent"/>
<path d="M36.4371 96.1328L37.6498 97.2511L35.2633 99.1242C34.4067 97.4412 36.3036 97.4132 36.4371 96.1328Z" fill="transperent"/>
<path d="M137.777 89.0818L137.527 91.1953L135.774 89.2942C136.242 87.8405 136.998 89.4843 137.777 89.0818Z" fill="transperent"/>
<path d="M143.54 116.615L142.689 115.759L144.202 114.484C145.125 115.239 145.125 115.239 143.54 116.615Z" fill="transperent"/>
<path d="M96.9506 42.0086L94.9424 40.5381L96.1718 39.498L96.9506 42.0086Z" fill="transperent"/>
<path d="M96.1274 46.2584L97.5182 44.9668V47.5724L96.1274 46.2584Z" fill="transperent"/>
<path d="M40.8376 90.0713L39.0909 89.4395L38.2731 90.39C38.1173 89.9595 37.9282 89.5401 37.8169 89.0984C37.7057 88.6567 37.6612 88.1199 37.561 87.6335C37.4887 87.27 37.3719 86.9178 37.2773 86.5655C37.6612 86.5655 38.2119 86.4648 38.3899 86.6717C39.2744 87.6335 40.0588 88.6846 40.871 89.7191C40.9266 89.7862 40.8154 89.9819 40.782 90.116L40.8376 90.0713Z" fill="#558CC9"/>
</svg>
