<svg width="39" height="38" viewBox="0 0 39 38" fill="none" xmlns="http://www.w3.org/2000/svg">
<path d="M30.3511 8.24763H30.7644C32.2459 8.24763 33.7274 8.24763 35.2088 8.24763C37.3244 8.24763 38.8444 9.78232 38.8444 11.9118C38.8444 18.0952 38.8444 24.2786 38.8444 30.4619C38.8444 32.6004 37.3377 34.1128 35.2103 34.1232C33.7288 34.1232 32.2474 34.1232 30.7659 34.1232H30.3733C29.9925 36.2051 29.0622 37.139 27.4503 37.084C25.8903 37.0305 24.9422 36.0088 24.7481 34.1485H15.0414C14.6726 36.2007 13.7363 37.1405 12.1214 37.084C10.5614 37.029 9.61922 36.0133 9.41625 34.1232H9.0281C7.55847 34.1232 6.09033 34.1232 4.6207 34.1232C2.42366 34.1232 0.9244 32.6138 0.916992 30.4054C0.916992 24.2587 0.916992 18.1121 0.916992 11.9654C0.916992 9.74663 2.42366 8.24763 4.64144 8.23871H9.43551C9.43551 8.08999 9.43551 7.9621 9.43551 7.83124C9.43551 6.45567 9.43551 5.0801 9.43551 3.70453C9.43551 2.00478 10.634 0.804688 12.3318 0.804688C17.3688 0.804688 22.4059 0.804688 27.4429 0.804688C29.1348 0.804688 30.3214 2.01073 30.3259 3.71792C30.3259 5.17974 30.3259 6.64156 30.3259 8.10487C30.3317 8.15288 30.3401 8.20053 30.3511 8.24763ZM29.2148 9.3927H10.5822C10.5719 9.4247 10.5645 9.45754 10.56 9.49084C10.56 12.1676 10.56 14.8444 10.56 17.5212C10.5747 17.5848 10.6031 17.6445 10.6433 17.6959C10.6835 17.7473 10.7344 17.7892 10.7925 17.8186C11.5925 18.2082 12.0163 18.8402 12.0281 19.7295C12.0414 20.7199 12.0474 21.7118 12.0281 22.7037C12.0358 23.092 11.9269 23.4735 11.7155 23.7987C11.5041 24.1239 11.2 24.3777 10.8429 24.5269C10.7473 24.5569 10.6652 24.6196 10.6111 24.7041C10.5569 24.7887 10.5341 24.8897 10.5466 24.9894C10.557 27.5413 10.5466 30.0931 10.5466 32.6465V32.993H29.1911C29.2043 32.9533 29.2138 32.9125 29.2192 32.871C29.2192 30.2076 29.2192 27.5443 29.2192 24.8809C29.2072 24.8166 29.1811 24.7558 29.1426 24.7031C29.1041 24.6503 29.0544 24.6069 28.997 24.576C28.1718 24.17 27.7496 23.5187 27.7481 22.5967C27.7481 21.6434 27.7392 20.6887 27.7481 19.7355C27.7346 19.3356 27.843 18.9412 28.0587 18.6048C28.2745 18.2683 28.5873 18.006 28.9555 17.8528C29.0457 17.8251 29.1232 17.766 29.1739 17.6861C29.2247 17.6063 29.2455 17.5109 29.2326 17.4171C29.2222 15.8437 29.2326 14.2704 29.2326 12.697L29.2148 9.3927ZM6.4444 32.9974C6.45823 32.9629 6.46866 32.927 6.47551 32.8904C6.47551 30.2136 6.47551 27.5368 6.47551 24.86C6.46562 24.8008 6.44249 24.7446 6.40785 24.6957C6.37321 24.6468 6.32796 24.6063 6.27551 24.5775C5.43403 24.173 5.00292 23.5157 5.00292 22.5758C5.00292 21.8948 5.00292 21.2137 5.00292 20.5326C4.98511 20.1617 4.99303 19.79 5.02662 19.4202C5.15107 18.5592 5.67996 18.0104 6.48588 17.7145C6.48588 17.0126 6.47699 16.3315 6.48588 15.6519C6.48333 15.577 6.49629 15.5024 6.52394 15.4328C6.5516 15.3632 6.59334 15.3002 6.64654 15.2476C6.69974 15.195 6.76323 15.1541 6.83299 15.1275C6.90275 15.1008 6.97726 15.089 7.05181 15.0928C7.19577 15.0963 7.33261 15.1563 7.4329 15.2601C7.53319 15.3638 7.58892 15.5029 7.5881 15.6474C7.59996 15.808 7.5881 15.9687 7.5881 16.1308C7.5881 16.6324 7.5881 17.134 7.5881 17.6357H9.41181V9.38526H7.59255C7.59255 9.53397 7.59255 9.67078 7.59255 9.80462C7.59255 10.8208 7.59255 11.8365 7.59255 12.8517C7.59255 13.3499 7.39699 13.6042 7.02662 13.5952C6.65625 13.5863 6.48292 13.3439 6.48144 12.8651C6.48144 11.837 6.48144 10.8089 6.48144 9.78083C6.48144 9.64996 6.48144 9.5191 6.48144 9.36295H4.70366C3.02514 9.36295 2.04588 10.3519 2.04588 12.0397C2.04588 18.1339 2.04588 24.228 2.04588 30.3222C2.04588 30.459 2.04588 30.5943 2.04588 30.7311C2.1081 31.8866 3.03996 32.9008 4.1807 32.9796C4.9244 33.0391 5.67847 32.9974 6.4444 32.9974ZM33.2963 33.0079H35.1022C36.7659 33.0079 37.7392 32.0234 37.7392 30.3459C37.7392 25.2898 37.7392 20.2337 37.7392 15.1775C37.7392 14.0384 37.7481 12.8978 37.7392 11.7572C37.7274 10.6404 36.9644 9.60238 35.9007 9.45515C35.0592 9.33916 34.1896 9.43136 33.3155 9.43136V17.713C34.4192 18.2127 34.7807 18.7808 34.7807 20.0032C34.7807 20.8701 34.7807 21.7371 34.7807 22.6056C34.7807 23.5097 34.3659 24.1715 33.5407 24.5388C33.4605 24.5626 33.3916 24.6147 33.3467 24.6855C33.3018 24.7563 33.2839 24.841 33.2963 24.924C33.3096 25.4564 33.2963 25.9887 33.2963 26.5226C33.2963 27.0223 33.1007 27.2751 32.7303 27.2662C32.36 27.2572 32.1866 27.0148 32.1851 26.5375C32.1837 26.0601 32.1851 25.5456 32.1851 25.0504C32.1851 24.9448 32.1718 24.8377 32.1659 24.7381H30.3511V32.9796H32.1837C32.1837 32.8309 32.1837 32.7134 32.1837 32.5915C32.1837 31.5753 32.1837 30.5596 32.1837 29.5444C32.1837 29.0358 32.3659 28.78 32.7288 28.7726C33.0918 28.7652 33.2948 29.0299 33.2963 29.5608C33.2963 30.1556 33.2963 30.7504 33.2963 31.3453C33.2963 31.8896 33.2963 32.4309 33.2963 33.0079ZM26.9985 8.24019C26.9985 7.03415 26.9985 5.86083 26.9985 4.68602C26.9985 4.25476 26.9066 4.16107 26.48 4.16107H13.2948C12.8651 4.16107 12.7748 4.25328 12.7748 4.68453C12.7748 5.77508 12.7748 6.86562 12.7748 7.95616C12.7748 8.04984 12.7925 8.14353 12.8014 8.24168L26.9985 8.24019ZM29.2207 8.24019C29.2207 8.10784 29.2207 8.01118 29.2207 7.91452C29.2207 6.51515 29.2207 5.11431 29.2207 3.71494C29.2207 2.62936 28.5185 1.93042 27.4281 1.93042C22.4049 1.93042 17.3812 1.93042 12.357 1.93042C11.2474 1.93042 10.5585 2.62639 10.557 3.7432C10.557 5.11827 10.557 6.49334 10.557 7.86842C10.557 7.98739 10.5674 8.10635 10.5733 8.22978H11.6666C11.6666 8.09297 11.6666 7.97251 11.6666 7.85206C11.6666 6.77391 11.6666 5.69576 11.6666 4.61761C11.6666 3.64208 12.2592 3.04426 13.2385 3.04277C17.6691 3.04277 22.1002 3.04277 26.5318 3.04277C27.5244 3.04277 28.1096 3.63762 28.1111 4.64736C28.1111 5.71311 28.1111 6.77887 28.1111 7.84462C28.1111 7.974 28.1111 8.10487 28.1111 8.23871L29.2207 8.24019ZM6.10959 21.2018C6.10959 21.6836 6.1007 22.1669 6.10959 22.6487C6.12144 23.1945 6.45625 23.5811 6.99847 23.596C8.00786 23.6228 9.01823 23.6228 10.0296 23.596C10.5703 23.5811 10.9111 23.1945 10.9185 22.6487C10.9293 21.6841 10.9293 20.719 10.9185 19.7533C10.9185 19.1689 10.557 18.7956 9.97477 18.7867C9.00095 18.7718 8.02712 18.7718 7.05329 18.7867C6.47255 18.7956 6.11996 19.1704 6.10959 19.7548C6.10514 20.2352 6.11107 20.717 6.11255 21.2003L6.10959 21.2018ZM31.2488 18.7823H29.8444C29.2133 18.806 28.8563 19.157 28.8518 19.7801C28.8449 20.7199 28.8449 21.6618 28.8518 22.6056C28.8518 23.2138 29.2029 23.596 29.8029 23.6094C30.7758 23.6292 31.7496 23.6292 32.7244 23.6094C33.3051 23.596 33.6563 23.2138 33.6607 22.6309C33.6696 21.6781 33.6696 20.7254 33.6607 19.7727C33.6607 19.1689 33.2977 18.809 32.6918 18.7912C32.2133 18.7689 31.7318 18.7793 31.2518 18.7793L31.2488 18.7823ZM30.3511 17.6387H32.1674V9.39121H30.3511V17.6387ZM9.42366 32.9885V24.753H7.61033V32.99L9.42366 32.9885ZM10.557 34.141C10.557 34.8846 10.7896 35.4482 11.4296 35.7768C11.712 35.9352 12.0349 36.0056 12.3573 35.9792C12.6797 35.9527 12.987 35.8305 13.24 35.6281C13.7333 35.2638 13.8977 34.7448 13.877 34.141H10.557ZM29.2237 34.141H25.8933C25.8814 34.8087 26.0814 35.356 26.6474 35.7069C26.9161 35.8882 27.2325 35.985 27.5563 35.985C27.88 35.985 28.1964 35.8882 28.4651 35.7069C29.0281 35.359 29.2281 34.8117 29.2177 34.1455L29.2237 34.141Z" fill="white"/>
<path d="M29.2203 9.3922V12.6891C29.2203 14.2625 29.2203 15.8358 29.2203 17.4092C29.2332 17.503 29.2125 17.5984 29.1617 17.6782C29.1109 17.7581 29.0335 17.8172 28.9433 17.8449C28.5751 17.9981 28.2622 18.2604 28.0465 18.5968C27.8307 18.9332 27.7224 19.3277 27.7359 19.7276C27.7255 20.6808 27.7359 21.6355 27.7359 22.5887C27.7359 23.5107 28.1596 24.1636 28.9847 24.5681C29.0421 24.599 29.0919 24.6424 29.1304 24.6952C29.1688 24.7479 29.195 24.8087 29.207 24.8729C29.2188 27.5363 29.2159 30.1997 29.207 32.8631C29.2015 32.9046 29.1921 32.9454 29.1788 32.9851H10.5551V32.6386C10.5551 30.0867 10.5551 27.5348 10.5551 24.9815C10.5426 24.8818 10.5654 24.7808 10.6196 24.6962C10.6737 24.6117 10.7558 24.5489 10.8514 24.519C11.2085 24.3697 11.5126 24.116 11.724 23.7908C11.9354 23.4656 12.0443 23.084 12.0366 22.6958C12.0573 21.7054 12.0514 20.7135 12.0366 19.7216C12.0247 18.8294 11.5996 18.2003 10.801 17.8107C10.7429 17.7812 10.692 17.7393 10.6518 17.6879C10.6116 17.6365 10.5832 17.5769 10.5684 17.5133C10.5566 14.8365 10.561 12.1597 10.5684 9.48291C10.573 9.44961 10.5804 9.41677 10.5907 9.38477L29.2203 9.3922ZM15.3477 12.0541C14.9442 12.0548 14.5559 12.2084 14.2604 12.4841C13.9648 12.7598 13.7839 13.1374 13.7536 13.5412C13.7388 13.8862 13.9299 14.1361 14.2366 14.1807C14.3099 14.1924 14.3848 14.1887 14.4566 14.1697C14.5283 14.1507 14.5954 14.1169 14.6534 14.0704C14.7114 14.024 14.7591 13.9659 14.7934 13.8998C14.8278 13.8338 14.8481 13.7613 14.8529 13.687C14.8988 13.3895 15.0233 13.1754 15.3314 13.1754C15.6396 13.1754 15.7625 13.3955 15.8099 13.687C15.815 13.7613 15.8354 13.8337 15.8698 13.8997C15.9042 13.9657 15.9519 14.0238 16.0098 14.0703C16.0677 14.1169 16.1347 14.1508 16.2063 14.1701C16.278 14.1893 16.3529 14.1934 16.4262 14.1822C16.5738 14.1586 16.7065 14.0785 16.7963 13.9586C16.8861 13.8388 16.9261 13.6886 16.9077 13.5397C16.8777 13.1419 16.7014 12.7696 16.413 12.495C16.1247 12.2205 15.745 12.0633 15.3477 12.0541ZM26.0218 13.5799C26.0218 12.762 25.2573 12.0378 24.4218 12.0541C23.5862 12.0705 22.8647 12.7858 22.8647 13.5858C22.8553 13.7284 22.9002 13.8693 22.9905 13.9798C23.0807 14.0902 23.2095 14.1621 23.3507 14.1807C23.4239 14.1917 23.4987 14.1874 23.5702 14.1679C23.6417 14.1485 23.7084 14.1143 23.7661 14.0676C23.8238 14.0209 23.8711 13.9627 23.9052 13.8967C23.9393 13.8306 23.9593 13.7582 23.964 13.684C24.0114 13.3866 24.1359 13.1739 24.4455 13.1769C24.7551 13.1798 24.8766 13.3985 24.921 13.6914C24.9265 13.7658 24.9472 13.8381 24.982 13.904C25.0167 13.9699 25.0648 14.0278 25.123 14.0741C25.1812 14.1203 25.2483 14.154 25.3202 14.1728C25.392 14.1917 25.467 14.1954 25.5403 14.1836C25.6809 14.1614 25.8083 14.0874 25.8975 13.976C25.9868 13.8647 26.0316 13.724 26.0233 13.5814L26.0218 13.5799ZM19.8914 15.8938C20.1635 15.8903 20.4321 15.8315 20.6809 15.7208C20.9297 15.6101 21.1535 15.4499 21.3388 15.2499C21.5759 14.9911 21.5818 14.6744 21.3655 14.4513C21.1492 14.2283 20.8514 14.2193 20.5699 14.4513C20.0455 14.8811 19.7299 14.8796 19.201 14.4513C18.921 14.2238 18.6277 14.2253 18.407 14.4513C18.1862 14.6774 18.1996 14.9911 18.4396 15.2499C18.6254 15.4505 18.8499 15.6111 19.0995 15.7218C19.3491 15.8325 19.6185 15.891 19.8914 15.8938Z" fill="#5882EF"/>
<path d="M6.44445 32.9982C5.67852 32.9982 4.92445 33.0398 4.17778 32.9878C3.03556 32.9089 2.10371 31.8947 2.04297 30.7393C2.04297 30.6039 2.04297 30.4671 2.04297 30.3303C2.04297 24.2362 2.04297 18.142 2.04297 12.0479C2.04297 10.3541 3.02223 9.37109 4.70075 9.37109H6.47852C6.47852 9.52724 6.47852 9.65811 6.47852 9.78897C6.47852 10.8171 6.47852 11.8451 6.47852 12.8732C6.47852 13.3521 6.66519 13.5959 7.02371 13.6034C7.38223 13.6108 7.58964 13.3565 7.58964 12.8598C7.58964 11.8436 7.58964 10.828 7.58964 9.81276C7.58964 9.67892 7.58964 9.54657 7.58964 9.3934H9.41334V17.6453H7.5926C7.5926 17.1437 7.5926 16.642 7.5926 16.1404C7.5926 15.9798 7.60001 15.8177 7.5926 15.6571C7.59342 15.5125 7.53769 15.3734 7.4374 15.2697C7.33711 15.166 7.20026 15.1059 7.0563 15.1024C6.98175 15.0986 6.90724 15.1105 6.83748 15.1371C6.76772 15.1638 6.70423 15.2047 6.65104 15.2572C6.59784 15.3098 6.55609 15.3729 6.52844 15.4425C6.50078 15.5121 6.48782 15.5867 6.49038 15.6615C6.47704 16.3426 6.49038 17.0222 6.49038 17.7241C5.68445 18.0216 5.15704 18.5688 5.03112 19.4298C4.99753 19.7996 4.98961 20.1713 5.00741 20.5422C5.00741 21.2233 5.00741 21.9044 5.00741 22.5855C5.00741 23.5253 5.43852 24.1826 6.28 24.5871C6.33245 24.616 6.3777 24.6564 6.41234 24.7053C6.44698 24.7543 6.47012 24.8105 6.48001 24.8697C6.48889 27.5464 6.48001 30.2232 6.48001 32.9C6.47117 32.9338 6.45927 32.9666 6.44445 32.9982Z" fill="#5882EF"/>
<path d="M33.2963 33.0077C33.2963 32.4307 33.2963 31.8894 33.2963 31.348C33.2963 30.7532 33.2963 30.1584 33.2963 29.5635C33.2963 29.0326 33.1051 28.7679 32.7288 28.7754C32.3526 28.7828 32.1837 29.0371 32.1837 29.5472C32.1837 30.5634 32.1837 31.579 32.1837 32.5942C32.1837 32.7162 32.1837 32.8381 32.1837 32.9824H30.3511V24.7498H32.1629C32.1629 24.8494 32.1822 24.9565 32.1822 25.0621C32.1822 25.5573 32.1822 26.054 32.1822 26.5492C32.1822 27.0444 32.3689 27.2719 32.7274 27.2778C33.0859 27.2838 33.2918 27.0295 33.2933 26.5343C33.2933 26.0019 33.3022 25.468 33.2933 24.9357C33.2809 24.8527 33.2989 24.768 33.3438 24.6972C33.3887 24.6264 33.4576 24.5743 33.5377 24.5505C34.3644 24.1787 34.7718 23.5185 34.7777 22.6173C34.7777 21.7503 34.7777 20.8833 34.7777 20.0148C34.7777 18.7924 34.4163 18.2303 33.3126 17.7247V9.43709C34.1866 9.43709 35.0563 9.34489 35.8977 9.46088C36.9614 9.60959 37.7244 10.6506 37.7363 11.7629C37.7496 12.902 37.7363 14.0426 37.7363 15.1832C37.7363 20.2394 37.7363 25.2955 37.7363 30.3517C37.7363 32.0291 36.7629 33.0121 35.0992 33.0136L33.2963 33.0077Z" fill="#5882EF"/>
<path d="M26.9986 8.24077H12.806C12.7956 8.14262 12.7793 8.04893 12.7793 7.95524C12.7793 6.8647 12.7793 5.77416 12.7793 4.68362C12.7793 4.25236 12.8697 4.16016 13.2993 4.16016H26.4845C26.9126 4.16016 27.003 4.25384 27.003 4.6851C27 5.85992 26.9986 7.03473 26.9986 8.24077Z" fill="#5882EF"/>
<path d="M29.2208 8.23797H28.1112C28.1112 8.10413 28.1112 7.97327 28.1112 7.84389C28.1112 6.77814 28.1112 5.71238 28.1112 4.64662C28.1112 3.64134 27.5186 3.04353 26.5319 3.04204C22.1013 3.04204 17.6702 3.04204 13.2386 3.04204C12.2653 3.04204 11.6697 3.63688 11.6668 4.61688C11.6668 5.69503 11.6668 6.77318 11.6668 7.85133C11.6668 7.97178 11.6668 8.09224 11.6668 8.22905H10.5734C10.5734 8.10562 10.5571 7.98665 10.5571 7.86768C10.5571 6.49261 10.5571 5.11754 10.5571 3.74246C10.5571 2.62714 11.2475 1.92969 12.3571 1.92969C17.3803 1.92969 22.404 1.92969 27.4282 1.92969C28.5186 1.92969 29.2179 2.62714 29.2208 3.71421C29.2208 5.11357 29.2208 6.51442 29.2208 7.91378C29.2208 8.00896 29.2208 8.10562 29.2208 8.23797Z" fill="#5882EF"/>
<path d="M6.1109 21.1996C6.1109 20.7178 6.1109 20.2345 6.1109 19.7527C6.12127 19.1697 6.47386 18.795 7.0546 18.7846C8.02843 18.7697 9.00225 18.7697 9.97608 18.7846C10.5583 18.7935 10.9139 19.1668 10.9198 19.7512C10.9287 20.7158 10.9287 21.681 10.9198 22.6466C10.9198 23.1924 10.5731 23.5805 10.0309 23.5939C9.02151 23.6207 8.01114 23.6207 6.99979 23.5939C6.45904 23.579 6.12423 23.1924 6.1109 22.6466C6.10349 22.1648 6.11238 21.677 6.1109 21.1996Z" fill="#5882EF"/>
<path d="M31.2518 18.7785C31.7318 18.7785 32.2133 18.768 32.6933 18.7785C33.2993 18.7948 33.6563 19.1562 33.6622 19.7599C33.6711 20.7127 33.6711 21.6654 33.6622 22.6182C33.6622 23.2011 33.3067 23.5833 32.7259 23.5967C31.7531 23.6185 30.7793 23.6185 29.8044 23.5967C29.2118 23.5848 28.8578 23.2026 28.8533 22.5929C28.8464 21.653 28.8464 20.7112 28.8533 19.7674C28.8533 19.1443 29.2148 18.7933 29.8459 18.7695H31.2504L31.2518 18.7785Z" fill="#5882EF"/>
<path d="M30.3511 17.6381V9.39062H32.1674V17.6381H30.3511Z" fill="#5882EF"/>
<path d="M9.42369 32.9895H7.61035V24.7539H9.42369V32.9895Z" fill="#5882EF"/>
<path d="M10.5571 34.1406H13.8786C13.8979 34.7488 13.7305 35.2678 13.2416 35.6277C12.9886 35.8301 12.6813 35.9523 12.3589 35.9787C12.0366 36.0052 11.7136 35.9348 11.4312 35.7764C10.7957 35.4478 10.5557 34.8782 10.5571 34.1406Z" fill="#5882EF"/>
<path d="M29.2175 34.146C29.2279 34.8137 29.0279 35.361 28.4635 35.7105C28.1947 35.8917 27.8783 35.9885 27.5546 35.9885C27.2308 35.9885 26.9144 35.8917 26.6457 35.7105C26.0812 35.361 25.8798 34.8182 25.8916 34.1445L29.2175 34.146Z" fill="#5882EF"/>
<path d="M15.3478 12.0547C15.7451 12.0643 16.1247 12.2218 16.4127 12.4966C16.7007 12.7715 16.8767 13.144 16.9063 13.5418C16.9247 13.6906 16.8848 13.8408 16.7949 13.9607C16.7051 14.0805 16.5724 14.1607 16.4249 14.1842C16.3515 14.1955 16.2766 14.1914 16.205 14.1721C16.1333 14.1529 16.0664 14.1189 16.0085 14.0724C15.9505 14.0258 15.9029 13.9677 15.8685 13.9017C15.834 13.8358 15.8137 13.7633 15.8086 13.689C15.7626 13.3916 15.6397 13.1775 15.33 13.1775C15.0204 13.1775 14.8975 13.3961 14.8515 13.689C14.8467 13.7634 14.8264 13.8359 14.7921 13.9019C14.7577 13.9679 14.71 14.026 14.652 14.0725C14.594 14.119 14.527 14.1528 14.4552 14.1718C14.3834 14.1907 14.3085 14.1945 14.2352 14.1827C13.9286 14.1426 13.7375 13.8853 13.7523 13.5433C13.7822 13.1389 13.9632 12.7608 14.2591 12.4847C14.555 12.2087 14.9439 12.0551 15.3478 12.0547Z" fill="white"/>
<path d="M26.0235 13.5821C26.0335 13.7255 25.9895 13.8675 25.9004 13.98C25.8113 14.0926 25.6835 14.1676 25.542 14.1903C25.4687 14.202 25.3937 14.1983 25.3219 14.1795C25.2501 14.1606 25.1829 14.127 25.1247 14.0807C25.0665 14.0344 25.0185 13.9765 24.9837 13.9107C24.949 13.8448 24.9282 13.7724 24.9228 13.6981C24.8783 13.4007 24.7569 13.1865 24.4472 13.1835C24.1376 13.1806 24.0131 13.4006 23.9657 13.6906C23.961 13.7649 23.941 13.8373 23.9069 13.9033C23.8729 13.9694 23.8255 14.0276 23.7678 14.0743C23.7102 14.121 23.6435 14.1551 23.5719 14.1746C23.5004 14.1941 23.4257 14.1984 23.3524 14.1873C23.2113 14.1687 23.0825 14.0969 22.9922 13.9864C22.9019 13.8759 22.857 13.7351 22.8665 13.5925C22.8665 12.7924 23.5924 12.0756 24.4235 12.0608C25.2546 12.0459 26.0176 12.7627 26.0235 13.5821Z" fill="white"/>
<path d="M19.892 15.8951C19.6192 15.8925 19.3498 15.8342 19.1002 15.7238C18.8506 15.6133 18.626 15.4531 18.4401 15.2527C18.2001 14.994 18.1927 14.6802 18.4075 14.4541C18.6223 14.2281 18.9231 14.2192 19.2016 14.4541C19.7305 14.8854 20.046 14.8854 20.5705 14.4541C20.8505 14.2251 21.1438 14.2251 21.366 14.4541C21.5883 14.6832 21.5764 14.9954 21.3394 15.2527C21.1539 15.4525 20.93 15.6124 20.6812 15.7228C20.4325 15.8332 20.164 15.8918 19.892 15.8951Z" fill="white"/>
</svg>
