<svg width="29" height="36" viewBox="0 0 29 36" fill="none" xmlns="http://www.w3.org/2000/svg">
<path d="M16.9434 26.21H7.17773V36H5.85938V26.21H0.976562V24.8916H5.85938V20.9854H0.976562V19.667H5.85938V0.453125H16.9678C20.5973 0.453125 23.4131 1.37272 25.415 3.21191C27.4333 5.03483 28.4424 7.57389 28.4424 10.8291C28.4424 14.0518 27.4577 16.542 25.4883 18.2998C23.5352 20.0576 20.752 20.9528 17.1387 20.9854H7.17773V24.8916H16.9434V26.21ZM7.17773 19.667H16.9678C20.1742 19.667 22.6644 18.8939 24.4385 17.3477C26.2288 15.8014 27.124 13.6449 27.124 10.8779C27.124 8.01335 26.2288 5.78353 24.4385 4.18848C22.6644 2.57715 20.1742 1.77148 16.9678 1.77148H7.17773V19.667Z" fill="white"/>
</svg>
